<svg width="236" height="119" viewBox="0 0 236 119" fill="none" xmlns="http://www.w3.org/2000/svg">
<g clip-path="url(#clip0_399_760)">
<path d="M69.3839 88.4066L0 91.0783V13.4216L69.3839 16.6955V88.4066Z" fill="white"/>
<path d="M60.9054 58.5529C60.8152 58.4651 60.6799 58.4024 60.5446 58.4024L49.5068 58.4274C49.2587 58.4274 49.0445 58.5905 49.0107 58.8038C48.5935 61.3124 47.421 63.357 45.5156 64.9124C43.6102 66.4553 40.893 67.2706 37.4204 67.3082C34.8272 67.3459 32.5836 66.9946 30.7797 66.2922C28.9644 65.5898 27.4649 64.6114 26.3375 63.4198C25.1987 62.2156 24.3531 60.8232 23.8232 59.3055C23.2933 57.7626 23.0227 56.1571 23.0227 54.5139C23.0227 52.8707 23.2933 51.1271 23.8232 49.5341C24.3419 47.9536 25.1875 46.5362 26.3375 45.3195C27.4649 44.1028 28.9644 43.1369 30.7797 42.4345C32.5949 41.7321 34.8272 41.4059 37.4204 41.4436C38.8184 41.4687 40.1827 41.6568 41.4567 42.0206C42.7195 42.3718 43.8695 42.861 44.8616 43.4756C45.8538 44.0777 46.6768 44.7801 47.3421 45.5704C47.9734 46.3355 48.3906 47.1885 48.5823 48.1042C48.6274 48.3174 48.8303 48.4679 49.0783 48.4805L60.1274 48.5808C60.2627 48.5808 60.398 48.5306 60.4882 48.4303C60.5784 48.3299 60.6235 48.2045 60.601 48.0791C60.2515 45.7962 59.4059 43.7265 58.0755 41.9328C56.7451 40.1391 55.0313 38.5962 52.9681 37.3544C50.9048 36.1126 48.5372 35.1217 45.9102 34.4318C43.2719 33.7419 40.4194 33.3405 37.4204 33.2652C33.2262 33.1523 29.3591 33.6039 25.9316 34.6199C22.4703 35.6359 19.4938 37.1286 17.081 39.0352C14.657 40.9544 12.7628 43.2624 11.455 45.8965C10.1471 48.5306 9.48193 51.4407 9.48193 54.539C9.48193 57.6372 10.1471 60.4093 11.455 63.0184C12.7628 65.6149 14.657 67.8978 17.081 69.7793C19.4938 71.6608 22.4703 73.1284 25.9316 74.1444C29.3478 75.1479 33.215 75.612 37.4204 75.5117C40.769 75.4364 43.8695 74.9974 46.6205 74.1946C49.3715 73.3918 51.7955 72.2629 53.8362 70.8204C55.8656 69.3779 57.5117 67.6344 58.7407 65.6399C59.9583 63.6455 60.7363 61.3877 61.0294 58.9417C61.0407 58.8163 60.9956 58.6909 60.9054 58.6031V58.5529Z" fill="white"/>
<path d="M115.655 114.472L53.9941 119V38.9475L115.655 40.1893V114.472Z" fill="white"/>
<path d="M60.2627 102.43C59.9132 101.577 59.6765 100.498 59.6765 99.1812V98.5289C59.8005 97.3499 60.026 96.3965 60.3868 95.5812H63.5549L66.8133 95.6439L66.351 85.2454L66.2383 77.3555C66.2383 74.8218 66.351 72.2127 66.4751 69.3152L67.1741 61.5633L68.2113 53.247C70.0604 52.8205 72.4731 52.4066 75.1001 52.1306C77.5918 51.8547 79.8467 51.7919 81.8649 51.8045L84.9879 51.8923C84.5482 54.6518 84.21 57.4867 83.9845 60.3215C83.5335 64.9375 83.3193 69.6162 83.3193 74.2197C83.3193 81.5952 83.8718 88.8077 84.7625 95.0669L94.0978 94.4147L94.8532 81.4447C96.1498 81.1938 98.089 80.9304 100.242 80.8552H102.17C105.981 80.9555 108.822 81.6203 110.491 82.1848V89.5854L110.694 96.8481C102.588 98.7798 92.1361 100.737 79.4972 101.79L73.7133 102.179C68.8991 102.443 64.953 102.443 60.2627 102.405V102.43Z" fill="white"/>
<path d="M143.244 71.8113L94.8532 81.4447L82.2933 15.742L132.138 9.93433L143.244 71.8113Z" fill="white"/>
<path d="M108.958 61.6135C107.763 61.8016 106.725 61.5633 106.658 61.1745C106.579 60.7229 107.064 60.3717 108.574 59.7821C110.299 59.1173 110.773 58.302 110.897 57.7125C111.066 56.8846 110.514 52.6449 109.668 47.5773C109.386 45.909 109.24 45.0059 108.98 44.3662C108.834 43.9272 107.83 43.438 106.331 42.6728C105.812 42.3467 105.237 42.0707 105.181 41.7321C105.102 41.2805 105.936 40.716 107.255 40.3648C110.39 39.4993 115.396 37.4171 116.534 37.0533C116.895 36.953 117.324 37.3418 117.369 37.5676C117.549 40.0261 118.71 47.6024 119.24 50.801C119.409 51.8421 119.759 53.5355 120.153 55.4546C120.48 57.0351 121.044 57.286 122.995 57.4365C124.111 57.5368 124.742 57.7752 124.821 58.2769C124.9 58.7787 123.874 59.2177 122.724 59.3933C122.217 59.4685 118.135 59.9577 116.534 60.2086C114.189 60.5849 110.232 61.4379 108.969 61.6386L108.958 61.6135ZM115.971 28.9628C116.309 31.0199 113.795 33.0269 111.799 33.2778C111.055 33.3656 109.364 33.2401 108.36 32.6757C107.357 32.1739 106.545 31.4088 106.331 30.1168C106.207 29.3893 106.387 28.16 107.244 27.3196C108.033 26.5419 109.589 25.852 111.077 25.6764C113.964 25.3503 115.745 27.583 115.971 28.9628Z" fill="white"/>
<path d="M176.538 91.1285L130.718 88.0804L137.809 23.9707L182.818 30.7442L176.538 91.1285Z" fill="white"/>
<path d="M142.319 45.0437C143.909 44.6172 147.585 43.6012 148.847 43.1747C150.257 42.698 151.294 42.1461 151.666 42.1587C152.038 42.1712 152.624 42.9364 152.624 43.1872C152.624 43.6262 152.545 45.1942 152.545 45.7586C152.545 46.1349 153.064 46.1475 153.132 46.0848C156.063 44.1782 158.758 42.8611 162.14 42.9113C165.522 42.9614 167.777 44.5545 168.758 45.5579C170.303 47.176 171.284 49.8227 171.284 52.9586C171.284 54.3133 171.419 63.3195 171.498 64.185C171.633 65.1007 171.983 65.778 173.798 66.1794C175.117 66.4679 175.67 66.769 175.67 67.3083C175.67 67.7975 174.982 68.2366 173.651 68.2616C171.972 68.2867 168.679 68.224 166.695 68.2616C164.914 68.2867 161.768 68.5251 160.765 68.5501C159.615 68.5752 158.667 68.4623 158.667 67.647C158.667 67.208 159.468 66.8317 160.404 66.5683C162.061 66.054 162.343 65.4268 162.49 63.3697C162.636 61.3251 162.704 53.498 162.704 51.7042C162.704 50.9642 162.422 49.3461 161.34 48.4053C160.55 47.7154 158.961 47.0757 157.439 47.0506C155.172 47.0255 154.372 47.452 153.414 47.8785C153.12 48.0039 152.827 48.882 152.748 49.1956C152.602 50.3245 152.816 63.9091 152.895 64.6617C152.974 65.5397 153.12 65.916 155.387 66.5808C156.041 66.8191 156.559 67.2582 156.559 67.6345C156.559 68.1362 155.759 68.5878 154.507 68.6003C152.816 68.6254 149.783 68.5501 148.227 68.5752C145.465 68.6254 142.06 68.8637 140.854 68.8888C139.489 68.9139 138.723 68.4749 138.723 67.8979C138.723 67.3836 139.489 67.0575 140.324 66.7815C142.827 66.0414 143.131 65.6024 143.357 63.1815C143.582 61.2749 143.808 56.4331 143.808 50.0109C143.808 49.3084 143.131 48.7314 141.384 47.314C140.933 46.8625 140.854 46.737 140.854 46.5363C140.854 46.1475 141.688 45.2694 142.297 45.0938L142.319 45.0437Z" fill="white"/>
<path d="M210.474 106.13L165.421 93.9882L184.96 28.2729L227.747 44.015L210.474 106.13Z" fill="white"/>
<path d="M202.368 86.1611L198.512 61.2372L211.545 50.3369C211.647 50.2616 211.692 50.1236 211.669 49.9857C211.647 49.8477 211.557 49.7473 211.444 49.6972L205.074 47.4644C204.972 47.4268 204.848 47.4519 204.769 47.5271L191.995 58.578L196.043 44.6798C196.099 44.4916 195.998 44.2784 195.817 44.2157L190.496 42.3467C190.315 42.284 190.112 42.3843 190.056 42.585L179.21 79.513C179.153 79.7137 179.255 79.927 179.447 79.9771L184.937 81.5952C185.129 81.6454 185.321 81.5325 185.377 81.3318L188.816 69.5159L192.683 66.2797L195.13 84.3674C195.152 84.5053 195.242 84.6182 195.366 84.6558L201.951 86.5875C202.063 86.6252 202.187 86.5875 202.278 86.4997C202.368 86.4119 202.413 86.2865 202.39 86.1611H202.368Z" fill="white"/>
<path d="M81.8874 76.5152L14.6457 78.1709V1.76855L81.8874 5.87027V76.5152Z" fill="black"/>
<path d="M73.6682 46.9879C73.5781 46.9001 73.454 46.8374 73.3187 46.8374L62.6079 46.712C62.3711 46.712 62.1682 46.8625 62.1231 47.0757C61.7172 49.5343 60.5784 51.5412 58.7294 53.0339C56.8804 54.5266 54.2421 55.2917 50.8823 55.2917C48.368 55.2917 46.2033 54.928 44.4445 54.2004C42.6856 53.4729 41.2312 52.5071 40.1376 51.3154C39.0327 50.1113 38.2096 48.7315 37.7023 47.2263C37.1949 45.696 36.9243 44.1155 36.9243 42.4974C36.9243 40.8793 37.1836 39.1608 37.7023 37.6054C38.2096 36.0626 39.0327 34.6702 40.1376 33.4911C41.2312 32.3121 42.6856 31.3838 44.4445 30.7065C46.2033 30.0417 48.368 29.7406 50.8823 29.8159C52.2352 29.8535 53.5544 30.0668 54.7946 30.4305C56.0235 30.7943 57.1397 31.296 58.098 31.9107C59.0564 32.5128 59.8569 33.2277 60.4995 34.0054C61.1196 34.7706 61.5255 35.611 61.6946 36.5141C61.7397 36.7274 61.9427 36.8779 62.1682 36.8904L72.879 37.1413C73.0143 37.1413 73.1496 37.0911 73.2398 37.0033C73.33 36.9155 73.3751 36.7901 73.3526 36.6646C73.0143 34.4068 72.1913 32.3622 70.906 30.5685C69.6094 28.7873 67.952 27.2445 65.9564 25.9901C63.9608 24.7358 61.6608 23.7323 59.1127 23.0173C56.5534 22.3024 53.7911 21.8759 50.8823 21.7504C46.8121 21.5874 43.069 21.9762 39.7542 22.9295C36.4057 23.8954 33.5194 25.3128 31.1855 27.1567C28.8404 29.0131 27.0027 31.2584 25.7399 33.8298C24.4772 36.4138 23.8345 39.2611 23.8345 42.2967C23.8345 45.3322 24.4772 48.0792 25.7399 50.6632C27.0027 53.2346 28.8404 55.505 31.1968 57.399C33.5307 59.2805 36.417 60.7607 39.7655 61.8143C43.0803 62.8554 46.8234 63.3572 50.8936 63.3195C54.1406 63.2945 57.1397 62.8931 59.8118 62.153C62.4838 61.4004 64.829 60.3217 66.802 58.9293C68.7638 57.537 70.3648 55.8436 71.5599 53.8868C72.7437 51.9426 73.4879 49.7224 73.781 47.3141C73.7923 47.1886 73.7472 47.0757 73.6682 46.9754V46.9879Z" fill="white"/>
<path d="M126.828 102.856L66.9711 106.431V27.583L126.828 29.6276V102.856Z" fill="black"/>
<path d="M73.0482 90.1877C72.7099 89.3347 72.4731 88.2685 72.4731 86.9765V86.3243C72.5859 85.1703 72.8114 84.2295 73.1609 83.4267L76.2389 83.4644L79.407 83.5773L78.956 73.3292L78.8433 65.5648C78.8433 63.0687 78.956 60.4973 79.0688 57.6499L79.7453 50.0235L80.76 41.8451C82.5526 41.4563 84.8978 41.0674 87.4458 40.8291C89.8699 40.5908 92.0571 40.5657 94.0189 40.6033L97.0518 40.7287C96.6233 43.4381 96.2964 46.2228 96.0822 49.02C95.6537 53.5607 95.4282 58.1642 95.4282 62.7049C95.4282 69.9676 95.9694 77.0797 96.8376 83.2637L105.902 82.7494L106.635 69.9801C107.898 69.7543 109.781 69.516 111.867 69.4784L113.738 69.516C117.448 69.654 120.199 70.3564 121.822 70.9334V78.2337L122.025 85.3961C114.144 87.1898 103.997 88.971 91.7189 89.8239L86.1041 90.125C81.4252 90.3131 77.6031 90.2629 73.0482 90.1626V90.1877Z" fill="white"/>
<path d="M153.662 61.1746L106.624 70.0177L94.4248 5.09265L142.86 0L153.662 61.1746Z" fill="black"/>
<path d="M120.334 50.6507C119.173 50.8263 118.169 50.5754 118.101 50.1865C118.034 49.7475 118.496 49.3963 119.962 48.8444C121.63 48.2047 122.093 47.4144 122.228 46.8374C122.386 46.0221 121.856 41.8326 121.044 36.8277C120.774 35.172 120.627 34.294 120.379 33.6542C120.232 33.2278 119.263 32.726 117.808 31.9483C117.312 31.6096 116.737 31.3462 116.692 31.0076C116.625 30.5685 117.425 30.0166 118.71 29.6905C121.754 28.8752 126.625 26.8933 127.73 26.5421C128.079 26.4417 128.497 26.8431 128.542 27.0564C128.722 29.4898 129.85 36.9657 130.357 40.1267C130.526 41.1552 130.864 42.8361 131.248 44.7301C131.575 46.2981 132.116 46.5489 134.01 46.7245C135.104 46.8374 135.712 47.0883 135.791 47.5775C135.87 48.0667 134.867 48.4806 133.751 48.6562C133.255 48.7315 129.286 49.1454 127.73 49.3712C125.453 49.7099 121.608 50.5001 120.379 50.6757L120.334 50.6507ZM127.144 18.5519C127.471 20.5839 125.024 22.5282 123.085 22.7414C122.363 22.8167 120.728 22.6661 119.748 22.1017C118.778 21.5874 117.989 20.8223 117.775 19.5554C117.662 18.8278 117.831 17.6237 118.665 16.8083C119.432 16.0557 120.943 15.3909 122.386 15.2404C125.182 14.9519 126.918 17.1721 127.144 18.5519Z" fill="white"/>
<path d="M186.076 80.7048L141.474 77.0547L148.374 13.9233L192.198 21.186L186.076 80.7048Z" fill="black"/>
<path d="M152.76 34.758C154.304 34.3692 157.878 33.4033 159.118 33.002C160.494 32.5504 161.497 32.0236 161.858 32.0361C162.219 32.0487 162.794 32.8138 162.794 33.0647C162.794 33.5037 162.726 35.0465 162.726 35.611C162.726 35.9873 163.234 35.9998 163.301 35.9371C166.154 34.1058 168.77 32.8263 172.073 32.9267C175.376 33.027 177.552 34.6201 178.522 35.6235C180.033 37.2417 180.991 39.8632 180.991 42.9615C180.991 44.2911 181.127 53.1844 181.194 54.0374C181.329 54.9405 181.668 55.6053 183.438 56.0318C184.723 56.3328 185.264 56.6339 185.264 57.1732C185.264 57.6499 184.588 58.0764 183.302 58.0764C181.668 58.0764 178.454 57.9635 176.526 57.976C174.79 57.976 171.723 58.1767 170.743 58.1767C169.615 58.1767 168.702 58.0638 168.702 57.261C168.702 56.8346 169.48 56.4583 170.393 56.2199C172.005 55.7307 172.287 55.1161 172.422 53.0966C172.558 51.0771 172.637 43.3629 172.637 41.5942C172.637 40.8542 172.355 39.2612 171.306 38.3204C170.54 37.6305 168.984 36.9657 167.507 36.9281C165.308 36.8653 164.519 37.2793 163.594 37.6932C163.313 37.8061 163.019 38.6716 162.952 38.9852C162.805 40.1016 163.019 53.498 163.098 54.2381C163.166 55.1036 163.313 55.4799 165.522 56.1572C166.165 56.4081 166.661 56.8346 166.661 57.2109C166.661 57.7001 165.883 58.1391 164.666 58.1391C163.019 58.1391 160.066 58.0262 158.555 58.0262C155.86 58.0262 152.557 58.2269 151.384 58.2269C150.054 58.2269 149.31 57.7879 149.31 57.2234C149.31 56.7217 150.054 56.4081 150.865 56.1447C153.301 55.4548 153.594 55.0158 153.819 52.6325C154.045 50.751 154.259 45.9845 154.259 39.65C154.259 38.9601 153.594 38.3831 151.903 36.9532C151.463 36.5016 151.384 36.3762 151.384 36.188C151.384 35.8117 152.196 34.9462 152.782 34.7831L152.76 34.758Z" fill="white"/>
<path d="M219.144 95.9952L175.241 83.364L194.284 18.7776L236 34.8709L219.144 95.9952Z" fill="black"/>
<path d="M211.252 76.1639L207.487 51.5034L220.193 40.9167C220.283 40.8415 220.34 40.7035 220.317 40.5781C220.294 40.4526 220.216 40.3397 220.092 40.2896L213.879 37.9941C213.778 37.9565 213.665 37.9816 213.575 38.0443L201.116 48.7815L205.051 35.1217C205.108 34.9335 205.006 34.7203 204.826 34.6575L199.639 32.7384C199.459 32.6757 199.267 32.776 199.211 32.9642L188.647 69.265C188.59 69.4657 188.692 69.6664 188.872 69.7291L194.228 71.3974C194.408 71.4601 194.6 71.3472 194.656 71.1465L198.005 59.5313L201.782 56.3829L204.161 74.2824C204.183 74.4204 204.273 74.5333 204.397 74.5709L210.813 76.5779C210.925 76.6155 211.038 76.5779 211.128 76.49C211.218 76.4022 211.252 76.2768 211.241 76.1514L211.252 76.1639Z" fill="white"/>
</g>
<defs>
<clipPath id="clip0_399_760">
<rect width="236" height="119" fill="white"/>
</clipPath>
</defs>
</svg>
