<svg width="464" height="221" viewBox="0 0 464 221" fill="none" xmlns="http://www.w3.org/2000/svg">
<g clip-path="url(#clip0_416_880)">
<path d="M308.11 96.0601H234.86V194.59H308.11V96.0601Z" fill="white"/>
<path d="M241.82 174.61C241.42 173.53 241.16 172.17 241.16 170.54V169.73C241.29 168.28 241.56 167.11 241.95 166.11L245.51 166.29L249.2 166.56L248.67 153.55L248.54 143.7C248.54 140.54 248.67 137.28 248.8 133.67L249.59 124L250.78 113.61C252.89 113.07 255.66 112.53 258.69 112.16C261.59 111.8 264.23 111.71 266.6 111.71L270.29 111.8C269.76 115.32 269.37 118.94 269.1 122.55C268.57 128.42 268.31 134.39 268.31 140.26C268.31 149.66 268.97 158.88 270.02 166.92L281.23 166.65L282.15 149.93C283.73 149.66 286.11 149.39 288.74 149.39L291.11 149.48C295.86 149.75 299.42 150.75 301.52 151.56V161.32L301.78 170.9C291.63 172.89 278.84 174.7 263.81 175.15L257.09 175.24C251.55 175.24 247.07 174.97 241.8 174.61H241.82Z" fill="white"/>
<path d="M366.23 82.0298H302.14V165.46H366.23V82.0298Z" fill="white"/>
<path d="M321.23 151.07C318.78 151.03 315.66 150.83 314.62 150.5C318.85 135.17 322.79 119.05 326.8 101.34C328.43 101.21 330.59 101.08 332.59 101.11C334.59 101.14 336.45 101.33 337.57 101.5C341.36 118.92 345.81 134.94 351.08 151.44C349.97 151.58 348.63 151.56 347 151.54C344.55 151.5 342.17 151.31 341.73 151.07C341.73 151.07 340.02 141.65 338.54 136.89C337.8 134.59 337.43 134.35 333.19 134.28H332.82C326.88 134.19 326.29 134.65 325.77 136.85C324.66 141.49 323.62 151.03 323.62 151.03C323.03 151.1 322.14 151.09 321.24 151.07H321.23ZM334.67 114.88C333.71 110.92 333.19 109.33 332.07 109.32C330.95 109.31 330.29 111.5 329.32 115.44L327.32 123.86C326.95 125.51 326.65 126.69 326.65 127.48C326.65 129.3 327.99 129.39 332.07 129.46H332.44C336.15 129.52 337.42 129.46 337.42 127.57C337.42 126.78 337.27 125.75 336.9 124.25L334.67 114.9V114.88Z" fill="white"/>
<path d="M453.5 84.6201H352.66V220.27H453.5V84.6201Z" fill="white"/>
<path d="M423.41 124.46C423.72 123.55 424.12 122.89 424.6 122.47C425.36 121.79 426.44 121.33 427.81 121.09L429.7 120.76C430.52 120.62 431.13 119.9 431.13 119.07V117.12C431.13 116.61 430.91 116.13 430.52 115.8C430.13 115.47 429.63 115.34 429.12 115.43L406.62 119.42C405.98 119.53 405.46 120 405.28 120.61L393.21 160.6L381.77 125.33C381.51 124.51 380.67 124.02 379.84 124.17L362.34 127.28C361.52 127.43 360.92 128.14 360.92 128.97V130.59C360.92 131.1 361.14 131.58 361.53 131.9C361.92 132.23 362.43 132.36 362.93 132.28L364.23 132.06C364.71 131.98 365.38 131.93 365.77 132.19C366.25 132.51 366.4 132.83 366.47 133.05C366.51 133.19 366.73 134.08 366.73 138.21V176.52C366.73 180 366.69 180.72 366.69 180.8C366.45 182.31 366.13 183.12 365.9 183.54C365.64 184.03 365.26 184.41 364.74 184.72C364.23 185.02 363.66 185.16 363.05 185.14H362.63C361.69 185.14 360.92 185.92 360.92 186.86V188.48C360.92 189.43 361.69 190.2 362.64 190.2H377.18C378.13 190.2 378.9 189.43 378.9 188.48V186.79C378.9 186.33 378.72 185.9 378.39 185.57C378.06 185.25 377.57 185.04 377.17 185.07C375.7 185.1 374.58 184.78 374 184.18C373.32 183.49 372.89 182.59 372.68 181.47C372.63 181.14 372.54 180.02 372.54 176.21V144.38L386.67 189C386.9 189.71 387.56 190.2 388.31 190.2H389.15C389.9 190.2 390.57 189.71 390.79 188.99L406.57 138.13V176.91C406.57 181.36 406.32 182.41 406.24 182.64C405.98 183.4 405.65 183.96 405.28 184.23C404.67 184.69 403.79 184.93 402.67 184.94H401.02C400.08 184.95 399.31 185.72 399.31 186.66V188.47C399.31 189.42 400.08 190.19 401.03 190.19H429.44C430.39 190.19 431.16 189.42 431.16 188.47V186.52C431.16 186.06 430.98 185.63 430.65 185.3C430.33 184.98 429.89 184.8 429.44 184.8H427.54C426.26 184.78 425.33 184.58 424.68 184.13C424.03 183.68 423.63 183.19 423.44 182.64C423.33 182.32 423.08 181.09 423.08 176.5V130.4C423.08 125.95 423.33 124.75 423.44 124.44L423.41 124.46Z" fill="white"/>
<path d="M61.22 44.3398H0V157.23H61.22V44.3398Z" fill="white"/>
<path d="M39.33 72.5302C39.6 72.5302 40.42 73.0402 40.49 74.7602C40.49 74.2502 40.69 79.9002 40.69 81.9502C40.69 83.8302 39.4 84.0102 38.92 84.0102H32.86C32.38 84.0102 32.18 84.8702 32.18 85.2102V118.77C32.18 123.05 32.45 124.93 33.13 126.65C33.61 127.85 35.17 129.39 36.12 129.39C36.73 129.39 38.16 128.19 38.91 126.99C39.45 126.13 39.86 125.79 40.13 125.79C40.4 125.79 40.68 126.99 40.68 128.87C40.68 130.58 39.93 133.15 39.52 134.18C37.68 139.32 34.75 142.57 31.55 142.57C28.83 142.57 26.24 139.49 25.01 135.55C24.12 132.64 23.65 130.58 23.65 123.05C23.65 116.71 23.92 92.2302 23.92 86.2302C23.92 85.0302 22.76 83.8302 21.26 82.2902C20.72 81.7802 20.51 80.2302 20.51 78.8602C20.51 78.1702 20.51 78.0002 20.85 77.4902C24.73 71.3302 27.05 67.3902 28.88 62.7602C29.7 60.5302 30.11 58.9902 30.38 58.9902C30.99 58.9902 31.95 61.0402 31.95 62.4102V71.3202C31.95 71.8302 32.29 72.8602 32.56 72.8602C34.06 72.8602 39.03 72.5202 39.3 72.5202L39.33 72.5302Z" fill="white"/>
<path d="M101.94 22.6001H48.18V87.1801H101.94V22.6001Z" fill="white"/>
<path d="M80.92 35.3098C82.75 37.2698 84.06 40.1598 84.45 43.4398C84.54 44.1898 84.06 46.0498 83.31 46.1398L69.91 47.7498C69.53 47.7998 69.25 48.1098 69.17 48.4998C69.13 49.2598 69.24 50.6798 69.39 51.8898C69.56 53.2898 70.63 57.4398 72.03 59.4598C74.04 62.3498 76.85 63.4398 79.49 63.1198C82.13 62.7998 83.78 61.6498 84.76 59.1598C84.96 58.6598 85.19 57.9698 85.44 57.9398C85.63 57.9198 86.1 58.6198 86.18 59.2798C86.23 59.6498 86.29 60.6898 86.01 61.5798C84.65 66.2098 82.41 70.9398 76.5 71.6598C69.07 72.5498 63.72 64.6498 62.45 54.1598C61.54 46.5798 63.47 38.7398 68.38 34.4498C69.82 33.1398 71.5 32.2698 73.45 32.0298C76.16 31.6998 79 33.0698 80.93 35.3098H80.92ZM68.86 43.8898C68.86 44.3698 69.22 44.7998 69.48 44.7698C71.19 44.6598 72.44 44.4098 75.58 44.0398C76.4 43.9398 77.64 42.5598 77.34 40.1198C77.04 37.6798 75.01 34.5998 73.51 34.7898C70.93 35.0998 68.92 39.6198 68.86 43.8998V43.8898Z" fill="white"/>
<path d="M147.781 49.4521L85.7405 43.0518L78.5828 112.434L140.624 118.834L147.781 49.4521Z" fill="white"/>
<path d="M115.34 79.59L122.5 94.47C123.69 96.94 124.56 98.45 125.11 99.01C125.66 99.57 126.35 99.94 127.17 100.13L127.07 101.06L111.86 99.49L111.96 98.56C113.18 98.58 113.99 98.46 114.37 98.2C114.75 97.94 114.97 97.58 115.01 97.14C115.04 96.84 115.01 96.56 114.93 96.32C114.77 95.79 114.33 94.8 113.61 93.33L109.82 85.47L104.4 91.36C102.77 93.15 101.93 94.38 101.86 95.07C101.81 95.56 101.95 96.03 102.27 96.49C102.59 96.95 103.11 97.31 103.81 97.57C104.12 97.7 104.78 97.82 105.77 97.93L105.67 98.86L93.68 97.62L93.78 96.69C95.17 96.61 96.28 96.32 97.13 95.81C98.24 95.14 99.84 93.68 101.93 91.41L108.97 83.78L102.35 70.18C101.26 67.94 100.64 66.7 100.48 66.44C100.12 65.84 99.76 65.41 99.38 65.13C99 64.85 98.47 64.62 97.78 64.43L97.88 63.5L113.37 65.1L113.27 66.03L112.49 65.95C111.6 65.86 110.96 65.95 110.58 66.22C110.19 66.49 109.98 66.87 109.93 67.34C109.89 67.71 109.91 68.04 109.99 68.31L111.31 71.1L114.51 77.95L118.26 73.88C120.18 71.78 121.19 70.28 121.28 69.37C121.33 68.92 121.25 68.48 121.05 68.07C120.85 67.66 120.54 67.32 120.12 67.06C119.7 66.8 119.02 66.62 118.08 66.52L118.18 65.59L129.66 66.77L129.56 67.7C128.65 67.62 127.91 67.67 127.34 67.84C126.76 68.01 126.13 68.37 125.44 68.93C125 69.29 123.87 70.44 122.06 72.38L115.34 79.59Z" fill="white"/>
<path d="M177.333 30.5553L132.866 40.1938L145.832 100.015L190.3 90.3761L177.333 30.5553Z" fill="white"/>
<path d="M164.67 48.94C164.87 48.9 165.52 49.04 165.77 49.94C165.71 49.67 166.51 52.63 166.74 53.72C166.96 54.72 166.04 55.01 165.69 55.09L161.29 56.04C160.94 56.11 160.89 56.6 160.93 56.78L164.79 74.56C165.28 76.83 165.7 77.78 166.39 78.58C166.87 79.14 168.19 79.71 168.88 79.56C169.33 79.46 170.23 78.6 170.63 77.85C170.93 77.31 171.18 77.06 171.38 77.02C171.58 76.98 171.91 77.57 172.13 78.57C172.33 79.48 172.08 80.96 171.9 81.57C171.15 84.58 169.4 86.77 167.08 87.27C165.1 87.7 162.87 86.47 161.53 84.58C160.55 83.18 159.97 82.16 159.11 78.17C158.38 74.81 155.77 61.79 155.08 58.62C154.94 57.98 153.96 57.53 152.7 56.95C152.25 56.76 151.92 55.98 151.76 55.25C151.68 54.89 151.66 54.8 151.85 54.47C153.96 50.59 155.19 48.14 155.99 45.4C156.33 44.09 156.45 43.21 156.65 43.17C157.09 43.07 158.02 44.01 158.18 44.74L159.2 49.46C159.26 49.73 159.62 50.22 159.82 50.18C160.91 49.94 164.48 48.98 164.68 48.94H164.67Z" fill="white"/>
<path d="M240.1 32.2402H183.43V97.1402H240.1V32.2402Z" fill="white"/>
<path d="M203.71 85.01C203.17 84.57 202.68 84.01 202.23 83.4L201.98 83.07C203.01 81.9 203.8 81.24 205.08 80.4C205.87 79.96 206.65 79.57 207.44 79.34L207.69 79.28C208.33 79.84 208.67 80.34 209.41 80.84C210.2 81.4 211.43 82.29 213 82.34H213.25C213.94 82.34 214.82 82.28 215.61 81.45C215.9 81.17 216.74 80.28 216.74 79.39V79.17C216.69 78.67 216.3 78.45 214.77 77.56C214.43 77.39 214.08 77.17 213.64 76.89L211.87 75.83C210.84 75.16 209.85 74.61 209.56 74.61H209.46C209.46 74.67 209.36 74.78 209.36 75.22L209.41 75.72L209.51 76.05C208.58 76.61 207.89 77.05 206.95 77.44C206.06 77.83 205.18 78.16 204.25 78.44L203.76 78.55C203.47 75.32 203.17 72.82 203.17 69.1C203.17 67.88 203.17 66.71 203.22 65.54C203.22 64.54 203.27 62.87 203.47 60.2C203.62 57.59 203.81 54.86 204.11 52.14V51.86C204.6 51.64 204.8 51.47 205.24 50.97L205.58 50.58C205.24 49.8 204.94 48.8 204.74 47.63C204.54 46.57 204.49 45.68 204.49 44.96C205.33 44.52 206.51 44.07 207.88 43.74C208.96 43.52 209.9 43.46 210.68 43.46H211.37C211.42 43.85 211.57 44.46 211.71 45.18C211.86 45.74 211.91 46.13 212.05 46.57C212.54 48.79 212.89 50.35 213.28 51.63C213.48 52.35 213.72 53.02 213.92 53.69C214.71 55.91 215.64 57.97 216.67 59.75C217.26 60.81 217.85 61.53 218.39 62.25C219.18 63.14 219.72 63.97 220.55 64.92C220.89 65.31 221.14 65.92 221.14 66.53L221.09 66.92C220.99 67.64 220.65 68.2 220.16 68.53C219.57 68.92 218.98 69.25 218.34 69.59C217.55 69.98 216.72 70.26 215.83 70.48C216.96 70.92 218.04 71.54 219.07 72.2C220.5 73.09 221.83 74.15 223.1 75.37C223.44 75.7 223.64 76.15 223.64 76.7L223.59 77.03C223.39 78.53 223 79.98 222.41 81.2C220.84 84.48 217.89 86.82 214.25 87.59C213.31 87.81 212.38 87.92 211.45 87.92C208.55 87.92 205.75 86.92 203.68 84.97L203.71 85.01ZM211.33 68.55C211.77 68.33 212.21 68.11 212.61 67.83L210.94 64.38C210.6 63.66 210.25 62.93 209.96 62.16L209.91 64.11L209.96 66.11C209.96 67.06 210.01 68.06 210.06 69C210.5 68.89 210.94 68.72 211.34 68.56L211.33 68.55Z" fill="white"/>
<path d="M279.171 35.1893L235.505 25.4448L222.396 84.1898L266.062 93.9343L279.171 35.1893Z" fill="white"/>
<path d="M246.63 78.4699C245.27 78.2299 244.33 77.7599 243.49 77.3499C243.15 77.1399 239.89 75.4699 237.96 72.6999C235.71 69.5599 235.38 65.3499 235.97 61.9799C236.52 58.8599 237.86 56.3999 239.11 56.0499C239.45 55.9499 240.5 55.7799 241.28 55.6499L243.75 55.3599C243.53 55.0599 243.25 54.5499 242.94 53.8699C242.72 53.3099 241.18 50.0899 241.6 47.7299C241.71 47.1299 241.96 46.5999 242.36 46.1499C242.76 45.6999 243.28 45.4799 244.43 45.0599C244.43 45.0599 247.59 43.8999 252.29 44.7299L252.5 44.7699C253.39 44.9299 254 45.1399 254.2 45.2199C254.66 45.3499 255.16 45.5999 255.7 45.8499C256.19 46.1399 256.73 46.4399 257.19 46.8399C257.67 47.1799 258.14 47.5799 258.55 48.0099C258.96 48.4399 259.31 48.9199 259.64 49.4499C260.46 50.6299 261.09 51.9299 261.43 53.3399C261.82 54.8099 262.05 56.2499 262.16 57.7699C262.23 59.2299 262.18 60.7299 262.04 62.1499C261.89 63.6299 261.65 64.9799 261.41 66.3399C261.08 67.8899 260.55 69.3999 259.85 70.9399C259.42 71.8499 258.61 73.4199 257.17 74.8799C254.81 77.2699 250.87 79.2199 246.85 78.5099L246.64 78.4699H246.63ZM250.18 72.6699C251.17 71.5999 251.72 70.6599 252.21 69.7099C252.79 68.5699 253.27 67.3599 253.65 66.0799C254.09 64.8099 254.43 63.4699 254.73 62.0699L251.36 61.0099C249.43 60.3599 248.48 59.9299 247.47 59.2399L246.66 58.6299C245.96 59.8599 245.39 61.2599 244.96 62.7899L244.64 64.2899C244.45 65.3499 244.38 66.3699 244.35 67.4499C244.41 68.9599 244.65 70.3499 245.11 71.6799C245.59 72.9599 246.38 73.9799 247.49 74.6899C248.2 74.2999 249.22 73.6999 250.16 72.6699H250.18ZM255.14 57.5699C255.08 56.9899 255.03 55.7399 254.61 54.1599C254.08 51.9899 253.62 49.9899 251.96 48.4099C251.18 47.6499 250.34 47.1899 249.8 46.9399C249.1 47.8499 248.79 48.6799 248.71 49.1799L248.66 49.4799C248.41 50.8899 248.79 52.0999 249.03 52.8599C249.26 53.4199 249.58 53.9899 250.16 55.0299C251.33 56.9499 252 58.0499 253.24 59.2499C253.93 59.8899 254.55 60.3599 254.99 60.6499C255.15 59.7399 255.22 58.7199 255.15 57.5699H255.14Z" fill="white"/>
<path d="M309.46 45.71H259.01V113.57H309.46V45.71Z" fill="white"/>
<path d="M284.29 101.3C282.74 101.37 281.59 101.08 280.56 100.84C280.13 100.69 276.14 99.6602 273.33 97.0802C270.09 94.1702 268.68 89.6302 268.5 85.7802C268.34 82.2102 269.21 79.1802 270.5 78.4802C270.85 78.2902 271.97 77.8402 272.79 77.5102L275.44 76.5802C275.13 76.3102 274.69 75.8102 274.18 75.1402C273.8 74.5802 271.32 71.4102 271.19 68.7102C271.16 68.0202 271.31 67.3802 271.64 66.7902C271.97 66.2002 272.49 65.8302 273.66 65.0802C273.66 65.0802 276.86 63.0302 282.23 62.7802H282.47C283.48 62.7202 284.21 62.8002 284.45 62.8502C284.99 62.8802 285.59 63.0302 286.26 63.1702C286.87 63.3702 287.53 63.5702 288.15 63.8902C288.76 64.1502 289.37 64.4702 289.93 64.8502C290.49 65.2302 290.98 65.6702 291.49 66.1602C292.68 67.2602 293.69 68.5402 294.42 70.0002C295.21 71.5202 295.82 73.0502 296.31 74.7002C296.74 76.2902 297.06 77.9502 297.25 79.5602C297.45 81.2202 297.52 82.7702 297.59 84.3302C297.61 86.1202 297.4 87.9102 297 89.7702C296.75 90.8802 296.24 92.8002 295.02 94.7602C293.01 97.9602 289.15 101.08 284.55 101.29H284.31L284.29 101.3ZM286.77 94.0402C287.6 92.6202 287.97 91.4502 288.27 90.2802C288.62 88.8802 288.86 87.4302 288.97 85.9302C289.14 84.4202 289.19 82.8702 289.17 81.2502L285.21 80.9102C282.92 80.6702 281.78 80.4302 280.5 79.9202L279.46 79.4502C278.99 80.9702 278.71 82.6502 278.61 84.4402L278.63 86.1702C278.69 87.3802 278.86 88.5202 279.09 89.7202C279.52 91.3702 280.13 92.8402 280.97 94.1902C281.81 95.4802 282.93 96.4102 284.33 96.9202C285.02 96.3102 286 95.4002 286.77 94.0402ZM288.52 76.2102C288.31 75.5902 287.95 74.2202 287.1 72.5902C285.98 70.3402 284.99 68.2502 282.77 66.9102C281.72 66.2702 280.69 65.9702 280.03 65.8302C279.49 67.0102 279.35 67.9902 279.38 68.5702L279.4 68.9102C279.47 70.5202 280.19 71.7602 280.64 72.5402C281.03 73.1002 281.53 73.6502 282.41 74.6502C284.17 76.4702 285.17 77.5202 286.84 78.5402C287.76 79.0702 288.56 79.4402 289.1 79.6502C289.05 78.6102 288.88 77.4702 288.52 76.2202V76.2102Z" fill="white"/>
<path d="M352.86 24.52H302.41V92.38H352.86V24.52Z" fill="white"/>
<path d="M337.89 74.9599L326.21 51.7899L336.82 36.7199C336.9 36.6099 336.91 36.4599 336.85 36.3299C336.79 36.2099 336.66 36.1299 336.52 36.1299H328.97C328.85 36.1299 328.73 36.1899 328.66 36.2999L318.61 51.2899V36.5099C318.61 36.2999 318.44 36.1299 318.23 36.1299H312.19C311.98 36.1299 311.81 36.2999 311.81 36.5099V75.1399C311.81 75.3499 311.98 75.5199 312.19 75.5199H318.23C318.44 75.5199 318.61 75.3499 318.61 75.1399V62.8199L321.64 58.5199L329.64 75.3099C329.7 75.4399 329.83 75.5199 329.98 75.5199H337.56C337.69 75.5199 337.81 75.4499 337.88 75.3399C337.95 75.2299 337.95 75.0899 337.9 74.9699L337.89 74.9599Z" fill="white"/>
<path d="M381.892 20.0004L332.587 30.6875L346.962 97.0074L396.267 86.3203L381.892 20.0004Z" fill="white"/>
<path d="M378.13 65.7398C376.27 62.6598 373.68 59.7498 370.41 57.0798C369.33 56.2198 367.5 54.8498 364.96 52.9998C362.43 51.1598 359.99 49.4198 357.7 47.8398C355.46 46.2898 353.87 45.1098 352.97 44.3298C352.15 43.6198 351.57 42.9298 351.21 42.2298C351.1 42.0398 351.03 41.8598 350.99 41.6798C350.9 41.2398 351.02 40.7998 351.35 40.3498C351.68 39.8998 352.21 39.7098 352.97 39.7598C353.64 39.7998 354.53 40.0998 355.4 40.6398C356.04 41.0598 356.81 41.7298 357.68 42.6098C358.56 43.4998 359.24 44.3198 359.75 45.0798C359.98 45.4098 360.23 45.7398 360.48 46.0598C360.77 46.4398 361.02 46.7198 361.28 46.9598C361.99 47.5498 362.69 47.9198 363.38 48.0398C363.72 48.0998 364.16 48.0898 364.73 47.9898C365.43 47.8698 365.83 47.2698 365.91 46.1598C365.94 44.8898 366.04 43.8498 366.22 43.0698C366.4 42.2998 366.72 41.4698 367.19 40.6298C367.55 40.0098 367.75 39.5198 367.8 39.1298C367.84 38.8398 367.81 38.4998 367.73 38.1198C367.69 37.9398 367.64 37.7498 367.58 37.5798C367.34 36.8298 366.87 36.1298 366.18 35.5098C365.51 34.8998 364.8 34.5198 364.08 34.3898C363.11 34.2098 362.35 34.5398 361.85 35.3398C361.65 35.5998 361.43 35.9598 361.21 36.4198C360.99 36.8698 360.79 37.2898 360.61 37.7098C360.53 37.8998 360.46 38.0698 360.41 38.2198C360.3 38.1198 360.18 38.0098 360.04 37.8798C357.58 35.5598 355.12 34.0898 352.7 33.5098L352.21 33.4198C348.43 32.7198 346.01 33.8998 345.02 36.9298C344.64 38.0398 344.58 39.2398 344.85 40.5098C345.12 41.7798 345.68 43.0198 346.52 44.3298C347.31 45.6498 348.41 46.9598 349.78 48.2298C351.11 49.4598 352.99 50.9098 355.35 52.5398C357.45 53.9998 359.85 55.7098 362.47 57.6098C365.1 59.5198 366.95 60.8998 367.95 61.6998C368.89 62.4598 369.82 63.3398 370.73 64.2998C371.63 65.2598 372.34 66.1198 372.8 66.7998C373.67 68.1898 374.26 69.4598 374.53 70.5298C374.89 72.4698 373.59 73.6998 370.69 74.1898C370.33 74.2398 370 74.2698 369.7 74.2798C369.41 74.2798 369.05 74.2598 368.64 74.1998C368.2 74.1398 367.57 74.0298 366.76 73.8798C365.66 73.6798 364.83 73.4998 364.24 73.3498C363.66 73.1998 363.04 72.9898 362.36 72.6898C360.35 71.9098 358.67 71.0798 357.35 70.2198C356.03 69.3598 354.73 68.2798 353.45 66.9698C352.56 66.0798 351.91 65.2998 351.52 64.6698C351.21 64.1398 351 63.6198 350.88 63.0798L350.82 62.8198C350.73 62.4098 350.72 62.2498 350.72 62.1298C350.72 62.1298 350.77 62.0698 351 61.9798C351.42 61.7598 351.86 61.6798 352.36 61.7098C352.94 61.7498 353.66 61.9298 354.54 62.2398C355.81 62.6598 356.91 63.0998 357.79 63.5598C358.69 64.0198 359.78 64.6798 361.02 65.5198C362.06 66.2398 362.79 66.7198 363.25 66.9798C363.78 67.2798 364.22 67.4598 364.59 67.5298C365.48 67.6898 366.14 67.4798 366.56 66.8798C366.93 66.3798 367.02 65.6898 366.84 64.8398L366.78 64.5798C366.61 63.7898 366.19 63.0698 365.55 62.4398C365 61.8998 364.03 61.1698 362.58 60.2198C361.04 59.1898 359.81 58.4198 358.91 57.9398C358.01 57.4598 356.94 56.9898 355.75 56.5498C354.01 55.8598 352.54 55.3998 351.4 55.1898C351.19 55.1498 350.72 55.0898 350 55.0098C349.21 54.9198 348.29 55.1098 347.22 55.5798C344.84 56.3198 343.95 58.2098 344.58 61.1798L344.73 61.8698C344.88 62.5698 345.08 63.2698 345.33 63.9598C345.59 64.6698 345.98 65.4598 346.5 66.2998C347.39 67.7598 348.64 69.3198 350.23 70.9498C351.81 72.5698 353.43 73.9698 355.09 75.1398C357.55 76.7998 360.67 78.2898 364.34 79.5798H364.36C365.61 79.9898 366.85 80.3098 368.04 80.5298C370.34 80.9598 372.51 81.0098 374.49 80.6898C377.94 79.9698 380.02 78.2798 380.68 75.6498C380.98 74.4298 380.97 73.0598 380.64 71.5698C380.26 69.8198 379.42 67.8498 378.14 65.7098L378.13 65.7398Z" fill="white"/>
<path d="M228.064 80.6584L158.128 95.8174L178.519 189.893L248.455 174.734L228.064 80.6584Z" fill="white"/>
<path d="M222.73 145.54C220.09 141.17 216.42 137.05 211.78 133.25C210.25 132.04 207.65 130.09 204.05 127.46C200.46 124.85 197 122.39 193.75 120.14C190.57 117.95 188.32 116.27 187.04 115.16C185.88 114.15 185.06 113.17 184.55 112.18C184.4 111.91 184.3 111.66 184.24 111.41C184.11 110.79 184.28 110.16 184.75 109.53C185.23 108.89 185.97 108.62 187.04 108.69C187.99 108.74 189.25 109.18 190.49 109.95C191.4 110.55 192.49 111.49 193.72 112.74C194.96 114.01 195.94 115.17 196.65 116.24C196.98 116.7 197.33 117.17 197.69 117.64C198.1 118.17 198.45 118.57 198.82 118.91C199.82 119.75 200.82 120.27 201.8 120.45C202.28 120.54 202.9 120.52 203.72 120.38C204.72 120.22 205.28 119.36 205.4 117.79C205.44 115.99 205.58 114.52 205.84 113.41C206.09 112.31 206.55 111.15 207.21 109.94C207.72 109.06 208 108.37 208.08 107.81C208.13 107.39 208.1 106.91 207.98 106.37C207.92 106.11 207.85 105.85 207.77 105.6C207.43 104.53 206.76 103.55 205.79 102.67C204.83 101.81 203.83 101.27 202.81 101.08C201.43 100.83 200.36 101.29 199.64 102.43C199.36 102.8 199.05 103.31 198.73 103.96C198.42 104.59 198.13 105.2 197.88 105.79C197.76 106.06 197.67 106.3 197.6 106.51C197.45 106.37 197.27 106.21 197.07 106.03C193.58 102.74 190.09 100.65 186.65 99.8299L185.96 99.6999C180.59 98.7099 177.16 100.38 175.76 104.68C175.22 106.25 175.14 107.96 175.52 109.76C175.89 111.49 176.69 113.32 177.88 115.18C179 117.05 180.55 118.91 182.5 120.71C184.39 122.45 187.05 124.51 190.4 126.82C193.38 128.89 196.78 131.31 200.5 134.02C204.24 136.73 206.85 138.69 208.27 139.82C209.6 140.9 210.93 142.14 212.22 143.51C213.5 144.88 214.5 146.08 215.16 147.06C216.4 149.03 217.23 150.83 217.61 152.35C218.12 155.1 216.28 156.85 212.17 157.55C211.66 157.63 211.19 157.67 210.77 157.68C210.36 157.68 209.85 157.65 209.26 157.57C208.63 157.48 207.74 157.33 206.59 157.12C205.03 156.83 203.86 156.59 203.01 156.37C202.19 156.16 201.3 155.85 200.34 155.44C197.49 154.33 195.1 153.15 193.23 151.94C191.38 150.74 189.52 149.19 187.7 147.33C186.44 146.06 185.51 144.96 184.96 144.07C184.51 143.32 184.22 142.58 184.05 141.81L183.97 141.43C183.85 140.86 183.83 140.62 183.83 140.45C183.83 140.45 183.91 140.37 184.22 140.24C184.81 139.93 185.44 139.81 186.14 139.86C186.96 139.92 187.99 140.18 189.24 140.61C191.04 141.21 192.6 141.84 193.86 142.48C195.13 143.13 196.68 144.08 198.44 145.27C199.91 146.29 200.95 146.97 201.61 147.35C202.36 147.78 202.98 148.04 203.52 148.13C204.78 148.36 205.72 148.05 206.31 147.21C206.83 146.5 206.97 145.53 206.7 144.32L206.62 143.94C206.38 142.82 205.79 141.8 204.87 140.9C204.09 140.14 202.72 139.1 200.66 137.75C198.48 136.29 196.72 135.2 195.45 134.51C194.17 133.82 192.65 133.16 190.96 132.54C188.49 131.56 186.41 130.91 184.79 130.61C184.49 130.55 183.83 130.47 182.81 130.36C181.69 130.24 180.38 130.51 178.86 131.16C175.48 132.22 174.22 134.89 175.11 139.1L175.32 140.09C175.53 141.08 175.82 142.07 176.17 143.05C176.54 144.06 177.1 145.17 177.83 146.38C179.09 148.45 180.87 150.66 183.12 152.97C185.36 155.26 187.67 157.26 190.01 158.92C193.51 161.27 197.92 163.39 203.13 165.21H203.16C204.94 165.79 206.69 166.24 208.37 166.56C211.64 167.16 214.71 167.24 217.52 166.79C222.42 165.78 225.37 163.37 226.3 159.64C226.73 157.91 226.71 155.96 226.25 153.85C225.7 151.37 224.51 148.58 222.7 145.54H222.73Z" fill="white"/>
<path d="M318.11 76.0601H244.86V174.59H318.11V76.0601Z" fill="black"/>
<path d="M251.82 154.61C251.42 153.53 251.16 152.17 251.16 150.54V149.73C251.29 148.28 251.56 147.11 251.95 146.11L255.51 146.29L259.2 146.56L258.67 133.55L258.54 123.7C258.54 120.54 258.67 117.28 258.8 113.67L259.59 104L260.78 93.61C262.89 93.07 265.66 92.53 268.69 92.16C271.59 91.8 274.23 91.71 276.6 91.71L280.29 91.8C279.76 95.32 279.37 98.94 279.1 102.55C278.57 108.42 278.31 114.39 278.31 120.26C278.31 129.66 278.97 138.88 280.02 146.92L291.23 146.65L292.15 129.93C293.73 129.66 296.11 129.39 298.74 129.39L301.11 129.48C305.86 129.75 309.42 130.75 311.52 131.56V141.32L311.78 150.9C301.63 152.89 288.84 154.7 273.81 155.15L267.09 155.24C261.55 155.24 257.07 154.97 251.8 154.61H251.82Z" fill="white"/>
<path d="M376.23 62.0298H312.14V145.46H376.23V62.0298Z" fill="black"/>
<path d="M331.23 131.07C328.78 131.03 325.66 130.83 324.62 130.5C328.85 115.17 332.79 99.0498 336.8 81.3398C338.43 81.2098 340.59 81.0798 342.59 81.1098C344.59 81.1398 346.45 81.3298 347.57 81.4998C351.36 98.9198 355.81 114.94 361.08 131.44C359.97 131.58 358.63 131.56 357 131.54C354.55 131.5 352.17 131.31 351.73 131.07C351.73 131.07 350.02 121.65 348.54 116.89C347.8 114.59 347.43 114.35 343.19 114.28H342.82C336.88 114.19 336.29 114.65 335.77 116.85C334.66 121.49 333.62 131.03 333.62 131.03C333.03 131.1 332.14 131.09 331.24 131.07H331.23ZM344.67 94.8698C343.71 90.9098 343.19 89.3198 342.07 89.3098C340.95 89.2998 340.29 91.4898 339.32 95.4298L337.32 103.85C336.95 105.5 336.65 106.68 336.65 107.47C336.65 109.29 337.99 109.38 342.07 109.45H342.44C346.15 109.51 347.42 109.45 347.42 107.56C347.42 106.77 347.27 105.74 346.9 104.24L344.67 94.8898V94.8698Z" fill="white"/>
<path d="M463.5 64.6201H362.66V200.27H463.5V64.6201Z" fill="black"/>
<path d="M433.42 104.46C433.73 103.55 434.13 102.89 434.61 102.47C435.37 101.79 436.45 101.33 437.82 101.09L439.71 100.76C440.53 100.62 441.14 99.9001 441.14 99.0701V97.1201C441.14 96.6101 440.92 96.1301 440.53 95.8001C440.14 95.4701 439.64 95.3401 439.13 95.4301L416.63 99.4201C415.99 99.5301 415.47 100 415.29 100.61L403.22 140.6L391.78 105.33C391.52 104.51 390.68 104.02 389.85 104.17L372.35 107.28C371.53 107.43 370.93 108.14 370.93 108.97V110.59C370.93 111.1 371.15 111.58 371.54 111.9C371.93 112.23 372.44 112.36 372.94 112.28L374.24 112.06C374.72 111.98 375.39 111.93 375.78 112.19C376.26 112.51 376.41 112.83 376.48 113.05C376.52 113.19 376.74 114.08 376.74 118.21V156.52C376.74 160 376.7 160.72 376.7 160.8C376.46 162.31 376.14 163.12 375.91 163.54C375.65 164.03 375.27 164.41 374.75 164.72C374.24 165.02 373.67 165.16 373.06 165.14H372.64C371.7 165.14 370.93 165.92 370.93 166.86V168.48C370.93 169.43 371.7 170.2 372.65 170.2H387.19C388.14 170.2 388.91 169.43 388.91 168.48V166.79C388.91 166.33 388.73 165.9 388.4 165.57C388.07 165.25 387.58 165.04 387.18 165.07C385.71 165.1 384.59 164.78 384.01 164.18C383.33 163.49 382.9 162.59 382.69 161.47C382.64 161.14 382.55 160.02 382.55 156.21V124.38L396.68 169C396.91 169.71 397.57 170.2 398.32 170.2H399.16C399.91 170.2 400.58 169.71 400.8 168.99L416.58 118.13V156.91C416.58 161.36 416.33 162.41 416.25 162.64C415.99 163.4 415.66 163.96 415.29 164.23C414.68 164.69 413.8 164.93 412.68 164.94H411.03C410.09 164.95 409.32 165.72 409.32 166.66V168.47C409.32 169.42 410.09 170.19 411.04 170.19H439.45C440.4 170.19 441.17 169.42 441.17 168.47V166.52C441.17 166.06 440.99 165.63 440.66 165.3C440.34 164.98 439.9 164.8 439.45 164.8H437.55C436.27 164.78 435.34 164.58 434.69 164.13C434.04 163.68 433.64 163.19 433.45 162.64C433.34 162.32 433.09 161.09 433.09 156.5V110.4C433.09 105.95 433.34 104.75 433.45 104.44L433.42 104.46Z" fill="white"/>
<path d="M71.22 24.3398H10V137.23H71.22V24.3398Z" fill="black"/>
<path d="M49.33 52.5302C49.6 52.5302 50.42 53.0402 50.49 54.7602C50.49 54.2502 50.69 59.9002 50.69 61.9502C50.69 63.8302 49.4 64.0102 48.92 64.0102H42.86C42.38 64.0102 42.18 64.8702 42.18 65.2102V98.7702C42.18 103.05 42.45 104.93 43.13 106.65C43.61 107.85 45.17 109.39 46.12 109.39C46.73 109.39 48.16 108.19 48.91 106.99C49.45 106.13 49.86 105.79 50.13 105.79C50.4 105.79 50.68 106.99 50.68 108.87C50.68 110.58 49.93 113.15 49.52 114.18C47.68 119.32 44.75 122.57 41.55 122.57C38.83 122.57 36.24 119.49 35.01 115.55C34.12 112.64 33.65 110.58 33.65 103.05C33.65 96.7102 33.92 72.2302 33.92 66.2302C33.92 65.0302 32.76 63.8302 31.26 62.2902C30.72 61.7802 30.51 60.2302 30.51 58.8602C30.51 58.1702 30.51 58.0002 30.85 57.4902C34.73 51.3302 37.05 47.3902 38.88 42.7602C39.7 40.5302 40.11 38.9902 40.38 38.9902C40.99 38.9902 41.95 41.0402 41.95 42.4102V51.3202C41.95 51.8302 42.29 52.8602 42.56 52.8602C44.06 52.8602 49.03 52.5202 49.3 52.5202L49.33 52.5302Z" fill="white"/>
<path d="M111.94 2.6001H58.18V67.1801H111.94V2.6001Z" fill="black"/>
<path d="M90.92 15.3098C92.75 17.2698 94.06 20.1598 94.45 23.4398C94.54 24.1898 94.06 26.0498 93.31 26.1398L79.91 27.7498C79.53 27.7998 79.25 28.1098 79.17 28.4998C79.13 29.2598 79.24 30.6798 79.39 31.8898C79.56 33.2898 80.63 37.4398 82.03 39.4598C84.04 42.3498 86.85 43.4398 89.49 43.1198C92.13 42.7998 93.78 41.6498 94.76 39.1598C94.96 38.6598 95.19 37.9698 95.44 37.9398C95.63 37.9198 96.1 38.6198 96.18 39.2798C96.23 39.6498 96.29 40.6898 96.01 41.5798C94.65 46.2098 92.41 50.9398 86.5 51.6598C79.07 52.5498 73.72 44.6498 72.45 34.1598C71.54 26.5798 73.47 18.7398 78.38 14.4498C79.82 13.1398 81.5 12.2698 83.45 12.0298C86.16 11.6998 89 13.0698 90.93 15.3098H90.92ZM78.87 23.8898C78.87 24.3698 79.23 24.7998 79.49 24.7698C81.2 24.6598 82.45 24.4098 85.59 24.0398C86.41 23.9398 87.65 22.5598 87.35 20.1198C87.05 17.6798 85.02 14.5998 83.52 14.7898C80.94 15.0998 78.93 19.6198 78.87 23.8998V23.8898Z" fill="white"/>
<path d="M157.781 29.4536L95.7401 23.0532L88.5824 92.435L150.623 98.8353L157.781 29.4536Z" fill="black"/>
<path d="M125.34 59.59L132.5 74.47C133.69 76.94 134.56 78.45 135.11 79.01C135.66 79.57 136.35 79.94 137.17 80.13L137.07 81.06L121.86 79.49L121.96 78.56C123.18 78.58 123.99 78.46 124.37 78.2C124.75 77.94 124.97 77.58 125.01 77.14C125.04 76.84 125.01 76.56 124.93 76.32C124.77 75.79 124.33 74.8 123.61 73.33L119.82 65.47L114.4 71.36C112.77 73.15 111.93 74.38 111.86 75.07C111.81 75.56 111.95 76.03 112.27 76.49C112.59 76.95 113.11 77.31 113.81 77.57C114.12 77.7 114.78 77.82 115.77 77.93L115.67 78.86L103.68 77.62L103.78 76.69C105.17 76.61 106.28 76.32 107.13 75.81C108.24 75.14 109.84 73.68 111.93 71.41L118.97 63.78L112.35 50.18C111.26 47.94 110.64 46.7 110.48 46.44C110.12 45.84 109.76 45.41 109.38 45.13C109 44.85 108.47 44.62 107.78 44.43L107.88 43.5L123.37 45.1L123.27 46.03L122.49 45.95C121.6 45.86 120.96 45.95 120.58 46.22C120.19 46.49 119.98 46.87 119.93 47.34C119.89 47.71 119.91 48.04 119.99 48.31L121.31 51.1L124.51 57.95L128.26 53.88C130.18 51.78 131.19 50.28 131.28 49.37C131.33 48.92 131.25 48.48 131.05 48.07C130.85 47.66 130.54 47.32 130.12 47.06C129.7 46.8 129.02 46.62 128.08 46.52L128.18 45.59L139.66 46.77L139.56 47.7C138.65 47.62 137.91 47.67 137.34 47.84C136.76 48.01 136.13 48.37 135.44 48.93C135 49.29 133.87 50.44 132.06 52.38L125.34 59.59Z" fill="white"/>
<path d="M187.329 10.5607L142.862 20.1992L155.829 80.0201L200.296 70.3815L187.329 10.5607Z" fill="black"/>
<path d="M174.67 28.94C174.87 28.9 175.52 29.04 175.77 29.94C175.71 29.67 176.51 32.63 176.74 33.72C176.96 34.72 176.04 35.01 175.69 35.09L171.29 36.04C170.94 36.11 170.89 36.6 170.93 36.78L174.79 54.56C175.28 56.83 175.7 57.78 176.39 58.58C176.87 59.14 178.19 59.71 178.88 59.56C179.33 59.46 180.23 58.6 180.63 57.85C180.93 57.31 181.18 57.06 181.38 57.02C181.58 56.98 181.91 57.57 182.13 58.57C182.33 59.48 182.08 60.96 181.9 61.57C181.15 64.58 179.4 66.77 177.08 67.27C175.1 67.7 172.87 66.47 171.53 64.58C170.55 63.18 169.97 62.16 169.11 58.17C168.38 54.81 165.77 41.79 165.08 38.62C164.94 37.98 163.96 37.53 162.7 36.95C162.25 36.76 161.92 35.98 161.76 35.25C161.68 34.89 161.66 34.8 161.85 34.47C163.96 30.59 165.19 28.14 165.99 25.4C166.33 24.09 166.45 23.21 166.65 23.17C167.09 23.07 168.02 24.01 168.18 24.74L169.2 29.46C169.26 29.73 169.62 30.22 169.82 30.18C170.91 29.94 174.48 28.98 174.68 28.94H174.67Z" fill="white"/>
<path d="M250.1 12.2402H193.43V77.1402H250.1V12.2402Z" fill="black"/>
<path d="M213.71 65.01C213.17 64.57 212.68 64.01 212.23 63.4L211.98 63.07C213.01 61.9 213.8 61.24 215.08 60.4C215.87 59.96 216.65 59.57 217.44 59.34L217.69 59.28C218.33 59.84 218.67 60.34 219.41 60.84C220.2 61.4 221.43 62.29 223 62.34H223.25C223.94 62.34 224.82 62.28 225.61 61.45C225.9 61.17 226.74 60.28 226.74 59.39V59.17C226.69 58.67 226.3 58.45 224.77 57.56C224.43 57.39 224.08 57.17 223.64 56.89L221.87 55.83C220.84 55.16 219.85 54.61 219.56 54.61H219.46C219.46 54.67 219.36 54.78 219.36 55.22L219.41 55.72L219.51 56.05C218.58 56.61 217.89 57.05 216.95 57.44C216.06 57.83 215.18 58.16 214.25 58.44L213.76 58.55C213.47 55.32 213.17 52.82 213.17 49.1C213.17 47.88 213.17 46.71 213.22 45.54C213.22 44.54 213.27 42.87 213.47 40.2C213.62 37.59 213.81 34.86 214.11 32.14V31.86C214.6 31.64 214.8 31.47 215.24 30.97L215.58 30.58C215.24 29.8 214.94 28.8 214.74 27.63C214.54 26.57 214.49 25.68 214.49 24.96C215.33 24.52 216.51 24.07 217.88 23.74C218.96 23.52 219.9 23.46 220.68 23.46H221.37C221.42 23.85 221.57 24.46 221.71 25.18C221.86 25.74 221.91 26.13 222.05 26.57C222.54 28.79 222.89 30.35 223.28 31.63C223.48 32.35 223.72 33.02 223.92 33.69C224.71 35.91 225.64 37.97 226.67 39.75C227.26 40.81 227.85 41.53 228.39 42.25C229.18 43.14 229.72 43.97 230.55 44.92C230.89 45.31 231.14 45.92 231.14 46.53L231.09 46.92C230.99 47.64 230.65 48.2 230.16 48.53C229.57 48.92 228.98 49.25 228.34 49.59C227.55 49.98 226.72 50.26 225.83 50.48C226.96 50.92 228.04 51.54 229.07 52.2C230.5 53.09 231.83 54.15 233.1 55.37C233.44 55.7 233.64 56.15 233.64 56.7L233.59 57.03C233.39 58.53 233 59.98 232.41 61.2C230.84 64.48 227.89 66.82 224.25 67.59C223.31 67.81 222.38 67.92 221.45 67.92C218.55 67.92 215.75 66.92 213.68 64.97L213.71 65.01ZM221.33 48.55C221.77 48.33 222.21 48.11 222.61 47.83L220.94 44.38C220.6 43.66 220.25 42.93 219.96 42.16L219.91 44.11L219.96 46.11C219.96 47.06 220.01 48.06 220.06 49C220.5 48.89 220.94 48.72 221.34 48.56L221.33 48.55Z" fill="white"/>
<path d="M289.167 15.1976L245.501 5.45312L232.392 64.1981L276.058 73.9426L289.167 15.1976Z" fill="black"/>
<path d="M256.63 58.4699C255.27 58.2299 254.33 57.7599 253.49 57.3499C253.15 57.1399 249.89 55.4699 247.96 52.6999C245.71 49.5599 245.38 45.3499 245.97 41.9799C246.52 38.8599 247.86 36.3999 249.11 36.0499C249.45 35.9499 250.5 35.7799 251.28 35.6499L253.75 35.3599C253.53 35.0599 253.25 34.5499 252.94 33.8699C252.72 33.3099 251.18 30.0899 251.6 27.7299C251.71 27.1299 251.96 26.5999 252.36 26.1499C252.76 25.6999 253.28 25.4799 254.43 25.0599C254.43 25.0599 257.59 23.8999 262.29 24.7299L262.5 24.7699C263.39 24.9299 264 25.1399 264.2 25.2199C264.66 25.3499 265.16 25.5999 265.7 25.8499C266.19 26.1399 266.73 26.4399 267.19 26.8399C267.67 27.1799 268.14 27.5799 268.55 28.0099C268.96 28.4399 269.31 28.9199 269.64 29.4499C270.46 30.6299 271.09 31.9299 271.43 33.3399C271.82 34.8099 272.05 36.2499 272.16 37.7699C272.23 39.2299 272.18 40.7299 272.04 42.1499C271.89 43.6299 271.65 44.9799 271.41 46.3399C271.08 47.8899 270.55 49.3999 269.85 50.9399C269.42 51.8499 268.61 53.4199 267.17 54.8799C264.81 57.2699 260.87 59.2199 256.85 58.5099L256.64 58.4699H256.63ZM260.18 52.6699C261.17 51.5999 261.72 50.6599 262.21 49.7099C262.79 48.5699 263.27 47.3599 263.65 46.0799C264.09 44.8099 264.43 43.4699 264.73 42.0699L261.36 41.0099C259.43 40.3599 258.48 39.9299 257.47 39.2399L256.66 38.6299C255.96 39.8599 255.39 41.2599 254.96 42.7899L254.64 44.2899C254.45 45.3499 254.38 46.3699 254.35 47.4499C254.41 48.9599 254.65 50.3499 255.11 51.6799C255.59 52.9599 256.38 53.9799 257.49 54.6899C258.2 54.2999 259.22 53.6999 260.16 52.6699H260.18ZM265.14 37.5699C265.08 36.9899 265.03 35.7399 264.61 34.1599C264.08 31.9899 263.62 29.9899 261.96 28.4099C261.18 27.6499 260.34 27.1899 259.8 26.9399C259.1 27.8499 258.79 28.6799 258.71 29.1799L258.66 29.4799C258.41 30.8899 258.79 32.0999 259.03 32.8599C259.26 33.4199 259.58 33.9899 260.16 35.0299C261.33 36.9499 262 38.0499 263.24 39.2499C263.93 39.8899 264.55 40.3599 264.99 40.6499C265.15 39.7399 265.22 38.7199 265.15 37.5699H265.14Z" fill="white"/>
<path d="M319.46 25.7002H269.01V93.5602H319.46V25.7002Z" fill="black"/>
<path d="M294.29 81.2899C292.74 81.3599 291.59 81.0699 290.56 80.8299C290.13 80.6799 286.14 79.6499 283.33 77.0699C280.09 74.1599 278.68 69.6199 278.5 65.7699C278.34 62.1999 279.21 59.1699 280.5 58.4699C280.85 58.2799 281.97 57.8299 282.79 57.4999L285.44 56.5699C285.13 56.2999 284.69 55.7999 284.18 55.1299C283.8 54.5699 281.32 51.3999 281.19 48.6999C281.16 48.0099 281.31 47.3699 281.64 46.7799C281.97 46.1899 282.49 45.8199 283.66 45.0699C283.66 45.0699 286.86 43.0199 292.23 42.7699H292.47C293.48 42.7099 294.21 42.7899 294.45 42.8399C294.99 42.8699 295.59 43.0199 296.26 43.1599C296.87 43.3599 297.53 43.5599 298.15 43.8799C298.76 44.1399 299.37 44.4599 299.93 44.8399C300.49 45.2199 300.98 45.6599 301.49 46.1499C302.68 47.2499 303.69 48.5299 304.42 49.9899C305.21 51.5099 305.82 53.0399 306.31 54.6899C306.74 56.2799 307.06 57.9399 307.25 59.5499C307.45 61.2099 307.52 62.7599 307.59 64.3199C307.61 66.1099 307.4 67.8999 307 69.7599C306.75 70.8699 306.24 72.7899 305.02 74.7499C303.01 77.9499 299.15 81.0699 294.55 81.2799H294.31L294.29 81.2899ZM296.77 74.0299C297.6 72.6099 297.97 71.4399 298.27 70.2699C298.62 68.8699 298.86 67.4199 298.97 65.9199C299.14 64.4099 299.19 62.8599 299.17 61.2399L295.21 60.8999C292.92 60.6599 291.78 60.4199 290.5 59.9099L289.46 59.4399C288.99 60.9599 288.71 62.6399 288.61 64.4299L288.63 66.1599C288.69 67.3699 288.86 68.5099 289.09 69.7099C289.52 71.3599 290.13 72.8299 290.97 74.1799C291.81 75.4699 292.93 76.3999 294.33 76.9099C295.02 76.2999 296 75.3899 296.77 74.0299ZM298.52 56.1999C298.31 55.5799 297.95 54.2099 297.1 52.5799C295.98 50.3299 294.99 48.2399 292.77 46.8999C291.72 46.2599 290.69 45.9599 290.03 45.8199C289.49 46.9999 289.35 47.9799 289.38 48.5599L289.4 48.8999C289.47 50.5099 290.19 51.7499 290.64 52.5299C291.03 53.0899 291.53 53.6399 292.41 54.6399C294.17 56.4599 295.17 57.5099 296.84 58.5299C297.76 59.0599 298.56 59.4299 299.1 59.6399C299.05 58.5999 298.88 57.4599 298.52 56.2099V56.1999Z" fill="white"/>
<path d="M362.86 4.52002H312.41V72.38H362.86V4.52002Z" fill="black"/>
<path d="M347.89 54.9599L336.21 31.7899L346.82 16.7199C346.9 16.6099 346.91 16.4599 346.85 16.3299C346.79 16.2099 346.66 16.1299 346.52 16.1299H338.97C338.85 16.1299 338.73 16.1899 338.66 16.2999L328.61 31.2899V16.5099C328.61 16.2999 328.44 16.1299 328.23 16.1299H322.19C321.98 16.1299 321.81 16.2999 321.81 16.5099V55.1399C321.81 55.3499 321.98 55.5199 322.19 55.5199H328.23C328.44 55.5199 328.61 55.3499 328.61 55.1399V42.8199L331.64 38.5199L339.64 55.3099C339.7 55.4399 339.83 55.5199 339.98 55.5199H347.56C347.69 55.5199 347.81 55.4499 347.88 55.3399C347.95 55.2299 347.95 55.0899 347.9 54.9699L347.89 54.9599Z" fill="white"/>
<path d="M391.888 0.00572119L342.583 10.6929L356.958 77.0128L406.263 66.3256L391.888 0.00572119Z" fill="black"/>
<path d="M388.13 45.7398C386.27 42.6598 383.68 39.7498 380.41 37.0798C379.33 36.2198 377.5 34.8498 374.96 32.9998C372.43 31.1598 369.99 29.4198 367.7 27.8398C365.46 26.2898 363.87 25.1098 362.97 24.3298C362.15 23.6198 361.57 22.9298 361.21 22.2298C361.1 22.0398 361.03 21.8598 360.99 21.6798C360.9 21.2398 361.02 20.7998 361.35 20.3498C361.68 19.8998 362.21 19.7098 362.97 19.7598C363.64 19.7998 364.53 20.0998 365.4 20.6398C366.04 21.0598 366.81 21.7298 367.68 22.6098C368.56 23.4998 369.24 24.3198 369.75 25.0798C369.98 25.4098 370.23 25.7398 370.48 26.0598C370.77 26.4398 371.02 26.7198 371.28 26.9598C371.99 27.5498 372.69 27.9198 373.38 28.0398C373.72 28.0998 374.16 28.0898 374.73 27.9898C375.43 27.8698 375.83 27.2698 375.91 26.1598C375.94 24.8898 376.04 23.8498 376.22 23.0698C376.4 22.2998 376.72 21.4698 377.19 20.6298C377.55 20.0098 377.75 19.5198 377.8 19.1298C377.84 18.8398 377.81 18.4998 377.73 18.1198C377.69 17.9398 377.64 17.7498 377.58 17.5798C377.34 16.8298 376.87 16.1298 376.18 15.5098C375.51 14.8998 374.8 14.5198 374.08 14.3898C373.11 14.2098 372.35 14.5398 371.85 15.3398C371.65 15.5998 371.43 15.9598 371.21 16.4198C370.99 16.8698 370.79 17.2898 370.61 17.7098C370.53 17.8998 370.46 18.0698 370.41 18.2198C370.3 18.1198 370.18 18.0098 370.04 17.8798C367.58 15.5598 365.12 14.0898 362.7 13.5098L362.21 13.4198C358.43 12.7198 356.01 13.8998 355.02 16.9298C354.64 18.0398 354.58 19.2398 354.85 20.5098C355.12 21.7798 355.68 23.0198 356.52 24.3298C357.31 25.6498 358.41 26.9598 359.78 28.2298C361.11 29.4598 362.99 30.9098 365.35 32.5398C367.45 33.9998 369.85 35.7098 372.47 37.6098C375.1 39.5198 376.95 40.8998 377.95 41.6998C378.89 42.4598 379.82 43.3398 380.73 44.2998C381.63 45.2598 382.34 46.1198 382.8 46.7998C383.67 48.1898 384.26 49.4598 384.53 50.5298C384.89 52.4698 383.59 53.6998 380.69 54.1898C380.33 54.2398 380 54.2698 379.7 54.2798C379.41 54.2798 379.05 54.2598 378.64 54.1998C378.2 54.1398 377.57 54.0298 376.76 53.8798C375.66 53.6798 374.83 53.4998 374.24 53.3498C373.66 53.1998 373.04 52.9898 372.36 52.6898C370.35 51.9098 368.67 51.0798 367.35 50.2198C366.03 49.3598 364.73 48.2798 363.45 46.9698C362.56 46.0798 361.91 45.2998 361.52 44.6698C361.21 44.1398 361 43.6198 360.88 43.0798L360.82 42.8198C360.73 42.4098 360.72 42.2498 360.72 42.1298C360.72 42.1298 360.77 42.0698 361 41.9798C361.42 41.7598 361.86 41.6798 362.36 41.7098C362.94 41.7498 363.66 41.9298 364.54 42.2398C365.81 42.6598 366.91 43.0998 367.79 43.5598C368.69 44.0198 369.78 44.6798 371.02 45.5198C372.06 46.2398 372.79 46.7198 373.25 46.9798C373.78 47.2798 374.22 47.4598 374.59 47.5298C375.48 47.6898 376.14 47.4798 376.56 46.8798C376.93 46.3798 377.02 45.6898 376.84 44.8398L376.78 44.5798C376.61 43.7898 376.19 43.0698 375.55 42.4398C375 41.8998 374.03 41.1698 372.58 40.2198C371.04 39.1898 369.81 38.4198 368.91 37.9398C368.01 37.4598 366.94 36.9898 365.75 36.5498C364.01 35.8598 362.54 35.3998 361.4 35.1898C361.19 35.1498 360.72 35.0898 360 35.0098C359.21 34.9198 358.29 35.1098 357.22 35.5798C354.84 36.3198 353.95 38.2098 354.58 41.1798L354.73 41.8698C354.88 42.5698 355.08 43.2698 355.33 43.9598C355.59 44.6698 355.98 45.4598 356.5 46.2998C357.39 47.7598 358.64 49.3198 360.23 50.9498C361.81 52.5698 363.43 53.9698 365.09 55.1398C367.55 56.7998 370.67 58.2898 374.34 59.5798H374.36C375.61 59.9898 376.85 60.3098 378.04 60.5298C380.34 60.9598 382.51 61.0098 384.49 60.6898C387.94 59.9698 390.02 58.2798 390.68 55.6498C390.98 54.4298 390.97 53.0598 390.64 51.5698C390.26 49.8198 389.42 47.8498 388.14 45.7098L388.13 45.7398Z" fill="white"/>
<path d="M238.06 60.654L168.124 75.813L188.516 169.888L258.451 154.729L238.06 60.654Z" fill="black"/>
<path d="M232.73 125.54C230.09 121.17 226.42 117.05 221.78 113.25C220.25 112.04 217.65 110.09 214.05 107.46C210.46 104.85 207 102.39 203.75 100.14C200.57 97.9499 198.32 96.2699 197.04 95.1599C195.88 94.1499 195.06 93.1699 194.55 92.1799C194.4 91.9099 194.3 91.6599 194.24 91.4099C194.11 90.7899 194.28 90.1599 194.75 89.5299C195.23 88.8899 195.97 88.6199 197.04 88.6899C197.99 88.7399 199.25 89.1799 200.49 89.9499C201.4 90.5499 202.49 91.4899 203.72 92.7399C204.96 94.0099 205.94 95.1699 206.65 96.2399C206.98 96.6999 207.33 97.1699 207.69 97.6399C208.1 98.1699 208.45 98.5699 208.82 98.9099C209.82 99.7499 210.82 100.27 211.8 100.45C212.28 100.54 212.9 100.52 213.72 100.38C214.72 100.22 215.28 99.3599 215.4 97.7899C215.44 95.9899 215.58 94.5199 215.84 93.4099C216.09 92.3099 216.55 91.1499 217.21 89.9399C217.72 89.0599 218 88.3699 218.08 87.8099C218.13 87.3899 218.1 86.9099 217.98 86.3699C217.92 86.1099 217.85 85.8499 217.77 85.5999C217.43 84.5299 216.76 83.5499 215.79 82.6699C214.83 81.8099 213.83 81.2699 212.81 81.0799C211.43 80.8299 210.36 81.2899 209.64 82.4299C209.36 82.7999 209.05 83.3099 208.73 83.9599C208.42 84.5899 208.13 85.1999 207.88 85.7899C207.76 86.0599 207.67 86.2999 207.6 86.5099C207.45 86.3699 207.27 86.2099 207.07 86.0299C203.58 82.7399 200.09 80.6499 196.65 79.8299L195.96 79.6999C190.59 78.7099 187.16 80.3799 185.76 84.6799C185.22 86.2499 185.14 87.9599 185.52 89.7599C185.89 91.4899 186.69 93.3199 187.88 95.1799C189 97.0499 190.55 98.9099 192.5 100.71C194.39 102.45 197.05 104.51 200.4 106.82C203.38 108.89 206.78 111.31 210.5 114.02C214.24 116.73 216.85 118.69 218.27 119.82C219.6 120.9 220.93 122.14 222.22 123.51C223.5 124.88 224.5 126.08 225.16 127.06C226.4 129.03 227.23 130.83 227.61 132.35C228.12 135.1 226.28 136.85 222.17 137.55C221.66 137.63 221.19 137.67 220.77 137.68C220.36 137.68 219.85 137.65 219.26 137.57C218.63 137.48 217.74 137.33 216.59 137.12C215.03 136.83 213.86 136.59 213.01 136.37C212.19 136.16 211.3 135.85 210.34 135.44C207.49 134.33 205.1 133.15 203.23 131.94C201.38 130.74 199.52 129.19 197.7 127.33C196.44 126.06 195.51 124.96 194.96 124.07C194.51 123.32 194.22 122.58 194.05 121.81L193.97 121.43C193.85 120.86 193.83 120.62 193.83 120.45C193.83 120.45 193.91 120.37 194.22 120.24C194.81 119.93 195.44 119.81 196.14 119.86C196.96 119.92 197.99 120.18 199.24 120.61C201.04 121.21 202.6 121.84 203.86 122.48C205.13 123.13 206.68 124.08 208.44 125.27C209.91 126.29 210.95 126.97 211.61 127.35C212.36 127.78 212.98 128.04 213.52 128.13C214.78 128.36 215.72 128.05 216.31 127.21C216.83 126.5 216.97 125.53 216.7 124.32L216.62 123.94C216.38 122.82 215.79 121.8 214.87 120.9C214.09 120.14 212.72 119.1 210.66 117.75C208.48 116.29 206.72 115.2 205.45 114.51C204.17 113.82 202.65 113.16 200.96 112.54C198.49 111.56 196.41 110.91 194.79 110.61C194.49 110.55 193.83 110.47 192.81 110.36C191.69 110.24 190.38 110.51 188.86 111.16C185.48 112.22 184.22 114.89 185.11 119.1L185.32 120.09C185.53 121.08 185.82 122.07 186.17 123.05C186.54 124.06 187.1 125.17 187.83 126.38C189.09 128.45 190.87 130.66 193.12 132.97C195.36 135.26 197.67 137.26 200.01 138.92C203.51 141.27 207.92 143.39 213.13 145.21H213.16C214.94 145.79 216.69 146.24 218.37 146.56C221.64 147.16 224.71 147.24 227.52 146.79C232.42 145.78 235.37 143.37 236.3 139.64C236.73 137.91 236.71 135.96 236.25 133.85C235.7 131.37 234.51 128.58 232.7 125.54H232.73Z" fill="white"/>
</g>
<defs>
<clipPath id="clip0_416_880">
<rect width="463.5" height="220.27" fill="white"/>
</clipPath>
</defs>
</svg>
