<svg width="167" height="83" viewBox="0 0 167 83" fill="none" xmlns="http://www.w3.org/2000/svg">
<path d="M32 9H0V56H32V9Z" fill="white"/>
<path d="M5.34615 45.1879C5.10082 44.3618 4.68682 42.6684 4.44149 39.3688C4.30349 37.7627 4.16039 36.1103 4.16039 34.4169C4.16039 32.7235 4.29838 30.8146 4.71749 28.7723C5.02926 27.1661 5.44837 25.8627 5.72436 25.0366C6.07191 24.8621 6.38369 24.7338 6.59324 24.6876C7.25256 24.4721 7.63589 24.4721 8.50477 24.2514L9.23565 24.0359C9.06187 23.2559 8.8881 22.3836 8.78588 21.4291C8.57632 19.9513 8.50988 18.6068 8.50988 17.3906L8.54566 15.7383C9.24076 15.3483 10.217 14.9121 11.4334 14.6966C11.8832 14.6094 12.3381 14.5683 12.7214 14.5683L13.3807 14.6094L13.6925 17.17C13.9378 19.0378 14.2496 20.9468 14.4591 22.0757C15.604 27.7665 18.4253 32.195 18.6655 32.585C19.3248 33.6267 20.3011 34.9301 21.6197 36.3207C20.8888 36.7979 20.0199 37.3624 18.9415 37.7524C17.5513 38.3631 16.2633 38.5786 15.2565 38.6658C14.9447 38.4913 14.178 38.1013 13.2069 38.1013L12.6498 38.1475C11.3261 38.3631 10.4265 39.1892 10.1096 39.5382L10.0739 40.7543C10.0739 41.4933 10.1096 42.2733 10.2119 43.1405C10.4214 44.7466 11.9496 51.0481 12.2972 52.0026C11.8116 52.3053 11.2187 52.567 10.5594 52.7826C9.4452 53.1725 8.43833 53.2598 7.63589 53.306C7.28834 52.567 5.72436 46.5273 5.34104 45.1777L5.34615 45.1879ZM13.9685 35.592C12.6805 33.288 11.5356 30.9891 10.5594 28.3412C10.5236 28.3002 10.4879 28.3002 10.4572 28.3002C10.1454 29.4702 10.0074 32.8159 9.97164 35.0327C9.97164 35.8127 9.97164 36.3361 10.0074 36.6389C11.3312 36.2027 12.5783 35.8999 13.9736 35.5972L13.9685 35.592Z" fill="white"/>
<path d="M47.8978 10.6092L20.5976 15.0335L26.4759 49L53.7762 44.5757L47.8978 10.6092Z" fill="white"/>
<path d="M30.7225 30.476C29.828 30.4606 28.6883 30.3887 28.3049 30.2656C29.8536 24.6363 31.2898 18.7197 32.7567 12.2181C33.3547 12.1668 34.1418 12.1206 34.8726 12.136C35.6035 12.1514 36.2833 12.213 36.6922 12.2797C38.0773 18.6786 39.7077 24.5542 41.6345 30.6145C41.2257 30.6658 40.7401 30.6607 40.1421 30.6504C39.2477 30.635 38.3788 30.5683 38.2153 30.476C38.2153 30.476 37.5917 27.0173 37.0499 25.2726C36.7791 24.4259 36.6411 24.3387 35.0924 24.3182H34.9544C32.7822 24.2822 32.5676 24.4567 32.3733 25.2624C31.9645 26.966 31.5862 30.4657 31.5862 30.4657C31.3665 30.4913 31.0445 30.4862 30.7174 30.4811L30.7225 30.476ZM35.6393 17.1905C35.2866 15.7383 35.0975 15.1533 34.6886 15.1482C34.2798 15.143 34.0344 15.9487 33.6818 17.3958L32.9509 20.4849C32.8129 21.0904 32.7056 21.5266 32.7056 21.814C32.7056 22.4811 33.1962 22.517 34.6886 22.5375H34.8266C36.1862 22.5581 36.6462 22.5375 36.6462 21.8448C36.6462 21.5574 36.5899 21.1777 36.4571 20.6235L35.6393 17.1905Z" fill="white"/>
<path d="M70.1593 14.517H44.3741V49.3393H70.1593V14.517Z" fill="white"/>
<path d="M56.2317 43.864C50.2569 43.864 49.1478 42.2476 49.1478 36.3207C49.1478 23.2149 48.9331 21.1674 48.9331 21.1674C50.0064 21.0597 51.044 21.0597 52.1173 21.0597C52.1173 21.0597 52.1531 30.5734 52.1531 33.4471C52.1531 37.9371 52.1531 39.374 52.5108 40.0924C52.8686 40.8108 54.1566 40.9904 56.3032 40.9904C58.6288 40.9904 59.3085 40.6312 59.6663 39.9128C60.0598 39.1225 60.0598 37.9371 60.0598 34.5247C60.0598 29.6754 59.7736 21.0597 59.7736 21.0597C61.0258 20.9878 64.486 20.9878 65.452 21.1315C65.452 21.1315 65.5951 29.1418 65.5951 36.3207C65.5951 41.5292 62.2423 43.864 56.2317 43.864Z" fill="white"/>
<path d="M86.2823 8.54011L61.0823 14.0242L68.4296 48.0562L93.6296 42.5721L86.2823 8.54011Z" fill="white"/>
<path d="M84.3628 32.0103C83.4122 30.4298 82.0884 28.9365 80.4171 27.5664C79.8651 27.1251 78.9298 26.4221 77.6316 25.4727C76.3385 24.5285 75.0914 23.6357 73.921 22.8249C72.7761 22.0295 71.9635 21.424 71.5035 21.0237C71.0844 20.6594 70.7879 20.3053 70.6039 19.9461C70.5477 19.8486 70.5119 19.7563 70.4915 19.6639C70.4455 19.4381 70.5068 19.2123 70.6755 18.9814C70.8441 18.7505 71.115 18.653 71.5035 18.6786C71.8459 18.6992 72.3008 18.8531 72.7454 19.1302C73.0726 19.3457 73.4661 19.6895 73.9108 20.1411C74.3605 20.5978 74.7081 21.0186 74.9687 21.4086C75.0863 21.5779 75.2141 21.7473 75.3419 21.9115C75.4901 22.1065 75.6179 22.2502 75.7507 22.3733C76.1136 22.6761 76.4714 22.8659 76.8241 22.9275C76.9978 22.9583 77.2227 22.9532 77.514 22.9019C77.8718 22.8403 78.0763 22.5324 78.1171 21.9628C78.1325 21.3111 78.1836 20.7774 78.2756 20.3772C78.3676 19.982 78.5311 19.5561 78.7714 19.1251C78.9554 18.8069 79.0576 18.5555 79.0831 18.3554C79.1036 18.2065 79.0883 18.0321 79.0474 17.8371C79.0269 17.7447 79.0014 17.6472 78.9707 17.56C78.848 17.1751 78.6078 16.8159 78.2551 16.4978C77.9127 16.1847 77.5498 15.9897 77.1818 15.923C76.6861 15.8307 76.2976 16 76.0421 16.4105C75.9398 16.5439 75.8274 16.7287 75.715 16.9647C75.6025 17.1956 75.5003 17.4112 75.4083 17.6267C75.3674 17.7242 75.3316 17.8114 75.3061 17.8884C75.2499 17.8371 75.1885 17.7806 75.117 17.7139C73.8597 16.5234 72.6023 15.7691 71.3655 15.4715L71.115 15.4253C69.1831 15.0661 67.9462 15.6716 67.4402 17.2264C67.246 17.796 67.2153 18.4118 67.3533 19.0635C67.4913 19.7152 67.7775 20.3515 68.2068 21.0237C68.6106 21.7011 69.1728 22.3733 69.873 23.025C70.5528 23.6562 71.5137 24.4003 72.7199 25.2367C73.7932 25.9859 75.0199 26.8634 76.3589 27.8384C77.7032 28.8185 78.6487 29.5266 79.1598 29.9371C79.6402 30.3271 80.1156 30.7787 80.5807 31.2713C81.0407 31.7639 81.4035 32.2053 81.6387 32.5542C82.0833 33.2675 82.3849 33.9192 82.5229 34.4682C82.7069 35.4638 82.0424 36.0949 80.5602 36.3464C80.3762 36.372 80.2076 36.3874 80.0542 36.3926C79.906 36.3926 79.722 36.3823 79.5125 36.3515C79.2876 36.3207 78.9656 36.2643 78.5516 36.1873C77.9894 36.0847 77.5652 35.9923 77.2636 35.9153C76.9672 35.8384 76.6503 35.7306 76.3027 35.5766C75.2754 35.1764 74.4168 34.7505 73.7421 34.3092C73.0674 33.8679 72.403 33.3137 71.7488 32.6414C71.2939 32.1847 70.9617 31.7845 70.7624 31.4612C70.6039 31.1892 70.4966 30.9224 70.4353 30.6453L70.4046 30.5119C70.3586 30.3015 70.3535 30.2194 70.3535 30.1578C70.3535 30.1578 70.379 30.127 70.4966 30.0808C70.7112 29.9679 70.9361 29.9269 71.1917 29.9423C71.4881 29.9628 71.8561 30.0552 72.3059 30.2142C72.955 30.4298 73.5172 30.6555 73.967 30.8916C74.427 31.1276 74.9841 31.4663 75.6178 31.8974C76.1494 32.2668 76.5225 32.5131 76.7576 32.6466C77.0285 32.8005 77.2534 32.8929 77.4425 32.9288C77.8974 33.0109 78.2347 32.9031 78.4494 32.5952C78.6385 32.3387 78.6845 31.9846 78.5925 31.5484L78.5618 31.415C78.4749 31.0096 78.2603 30.6402 77.9332 30.3169C77.652 30.0398 77.1563 29.6652 76.4152 29.1777C75.6281 28.6491 74.9994 28.254 74.5394 28.0077C74.0794 27.7614 73.5325 27.5202 72.9243 27.2944C72.035 26.9403 71.2837 26.7043 70.701 26.5965C70.5937 26.576 70.3535 26.5452 69.9855 26.5042C69.5817 26.458 69.1115 26.5555 68.5646 26.7967C67.3482 27.1764 66.8933 28.1462 67.2153 29.6703L67.292 30.0244C67.3686 30.3836 67.4708 30.7428 67.5986 31.0969C67.7315 31.4612 67.9308 31.8666 68.1966 32.2976C68.6515 33.0468 69.2904 33.8473 70.103 34.6838C70.9106 35.5151 71.7386 36.2335 72.587 36.8339C73.8443 37.6857 75.439 38.4503 77.3147 39.1122H77.3249C77.9638 39.3226 78.5976 39.4868 79.2058 39.5997C80.3813 39.8204 81.4904 39.8461 82.5024 39.6818C84.2657 39.3124 85.3288 38.4452 85.6662 37.0956C85.8195 36.4695 85.8144 35.7665 85.6457 35.0019C85.4515 34.1039 85.0222 33.093 84.368 31.9949L84.3628 32.0103Z" fill="white"/>
<path d="M107.884 9.31879H85.9524V35.7716H107.884V9.31879Z" fill="white"/>
<path d="M99.3075 14.5221C100.054 15.3278 100.585 16.508 100.749 17.8525C100.785 18.1604 100.59 18.9198 100.284 18.9609L94.8149 19.6228C94.6616 19.6434 94.544 19.7716 94.5134 19.9307C94.498 20.2437 94.544 20.8236 94.6002 21.3214C94.6667 21.8961 95.1062 23.5946 95.6736 24.4208C96.4913 25.6062 97.6413 26.0526 98.7197 25.9192C99.7982 25.7858 100.473 25.3188 100.871 24.2976C100.953 24.0924 101.045 23.8101 101.147 23.7947C101.224 23.7845 101.413 24.0718 101.449 24.3438C101.469 24.4978 101.495 24.9237 101.377 25.288C100.826 27.1815 99.9106 29.1212 97.4982 29.4137C94.4674 29.7781 92.285 26.5401 91.7687 22.245C91.3956 19.1405 92.1827 15.9282 94.1863 14.1681C94.774 13.6292 95.4589 13.2752 96.2562 13.1777C97.3602 13.0443 98.5204 13.6036 99.3075 14.5221ZM94.3907 18.0372C94.3907 18.2322 94.5389 18.4067 94.6411 18.3964C95.3414 18.3502 95.8473 18.2527 97.1302 18.0936C97.4624 18.0526 97.9684 17.4881 97.8509 16.4875C97.7333 15.4868 96.9002 14.2296 96.2869 14.3015C95.234 14.4298 94.4162 16.2771 94.3907 18.0321V18.0372Z" fill="white"/>
<path d="M52.7682 3.99999L25.4679 8.42433L31.3462 42.3908L58.6465 37.9665L52.7682 3.99999Z" fill="black"/>
<path d="M39.6342 29.0131L39.8842 29.0307C39.8983 28.7985 39.9204 28.6434 39.9684 28.5245C40.0116 28.4175 40.0802 28.3294 40.2165 28.2457C40.3616 28.1567 40.5827 28.0731 40.9296 27.99C41.2741 27.9076 41.7258 27.8294 42.3215 27.7431L42.3215 27.7432L42.3257 27.7425L42.4754 27.7182C42.9005 27.6553 43.2196 27.6142 43.469 27.6004C43.7201 27.5865 43.8795 27.6017 43.9927 27.6377C44.1923 27.7011 44.3088 27.8447 44.5441 28.3039C45.0044 29.2214 45.5723 30.6166 46.0275 31.7897C46.2546 32.375 46.4526 32.9025 46.5939 33.2836C46.6645 33.4741 46.7209 33.628 46.7597 33.7342L46.8041 33.8564L46.8155 33.888L46.8184 33.896L46.8191 33.898L46.8193 33.8985L46.8193 33.8986L47.055 33.8165L46.8193 33.8986L46.8589 34.0085L46.9684 34.0498C47.0248 34.0711 47.0881 34.0804 47.1414 34.0857C47.199 34.0914 47.2652 34.094 47.3365 34.0944C47.4794 34.0952 47.6567 34.0873 47.8546 34.0729C48.2512 34.044 48.7449 33.9879 49.2412 33.9164C49.8949 33.8222 50.4477 33.7394 50.9072 33.603L51.1921 33.5184L51.0565 33.2525C47.7699 26.8097 44.845 20.5229 42.0877 13.6073L42.0245 13.4486L41.8537 13.4478C41.3771 13.4457 40.6069 13.4989 39.7936 13.6128C38.9761 13.7272 38.1117 13.9213 37.4611 14.0863L37.2834 14.1313L37.275 14.3142C36.9265 21.8581 36.4983 28.7394 35.8913 35.3176L35.8696 35.5526L36.1041 35.5894C36.3605 35.6297 36.8171 35.6132 37.3074 35.574C37.6248 35.5486 37.9689 35.5126 38.3047 35.4714L38.2947 35.4859L38.868 35.4024L38.8862 35.3998C39.2333 35.3492 39.5994 35.2959 39.8513 35.2236L40.0427 35.1686L40.0296 34.9698L39.7797 34.9837L40.0296 34.9698L40.0295 34.9697L40.0295 34.9692L40.0294 34.967L40.0288 34.9586L40.0267 34.925L40.0185 34.7956C40.0116 34.6831 40.0018 34.52 39.9903 34.318C39.9675 33.914 39.9383 33.3548 39.9128 32.7339C39.8617 31.4886 39.8259 30.0074 39.8842 29.0305L39.6342 29.0131ZM39.6342 29.0131C39.6911 28.0758 39.8928 27.8422 42.283 27.4962L42.4344 27.4716M39.6342 29.0131L42.4344 27.4716M42.4344 27.4716C44.1376 27.2193 44.3059 27.2925 44.7673 28.1931L42.4344 27.4716ZM41.7587 25.2767L41.7587 25.2766L41.7549 25.2773L41.6052 25.3015C41.1949 25.3621 40.8599 25.4094 40.5838 25.4355C40.3052 25.4618 40.103 25.4646 39.9543 25.4433C39.8093 25.4224 39.7372 25.3817 39.694 25.3376C39.6486 25.2914 39.6045 25.2102 39.5768 25.05C39.5533 24.9142 39.5469 24.727 39.5524 24.4744C39.5568 24.2742 39.5682 24.0443 39.5814 23.7793C39.5847 23.7127 39.5881 23.6438 39.5915 23.5726C39.5915 23.5723 39.5915 23.5719 39.5916 23.5716L39.7942 19.9837C39.7942 19.9834 39.7942 19.9832 39.7943 19.9829C39.8476 19.1378 39.9017 18.4991 39.9949 18.0648C40.0417 17.8468 40.0942 17.7011 40.1486 17.6115C40.2 17.5267 40.2364 17.5172 40.2526 17.5148C40.3158 17.5054 40.4271 17.5172 40.64 17.8489C40.8463 18.1702 41.0854 18.6957 41.4218 19.4828C41.4218 19.4829 41.4219 19.4831 41.422 19.4833L42.9846 23.1837L42.9847 23.184C43.2355 23.7756 43.362 24.1702 43.4128 24.4638C43.4425 24.6352 43.43 24.7332 43.4045 24.794C43.3817 24.8481 43.3359 24.9033 43.224 24.9603C43.1065 25.0202 42.9343 25.0728 42.6851 25.1242C42.4382 25.1752 42.1336 25.2218 41.7587 25.2767Z" fill="white" stroke="white" stroke-width="0.5"/>
<path d="M36 4H6V51H36V4Z" fill="black"/>
<path d="M12.4941 39.827C12.185 38.9952 11.6633 37.2904 11.3542 33.9685C11.1803 32.3514 11 30.6879 11 28.983C11 27.2782 11.1739 25.3563 11.702 23.3002C12.0948 21.6831 12.623 20.3709 12.9707 19.5391C13.4087 19.3635 13.8015 19.2343 14.0656 19.1878C14.8964 18.9709 15.3794 18.9709 16.4742 18.7487L17.3952 18.5317C17.1762 17.7465 16.9573 16.8682 16.8285 15.9073C16.5644 14.4194 16.4807 13.0658 16.4807 11.8414L16.5258 10.1779C17.4016 9.78527 18.6317 9.34614 20.1645 9.12916C20.7313 9.04133 21.3045 9 21.7875 9L22.6183 9.04133L23.0111 11.6193C23.3203 13.4998 23.7131 15.4216 23.9772 16.5582C25.4198 22.2876 28.9748 26.7461 29.2775 27.1387C30.1083 28.1874 31.3384 29.4997 33 30.8997C32.079 31.3802 30.9842 31.9485 29.6253 32.3411C27.8735 32.9559 26.2506 33.1729 24.9819 33.2607C24.589 33.085 23.623 32.6924 22.3993 32.6924L21.6973 32.7389C20.0293 32.9559 18.8958 33.7877 18.4965 34.139L18.4514 35.3634C18.4514 36.1073 18.4965 36.8926 18.6253 37.7657C18.8893 39.3827 20.815 45.7269 21.2529 46.6878C20.6411 46.9926 19.894 47.2561 19.0632 47.473C17.6593 47.8657 16.3905 47.9535 15.3794 48C14.9415 47.2561 12.9707 41.1754 12.4877 39.8167L12.4941 39.827ZM23.3589 30.1661C21.736 27.8465 20.2933 25.532 19.0632 22.8662C19.0182 22.8249 18.9731 22.8249 18.9344 22.8249C18.5416 24.0028 18.3677 27.3712 18.3226 29.603C18.3226 30.3883 18.3226 30.9152 18.3677 31.22C20.0357 30.7809 21.6071 30.4761 23.3653 30.1713L23.3589 30.1661Z" fill="white"/>
<path d="M75.2703 9.3855H49.4851V44.2078H75.2703V9.3855Z" fill="black"/>
<path d="M61.3427 38.7325C55.3679 38.7325 54.2588 37.1161 54.2588 31.1892C54.2588 18.0834 54.0441 16.0359 54.0441 16.0359C55.1175 15.9282 56.155 15.9282 57.2283 15.9282C57.2283 15.9282 57.2641 25.4419 57.2641 28.3156C57.2641 32.8056 57.2641 34.2425 57.6219 34.9609C57.9796 35.6793 59.2676 35.8589 61.4143 35.8589C63.7398 35.8589 64.4196 35.4997 64.7773 34.7813C65.1709 33.991 65.1709 32.8056 65.1709 29.3932C65.1709 24.5439 64.8847 15.9282 64.8847 15.9282C66.1369 15.8563 69.597 15.8563 70.563 16C70.563 16 70.7061 24.0103 70.7061 31.1892C70.7061 36.3977 67.3533 38.7325 61.3427 38.7325Z" fill="white"/>
<path d="M91.3958 3.40789L66.1958 8.892L73.543 42.924L98.743 37.4399L91.3958 3.40789Z" fill="black"/>
<path d="M89.4739 26.8788C88.5232 25.2983 87.1995 23.805 85.5282 22.4349C84.9762 21.9936 84.0408 21.2906 82.7426 20.3413C81.4495 19.3971 80.2025 18.5042 79.032 17.6934C77.8872 16.898 77.0745 16.2925 76.6145 15.8922C76.1954 15.5279 75.899 15.1738 75.715 14.8146C75.6587 14.7171 75.623 14.6248 75.6025 14.5324C75.5565 14.3066 75.6178 14.0808 75.7865 13.8499C75.9552 13.619 76.2261 13.5215 76.6145 13.5472C76.9569 13.5677 77.4118 13.7216 77.8565 13.9987C78.1836 14.2142 78.5771 14.5581 79.0218 15.0096C79.4716 15.4663 79.8191 15.8871 80.0798 16.2771C80.1973 16.4464 80.3251 16.6158 80.4529 16.78C80.6011 16.975 80.7289 17.1187 80.8618 17.2418C81.2247 17.5446 81.5824 17.7345 81.9351 17.796C82.1089 17.8268 82.3338 17.8217 82.6251 17.7704C82.9829 17.7088 83.1873 17.4009 83.2282 16.8313C83.2435 16.1796 83.2946 15.6459 83.3866 15.2457C83.4786 14.8506 83.6422 14.4246 83.8824 13.9936C84.0664 13.6754 84.1686 13.424 84.1942 13.2239C84.2146 13.0751 84.1993 12.9006 84.1584 12.7056C84.138 12.6132 84.1124 12.5157 84.0817 12.4285C83.9591 12.0436 83.7188 11.6844 83.3662 11.3663C83.0237 11.0532 82.6609 10.8582 82.2929 10.7915C81.7971 10.6992 81.4087 10.8685 81.1531 11.279C81.0509 11.4124 80.9384 11.5972 80.826 11.8332C80.7136 12.0641 80.6113 12.2797 80.5193 12.4952C80.4784 12.5927 80.4427 12.6799 80.4171 12.7569C80.3609 12.7056 80.2996 12.6491 80.228 12.5824C78.9707 11.3919 77.7134 10.6376 76.4765 10.34L76.2261 10.2938C74.2941 9.93458 73.0572 10.5401 72.5512 12.0949C72.357 12.6645 72.3263 13.2803 72.4643 13.932C72.6023 14.5837 72.8886 15.22 73.3179 15.8922C73.7217 16.5696 74.2839 17.2418 74.9841 17.8935C75.6639 18.5247 76.6247 19.2688 77.8309 20.1052C78.9042 20.8544 80.1309 21.7319 81.47 22.7069C82.8142 23.687 83.7597 24.3951 84.2708 24.8057C84.7513 25.1956 85.2266 25.6472 85.6917 26.1398C86.1517 26.6325 86.5146 27.0738 86.7497 27.4227C87.1944 28.136 87.4959 28.7877 87.6339 29.3368C87.8179 30.3323 87.1535 30.9634 85.6713 31.2149C85.4873 31.2405 85.3186 31.2559 85.1653 31.2611C85.0171 31.2611 84.8331 31.2508 84.6235 31.22C84.3986 31.1892 84.0766 31.1328 83.6626 31.0558C83.1004 30.9532 82.6762 30.8608 82.3746 30.7838C82.0782 30.7069 81.7613 30.5991 81.4138 30.4452C80.3864 30.0449 79.5278 29.619 78.8531 29.1777C78.1785 28.7364 77.514 28.1822 76.8598 27.5099C76.405 27.0532 76.0727 26.653 75.8734 26.3297C75.715 26.0577 75.6076 25.7909 75.5463 25.5138L75.5156 25.3804C75.4696 25.17 75.4645 25.0879 75.4645 25.0263C75.4645 25.0263 75.4901 24.9955 75.6076 24.9493C75.8223 24.8364 76.0472 24.7954 76.3027 24.8108C76.5992 24.8313 76.9672 24.9237 77.4169 25.0828C78.066 25.2983 78.6283 25.5241 79.078 25.7601C79.538 25.9962 80.0951 26.3348 80.7289 26.7659C81.2604 27.1353 81.6335 27.3817 81.8686 27.5151C82.1395 27.669 82.3644 27.7614 82.5535 27.7973C83.0084 27.8794 83.3457 27.7717 83.5604 27.4638C83.7495 27.2072 83.7955 26.8531 83.7035 26.4169L83.6729 26.2835C83.586 25.8781 83.3713 25.5087 83.0442 25.1854C82.7631 24.9083 82.2673 24.5337 81.5262 24.0462C80.7391 23.5176 80.1105 23.1225 79.6505 22.8762C79.1905 22.6299 78.6436 22.3887 78.0354 22.1629C77.146 21.8089 76.3947 21.5728 75.8121 21.465C75.7047 21.4445 75.4645 21.4137 75.0965 21.3727C74.6927 21.3265 74.2225 21.424 73.6757 21.6652C72.4592 22.0449 72.0043 23.0148 72.3263 24.5388L72.403 24.8929C72.4797 25.2521 72.5819 25.6113 72.7097 25.9654C72.8426 26.3297 73.0419 26.7351 73.3077 27.1661C73.7625 27.9153 74.4014 28.7158 75.2141 29.5523C76.0216 30.3836 76.8496 31.102 77.698 31.7024C78.9554 32.5542 80.55 33.3188 82.4258 33.9808H82.436C83.0749 34.1912 83.7086 34.3554 84.3168 34.4683C85.4924 34.6889 86.6015 34.7146 87.6135 34.5504C89.3768 34.1809 90.4399 33.3137 90.7772 31.9641C90.9305 31.338 90.9254 30.635 90.7568 29.8704C90.5625 28.9724 90.1332 27.9615 89.479 26.8634L89.4739 26.8788Z" fill="white"/>
<path d="M112.995 4.1873H91.0634V30.6402H112.995V4.1873Z" fill="black"/>
<path d="M104.419 9.39064C105.165 10.1963 105.696 11.3765 105.86 12.721C105.896 13.0289 105.701 13.7883 105.395 13.8294L99.926 14.4913C99.7726 14.5119 99.6551 14.6402 99.6244 14.7992C99.6091 15.1123 99.6551 15.6921 99.7113 16.1899C99.7777 16.7646 100.217 18.4631 100.785 19.2893C101.602 20.4747 102.752 20.9211 103.831 20.7877C104.909 20.6543 105.584 20.1873 105.983 19.1661C106.064 18.9609 106.156 18.6786 106.259 18.6633C106.335 18.653 106.524 18.9404 106.56 19.2123C106.581 19.3663 106.606 19.7922 106.489 20.1565C105.937 22.05 105.022 23.9897 102.609 24.2822C99.5784 24.6466 97.396 21.4086 96.8798 17.1135C96.5067 14.009 97.2938 10.7967 99.2973 9.03657C99.8851 8.49776 100.57 8.14369 101.367 8.04619C102.471 7.91277 103.631 8.47211 104.419 9.39064ZM99.5017 12.9057C99.5017 13.1007 99.65 13.2752 99.7522 13.2649C100.452 13.2187 100.958 13.1212 102.241 12.9622C102.573 12.9211 103.079 12.3566 102.962 11.356C102.844 10.3554 102.011 9.09815 101.398 9.16999C100.345 9.29828 99.5273 11.1456 99.5017 12.9006V12.9057Z" fill="white"/>
<g clip-path="url(#clip0_745_735)">
<path d="M70.8754 43.7243H42.5417V81.6962H70.8754V43.7243Z" fill="white"/>
<path d="M62.423 54.8764C62.5129 54.619 62.6196 54.4343 62.7544 54.3224C62.9678 54.1322 63.2711 54.0035 63.6586 53.9363L64.1921 53.8468C64.4224 53.8076 64.5909 53.6062 64.5909 53.3712V52.8284C64.5909 52.6885 64.5291 52.5486 64.4168 52.4591C64.3101 52.3696 64.1641 52.3304 64.0237 52.3528L57.6998 53.4719C57.5201 53.5055 57.3741 53.6342 57.3235 53.8076L53.9313 65.0045L50.7133 55.1282C50.6402 54.8988 50.4044 54.7645 50.1685 54.8037L45.2487 55.671C45.0184 55.7101 44.8499 55.9116 44.8499 56.1466V56.5999C44.8499 56.7397 44.9117 56.874 45.024 56.9692C45.1307 57.0587 45.2768 57.0979 45.4172 57.0755L45.7822 57.0139C45.917 56.9915 46.1023 56.9748 46.2147 57.0475C46.3495 57.137 46.3888 57.2266 46.4112 57.2881C46.4225 57.3273 46.4842 57.5791 46.4842 58.7318V69.4586C46.4842 70.4322 46.473 70.6337 46.473 70.6561C46.4056 71.0757 46.3158 71.3051 46.254 71.4227C46.181 71.5569 46.0743 71.6689 45.9282 71.7528C45.7822 71.8367 45.625 71.8759 45.4509 71.8703H45.3329C45.069 71.8703 44.8555 72.0885 44.8555 72.3515V72.8048C44.8555 73.0678 45.069 73.286 45.3385 73.286H49.4215C49.6855 73.286 49.9045 73.0734 49.9045 72.8048V72.3291C49.9045 72.2004 49.854 72.0773 49.7641 71.9878C49.6743 71.8983 49.5338 71.8423 49.4215 71.8479C49.0059 71.8591 48.697 71.764 48.5285 71.5961C48.3376 71.4003 48.214 71.1485 48.1579 70.8351C48.141 70.7456 48.1186 70.4266 48.1186 69.3635V60.4552L52.0892 72.9447C52.151 73.1461 52.3363 73.2804 52.5497 73.2804H52.7856C52.999 73.2804 53.1844 73.1461 53.2462 72.9447L57.683 58.7094V69.5649C57.683 70.8127 57.61 71.1037 57.5875 71.1709C57.5145 71.3835 57.419 71.5402 57.3179 71.6185C57.1494 71.7472 56.8967 71.8143 56.5822 71.8143H56.1217C55.8577 71.8143 55.6443 72.0326 55.6443 72.2956V72.8048C55.6443 73.0678 55.8577 73.286 56.1273 73.286H64.1079C64.3719 73.286 64.5909 73.0734 64.5909 72.8048V72.262C64.5909 72.1333 64.5403 72.0102 64.4505 71.9207C64.3606 71.8311 64.2371 71.7808 64.1079 71.7808H63.5744C63.2149 71.7752 62.9566 71.7192 62.7712 71.5905C62.5915 71.4618 62.4736 71.3275 62.423 71.1764C62.395 71.0869 62.3219 70.7456 62.3219 69.4586V56.5551C62.3219 55.3129 62.395 54.9771 62.423 54.8876V54.8764Z" fill="white"/>
<path d="M91.1331 45.2128H68.1291V76.0446H91.1331V45.2128Z" fill="white"/>
<path d="M78.7044 71.1988C73.3746 71.1988 72.3862 69.7664 72.3862 64.5233C72.3862 52.9179 72.1952 51.105 72.1952 51.105C73.15 51.0098 74.0767 51.0098 75.037 51.0098C75.037 51.0098 75.0707 59.4368 75.0707 61.9773C75.0707 65.9501 75.0707 67.2259 75.3909 67.8583C75.711 68.4962 76.8567 68.6528 78.7718 68.6528C80.8442 68.6528 81.4507 68.3339 81.7709 67.7016C82.1247 67.0021 82.1247 65.9557 82.1247 62.9341C82.1247 58.6423 81.872 51.0098 81.872 51.0098C82.9896 50.9483 86.0785 50.9483 86.9378 51.0714C86.9378 51.0714 87.0669 58.161 87.0669 64.5233C87.0669 69.1341 84.0735 71.1988 78.71 71.1988H78.7044Z" fill="white"/>
<path d="M112.202 39.9077L84.5117 45.8878L92.5851 82.998L120.276 77.0178L112.202 39.9077Z" fill="white"/>
<path d="M110.093 65.5025C109.049 63.779 107.594 62.1507 105.758 60.6567C105.151 60.1755 104.123 59.4089 102.697 58.3737C101.276 57.3441 99.9056 56.3704 98.6195 55.4863C97.3614 54.619 96.4685 53.9587 95.963 53.5223C95.5025 53.125 95.1767 52.7389 94.9746 52.3472C94.9128 52.2409 94.8735 52.1401 94.851 52.0394C94.8005 51.7932 94.8679 51.547 95.0532 51.2952C95.2385 51.0434 95.5362 50.9371 95.963 50.9651C96.3393 50.9875 96.8391 51.1553 97.3278 51.4575C97.6872 51.6925 98.1196 52.0674 98.6082 52.5598C99.1025 53.0578 99.4844 53.5167 99.7708 53.9419C99.9 54.1266 100.04 54.3113 100.181 54.4903C100.344 54.7029 100.484 54.8596 100.63 54.9939C101.029 55.3241 101.422 55.5311 101.809 55.5982C102 55.6318 102.248 55.6262 102.568 55.5703C102.961 55.5031 103.185 55.1674 103.23 54.5463C103.247 53.8356 103.303 53.2537 103.404 52.8172C103.506 52.3864 103.685 51.9219 103.949 51.4519C104.151 51.105 104.264 50.8308 104.292 50.6125C104.314 50.4503 104.297 50.26 104.253 50.0474C104.23 49.9467 104.202 49.8403 104.168 49.7452C104.033 49.3256 103.77 48.9339 103.382 48.5869C103.006 48.2456 102.607 48.033 102.203 47.9602C101.658 47.8595 101.231 48.0442 100.95 48.4918C100.838 48.6373 100.714 48.8387 100.591 49.0961C100.467 49.3479 100.355 49.5829 100.254 49.818C100.209 49.9243 100.17 50.0194 100.141 50.1033C100.08 50.0474 100.012 49.9858 99.9337 49.9131C98.5521 48.6149 97.1705 47.7924 95.8114 47.4678L95.5362 47.4174C93.4133 47.0258 92.0541 47.686 91.4981 49.3815C91.2847 50.0026 91.251 50.6741 91.4027 51.3847C91.5543 52.0954 91.8688 52.7892 92.3406 53.5223C92.7842 54.2609 93.402 54.9939 94.1714 55.7046C94.9184 56.3928 95.9742 57.2042 97.2997 58.1163C98.4791 58.9332 99.827 59.8901 101.298 60.9533C102.775 62.022 103.814 62.7942 104.376 63.2419C104.904 63.6671 105.426 64.1595 105.937 64.6967C106.443 65.2339 106.842 65.7151 107.1 66.0956C107.589 66.8734 107.92 67.5841 108.072 68.1828C108.274 69.2683 107.544 69.9566 105.915 70.2308C105.713 70.2588 105.527 70.2756 105.359 70.2812C105.196 70.2812 104.994 70.27 104.764 70.2364C104.516 70.2028 104.163 70.1413 103.708 70.0573C103.09 69.9454 102.624 69.8447 102.292 69.7608C101.967 69.6768 101.619 69.5593 101.237 69.3914C100.108 68.955 99.1642 68.4906 98.4229 68.0093C97.6816 67.5281 96.9515 66.9238 96.2326 66.1908C95.7327 65.6927 95.3677 65.2563 95.1487 64.9038C94.9746 64.6072 94.8566 64.3162 94.7892 64.0141L94.7555 63.8686C94.705 63.6392 94.6994 63.5496 94.6994 63.4825C94.6994 63.4825 94.7274 63.4489 94.8566 63.3985C95.0925 63.2754 95.3396 63.2307 95.6204 63.2475C95.9462 63.2698 96.3505 63.3706 96.8448 63.544C97.558 63.779 98.1758 64.0252 98.67 64.2826C99.1755 64.54 99.7876 64.9094 100.484 65.3794C101.068 65.7823 101.478 66.0509 101.736 66.1964C102.034 66.3642 102.281 66.4649 102.489 66.5041C102.989 66.5936 103.36 66.4761 103.595 66.1404C103.803 65.8606 103.854 65.4745 103.753 64.9989L103.719 64.8534C103.624 64.4113 103.388 64.0085 103.028 63.6559C102.719 63.3538 102.175 62.9453 101.36 62.4137C100.495 61.8374 99.8045 61.4065 99.299 61.1379C98.7936 60.8693 98.1926 60.6063 97.5243 60.3601C96.5471 59.974 95.7215 59.7166 95.0813 59.5991C94.9633 59.5767 94.6994 59.5432 94.295 59.4984C93.8513 59.448 93.3346 59.5543 92.7337 59.8173C91.397 60.2314 90.8972 61.289 91.251 62.9509L91.3353 63.337C91.4195 63.7287 91.5318 64.1204 91.6722 64.5065C91.8183 64.9038 92.0373 65.3458 92.3293 65.8158C92.8292 66.6328 93.5312 67.5057 94.4242 68.4178C95.3115 69.3243 96.2214 70.1077 97.1536 70.7624C98.5352 71.6912 100.287 72.525 102.349 73.2468H102.36C103.062 73.4763 103.758 73.6553 104.427 73.7784C105.718 74.019 106.937 74.047 108.049 73.8679C109.987 73.4651 111.155 72.5194 111.526 71.0478C111.694 70.3651 111.688 69.5985 111.503 68.7647C111.29 67.7855 110.818 66.6832 110.099 65.4857L110.093 65.5025Z" fill="white"/>
<path d="M138.693 46.9984L114.307 43.9507L110.192 76.6359L134.577 79.6837L138.693 46.9984Z" fill="white"/>
<path d="M119.574 69.2348C118.989 69.1508 118.546 68.8822 118.574 68.6864C118.608 68.4626 118.883 68.3563 119.669 68.2947C120.573 68.222 120.916 67.8974 121.067 67.6288C121.27 67.2539 121.657 65.1108 122.033 62.5368C122.157 61.6863 122.224 61.233 122.202 60.8861C122.202 60.6567 121.809 60.2818 121.225 59.7054C121.034 59.476 120.803 59.269 120.832 59.1011C120.865 58.8773 121.331 58.7094 122 58.7206C123.595 58.7206 126.285 58.3849 126.88 58.3569C127.066 58.3569 127.217 58.6087 127.2 58.7206C126.908 59.9516 126.307 63.8238 126.071 65.4633C125.993 66.0005 125.903 66.8846 125.796 67.8806C125.712 68.7088 125.942 68.9158 126.858 69.2739C127.38 69.4922 127.65 69.7048 127.61 69.9622C127.571 70.2196 127.009 70.2811 126.425 70.1972C126.173 70.158 124.145 69.7831 123.348 69.6656C122.185 69.4978 120.203 69.3243 119.585 69.2348H119.574ZM127.835 54.3336C127.683 55.38 126.178 56.0291 125.195 55.8892C124.83 55.8389 124.055 55.5535 123.668 55.1506C123.275 54.7757 123.011 54.3057 123.106 53.651C123.162 53.2817 123.426 52.7165 123.954 52.4143C124.443 52.1401 125.28 52.0003 126.004 52.1066C127.425 52.3136 127.936 53.6286 127.835 54.3336Z" fill="white"/>
<path d="M160.78 44.4909H132.446V79.1278H160.78V44.4909Z" fill="white"/>
<path d="M157.067 64.6967C157.028 64.6519 156.972 64.6296 156.91 64.6296H152.192C152.086 64.6296 152.001 64.7079 151.985 64.8086C151.811 65.9893 151.316 66.9518 150.519 67.668C149.721 68.3842 148.598 68.7479 147.166 68.7479C146.104 68.7479 145.195 68.5745 144.459 68.2387C143.729 67.903 143.122 67.4498 142.673 66.8958C142.218 66.3362 141.881 65.6983 141.673 64.9989C141.465 64.2938 141.359 63.5552 141.359 62.8054C141.359 62.0556 141.466 61.2554 141.679 60.5224C141.887 59.8005 142.224 59.1403 142.679 58.5751C143.134 58.0099 143.734 57.5567 144.465 57.221C145.2 56.8852 146.11 56.7118 147.172 56.7118C147.75 56.7118 148.306 56.7901 148.834 56.9468C149.362 57.1035 149.839 57.3217 150.249 57.6015C150.659 57.8757 151.007 58.2058 151.288 58.5695C151.558 58.9276 151.732 59.3249 151.811 59.7558C151.827 59.8565 151.917 59.9292 152.018 59.9292H156.736C156.798 59.9292 156.854 59.9013 156.893 59.8565C156.933 59.8117 156.949 59.7502 156.944 59.6886C156.792 58.5975 156.427 57.6127 155.854 56.7677C155.281 55.9228 154.546 55.2065 153.67 54.6358C152.793 54.0706 151.794 53.6342 150.693 53.332C149.592 53.0354 148.413 52.89 147.177 52.89C145.464 52.89 143.897 53.1474 142.527 53.651C141.151 54.1546 139.972 54.8652 139.022 55.7549C138.073 56.6446 137.338 57.7022 136.832 58.8997C136.327 60.0971 136.068 61.4121 136.068 62.8054C136.068 64.1987 136.327 65.4521 136.832 66.6328C137.338 67.8135 138.079 68.8543 139.022 69.7272C139.972 70.6001 141.145 71.294 142.521 71.792C143.892 72.2844 145.459 72.5362 147.172 72.5362C148.553 72.5362 149.834 72.3627 150.991 72.0102C152.148 71.6633 153.175 71.1485 154.04 70.4826C154.905 69.8167 155.613 68.9997 156.146 68.0485C156.674 67.1028 157.006 66.0285 157.135 64.8534C157.14 64.7918 157.123 64.7359 157.084 64.6911L157.067 64.6967Z" fill="white"/>
<path d="M76.4916 38.1287H48.1579V76.1006H76.4916V38.1287Z" fill="black"/>
<path d="M68.0392 49.2808C68.1291 49.0234 68.2358 48.8387 68.3706 48.7268C68.584 48.5366 68.8873 48.4079 69.2748 48.3407L69.8083 48.2512C70.0386 48.212 70.2071 48.0106 70.2071 47.7756V47.2328C70.2071 47.0929 70.1453 46.953 70.033 46.8635C69.9263 46.774 69.7803 46.7348 69.6399 46.7572L63.316 47.8763C63.1363 47.9099 62.9903 48.0386 62.9397 48.212L59.5475 59.4089L56.3295 49.5326C56.2564 49.3032 56.0206 49.1689 55.7847 49.208L50.8649 50.0754C50.6346 50.1145 50.4661 50.316 50.4661 50.551V51.0042C50.4661 51.1441 50.5279 51.2784 50.6402 51.3736C50.7469 51.4631 50.893 51.5023 51.0334 51.4799L51.3984 51.4183C51.5332 51.3959 51.7186 51.3791 51.8309 51.4519C51.9657 51.5414 52.005 51.631 52.0274 51.6925C52.0387 51.7317 52.1005 51.9835 52.1005 53.1362V63.863C52.1005 64.8366 52.0892 65.0381 52.0892 65.0604C52.0218 65.4801 51.932 65.7095 51.8702 65.827C51.7972 65.9613 51.6905 66.0733 51.5444 66.1572C51.3984 66.2411 51.2412 66.2803 51.0671 66.2747H50.9491C50.6852 66.2747 50.4718 66.4929 50.4718 66.7559V67.2092C50.4718 67.4722 50.6852 67.6904 50.9547 67.6904H55.0377C55.3017 67.6904 55.5207 67.4778 55.5207 67.2092V66.7335C55.5207 66.6048 55.4702 66.4817 55.3803 66.3922C55.2905 66.3027 55.1501 66.2467 55.0377 66.2523C54.6221 66.2635 54.3132 66.1684 54.1448 66.0005C53.9538 65.8047 53.8302 65.5529 53.7741 65.2395C53.7572 65.15 53.7348 64.831 53.7348 63.7679V54.8596L57.7054 67.3491C57.7672 67.5505 57.9525 67.6848 58.166 67.6848H58.4018C58.6152 67.6848 58.8006 67.5505 58.8624 67.3491L63.2992 53.1138V63.9693C63.2992 65.2171 63.2262 65.5081 63.2037 65.5752C63.1307 65.7879 63.0352 65.9446 62.9341 66.0229C62.7656 66.1516 62.5129 66.2187 62.1984 66.2187H61.7379C61.4739 66.2187 61.2605 66.437 61.2605 66.7V67.2092C61.2605 67.4722 61.4739 67.6904 61.7435 67.6904H69.7241C69.9881 67.6904 70.2071 67.4778 70.2071 67.2092V66.6664C70.2071 66.5377 70.1565 66.4146 70.0667 66.3251C69.9768 66.2355 69.8533 66.1852 69.7241 66.1852H69.1906C68.8311 66.1796 68.5728 66.1236 68.3874 65.9949C68.2077 65.8662 68.0898 65.7319 68.0392 65.5808C68.0112 65.4913 67.9382 65.15 67.9382 63.863V50.9595C67.9382 49.7172 68.0112 49.3815 68.0392 49.292V49.2808Z" fill="white"/>
<path d="M96.7493 39.6171H73.7453V70.449H96.7493V39.6171Z" fill="black"/>
<path d="M84.3206 65.6032C78.9908 65.6032 78.0024 64.1707 78.0024 58.9276C78.0024 47.3223 77.8114 45.5093 77.8114 45.5093C78.7662 45.4142 79.6929 45.4142 80.6532 45.4142C80.6532 45.4142 80.6869 53.8412 80.6869 56.3816C80.6869 60.3545 80.6869 61.6303 81.0071 62.2626C81.3272 62.9005 82.4729 63.0572 84.388 63.0572C86.4604 63.0572 87.0669 62.7383 87.3871 62.1059C87.7409 61.4065 87.7409 60.3601 87.7409 57.3385C87.7409 53.0466 87.4882 45.4142 87.4882 45.4142C88.6058 45.3527 91.6947 45.3527 92.554 45.4758C92.554 45.4758 92.6832 52.5654 92.6832 58.9276C92.6832 63.5384 89.6897 65.6032 84.3262 65.6032H84.3206Z" fill="white"/>
<path d="M117.821 34.3113L90.1305 40.2914L98.204 77.4015L125.895 71.4214L117.821 34.3113Z" fill="black"/>
<path d="M115.71 59.9069C114.665 58.1834 113.21 56.5551 111.374 55.0611C110.767 54.5798 109.74 53.8132 108.313 52.778C106.892 51.7484 105.522 50.7748 104.236 49.8907C102.978 49.0234 102.085 48.3631 101.579 47.9266C101.119 47.5294 100.793 47.1433 100.591 46.7516C100.529 46.6452 100.49 46.5445 100.467 46.4438C100.417 46.1976 100.484 45.9514 100.669 45.6996C100.855 45.4478 101.152 45.3415 101.579 45.3694C101.956 45.3918 102.455 45.5597 102.944 45.8619C103.303 46.0969 103.736 46.4718 104.224 46.9642C104.719 47.4622 105.101 47.921 105.387 48.3463C105.516 48.531 105.657 48.7156 105.797 48.8947C105.96 49.1073 106.1 49.264 106.246 49.3983C106.645 49.7284 107.038 49.9355 107.426 50.0026C107.617 50.0362 107.864 50.0306 108.184 49.9746C108.577 49.9075 108.802 49.5718 108.847 48.9506C108.863 48.24 108.92 47.658 109.021 47.2216C109.122 46.7907 109.301 46.3263 109.565 45.8563C109.768 45.5093 109.88 45.2351 109.908 45.0169C109.931 44.8546 109.914 44.6644 109.869 44.4518C109.846 44.351 109.818 44.2447 109.784 44.1496C109.65 43.7299 109.386 43.3382 108.998 42.9913C108.622 42.65 108.223 42.4373 107.819 42.3646C107.274 42.2639 106.847 42.4485 106.566 42.8962C106.454 43.0417 106.331 43.2431 106.207 43.5005C106.083 43.7523 105.971 43.9873 105.87 44.2223C105.825 44.3287 105.786 44.4238 105.758 44.5077C105.696 44.4518 105.629 44.3902 105.55 44.3175C104.168 43.0193 102.787 42.1967 101.428 41.8722L101.152 41.8218C99.0295 41.4301 97.6703 42.0904 97.1143 43.7859C96.9009 44.407 96.8672 45.0785 97.0189 45.7891C97.1705 46.4998 97.485 47.1936 97.9568 47.9266C98.4004 48.6653 99.0182 49.3983 99.7877 50.1089C100.535 50.7972 101.59 51.6086 102.916 52.5206C104.095 53.3376 105.443 54.2945 106.915 55.3576C108.392 56.4264 109.431 57.1986 109.992 57.6462C110.52 58.0715 111.043 58.5639 111.554 59.1011C112.059 59.6383 112.458 60.1195 112.716 60.5C113.205 61.2778 113.536 61.9884 113.688 62.5872C113.89 63.6727 113.16 64.361 111.531 64.6352C111.329 64.6631 111.144 64.6799 110.975 64.6855C110.812 64.6855 110.61 64.6743 110.38 64.6408C110.133 64.6072 109.779 64.5456 109.324 64.4617C108.706 64.3498 108.24 64.2491 107.909 64.1651C107.583 64.0812 107.235 63.9637 106.853 63.7958C105.724 63.3594 104.78 62.8949 104.039 62.4137C103.298 61.9325 102.568 61.3282 101.849 60.5951C101.349 60.0971 100.984 59.6607 100.765 59.3081C100.591 59.0116 100.473 58.7206 100.405 58.4184L100.372 58.2729C100.321 58.0435 100.316 57.954 100.316 57.8868C100.316 57.8868 100.344 57.8533 100.473 57.8029C100.709 57.6798 100.956 57.635 101.237 57.6518C101.562 57.6742 101.967 57.7749 102.461 57.9484C103.174 58.1834 103.792 58.4296 104.286 58.687C104.792 58.9444 105.404 59.3137 106.1 59.7838C106.684 60.1866 107.094 60.4552 107.353 60.6007C107.65 60.7686 107.897 60.8693 108.105 60.9085C108.605 60.998 108.976 60.8805 109.212 60.5448C109.419 60.265 109.47 59.8789 109.369 59.4033L109.335 59.2578C109.24 58.8157 109.004 58.4128 108.644 58.0603C108.336 57.7581 107.791 57.3497 106.976 56.8181C106.111 56.2417 105.421 55.8109 104.915 55.5423C104.41 55.2737 103.809 55.0107 103.141 54.7645C102.163 54.3784 101.338 54.121 100.697 54.0035C100.58 53.9811 100.316 53.9475 99.9112 53.9028C99.4675 53.8524 98.9508 53.9587 98.3499 54.2217C97.0132 54.6358 96.5134 55.6934 96.8672 57.3553L96.9515 57.7414C97.0357 58.1331 97.148 58.5247 97.2884 58.9108C97.4345 59.3081 97.6535 59.7502 97.9455 60.2202C98.4454 61.0372 99.1474 61.9101 100.04 62.8222C100.928 63.7287 101.838 64.5121 102.77 65.1667C104.151 66.0956 105.904 66.9294 107.965 67.6512H107.976C108.678 67.8806 109.375 68.0597 110.043 68.1828C111.335 68.4234 112.553 68.4514 113.665 68.2723C115.603 67.8694 116.771 66.9238 117.142 65.4521C117.31 64.7695 117.305 64.0029 117.119 63.1691C116.906 62.1899 116.434 61.0875 115.715 59.8901L115.71 59.9069Z" fill="white"/>
<path d="M144.307 41.4042L119.922 38.3564L115.806 71.0417L140.192 74.0894L144.307 41.4042Z" fill="black"/>
<path d="M125.19 63.6391C124.606 63.5552 124.162 63.2866 124.19 63.0908C124.224 62.8669 124.499 62.7606 125.285 62.6991C126.189 62.6263 126.532 62.3018 126.684 62.0332C126.886 61.6583 127.273 59.5152 127.65 56.9412C127.773 56.0906 127.841 55.6374 127.818 55.2905C127.818 55.0611 127.425 54.6861 126.841 54.1098C126.65 53.8804 126.42 53.6733 126.448 53.5055C126.481 53.2816 126.948 53.1138 127.616 53.125C129.211 53.125 131.901 52.7892 132.496 52.7613C132.682 52.7613 132.833 53.0131 132.817 53.125C132.525 54.356 131.924 58.2282 131.688 59.8677C131.609 60.4049 131.519 61.289 131.412 62.285C131.328 63.1132 131.559 63.3202 132.474 63.6783C132.996 63.8965 133.266 64.1092 133.227 64.3666C133.187 64.624 132.626 64.6855 132.042 64.6016C131.789 64.5624 129.761 64.1875 128.964 64.07C127.801 63.9021 125.819 63.7287 125.201 63.6391H125.19ZM133.451 48.738C133.3 49.7844 131.794 50.4335 130.812 50.2936C130.447 50.2432 129.671 49.9578 129.284 49.555C128.891 49.1801 128.627 48.71 128.722 48.0553C128.778 47.686 129.042 47.1209 129.57 46.8187C130.059 46.5445 130.896 46.4046 131.62 46.5109C133.041 46.718 133.552 48.033 133.451 48.738Z" fill="white"/>
<path d="M166.396 38.8953H138.062V73.5322H166.396V38.8953Z" fill="black"/>
<path d="M162.684 59.0955C162.644 59.0507 162.588 59.0284 162.526 59.0284H157.809C157.702 59.0284 157.618 59.1067 157.601 59.2074C157.427 60.3881 156.933 61.3505 156.135 62.0668C155.338 62.783 154.214 63.1467 152.782 63.1467C151.721 63.1467 150.811 62.9733 150.075 62.6375C149.345 62.3018 148.738 61.8485 148.289 61.2946C147.834 60.735 147.497 60.0971 147.29 59.3977C147.082 58.6926 146.975 57.954 146.975 57.2042C146.975 56.4544 147.082 55.6542 147.295 54.9212C147.503 54.1993 147.84 53.5391 148.295 52.9739C148.75 52.4087 149.351 51.9555 150.081 51.6198C150.816 51.284 151.726 51.1106 152.788 51.1106C153.366 51.1106 153.922 51.1889 154.45 51.3456C154.978 51.5022 155.455 51.7205 155.865 52.0003C156.275 52.2744 156.624 52.6046 156.904 52.9683C157.174 53.3264 157.348 53.7237 157.427 54.1546C157.444 54.2553 157.533 54.328 157.635 54.328H162.352C162.414 54.328 162.47 54.3001 162.509 54.2553C162.549 54.2105 162.566 54.149 162.56 54.0874C162.408 52.9963 162.043 52.0114 161.47 51.1665C160.898 50.3216 160.162 49.6053 159.286 49.0346C158.41 48.4694 157.41 48.033 156.309 47.7308C155.208 47.4342 154.029 47.2887 152.793 47.2887C151.08 47.2887 149.514 47.5461 148.143 48.0497C146.767 48.5534 145.588 49.264 144.639 50.1537C143.69 51.0434 142.954 52.101 142.448 53.2984C141.943 54.4959 141.685 55.8109 141.685 57.2042C141.685 58.5975 141.943 59.8509 142.448 61.0316C142.954 62.2123 143.695 63.253 144.639 64.126C145.588 64.9989 146.762 65.6927 148.138 66.1908C149.508 66.6832 151.075 66.935 152.788 66.935C154.169 66.935 155.45 66.7615 156.607 66.409C157.764 66.0621 158.791 65.5473 159.656 64.8814C160.521 64.2155 161.229 63.3985 161.762 62.4473C162.29 61.5016 162.622 60.4273 162.751 59.2522C162.757 59.1906 162.74 59.1347 162.7 59.0899L162.684 59.0955Z" fill="white"/>
</g>
<defs>
<clipPath id="clip0_745_735">
<rect width="123.854" height="48.6875" fill="white" transform="translate(42.5417 34.3125)"/>
</clipPath>
</defs>
</svg>
