<svg width="1280" height="218" viewBox="0 0 1280 218" fill="none" xmlns="http://www.w3.org/2000/svg">
<path d="M54.2055 10.4575L-66 29.2291V135.203L1348.72 141.688L1357 10.4575L1140.85 29.2291L954.5 0L786.924 29.2291L500.669 6.53252L266.877 32.4285L54.2055 10.4575Z" fill="white"/>
<path d="M63.5 15.1532L-66 42.6284V162.412H1378V19.6925L1139 33.3615L954 7.43335L798 37.0484L478 15.1532L247.5 37.0484L63.5 15.1532Z" fill="#ED0003"/>
<path d="M-80 30.8606L-197 71.7715V211.068H1322V32.4571L1003 63.4378L673 36.6086L448.5 75.4464L244 40.7147L100.5 58.7997L-80 30.8606Z" fill="black"/>
<path d="M-80 37.168L-197 78.0788V217.375H1322V38.7645L1001.5 67.3023L665 49.541L452 78.0788L227.5 48.1441L22.5 67.3023L-80 37.168Z" fill="#ED0003"/>
</svg>
