<svg width="174" height="82" viewBox="0 0 174 82" fill="none" xmlns="http://www.w3.org/2000/svg">
<g clip-path="url(#clip0_745_735)">
<path d="M27.4401 9.30684H2.5625V40.1966H27.4401V9.30684Z" fill="white"/>
<path d="M24.1806 27.3267C24.1461 27.2868 24.0968 27.2668 24.0426 27.2668H19.9004C19.8067 27.2668 19.7327 27.3367 19.718 27.4265C19.5651 28.4794 19.1311 29.3378 18.4309 29.9765C17.7307 30.6153 16.7445 30.9396 15.487 30.9396C14.555 30.9396 13.7562 30.7849 13.1102 30.4855C12.4692 30.1861 11.9366 29.7819 11.5421 29.2879C11.1427 28.7888 10.8468 28.2199 10.6644 27.5962C10.4819 26.9674 10.3882 26.3087 10.3882 25.64C10.3882 24.9713 10.4819 24.2577 10.6693 23.6039C10.8518 22.9602 11.1476 22.3713 11.547 21.8673C11.9465 21.3633 12.4741 20.9591 13.1151 20.6597C13.7611 20.3603 14.56 20.2056 15.492 20.2056C15.9999 20.2056 16.4881 20.2754 16.9516 20.4152C17.4151 20.5549 17.8343 20.7495 18.1942 20.999C18.5542 21.2436 18.8599 21.538 19.1065 21.8623C19.3432 22.1817 19.496 22.536 19.5651 22.9203C19.5799 23.0101 19.6588 23.075 19.7475 23.075H23.8897C23.9439 23.075 23.9933 23.05 24.0278 23.0101C24.0623 22.9702 24.0771 22.9153 24.0722 22.8604C23.939 21.8873 23.6185 21.009 23.1155 20.2555C22.6125 19.5019 21.9666 18.8632 21.1973 18.3542C20.428 17.8502 19.5503 17.4609 18.5838 17.1915C17.6173 16.927 16.5817 16.7972 15.4969 16.7972C13.9929 16.7972 12.6171 17.0268 11.4139 17.4759C10.2058 17.925 9.17023 18.5588 8.33687 19.3522C7.50351 20.1457 6.85753 21.0889 6.41372 22.1568C5.96992 23.2247 5.74309 24.3974 5.74309 25.64C5.74309 26.8825 5.96992 28.0004 6.41372 29.0533C6.85753 30.1063 7.50844 31.0344 8.33687 31.8129C9.17023 32.5914 10.2008 33.2102 11.409 33.6543C12.6122 34.0935 13.988 34.318 15.492 34.318C16.705 34.318 17.8293 34.1633 18.8451 33.849C19.861 33.5396 20.7634 33.0805 21.5228 32.4866C22.2821 31.8928 22.9035 31.1642 23.3719 30.3158C23.8355 29.4725 24.1264 28.5144 24.2398 27.4664C24.2447 27.4115 24.2299 27.3616 24.1954 27.3217L24.1806 27.3267Z" fill="white"/>
<path d="M48.9202 17.3861H24.0426V51.25H48.9202V17.3861Z" fill="white"/>
<path d="M26.4095 44.3834C26.2764 44.0091 26.1827 43.545 26.1827 42.9861V42.7067C26.2271 42.2076 26.3158 41.8034 26.449 41.4641L27.6571 41.524L28.9096 41.6188L28.7321 37.1475L28.6877 33.7641C28.6877 32.6762 28.7321 31.5584 28.7765 30.3158L29.0427 26.9923L29.4471 23.4193C30.1621 23.2347 31.104 23.045 32.1346 22.9203C33.1208 22.7955 34.0133 22.7656 34.822 22.7656L36.0746 22.7955C35.897 24.0082 35.759 25.2507 35.6702 26.4933C35.4927 28.5144 35.4039 30.5604 35.4039 32.5814C35.4039 35.8101 35.6258 38.9789 35.9858 41.7435L39.7926 41.6487L40.1082 35.9C40.6457 35.8051 41.4495 35.7153 42.347 35.7153L43.1557 35.7453C44.7682 35.8401 45.9763 36.1794 46.6913 36.4589V39.8123L46.7801 43.1059C43.3332 43.7896 38.9889 44.4083 33.8851 44.568L31.602 44.598C29.7232 44.598 28.1995 44.5032 26.4095 44.3784V44.3834Z" fill="white"/>
<path d="M61.7881 4.98686L40.5464 8.83142L45.6572 37.7502L66.8988 33.9057L61.7881 4.98686Z" fill="white"/>
<path d="M51.583 28.9785C51.0751 29.0583 50.6313 28.9485 50.6017 28.7739C50.5721 28.5742 50.7743 28.4096 51.4203 28.1501C52.16 27.8507 52.3621 27.4814 52.4164 27.2169C52.4903 26.8426 52.2487 24.9214 51.8937 22.6259C51.7753 21.8723 51.7112 21.4681 51.6027 21.1737C51.5386 20.9791 51.1146 20.7595 50.4735 20.4251C50.2565 20.2804 50.01 20.1657 49.9853 20.011C49.9557 19.8113 50.3058 19.5469 50.868 19.3772C52.2093 18.953 54.3691 17.96 54.8672 17.7803C55.02 17.7304 55.2123 17.9051 55.2271 18.0049C55.306 19.1277 55.8139 22.5859 56.0457 24.0431C56.1197 24.5222 56.2775 25.2956 56.4451 26.1739C56.593 26.8975 56.8396 27.0123 57.6976 27.0822C58.1957 27.1321 58.4767 27.2418 58.5113 27.4664C58.5458 27.691 58.0872 27.8956 57.5793 27.9754C57.3574 28.0104 55.5575 28.2249 54.8573 28.3347C53.8365 28.4994 52.1304 28.8737 51.5879 28.9635L51.583 28.9785ZM54.6058 14.1075C54.7537 15.0407 53.659 15.9888 52.801 16.1285C52.4805 16.1784 51.7556 16.1435 51.3266 15.899C50.9025 15.6844 50.5524 15.3501 50.4636 14.7712C50.4143 14.4418 50.4883 13.8879 50.8532 13.4937C51.1885 13.1294 51.8542 12.79 52.4903 12.6902C53.733 12.4906 54.5072 13.4787 54.6058 14.1075Z" fill="white"/>
<path d="M84.5921 13.5635H59.7145V44.4533H84.5921V13.5635Z" fill="white"/>
<path d="M81.3326 31.5784C81.2981 31.5385 81.2488 31.5185 81.1945 31.5185H77.0524C76.9587 31.5185 76.8847 31.5884 76.8699 31.6782C76.7171 32.7311 76.2831 33.5895 75.5829 34.2282C74.8827 34.867 73.8964 35.1913 72.639 35.1913C71.707 35.1913 70.9082 35.0366 70.2622 34.7372C69.6211 34.4378 69.0886 34.0336 68.6941 33.5396C68.2947 33.0405 67.9988 32.4716 67.8163 31.8479C67.6339 31.2191 67.5402 30.5604 67.5402 29.8917C67.5402 29.223 67.6339 28.5094 67.8213 27.8557C68.0037 27.2119 68.2996 26.6231 68.699 26.119C69.0984 25.615 69.6261 25.2108 70.2671 24.9114C70.9131 24.612 71.7119 24.4573 72.6439 24.4573C73.1518 24.4573 73.64 24.5271 74.1035 24.6669C74.5671 24.8066 74.9862 25.0012 75.3462 25.2507C75.7062 25.4953 76.0119 25.7897 76.2585 26.1141C76.4952 26.4334 76.648 26.7877 76.7171 27.172C76.7318 27.2618 76.8107 27.3267 76.8995 27.3267H81.0417C81.0959 27.3267 81.1452 27.3017 81.1797 27.2618C81.2143 27.2219 81.2291 27.167 81.2241 27.1121C81.091 26.139 80.7705 25.2607 80.2675 24.5072C79.7645 23.7537 79.1185 23.1149 78.3493 22.6059C77.58 22.1019 76.7023 21.7126 75.7358 21.4432C74.7693 21.1787 73.7337 21.0489 72.6489 21.0489C71.1449 21.0489 69.7691 21.2785 68.5659 21.7276C67.3577 22.1767 66.3222 22.8105 65.4888 23.6039C64.6555 24.3974 64.0095 25.3406 63.5657 26.4085C63.1219 27.4764 62.8951 28.6491 62.8951 29.8917C62.8951 31.1343 63.1219 32.2521 63.5657 33.305C64.0095 34.358 64.6604 35.2862 65.4888 36.0646C66.3222 36.8431 67.3528 37.4619 68.5609 37.906C69.7641 38.3452 71.1399 38.5697 72.6439 38.5697C73.857 38.5697 74.9813 38.415 75.9971 38.1007C77.0129 37.7913 77.9153 37.3322 78.6747 36.7383C79.4341 36.1445 80.0554 35.4159 80.5239 34.5676C80.9874 33.7242 81.2784 32.7661 81.3918 31.7181C81.3967 31.6632 81.3819 31.6133 81.3474 31.5734L81.3326 31.5784Z" fill="white"/>
<path d="M106.965 11.0185H82.0871V44.8824H106.965V11.0185Z" fill="white"/>
<path d="M99.5828 36.1894L93.8232 24.6269L99.0551 17.1066C99.0946 17.0517 99.0995 16.9769 99.0699 16.912C99.0403 16.8521 98.9762 16.8122 98.9072 16.8122H95.1842C95.125 16.8122 95.0658 16.8421 95.0313 16.897L90.0755 24.3774V17.0018C90.0755 16.897 89.9917 16.8122 89.8881 16.8122H86.9097C86.8062 16.8122 86.7223 16.897 86.7223 17.0018V36.2792C86.7223 36.384 86.8062 36.4688 86.9097 36.4688H89.8881C89.9917 36.4688 90.0755 36.384 90.0755 36.2792V30.1312L91.5697 27.9854L95.5146 36.364C95.5442 36.4289 95.6083 36.4688 95.6822 36.4688H99.42C99.4841 36.4688 99.5433 36.4339 99.5778 36.379C99.6124 36.3241 99.6124 36.2543 99.5877 36.1944L99.5828 36.1894Z" fill="white"/>
<path d="M32.3713 4.31657H7.49364V35.2063H32.3713V4.31657Z" fill="black"/>
<path d="M29.1118 22.3364C29.0773 22.2965 29.028 22.2765 28.9737 22.2765H24.8315C24.7379 22.2765 24.6639 22.3464 24.6491 22.4362C24.4962 23.4892 24.0623 24.3475 23.3621 24.9862C22.6618 25.625 21.6756 25.9494 20.4182 25.9494C19.4862 25.9494 18.6873 25.7947 18.0414 25.4953C17.4003 25.1958 16.8677 24.7916 16.4733 24.2976C16.0738 23.7986 15.778 23.2297 15.5955 22.6059C15.4131 21.9771 15.3194 21.3184 15.3194 20.6497C15.3194 19.981 15.4131 19.2674 15.6004 18.6137C15.7829 17.9699 16.0788 17.3811 16.4782 16.8771C16.8776 16.3731 17.4052 15.9688 18.0463 15.6694C18.6923 15.37 19.4911 15.2153 20.4231 15.2153C20.931 15.2153 21.4192 15.2852 21.8827 15.4249C22.3463 15.5646 22.7654 15.7593 23.1254 16.0088C23.4853 16.2533 23.7911 16.5477 24.0376 16.8721C24.2743 17.1915 24.4272 17.5458 24.4962 17.93C24.511 18.0198 24.5899 18.0847 24.6787 18.0847H28.8208C28.8751 18.0847 28.9244 18.0598 28.9589 18.0198C28.9934 17.9799 29.0082 17.925 29.0033 17.8701C28.8702 16.897 28.5496 16.0187 28.0467 15.2652C27.5437 14.5117 26.8977 13.8729 26.1284 13.3639C25.3592 12.8599 24.4814 12.4707 23.5149 12.2012C22.5484 11.9367 21.5129 11.807 20.428 11.807C18.924 11.807 17.5482 12.0365 16.345 12.4856C15.1369 12.9348 14.1014 13.5685 13.268 14.362C12.4347 15.1554 11.7887 16.0986 11.3449 17.1665C10.9011 18.2344 10.6742 19.4071 10.6742 20.6497C10.6742 21.8923 10.9011 23.0101 11.3449 24.063C11.7887 25.116 12.4396 26.0442 13.268 26.8227C14.1014 27.6011 15.132 28.2199 16.3401 28.6641C17.5433 29.1032 18.9191 29.3278 20.4231 29.3278C21.6362 29.3278 22.7605 29.1731 23.7763 28.8587C24.7921 28.5493 25.6945 28.0902 26.4539 27.4963C27.2133 26.9025 27.8346 26.1739 28.3031 25.3256C28.7666 24.4822 29.0575 23.5241 29.171 22.4761C29.1759 22.4213 29.1611 22.3713 29.1266 22.3314L29.1118 22.3364Z" fill="white"/>
<path d="M53.8563 12.3908H28.9786V46.2547H53.8563V12.3908Z" fill="black"/>
<path d="M31.3407 39.3931C31.2075 39.0189 31.1138 38.5548 31.1138 37.9959V37.7164C31.1582 37.2174 31.247 36.8132 31.3801 36.4738L32.5882 36.5337L33.8408 36.6285L33.6632 32.1573L33.6189 28.7739C33.6189 27.686 33.6632 26.5682 33.7076 25.3256L33.9739 22.0021L34.3782 18.429C35.0933 18.2444 36.0351 18.0548 37.0657 17.93C38.052 17.8053 38.9445 17.7753 39.7532 17.7753L41.0057 17.8053C40.8282 19.0179 40.6901 20.2605 40.6014 21.503C40.4238 23.5241 40.3351 25.5701 40.3351 27.5912C40.3351 30.8199 40.557 33.9887 40.9169 36.7533L44.7238 36.6585L45.0394 30.9097C45.5769 30.8149 46.3807 30.725 47.2781 30.725L48.0868 30.755C49.6993 30.8498 50.9074 31.1891 51.6225 31.4686V34.8221L51.7112 38.1156C48.2644 38.7993 43.92 39.4181 38.8163 39.5778L36.5332 39.6077C34.6544 39.6077 33.1307 39.5129 31.3407 39.3881V39.3931Z" fill="white"/>
<path d="M66.7208 -0.00557085L45.4792 3.83899L50.59 32.7578L71.8316 28.9132L66.7208 -0.00557085Z" fill="black"/>
<path d="M56.5142 23.9882C56.0062 24.068 55.5624 23.9583 55.5329 23.7836C55.5033 23.584 55.7054 23.4193 56.3514 23.1598C57.0911 22.8604 57.2933 22.4911 57.3475 22.2266C57.4215 21.8524 57.1799 19.9311 56.8248 17.6356C56.7065 16.8821 56.6424 16.4778 56.5339 16.1834C56.4698 15.9888 56.0457 15.7692 55.4046 15.4349C55.1877 15.2902 54.9411 15.1754 54.9165 15.0207C54.8869 14.8211 55.237 14.5566 55.7991 14.3869C57.1404 13.9628 59.3002 12.9697 59.7983 12.79C59.9512 12.7401 60.1435 12.9148 60.1583 13.0146C60.2372 14.1374 60.7451 17.5957 60.9768 19.0528C61.0508 19.5319 61.2086 20.3054 61.3763 21.1837C61.5242 21.9073 61.7708 22.022 62.6288 22.0919C63.1268 22.1418 63.4079 22.2516 63.4424 22.4761C63.4769 22.7007 63.0183 22.9053 62.5104 22.9852C62.2885 23.0201 60.4887 23.2347 59.7884 23.3445C58.7677 23.5091 57.0615 23.8834 56.5191 23.9732L56.5142 23.9882ZM59.5369 9.11721C59.6849 10.0504 58.5902 10.9985 57.7321 11.1383C57.4116 11.1882 56.6867 11.1532 56.2577 10.9087C55.8337 10.6941 55.4835 10.3598 55.3948 9.78092C55.3455 9.45156 55.4194 8.89764 55.7843 8.50341C56.1197 8.13912 56.7854 7.79978 57.4215 7.69998C58.6641 7.50037 59.4383 8.48844 59.5369 9.11721Z" fill="white"/>
<path d="M89.5232 8.57327H64.6456V39.463H89.5232V8.57327Z" fill="black"/>
<path d="M86.2638 26.5881C86.2292 26.5482 86.1799 26.5282 86.1257 26.5282H81.9835C81.8898 26.5282 81.8159 26.5981 81.8011 26.6879C81.6482 27.7409 81.2143 28.5992 80.514 29.238C79.8138 29.8767 78.8276 30.2011 77.5701 30.2011C76.6382 30.2011 75.8393 30.0464 75.1933 29.747C74.5523 29.4475 74.0197 29.0433 73.6252 28.5493C73.2258 28.0503 72.9299 27.4814 72.7475 26.8576C72.565 26.2288 72.4713 25.5701 72.4713 24.9014C72.4713 24.2327 72.565 23.5191 72.7524 22.8654C72.9349 22.2216 73.2307 21.6328 73.6302 21.1288C74.0296 20.6248 74.5572 20.2205 75.1983 19.9211C75.8442 19.6217 76.6431 19.467 77.5751 19.467C78.083 19.467 78.5712 19.5369 79.0347 19.6766C79.4982 19.8163 79.9174 20.011 80.2773 20.2605C80.6373 20.505 80.943 20.7994 81.1896 21.1238C81.4263 21.4432 81.5792 21.7975 81.6482 22.1817C81.663 22.2715 81.7419 22.3364 81.8307 22.3364H85.9728C86.0271 22.3364 86.0764 22.3115 86.1109 22.2715C86.1454 22.2316 86.1602 22.1767 86.1553 22.1218C86.0221 21.1487 85.7016 20.2705 85.1986 19.5169C84.6956 18.7634 84.0497 18.1246 83.2804 17.6156C82.5111 17.1116 81.6334 16.7224 80.6669 16.4529C79.7004 16.1884 78.6649 16.0587 77.58 16.0587C76.076 16.0587 74.7002 16.2882 73.497 16.7373C72.2889 17.1865 71.2533 17.8202 70.42 18.6137C69.5866 19.4071 68.9406 20.3503 68.4968 21.4182C68.053 22.4861 67.8262 23.6588 67.8262 24.9014C67.8262 26.144 68.053 27.2618 68.4968 28.3148C68.9406 29.3677 69.5915 30.2959 70.42 31.0744C71.2533 31.8529 72.284 32.4716 73.4921 32.9158C74.6953 33.3549 76.0711 33.5795 77.5751 33.5795C78.7881 33.5795 79.9124 33.4248 80.9282 33.1104C81.9441 32.801 82.8465 32.3419 83.6059 31.7481C84.3653 31.1542 84.9866 30.4256 85.455 29.5773C85.9186 28.7339 86.2095 27.7758 86.3229 26.7279C86.3279 26.673 86.3131 26.6231 86.2785 26.5831L86.2638 26.5881Z" fill="white"/>
<path d="M111.896 6.02824H87.0182V39.8922H111.896V6.02824Z" fill="black"/>
<path d="M104.514 31.1991L98.7543 19.6367L103.986 12.1164C104.026 12.0615 104.031 11.9866 104.001 11.9217C103.971 11.8619 103.907 11.8219 103.838 11.8219H100.115C100.056 11.8219 99.997 11.8519 99.9625 11.9068L95.0067 19.3872V12.0116C95.0067 11.9068 94.9228 11.8219 94.8193 11.8219H91.8409C91.7373 11.8219 91.6535 11.9068 91.6535 12.0116V31.2889C91.6535 31.3937 91.7373 31.4786 91.8409 31.4786H94.8193C94.9228 31.4786 95.0067 31.3937 95.0067 31.2889V25.1409L96.5008 22.9951L100.446 31.3738C100.475 31.4387 100.539 31.4786 100.613 31.4786H104.351C104.415 31.4786 104.474 31.4436 104.509 31.3887C104.544 31.3339 104.543 31.264 104.519 31.2041L104.514 31.1991Z" fill="white"/>
</g>
<g clip-path="url(#clip1_745_735)">
<path d="M77.8754 42.7243H49.5417V80.6962H77.8754V42.7243Z" fill="white"/>
<path d="M69.423 53.8764C69.5129 53.619 69.6196 53.4343 69.7544 53.3224C69.9678 53.1322 70.2711 53.0035 70.6586 52.9363L71.1921 52.8468C71.4224 52.8076 71.5909 52.6062 71.5909 52.3712V51.8284C71.5909 51.6885 71.5291 51.5486 71.4168 51.4591C71.3101 51.3696 71.1641 51.3304 71.0237 51.3528L64.6998 52.4719C64.5201 52.5055 64.3741 52.6342 64.3235 52.8076L60.9313 64.0045L57.7132 54.1282C57.6402 53.8988 57.4044 53.7645 57.1685 53.8037L52.2487 54.671C52.0184 54.7101 51.8499 54.9116 51.8499 55.1466V55.5999C51.8499 55.7397 51.9117 55.874 52.024 55.9692C52.1307 56.0587 52.2768 56.0979 52.4172 56.0755L52.7822 56.0139C52.917 55.9915 53.1023 55.9748 53.2147 56.0475C53.3495 56.137 53.3888 56.2266 53.4112 56.2881C53.4225 56.3273 53.4842 56.5791 53.4842 57.7318V68.4586C53.4842 69.4322 53.473 69.6337 53.473 69.6561C53.4056 70.0757 53.3158 70.3051 53.254 70.4227C53.181 70.5569 53.0743 70.6689 52.9282 70.7528C52.7822 70.8367 52.625 70.8759 52.4509 70.8703H52.3329C52.069 70.8703 51.8555 71.0885 51.8555 71.3515V71.8048C51.8555 72.0678 52.069 72.286 52.3385 72.286H56.4215C56.6855 72.286 56.9045 72.0734 56.9045 71.8048V71.3291C56.9045 71.2004 56.854 71.0773 56.7641 70.9878C56.6742 70.8983 56.5338 70.8423 56.4215 70.8479C56.0059 70.8591 55.697 70.764 55.5285 70.5961C55.3376 70.4003 55.214 70.1485 55.1579 69.8351C55.141 69.7456 55.1186 69.4266 55.1186 68.3635V59.4552L59.0892 71.9447C59.151 72.1461 59.3363 72.2804 59.5497 72.2804H59.7856C59.999 72.2804 60.1844 72.1461 60.2462 71.9447L64.683 57.7094V68.5649C64.683 69.8127 64.6099 70.1037 64.5875 70.1709C64.5145 70.3835 64.419 70.5402 64.3179 70.6185C64.1494 70.7472 63.8967 70.8143 63.5822 70.8143H63.1217C62.8577 70.8143 62.6443 71.0326 62.6443 71.2956V71.8048C62.6443 72.0678 62.8577 72.286 63.1273 72.286H71.1079C71.3719 72.286 71.5909 72.0734 71.5909 71.8048V71.262C71.5909 71.1333 71.5403 71.0102 71.4505 70.9207C71.3606 70.8311 71.2371 70.7808 71.1079 70.7808H70.5744C70.2149 70.7752 69.9566 70.7192 69.7712 70.5905C69.5915 70.4618 69.4736 70.3275 69.423 70.1764C69.395 70.0869 69.3219 69.7456 69.3219 68.4586V55.5551C69.3219 54.3129 69.395 53.9771 69.423 53.8876V53.8764Z" fill="white"/>
<path d="M98.1331 44.2128H75.1291V75.0446H98.1331V44.2128Z" fill="white"/>
<path d="M85.7044 70.1988C80.3746 70.1988 79.3862 68.7664 79.3862 63.5233C79.3862 51.9179 79.1952 50.105 79.1952 50.105C80.15 50.0098 81.0767 50.0098 82.037 50.0098C82.037 50.0098 82.0707 58.4368 82.0707 60.9773C82.0707 64.9501 82.0707 66.2259 82.3909 66.8583C82.711 67.4962 83.8567 67.6528 85.7718 67.6528C87.8442 67.6528 88.4507 67.3339 88.7709 66.7016C89.1247 66.0021 89.1247 64.9557 89.1247 61.9341C89.1247 57.6423 88.872 50.0098 88.872 50.0098C89.9896 49.9483 93.0785 49.9483 93.9378 50.0714C93.9378 50.0714 94.0669 57.161 94.0669 63.5233C94.0669 68.1341 91.0735 70.1988 85.71 70.1988H85.7044Z" fill="white"/>
<path d="M119.202 38.9077L91.5117 44.8878L99.5851 81.998L127.276 76.0178L119.202 38.9077Z" fill="white"/>
<path d="M117.093 64.5025C116.049 62.779 114.594 61.1507 112.758 59.6567C112.151 59.1755 111.123 58.4089 109.697 57.3737C108.276 56.3441 106.906 55.3704 105.619 54.4863C104.361 53.619 103.468 52.9587 102.963 52.5223C102.502 52.125 102.177 51.7389 101.975 51.3472C101.913 51.2409 101.873 51.1401 101.851 51.0394C101.8 50.7932 101.868 50.547 102.053 50.2952C102.239 50.0434 102.536 49.9371 102.963 49.9651C103.339 49.9875 103.839 50.1553 104.328 50.4575C104.687 50.6925 105.12 51.0674 105.608 51.5598C106.102 52.0578 106.484 52.5167 106.771 52.9419C106.9 53.1266 107.04 53.3113 107.181 53.4903C107.344 53.7029 107.484 53.8596 107.63 53.9939C108.029 54.3241 108.422 54.5311 108.809 54.5982C109 54.6318 109.248 54.6262 109.568 54.5703C109.961 54.5031 110.185 54.1674 110.23 53.5463C110.247 52.8356 110.303 52.2537 110.404 51.8172C110.506 51.3864 110.685 50.9219 110.949 50.4519C111.151 50.105 111.264 49.8308 111.292 49.6125C111.314 49.4503 111.297 49.26 111.253 49.0474C111.23 48.9467 111.202 48.8403 111.168 48.7452C111.033 48.3256 110.77 47.9339 110.382 47.5869C110.006 47.2456 109.607 47.033 109.203 46.9602C108.658 46.8595 108.231 47.0442 107.95 47.4918C107.838 47.6373 107.714 47.8387 107.591 48.0961C107.467 48.3479 107.355 48.5829 107.254 48.818C107.209 48.9243 107.17 49.0194 107.141 49.1033C107.08 49.0474 107.012 48.9858 106.934 48.9131C105.552 47.6149 104.17 46.7924 102.811 46.4678L102.536 46.4174C100.413 46.0258 99.0541 46.686 98.4981 48.3815C98.2847 49.0026 98.251 49.6741 98.4026 50.3847C98.5543 51.0954 98.8688 51.7892 99.3406 52.5223C99.7842 53.2609 100.402 53.9939 101.171 54.7046C101.918 55.3928 102.974 56.2042 104.3 57.1163C105.479 57.9332 106.827 58.8901 108.298 59.9533C109.775 61.022 110.814 61.7942 111.376 62.2419C111.904 62.6671 112.426 63.1595 112.937 63.6967C113.443 64.2339 113.842 64.7151 114.1 65.0956C114.589 65.8734 114.92 66.5841 115.072 67.1828C115.274 68.2683 114.544 68.9566 112.915 69.2308C112.713 69.2588 112.527 69.2756 112.359 69.2812C112.196 69.2812 111.994 69.27 111.764 69.2364C111.516 69.2028 111.163 69.1413 110.708 69.0573C110.09 68.9454 109.624 68.8447 109.292 68.7608C108.967 68.6768 108.619 68.5593 108.237 68.3914C107.108 67.955 106.164 67.4906 105.423 67.0093C104.682 66.5281 103.951 65.9238 103.233 65.1908C102.733 64.6927 102.368 64.2563 102.149 63.9038C101.975 63.6072 101.857 63.3162 101.789 63.0141L101.756 62.8686C101.705 62.6392 101.699 62.5496 101.699 62.4825C101.699 62.4825 101.727 62.4489 101.857 62.3985C102.092 62.2754 102.34 62.2307 102.62 62.2475C102.946 62.2698 103.351 62.3706 103.845 62.544C104.558 62.779 105.176 63.0252 105.67 63.2826C106.175 63.54 106.788 63.9094 107.484 64.3794C108.068 64.7823 108.478 65.0509 108.736 65.1963C109.034 65.3642 109.281 65.4649 109.489 65.5041C109.989 65.5936 110.36 65.4761 110.595 65.1404C110.803 64.8606 110.854 64.4745 110.753 63.9989L110.719 63.8534C110.624 63.4113 110.388 63.0085 110.028 62.6559C109.719 62.3538 109.175 61.9453 108.36 61.4137C107.495 60.8374 106.804 60.4065 106.299 60.1379C105.794 59.8693 105.193 59.6063 104.524 59.3601C103.547 58.974 102.722 58.7166 102.081 58.5991C101.963 58.5767 101.699 58.5432 101.295 58.4984C100.851 58.448 100.335 58.5543 99.7337 58.8173C98.397 59.2314 97.8972 60.289 98.251 61.9509L98.3353 62.337C98.4195 62.7287 98.5318 63.1204 98.6722 63.5065C98.8183 63.9038 99.0373 64.3458 99.3293 64.8158C99.8292 65.6328 100.531 66.5057 101.424 67.4178C102.312 68.3243 103.221 69.1077 104.154 69.7624C105.535 70.6912 107.287 71.525 109.349 72.2468H109.36C110.062 72.4763 110.758 72.6553 111.427 72.7784C112.718 73.019 113.937 73.047 115.049 72.8679C116.987 72.4651 118.155 71.5194 118.526 70.0478C118.694 69.3651 118.688 68.5985 118.503 67.7647C118.29 66.7855 117.818 65.6832 117.099 64.4857L117.093 64.5025Z" fill="white"/>
<path d="M145.693 45.9984L121.307 42.9507L117.192 75.6359L141.577 78.6837L145.693 45.9984Z" fill="white"/>
<path d="M126.574 68.2348C125.989 68.1508 125.546 67.8822 125.574 67.6864C125.608 67.4626 125.883 67.3563 126.669 67.2947C127.573 67.222 127.916 66.8974 128.067 66.6288C128.27 66.2539 128.657 64.1108 129.033 61.5368C129.157 60.6863 129.224 60.233 129.202 59.8861C129.202 59.6567 128.809 59.2818 128.225 58.7054C128.034 58.476 127.803 58.269 127.832 58.1011C127.865 57.8773 128.331 57.7094 129 57.7206C130.595 57.7206 133.285 57.3849 133.88 57.3569C134.066 57.3569 134.217 57.6087 134.2 57.7206C133.908 58.9516 133.307 62.8238 133.071 64.4633C132.993 65.0005 132.903 65.8846 132.796 66.8806C132.712 67.7088 132.942 67.9158 133.858 68.2739C134.38 68.4922 134.65 68.7048 134.61 68.9622C134.571 69.2196 134.009 69.2811 133.425 69.1972C133.173 69.158 131.145 68.7831 130.348 68.6656C129.185 68.4978 127.203 68.3243 126.585 68.2348H126.574ZM134.835 53.3336C134.683 54.38 133.178 55.0291 132.195 54.8892C131.83 54.8389 131.055 54.5535 130.668 54.1506C130.275 53.7757 130.011 53.3057 130.106 52.651C130.162 52.2817 130.426 51.7165 130.954 51.4143C131.443 51.1401 132.28 51.0003 133.004 51.1066C134.425 51.3136 134.936 52.6286 134.835 53.3336Z" fill="white"/>
<path d="M167.78 43.4909H139.446V78.1278H167.78V43.4909Z" fill="white"/>
<path d="M164.067 63.6967C164.028 63.6519 163.972 63.6296 163.91 63.6296H159.192C159.086 63.6296 159.001 63.7079 158.985 63.8086C158.811 64.9893 158.316 65.9518 157.519 66.668C156.721 67.3842 155.598 67.7479 154.166 67.7479C153.104 67.7479 152.195 67.5745 151.459 67.2387C150.729 66.903 150.122 66.4498 149.673 65.8958C149.218 65.3362 148.881 64.6983 148.673 63.9989C148.465 63.2938 148.359 62.5552 148.359 61.8054C148.359 61.0556 148.466 60.2554 148.679 59.5224C148.887 58.8005 149.224 58.1403 149.679 57.5751C150.134 57.0099 150.734 56.5567 151.465 56.221C152.2 55.8852 153.11 55.7118 154.172 55.7118C154.75 55.7118 155.306 55.7901 155.834 55.9468C156.362 56.1035 156.839 56.3217 157.249 56.6015C157.659 56.8757 158.007 57.2058 158.288 57.5695C158.558 57.9276 158.732 58.3249 158.811 58.7558C158.827 58.8565 158.917 58.9292 159.018 58.9292H163.736C163.798 58.9292 163.854 58.9013 163.893 58.8565C163.933 58.8117 163.949 58.7502 163.944 58.6886C163.792 57.5975 163.427 56.6127 162.854 55.7677C162.281 54.9228 161.546 54.2065 160.67 53.6358C159.793 53.0706 158.794 52.6342 157.693 52.332C156.592 52.0354 155.413 51.89 154.177 51.89C152.464 51.89 150.897 52.1474 149.527 52.651C148.151 53.1546 146.972 53.8652 146.022 54.7549C145.073 55.6446 144.338 56.7022 143.832 57.8996C143.327 59.0971 143.068 60.4121 143.068 61.8054C143.068 63.1987 143.327 64.4521 143.832 65.6328C144.338 66.8135 145.079 67.8543 146.022 68.7272C146.972 69.6001 148.145 70.294 149.521 70.792C150.892 71.2844 152.459 71.5362 154.172 71.5362C155.553 71.5362 156.834 71.3627 157.991 71.0102C159.148 70.6633 160.175 70.1485 161.04 69.4826C161.905 68.8167 162.613 67.9997 163.146 67.0485C163.674 66.1028 164.006 65.0285 164.135 63.8534C164.14 63.7918 164.123 63.7359 164.084 63.6911L164.067 63.6967Z" fill="white"/>
<path d="M83.4916 37.1287H55.1579V75.1006H83.4916V37.1287Z" fill="black"/>
<path d="M75.0392 48.2808C75.1291 48.0234 75.2358 47.8387 75.3706 47.7268C75.584 47.5366 75.8873 47.4079 76.2748 47.3407L76.8083 47.2512C77.0386 47.212 77.2071 47.0106 77.2071 46.7756V46.2328C77.2071 46.0929 77.1453 45.953 77.033 45.8635C76.9263 45.774 76.7803 45.7348 76.6399 45.7572L70.316 46.8763C70.1363 46.9099 69.9903 47.0386 69.9397 47.212L66.5475 58.4089L63.3295 48.5326C63.2564 48.3032 63.0206 48.1689 62.7847 48.208L57.8649 49.0754C57.6346 49.1145 57.4661 49.316 57.4661 49.551V50.0042C57.4661 50.1441 57.5279 50.2784 57.6402 50.3736C57.7469 50.4631 57.893 50.5023 58.0334 50.4799L58.3984 50.4183C58.5332 50.3959 58.7185 50.3791 58.8309 50.4519C58.9657 50.5414 59.005 50.631 59.0274 50.6925C59.0387 50.7317 59.1004 50.9835 59.1004 52.1362V62.863C59.1004 63.8366 59.0892 64.0381 59.0892 64.0604C59.0218 64.4801 58.932 64.7095 58.8702 64.827C58.7972 64.9613 58.6905 65.0733 58.5444 65.1572C58.3984 65.2411 58.2412 65.2803 58.0671 65.2747H57.9491C57.6852 65.2747 57.4717 65.4929 57.4717 65.7559V66.2092C57.4717 66.4722 57.6852 66.6904 57.9547 66.6904H62.0377C62.3017 66.6904 62.5207 66.4778 62.5207 66.2092V65.7335C62.5207 65.6048 62.4702 65.4817 62.3803 65.3922C62.2905 65.3027 62.15 65.2467 62.0377 65.2523C61.6221 65.2635 61.3132 65.1684 61.1447 65.0005C60.9538 64.8047 60.8302 64.5529 60.7741 64.2395C60.7572 64.15 60.7348 63.831 60.7348 62.7679V53.8596L64.7054 66.3491C64.7672 66.5505 64.9525 66.6848 65.1659 66.6848H65.4018C65.6152 66.6848 65.8006 66.5505 65.8624 66.3491L70.2992 52.1138V62.9693C70.2992 64.2171 70.2262 64.5081 70.2037 64.5752C70.1307 64.7879 70.0352 64.9446 69.9341 65.0229C69.7656 65.1516 69.5129 65.2187 69.1984 65.2187H68.7379C68.4739 65.2187 68.2605 65.437 68.2605 65.7V66.2092C68.2605 66.4722 68.4739 66.6904 68.7435 66.6904H76.7241C76.9881 66.6904 77.2071 66.4778 77.2071 66.2092V65.6664C77.2071 65.5377 77.1565 65.4146 77.0667 65.3251C76.9768 65.2355 76.8533 65.1852 76.7241 65.1852H76.1906C75.8311 65.1796 75.5728 65.1236 75.3874 64.9949C75.2077 64.8662 75.0898 64.7319 75.0392 64.5808C75.0112 64.4913 74.9381 64.15 74.9381 62.863V49.9595C74.9381 48.7172 75.0112 48.3815 75.0392 48.292V48.2808Z" fill="white"/>
<path d="M103.749 38.6171H80.7453V69.449H103.749V38.6171Z" fill="black"/>
<path d="M91.3206 64.6032C85.9908 64.6032 85.0024 63.1707 85.0024 57.9276C85.0024 46.3223 84.8114 44.5093 84.8114 44.5093C85.7662 44.4142 86.6929 44.4142 87.6532 44.4142C87.6532 44.4142 87.6869 52.8412 87.6869 55.3816C87.6869 59.3545 87.6869 60.6303 88.0071 61.2626C88.3272 61.9005 89.4729 62.0572 91.388 62.0572C93.4604 62.0572 94.0669 61.7383 94.3871 61.1059C94.7409 60.4065 94.7409 59.3601 94.7409 56.3385C94.7409 52.0466 94.4882 44.4142 94.4882 44.4142C95.6058 44.3527 98.6947 44.3527 99.554 44.4758C99.554 44.4758 99.6831 51.5654 99.6831 57.9276C99.6831 62.5384 96.6897 64.6032 91.3262 64.6032H91.3206Z" fill="white"/>
<path d="M124.821 33.3113L97.1305 39.2914L105.204 76.4015L132.895 70.4214L124.821 33.3113Z" fill="black"/>
<path d="M122.71 58.9069C121.665 57.1834 120.21 55.5551 118.374 54.0611C117.767 53.5798 116.74 52.8132 115.313 51.778C113.892 50.7484 112.522 49.7748 111.236 48.8907C109.978 48.0234 109.085 47.3631 108.579 46.9266C108.119 46.5294 107.793 46.1433 107.591 45.7516C107.529 45.6452 107.49 45.5445 107.467 45.4438C107.417 45.1976 107.484 44.9514 107.669 44.6996C107.855 44.4478 108.152 44.3415 108.579 44.3694C108.956 44.3918 109.455 44.5597 109.944 44.8619C110.303 45.0969 110.736 45.4718 111.224 45.9642C111.719 46.4622 112.101 46.921 112.387 47.3463C112.516 47.531 112.657 47.7156 112.797 47.8947C112.96 48.1073 113.1 48.264 113.246 48.3983C113.645 48.7284 114.038 48.9355 114.426 49.0026C114.617 49.0362 114.864 49.0306 115.184 48.9746C115.577 48.9075 115.802 48.5718 115.847 47.9506C115.863 47.24 115.92 46.658 116.021 46.2216C116.122 45.7907 116.301 45.3263 116.565 44.8563C116.768 44.5093 116.88 44.2351 116.908 44.0169C116.931 43.8546 116.914 43.6644 116.869 43.4518C116.846 43.351 116.818 43.2447 116.784 43.1496C116.65 42.7299 116.386 42.3382 115.998 41.9913C115.622 41.65 115.223 41.4373 114.819 41.3646C114.274 41.2639 113.847 41.4485 113.566 41.8962C113.454 42.0417 113.331 42.2431 113.207 42.5005C113.083 42.7523 112.971 42.9873 112.87 43.2223C112.825 43.3287 112.786 43.4238 112.758 43.5077C112.696 43.4518 112.629 43.3902 112.55 43.3175C111.168 42.0193 109.787 41.1967 108.428 40.8722L108.152 40.8218C106.029 40.4301 104.67 41.0904 104.114 42.7859C103.901 43.407 103.867 44.0785 104.019 44.7891C104.17 45.4998 104.485 46.1936 104.957 46.9266C105.4 47.6653 106.018 48.3983 106.788 49.1089C107.535 49.7972 108.59 50.6086 109.916 51.5206C111.095 52.3376 112.443 53.2945 113.915 54.3576C115.392 55.4264 116.431 56.1986 116.992 56.6462C117.52 57.0715 118.043 57.5639 118.554 58.1011C119.059 58.6383 119.458 59.1195 119.716 59.5C120.205 60.2778 120.536 60.9884 120.688 61.5872C120.89 62.6727 120.16 63.361 118.531 63.6352C118.329 63.6631 118.144 63.6799 117.975 63.6855C117.812 63.6855 117.61 63.6743 117.38 63.6408C117.133 63.6072 116.779 63.5456 116.324 63.4617C115.706 63.3498 115.24 63.2491 114.909 63.1651C114.583 63.0812 114.235 62.9637 113.853 62.7958C112.724 62.3594 111.78 61.8949 111.039 61.4137C110.298 60.9325 109.568 60.3282 108.849 59.5951C108.349 59.0971 107.984 58.6607 107.765 58.3081C107.591 58.0116 107.473 57.7206 107.405 57.4184L107.372 57.2729C107.321 57.0435 107.316 56.954 107.316 56.8868C107.316 56.8868 107.344 56.8533 107.473 56.8029C107.709 56.6798 107.956 56.635 108.237 56.6518C108.562 56.6742 108.967 56.7749 109.461 56.9484C110.174 57.1834 110.792 57.4296 111.286 57.687C111.792 57.9444 112.404 58.3137 113.1 58.7838C113.684 59.1866 114.094 59.4552 114.353 59.6007C114.65 59.7686 114.897 59.8693 115.105 59.9085C115.605 59.998 115.976 59.8805 116.212 59.5448C116.419 59.265 116.47 58.8789 116.369 58.4033L116.335 58.2578C116.24 57.8157 116.004 57.4128 115.644 57.0603C115.336 56.7581 114.791 56.3497 113.976 55.8181C113.111 55.2417 112.421 54.8109 111.915 54.5423C111.41 54.2737 110.809 54.0107 110.141 53.7645C109.163 53.3784 108.338 53.121 107.697 53.0035C107.58 52.9811 107.316 52.9475 106.911 52.9028C106.468 52.8524 105.951 52.9587 105.35 53.2217C104.013 53.6358 103.513 54.6934 103.867 56.3553L103.951 56.7414C104.036 57.1331 104.148 57.5247 104.288 57.9108C104.434 58.3081 104.653 58.7502 104.946 59.2202C105.445 60.0372 106.147 60.9101 107.04 61.8222C107.928 62.7287 108.838 63.5121 109.77 64.1667C111.151 65.0956 112.904 65.9294 114.965 66.6512H114.976C115.678 66.8806 116.375 67.0597 117.043 67.1828C118.335 67.4234 119.553 67.4514 120.665 67.2723C122.603 66.8694 123.771 65.9238 124.142 64.4521C124.31 63.7695 124.305 63.0029 124.119 62.1691C123.906 61.1899 123.434 60.0875 122.715 58.8901L122.71 58.9069Z" fill="white"/>
<path d="M151.307 40.4042L126.922 37.3564L122.806 70.0417L147.192 73.0894L151.307 40.4042Z" fill="black"/>
<path d="M132.19 62.6391C131.606 62.5552 131.162 62.2866 131.19 62.0908C131.224 61.8669 131.499 61.7606 132.285 61.6991C133.189 61.6263 133.532 61.3018 133.684 61.0332C133.886 60.6583 134.273 58.5152 134.65 55.9412C134.773 55.0906 134.841 54.6374 134.818 54.2905C134.818 54.0611 134.425 53.6861 133.841 53.1098C133.65 52.8804 133.42 52.6733 133.448 52.5055C133.481 52.2816 133.948 52.1138 134.616 52.125C136.211 52.125 138.901 51.7892 139.496 51.7613C139.682 51.7613 139.833 52.0131 139.817 52.125C139.525 53.356 138.924 57.2282 138.688 58.8677C138.609 59.4049 138.519 60.289 138.412 61.285C138.328 62.1132 138.559 62.3202 139.474 62.6783C139.996 62.8965 140.266 63.1092 140.227 63.3666C140.187 63.624 139.626 63.6855 139.042 63.6016C138.789 63.5624 136.761 63.1875 135.964 63.07C134.801 62.9021 132.819 62.7287 132.201 62.6391H132.19ZM140.451 47.738C140.3 48.7844 138.794 49.4335 137.812 49.2936C137.447 49.2432 136.671 48.9578 136.284 48.555C135.891 48.1801 135.627 47.71 135.722 47.0553C135.778 46.686 136.042 46.1209 136.57 45.8187C137.059 45.5445 137.896 45.4046 138.62 45.5109C140.041 45.718 140.552 47.033 140.451 47.738Z" fill="white"/>
<path d="M173.396 37.8953H145.062V72.5322H173.396V37.8953Z" fill="black"/>
<path d="M169.684 58.0955C169.644 58.0507 169.588 58.0284 169.526 58.0284H164.809C164.702 58.0284 164.618 58.1067 164.601 58.2074C164.427 59.3881 163.933 60.3505 163.135 61.0668C162.338 61.783 161.214 62.1467 159.782 62.1467C158.721 62.1467 157.811 61.9733 157.075 61.6375C156.345 61.3018 155.738 60.8485 155.289 60.2946C154.834 59.735 154.497 59.0971 154.289 58.3977C154.082 57.6926 153.975 56.954 153.975 56.2042C153.975 55.4544 154.082 54.6542 154.295 53.9212C154.503 53.1993 154.84 52.5391 155.295 51.9739C155.75 51.4087 156.351 50.9555 157.081 50.6198C157.816 50.284 158.726 50.1106 159.788 50.1106C160.366 50.1106 160.922 50.1889 161.45 50.3456C161.978 50.5022 162.455 50.7205 162.865 51.0003C163.275 51.2744 163.624 51.6046 163.904 51.9683C164.174 52.3264 164.348 52.7237 164.427 53.1546C164.444 53.2553 164.533 53.328 164.635 53.328H169.352C169.414 53.328 169.47 53.3001 169.509 53.2553C169.549 53.2105 169.566 53.149 169.56 53.0874C169.408 51.9963 169.043 51.0114 168.47 50.1665C167.898 49.3216 167.162 48.6053 166.286 48.0346C165.41 47.4694 164.41 47.033 163.309 46.7308C162.208 46.4342 161.029 46.2887 159.793 46.2887C158.08 46.2887 156.514 46.5461 155.143 47.0497C153.767 47.5534 152.588 48.264 151.639 49.1537C150.69 50.0434 149.954 51.101 149.448 52.2984C148.943 53.4959 148.685 54.8109 148.685 56.2042C148.685 57.5975 148.943 58.8509 149.448 60.0316C149.954 61.2123 150.695 62.253 151.639 63.126C152.588 63.9989 153.762 64.6927 155.138 65.1908C156.508 65.6832 158.075 65.935 159.788 65.935C161.169 65.935 162.45 65.7615 163.607 65.409C164.764 65.0621 165.791 64.5473 166.656 63.8814C167.521 63.2155 168.229 62.3985 168.762 61.4473C169.29 60.5016 169.622 59.4273 169.751 58.2522C169.757 58.1906 169.74 58.1347 169.7 58.0899L169.684 58.0955Z" fill="white"/>
</g>
<path d="M56.375 42.7083L12.7515 46.0853L0 71.75L49.3281 70.7369L56.375 42.7083Z" fill="white"/>
<path d="M63.2083 34.1667L19.5848 37.5436L6.83334 63.2083L56.1615 62.1953L63.2083 34.1667Z" fill="black"/>
<path d="M45.3586 48.8837C45.2982 48.9542 45.258 48.9894 45.2379 48.9894C45.2278 48.9894 45.2127 48.9995 45.1926 49.0196C45.0718 49.09 45.0064 49.1202 44.9963 49.1102C44.9158 49.1001 44.8605 49.0598 44.8303 48.9894C44.8001 48.919 44.7447 48.8636 44.6642 48.8233C44.6139 48.8435 44.5636 48.8485 44.5133 48.8384C44.4629 48.8284 44.4126 48.8284 44.3623 48.8384C44.312 48.8485 44.2667 48.8636 44.2264 48.8837C44.1862 48.9039 44.1409 48.924 44.0906 48.9441C43.9497 48.9944 43.8541 49.0347 43.8038 49.0649C43.7534 49.085 43.7031 49.1102 43.6528 49.1404C43.6125 49.1806 43.5824 49.2209 43.5622 49.2611C43.5421 49.2913 43.5069 49.3316 43.4566 49.3819C43.3962 49.4322 43.3257 49.4825 43.2452 49.5328C43.1748 49.5731 43.1144 49.6184 43.0641 49.6687C43.0439 49.6989 43.0288 49.7392 43.0188 49.7895C43.0087 49.8297 42.9886 49.87 42.9584 49.9102C42.888 49.9706 42.8477 50.0109 42.8376 50.031C42.8276 50.0511 42.8175 50.0662 42.8074 50.0763C42.7773 50.1266 42.7622 50.1669 42.7622 50.1971C42.7722 50.2273 42.7722 50.2524 42.7622 50.2725C42.7521 50.2927 42.732 50.3279 42.7018 50.3782C42.6716 50.4185 42.6666 50.4688 42.6867 50.5292C42.6263 50.6097 42.5961 50.6701 42.5961 50.7103C42.5961 50.7405 42.5911 50.7657 42.581 50.7858C42.5307 50.8361 42.5005 50.8814 42.4904 50.9217C42.4904 50.9518 42.4804 50.982 42.4602 51.0122C42.4099 51.1028 42.3848 51.1733 42.3848 51.2236C42.3948 51.2638 42.3948 51.3041 42.3848 51.3443C42.3546 51.455 42.3395 51.5406 42.3395 51.601C42.3395 51.6513 42.3344 51.7016 42.3244 51.7519C42.3143 51.8224 42.2992 51.8928 42.2791 51.9633C42.259 52.0236 42.2388 52.0941 42.2187 52.1746C42.2086 52.2249 42.2086 52.2803 42.2187 52.3407C42.2288 52.391 42.2237 52.4514 42.2036 52.5218C42.2036 52.552 42.1936 52.5822 42.1734 52.6124C42.1634 52.6426 42.1583 52.6828 42.1583 52.7331C42.1483 52.8137 42.1533 52.8891 42.1734 52.9596C42.1936 53.03 42.1684 53.0954 42.0979 53.1558C42.1281 53.2162 42.1432 53.3068 42.1432 53.4275C42.1533 53.5382 42.1332 53.6188 42.0828 53.6691C42.1231 53.7798 42.1382 53.9005 42.1281 54.0314C42.1281 54.1622 42.1231 54.2981 42.113 54.439C42.103 54.5698 42.0929 54.7057 42.0828 54.8465C42.0828 54.9774 42.0979 55.1032 42.1281 55.2239C42.1483 55.2944 42.1936 55.3346 42.264 55.3447C42.3344 55.3447 42.3948 55.3648 42.4451 55.4051C42.4451 55.4353 42.4552 55.4655 42.4753 55.4957C42.5055 55.5158 42.5307 55.551 42.5508 55.6013C42.5609 55.6718 42.5408 55.7422 42.4904 55.8127C42.4401 55.8831 42.3898 55.9284 42.3395 55.9485C42.2992 55.9687 42.259 55.9687 42.2187 55.9485C42.1785 55.9385 42.1181 55.9435 42.0376 55.9636C41.9973 55.9737 41.952 55.9888 41.9017 56.0089C41.8514 56.0391 41.8011 56.0643 41.7507 56.0844C41.6702 56.1146 41.5746 56.1397 41.4639 56.1599C41.3532 56.1901 41.2425 56.2152 41.1318 56.2354C41.0815 56.2454 41.0312 56.2504 40.9809 56.2504C40.9305 56.2605 40.8802 56.2706 40.8299 56.2806C40.7695 56.3008 40.7091 56.3209 40.6488 56.341C40.5884 56.3712 40.533 56.3813 40.4827 56.3712C40.3821 56.3511 40.3116 56.2957 40.2714 56.2052C40.2311 56.1146 40.211 56.0139 40.211 55.9032C40.211 55.8529 40.216 55.8026 40.2261 55.7523C40.2462 55.712 40.2512 55.6667 40.2412 55.6164C40.2412 55.5661 40.2311 55.5208 40.211 55.4806C40.2009 55.4302 40.1909 55.3799 40.1808 55.3296C40.1607 55.1988 40.1556 55.0679 40.1657 54.9371C40.1758 54.7962 40.1808 54.6553 40.1808 54.5144C40.1808 54.4742 40.1858 54.439 40.1959 54.4088C40.2059 54.3685 40.211 54.3333 40.211 54.3031C40.2009 54.2628 40.1909 54.2276 40.1808 54.1974C40.1707 54.1572 40.1657 54.1169 40.1657 54.0767C40.1456 53.9962 40.1305 53.9257 40.1204 53.8653C40.1103 53.8049 40.1003 53.7295 40.0902 53.6389C40.0902 53.6087 40.0852 53.5735 40.0751 53.5332C40.0751 53.493 40.0751 53.4577 40.0751 53.4275C40.0751 53.3571 40.0801 53.2967 40.0902 53.2464C40.1103 53.186 40.1254 53.1256 40.1355 53.0652C40.1154 52.9545 40.1103 52.8539 40.1204 52.7633C40.1405 52.6728 40.1506 52.5923 40.1506 52.5218C40.1405 52.4614 40.1254 52.401 40.1053 52.3407C40.0952 52.2803 40.0852 52.2199 40.0751 52.1595C40.0751 52.1293 40.0751 52.0941 40.0751 52.0538C40.0852 52.0035 40.0902 51.9733 40.0902 51.9633C40.06 51.8324 40.0399 51.7268 40.0298 51.6463C40.0298 51.5657 40.0248 51.5003 40.0147 51.45C40.0047 51.3393 40.0047 51.2638 40.0147 51.2236C40.0349 51.1733 40.05 51.1229 40.06 51.0726C40.0801 50.972 40.0801 50.8713 40.06 50.7707C40.05 50.66 40.05 50.5543 40.06 50.4537C40.0701 50.3732 40.0852 50.2977 40.1053 50.2273C40.1355 50.1568 40.1506 50.0813 40.1506 50.0008C40.1506 49.9706 40.1456 49.9404 40.1355 49.9102C40.1355 49.87 40.1355 49.8348 40.1355 49.8046C40.1355 49.7744 40.1405 49.7442 40.1506 49.714C40.1607 49.6737 40.1657 49.6385 40.1657 49.6083C40.1556 49.5882 40.1456 49.563 40.1355 49.5328C40.1254 49.4926 40.1204 49.4574 40.1204 49.4272C40.1003 49.3567 40.1003 49.2913 40.1204 49.2309C40.1405 49.1605 40.1506 49.085 40.1506 49.0045C40.1506 48.9542 40.1456 48.9039 40.1355 48.8535C40.1254 48.8032 40.1154 48.7529 40.1053 48.7026C40.1053 48.6825 40.1053 48.6573 40.1053 48.6271C40.1154 48.5868 40.1154 48.5567 40.1053 48.5365C40.0852 48.4359 40.0801 48.3554 40.0902 48.295C40.1103 48.2246 40.1204 48.1591 40.1204 48.0988C40.1204 48.0182 40.1154 47.9428 40.1053 47.8723C40.0952 47.8019 40.1103 47.7264 40.1506 47.6459C40.1506 47.5956 40.1355 47.5553 40.1053 47.5251C40.0751 47.4849 40.05 47.4446 40.0298 47.4044C40.0701 47.3238 40.0751 47.2433 40.0449 47.1628C40.0248 47.0823 40.0248 47.0018 40.0449 46.9213C40.1254 46.8408 40.2059 46.8056 40.2865 46.8156C40.367 46.8156 40.4223 46.8408 40.4525 46.8911C40.4827 46.9314 40.5179 46.9666 40.5582 46.9968C40.6689 47.027 40.7695 47.037 40.8601 47.027C40.9507 47.0068 41.0513 46.9968 41.162 46.9968C41.2224 46.9968 41.2777 47.0018 41.3281 47.0119C41.3884 47.0219 41.4438 47.027 41.4941 47.027C41.5746 47.0169 41.6451 46.9968 41.7055 46.9666C41.7759 46.9263 41.8715 46.9263 41.9923 46.9666C42.0325 46.9867 42.0527 47.0169 42.0527 47.0571C42.0627 47.0873 42.0828 47.1276 42.113 47.1779C42.1231 47.2584 42.1332 47.3087 42.1432 47.3289C42.1533 47.3389 42.1583 47.354 42.1583 47.3742C42.1382 47.4647 42.1181 47.5503 42.0979 47.6308C42.0778 47.7113 42.0828 47.8019 42.113 47.9025C42.1734 47.9025 42.2187 47.8874 42.2489 47.8572C42.2892 47.817 42.3294 47.7767 42.3697 47.7365C42.3898 47.7163 42.4099 47.6962 42.4301 47.6761C42.4602 47.6459 42.4854 47.6207 42.5055 47.6006C42.586 47.5301 42.6414 47.4748 42.6716 47.4345C42.7118 47.3943 42.7471 47.3641 42.7773 47.344C42.8074 47.3138 42.8427 47.2886 42.8829 47.2685C42.9232 47.2484 42.9534 47.2182 42.9735 47.1779C43.0641 47.1578 43.1546 47.1226 43.2452 47.0722C43.3358 47.0119 43.4364 47.0018 43.5471 47.0421C43.5975 46.9917 43.6729 46.9515 43.7736 46.9213C43.8843 46.881 43.9698 46.8911 44.0302 46.9515C44.2214 46.9515 44.3875 46.9213 44.5284 46.8609C44.6693 46.8005 44.8001 46.7854 44.9208 46.8156C44.9712 46.8257 45.0064 46.8458 45.0265 46.876C45.0567 46.8961 45.0919 46.9163 45.1322 46.9364C45.1624 46.9464 45.1926 46.9565 45.2228 46.9666C45.263 46.9766 45.2982 46.9917 45.3284 47.0119C45.3989 47.1226 45.419 47.2433 45.3888 47.3742C45.3687 47.4949 45.3536 47.6207 45.3435 47.7516C45.3536 47.8723 45.3536 47.9629 45.3435 48.0233C45.3335 48.0837 45.3284 48.139 45.3284 48.1893C45.3284 48.3 45.3335 48.4158 45.3435 48.5365C45.3536 48.6472 45.3586 48.763 45.3586 48.8837Z" fill="white"/>
<path d="M38.4901 50.9669C38.4699 51.0776 38.4699 51.1682 38.4901 51.2387C38.5102 51.3091 38.5001 51.3695 38.4599 51.4198C38.5203 51.4701 38.5404 51.5305 38.5203 51.601C38.5102 51.6714 38.4951 51.7469 38.475 51.8274C38.4649 51.8777 38.4649 51.928 38.475 51.9783C38.485 52.0287 38.485 52.0689 38.475 52.0991C38.4246 52.1897 38.3894 52.2551 38.3693 52.2954C38.3592 52.3356 38.3441 52.3557 38.324 52.3557C38.3341 52.4161 38.329 52.4765 38.3089 52.5369C38.2888 52.5973 38.2687 52.6577 38.2485 52.718C38.2284 52.7985 38.2083 52.8489 38.1881 52.869C38.1781 52.8891 38.1731 52.9092 38.1731 52.9294C38.163 53.03 38.1479 53.1005 38.1278 53.1407C38.1177 53.1709 38.1076 53.1961 38.0976 53.2162C38.0674 53.2967 38.0372 53.3772 38.007 53.4577C37.9768 53.5382 37.9466 53.6187 37.9164 53.6993C37.8661 53.7999 37.8208 53.9005 37.7806 54.0012C37.7403 54.0917 37.685 54.1723 37.6145 54.2427C37.6145 54.293 37.6145 54.3282 37.6145 54.3484C37.6246 54.3584 37.6246 54.3886 37.6145 54.4389C37.5642 54.4893 37.5189 54.5346 37.4786 54.5748C37.4384 54.605 37.3981 54.6604 37.3579 54.7409C37.3277 54.8214 37.2774 54.9019 37.2069 54.9824C37.1667 55.0327 37.1214 55.073 37.0711 55.1032C37.0207 55.1233 36.9704 55.1585 36.9201 55.2088C36.8698 55.2088 36.8396 55.2139 36.8295 55.2239C36.8195 55.234 36.7943 55.229 36.7541 55.2088C36.6735 55.2893 36.5981 55.3497 36.5276 55.39C36.4572 55.4302 36.3565 55.4705 36.2257 55.5107C36.1653 55.5309 36.12 55.5409 36.0898 55.5409C36.0697 55.5409 36.0496 55.546 36.0295 55.556C35.9691 55.5762 35.9037 55.5963 35.8332 55.6164C35.7728 55.6466 35.7024 55.6617 35.6219 55.6617C35.5112 55.6516 35.4307 55.6516 35.3803 55.6617C35.3401 55.6818 35.2948 55.6969 35.2445 55.707C35.164 55.7271 35.0784 55.7321 34.9879 55.7221C34.8973 55.7221 34.8067 55.7271 34.7161 55.7372C34.6356 55.7372 34.5853 55.7422 34.5652 55.7523C34.545 55.7724 34.5249 55.7825 34.5048 55.7825C34.4243 55.7825 34.3639 55.7774 34.3236 55.7674C34.2935 55.7674 34.2683 55.7724 34.2482 55.7825C34.1878 55.7925 34.1274 55.8076 34.067 55.8278C34.0066 55.8579 33.9261 55.863 33.8255 55.8429C33.6544 55.8831 33.4833 55.9032 33.3122 55.9032C33.1411 55.9133 33.0053 55.8781 32.9046 55.7976C32.8443 55.8278 32.7788 55.8328 32.7084 55.8127C32.638 55.7925 32.5876 55.7774 32.5574 55.7674C32.5373 55.7674 32.5172 55.7674 32.4971 55.7674C32.3964 55.7472 32.2908 55.7171 32.18 55.6768C32.0794 55.6466 31.9888 55.6013 31.9083 55.5409C31.7674 55.4906 31.6618 55.4453 31.5913 55.4051C31.5309 55.3648 31.4504 55.3397 31.3498 55.3296C31.2894 55.2692 31.2441 55.2189 31.2139 55.1786C31.1837 55.1384 31.1586 55.1082 31.1384 55.0881C31.1183 55.0679 31.0932 55.0579 31.063 55.0579C31.0328 55.0478 31.0076 55.0327 30.9875 55.0126C30.907 54.9421 30.8466 54.9019 30.8063 54.8918C30.7761 54.8717 30.751 54.8516 30.7309 54.8314C30.7107 54.8113 30.6906 54.7912 30.6705 54.7711C30.6503 54.7409 30.6302 54.7107 30.6101 54.6805C30.5195 54.5698 30.4541 54.4943 30.4138 54.454C30.3736 54.4138 30.3333 54.3786 30.2931 54.3484C30.283 54.3081 30.2679 54.2779 30.2478 54.2578C30.2377 54.2377 30.2377 54.2024 30.2478 54.1521C30.1773 54.0917 30.1371 54.0515 30.127 54.0314C30.117 54.0112 30.1069 53.9961 30.0968 53.9861C30.0264 53.8754 29.966 53.7949 29.9157 53.7445C29.8956 53.7144 29.8805 53.6791 29.8704 53.6389C29.8603 53.5986 29.8452 53.5433 29.8251 53.4728C29.805 53.3822 29.7849 53.3118 29.7647 53.2615C29.7446 53.2011 29.7446 53.1457 29.7647 53.0954C29.7446 53.0652 29.7194 53.0401 29.6893 53.02C29.6691 52.9998 29.654 52.9747 29.644 52.9445C29.6238 52.864 29.6138 52.7885 29.6138 52.718C29.6238 52.6476 29.6188 52.5771 29.5987 52.5067C29.5886 52.4564 29.5685 52.4111 29.5383 52.3708C29.5182 52.3306 29.5182 52.2853 29.5383 52.235C29.5081 52.2048 29.4829 52.1696 29.4628 52.1293C29.4528 52.079 29.4326 52.0387 29.4024 52.0085C29.4226 51.9482 29.4175 51.8878 29.3873 51.8274C29.3672 51.767 29.3571 51.6966 29.3571 51.616C29.3571 51.5758 29.3571 51.5406 29.3571 51.5104C29.3672 51.4701 29.3773 51.4248 29.3873 51.3745V51.1179C29.3974 51.0575 29.4075 51.0022 29.4175 50.9518C29.4377 50.9015 29.4578 50.8512 29.4779 50.8009C29.488 50.7405 29.493 50.6902 29.493 50.6499C29.493 50.5996 29.5131 50.5644 29.5534 50.5443C29.5131 50.4134 29.5182 50.2927 29.5685 50.182C29.6188 50.0713 29.644 49.9505 29.644 49.8197C29.6641 49.7995 29.6792 49.7744 29.6893 49.7442C29.6993 49.7039 29.7144 49.6737 29.7345 49.6536C29.7345 49.5429 29.7496 49.4523 29.7798 49.3819C29.8201 49.3114 29.8503 49.236 29.8704 49.1554C29.9308 49.1353 29.971 49.1051 29.9912 49.0649C30.0214 49.0146 30.0516 48.9642 30.0817 48.9139C30.1421 48.8737 30.1824 48.8284 30.2025 48.7781C30.2226 48.7177 30.2579 48.6925 30.3082 48.7026C30.3686 48.612 30.4138 48.5365 30.444 48.4761C30.4843 48.4158 30.5396 48.3654 30.6101 48.3252C30.6906 48.2849 30.7409 48.2598 30.7611 48.2497C30.7812 48.2396 30.8013 48.2245 30.8214 48.2044C30.8516 48.1742 30.8768 48.1491 30.8969 48.1289C30.917 48.0987 30.9372 48.0736 30.9573 48.0535C31.0479 47.983 31.1384 47.9277 31.229 47.8874C31.2592 47.8471 31.2944 47.8119 31.3347 47.7817C31.385 47.7515 31.4353 47.7213 31.4856 47.6912C31.5662 47.6408 31.6215 47.6106 31.6517 47.6006C31.6819 47.5905 31.707 47.5855 31.7272 47.5855C31.7574 47.5654 31.7976 47.5402 31.8479 47.51C31.9083 47.4698 31.9637 47.4647 32.014 47.4949C32.1348 47.3741 32.3511 47.3138 32.6631 47.3138C32.8241 47.2735 32.9449 47.2433 33.0254 47.2232C33.1059 47.2031 33.2116 47.198 33.3424 47.2081C33.3827 47.2081 33.4179 47.2131 33.4481 47.2232C33.4883 47.2333 33.5236 47.2383 33.5538 47.2383C33.6041 47.2383 33.6494 47.2333 33.6896 47.2232C33.7399 47.2131 33.7903 47.2031 33.8406 47.193C33.9714 47.1729 34.072 47.1628 34.1425 47.1628C34.2129 47.1527 34.2834 47.1578 34.3538 47.1779C34.4645 47.2081 34.54 47.2232 34.5803 47.2232C34.6306 47.2131 34.6658 47.2081 34.6859 47.2081C34.7161 47.2182 34.7463 47.2282 34.7765 47.2383C34.8067 47.2484 34.8319 47.2584 34.852 47.2685C34.9627 47.2987 35.0432 47.3138 35.0935 47.3138C35.1438 47.3138 35.1841 47.3188 35.2143 47.3289C35.2545 47.3289 35.2948 47.3389 35.3351 47.3591C35.3753 47.3691 35.4156 47.3842 35.4558 47.4043C35.4961 47.4144 35.5363 47.4295 35.5766 47.4496C35.6168 47.4597 35.6571 47.4698 35.6974 47.4798C35.8382 47.51 35.9691 47.5201 36.0898 47.51C36.2106 47.4999 36.3414 47.5251 36.4823 47.5855C36.5025 47.5956 36.5276 47.6106 36.5578 47.6308C36.588 47.6509 36.6182 47.671 36.6484 47.6912C36.6987 47.7012 36.7339 47.7163 36.7541 47.7364C36.7742 47.7566 36.7943 47.7717 36.8144 47.7817C36.9855 47.8723 37.1214 47.9578 37.222 48.0384C37.3227 48.1189 37.4183 48.1994 37.5088 48.2799C37.5088 48.3302 37.5189 48.3755 37.539 48.4158C37.5592 48.4459 37.5793 48.4812 37.5994 48.5214C37.6497 48.5617 37.69 48.6019 37.7202 48.6422C37.7504 48.6724 37.7856 48.7076 37.8259 48.7479C37.846 48.768 37.851 48.7931 37.8409 48.8233C37.8409 48.8535 37.851 48.8888 37.8711 48.929C37.8913 48.9793 37.9164 49.0347 37.9466 49.0951C37.9869 49.1554 38.0221 49.2108 38.0523 49.2611C38.0523 49.3416 38.0573 49.3869 38.0674 49.397C38.0774 49.407 38.0976 49.4473 38.1278 49.5177C38.1479 49.5681 38.1731 49.6335 38.2032 49.714C38.2334 49.7844 38.2888 49.8348 38.3693 49.8649C38.3592 49.9153 38.3693 49.9706 38.3995 50.031C38.4297 50.0813 38.4498 50.1367 38.4599 50.197C38.4699 50.2675 38.475 50.3379 38.475 50.4084C38.475 50.4788 38.475 50.5443 38.475 50.6046C38.4649 50.7153 38.4649 50.7958 38.475 50.8462C38.485 50.8864 38.4901 50.9267 38.4901 50.9669ZM36.6937 50.8009C36.6836 50.7204 36.6786 50.67 36.6786 50.6499C36.6886 50.6298 36.6886 50.5946 36.6786 50.5443C36.6584 50.4436 36.6283 50.348 36.588 50.2574C36.5477 50.1669 36.5176 50.0612 36.4974 49.9404C36.4874 49.88 36.4823 49.8197 36.4823 49.7593C36.4924 49.6888 36.4874 49.6184 36.4672 49.5479C36.427 49.5278 36.4018 49.4976 36.3918 49.4574C36.3918 49.4171 36.3767 49.3869 36.3465 49.3668C36.3263 49.3265 36.2962 49.2963 36.2559 49.2762C36.2156 49.2561 36.1905 49.2209 36.1804 49.1705C36.0697 49.1202 35.9741 49.0699 35.8936 49.0196C35.793 49.0196 35.6923 49.0095 35.5917 48.9894C35.5414 48.9693 35.5011 48.9491 35.4709 48.929C35.4508 48.9089 35.4206 48.8938 35.3803 48.8837C35.2998 48.8737 35.2445 48.8837 35.2143 48.9139C35.1841 48.9441 35.1237 48.9491 35.0331 48.929C34.9828 48.9089 34.9426 48.8737 34.9124 48.8233C34.8922 48.763 34.857 48.7177 34.8067 48.6875C34.7564 48.6673 34.7212 48.6623 34.701 48.6724C34.691 48.6724 34.6608 48.6724 34.6105 48.6724C34.5803 48.6623 34.5601 48.6472 34.5501 48.6271C34.54 48.5969 34.5098 48.5868 34.4595 48.5969C34.3689 48.617 34.2683 48.6472 34.1576 48.6875C34.057 48.7177 33.9513 48.7076 33.8406 48.6573C33.7903 48.6673 33.75 48.6824 33.7198 48.7026C33.6997 48.7227 33.6745 48.7428 33.6443 48.763C33.6443 48.7328 33.6192 48.7227 33.5689 48.7328C33.5286 48.7428 33.4984 48.7428 33.4783 48.7328C33.3978 48.7931 33.3022 48.8485 33.1915 48.8988C33.0808 48.9391 32.9852 48.9793 32.9046 49.0196C32.8241 49.0498 32.7638 49.085 32.7235 49.1253C32.6933 49.1655 32.6681 49.1957 32.648 49.2158C32.6178 49.246 32.5876 49.2762 32.5574 49.3064C32.5373 49.3366 32.5071 49.3618 32.4669 49.3819C32.326 49.4624 32.2203 49.5429 32.1499 49.6234C32.0794 49.6939 32.0039 49.7492 31.9234 49.7895C31.9134 49.87 31.8781 49.9354 31.8178 49.9857C31.7674 50.026 31.7272 50.0863 31.697 50.1669C31.6769 50.2172 31.6567 50.2776 31.6366 50.348C31.6265 50.4185 31.6114 50.4788 31.5913 50.5292C31.5309 50.7103 31.5007 50.8663 31.5007 50.9971C31.5108 51.1179 31.4856 51.2286 31.4253 51.3292C31.4555 51.3494 31.4655 51.3795 31.4555 51.4198C31.4555 51.4601 31.4605 51.5003 31.4705 51.5406C31.4907 51.5909 31.5058 51.6412 31.5158 51.6915C31.536 51.7418 31.536 51.7972 31.5158 51.8576C31.5158 51.9582 31.5209 52.0287 31.5309 52.0689C31.5813 52.1394 31.6014 52.1847 31.5913 52.2048C31.5913 52.2249 31.5963 52.245 31.6064 52.2652C31.6165 52.2954 31.6316 52.3255 31.6517 52.3557C31.6819 52.3859 31.6869 52.4262 31.6668 52.4765C31.7171 52.4966 31.7423 52.5268 31.7423 52.5671C31.7523 52.6073 31.7775 52.6375 31.8178 52.6577C31.7976 52.718 31.8077 52.7784 31.8479 52.8388C31.8983 52.8992 31.9134 52.9747 31.8932 53.0652C31.9435 53.1055 31.9687 53.1357 31.9687 53.1558C31.9687 53.1759 31.9737 53.1961 31.9838 53.2162C32.0039 53.2363 32.0241 53.2615 32.0442 53.2917C32.0744 53.3118 32.0895 53.347 32.0895 53.3973C32.1398 53.4175 32.18 53.4527 32.2102 53.503C32.2505 53.5433 32.2958 53.5835 32.3461 53.6238C32.3662 53.6439 32.3864 53.664 32.4065 53.6842C32.4367 53.6942 32.4618 53.7093 32.482 53.7294C32.5323 53.7596 32.5725 53.7898 32.6027 53.82C32.6329 53.8502 32.6631 53.8754 32.6933 53.8955C32.7436 53.9458 32.7889 53.976 32.8292 53.9861C32.8694 53.9861 32.9046 53.9961 32.9348 54.0163C32.965 54.0364 32.9902 54.0565 33.0103 54.0767C33.0405 54.0968 33.0657 54.1119 33.0858 54.1219C33.1663 54.1521 33.2518 54.1723 33.3424 54.1823C33.433 54.1823 33.5135 54.2226 33.584 54.3031C33.6645 54.3031 33.7349 54.3182 33.7953 54.3484C33.8657 54.3685 33.9513 54.3735 34.0519 54.3635C34.0922 54.3635 34.1224 54.3786 34.1425 54.4088C34.1626 54.4289 34.1978 54.4389 34.2482 54.4389C34.2985 54.4289 34.3337 54.4188 34.3538 54.4088C34.374 54.3987 34.4092 54.3937 34.4595 54.3937C34.5098 54.3836 34.5551 54.3886 34.5954 54.4088C34.6457 54.4188 34.691 54.4239 34.7312 54.4239C34.7815 54.4138 34.8369 54.3937 34.8973 54.3635C34.9677 54.3333 35.018 54.3081 35.0482 54.288C35.0986 54.2578 35.1438 54.2326 35.1841 54.2125C35.2244 54.1823 35.2747 54.1672 35.3351 54.1672C35.3451 54.1169 35.3652 54.0817 35.3954 54.0616C35.4357 54.0314 35.4709 54.0012 35.5011 53.971C35.5514 53.9207 35.5967 53.8804 35.637 53.8502C35.6772 53.81 35.7124 53.7647 35.7426 53.7144C35.7628 53.6741 35.7879 53.6439 35.8181 53.6238C35.8483 53.5936 35.8735 53.5634 35.8936 53.5332C35.964 53.4426 36.0244 53.3521 36.0747 53.2615C36.1251 53.1608 36.1754 53.0602 36.2257 52.9596C36.2559 52.9092 36.2861 52.8589 36.3163 52.8086C36.3465 52.7482 36.3716 52.6878 36.3918 52.6275C36.4018 52.5268 36.4119 52.4664 36.4219 52.4463C36.4421 52.4161 36.4421 52.391 36.4219 52.3708C36.4421 52.2903 36.4572 52.2249 36.4672 52.1746C36.4874 52.1142 36.4924 52.0538 36.4823 51.9934C36.5327 51.9431 36.5578 51.8827 36.5578 51.8123C36.5578 51.7418 36.5679 51.6613 36.588 51.5708C36.5981 51.5204 36.6132 51.4802 36.6333 51.45C36.6534 51.4097 36.6635 51.3645 36.6635 51.3141C36.6836 51.2336 36.6937 51.143 36.6937 51.0424C36.6937 50.9317 36.6937 50.8512 36.6937 50.8009Z" fill="white"/>
<path d="M29.176 44.9589C29.0955 45.0092 29.01 45.0595 28.9194 45.1098C28.8389 45.1601 28.7835 45.2356 28.7533 45.3362C28.6728 45.4168 28.6225 45.4822 28.6024 45.5325C28.5823 45.5727 28.5571 45.608 28.5269 45.6382C28.4665 45.6382 28.4162 45.6432 28.376 45.6533C28.3357 45.6633 28.2904 45.6633 28.2401 45.6533C28.1596 45.6331 28.0992 45.5878 28.0589 45.5174C28.0288 45.447 27.9885 45.3866 27.9382 45.3362C27.8577 45.3161 27.7772 45.296 27.6966 45.2759C27.6262 45.2457 27.5558 45.2406 27.4853 45.2608C27.4048 45.2809 27.3545 45.3111 27.3343 45.3513C27.3142 45.3815 27.274 45.4067 27.2136 45.4268C27.2136 45.4872 27.2035 45.5476 27.1834 45.608C27.1733 45.6684 27.1633 45.7338 27.1532 45.8042C27.1532 45.9049 27.1532 46.0055 27.1532 46.1061C27.1532 46.2068 27.1431 46.3124 27.123 46.4231C27.1029 46.5238 27.0777 46.6194 27.0475 46.71C27.0274 46.7905 27.0324 46.876 27.0626 46.9666C27.1633 47.0169 27.2639 47.032 27.3645 47.0119C27.4652 46.9917 27.5708 46.9917 27.6816 47.0119C27.7419 47.0219 27.8023 47.037 27.8627 47.0572C27.9231 47.0773 27.9835 47.0974 28.0438 47.1175C28.1244 47.1075 28.1847 47.1075 28.225 47.1175C28.2753 47.1175 28.3256 47.1377 28.376 47.1779C28.4565 47.2282 28.4917 47.3037 28.4816 47.4044C28.4816 47.4949 28.4917 47.6006 28.5118 47.7214C28.5319 47.8723 28.537 48.0032 28.5269 48.1139C28.5168 48.2246 28.5168 48.3353 28.5269 48.446C28.4967 48.4661 28.4716 48.4963 28.4514 48.5365C28.4313 48.5667 28.4112 48.5919 28.391 48.612C28.2803 48.6321 28.1545 48.6422 28.0137 48.6422C27.8728 48.6422 27.752 48.6372 27.6514 48.6271C27.6312 48.6271 27.596 48.6372 27.5457 48.6573C27.5054 48.6674 27.4752 48.6472 27.4551 48.5969C27.4048 48.6271 27.3394 48.6422 27.2589 48.6422C27.1784 48.6422 27.0978 48.6422 27.0173 48.6422C26.967 48.763 26.9419 48.9089 26.9419 49.08C26.9519 49.2511 26.9318 49.397 26.8815 49.5178C26.9217 49.6285 26.9419 49.7744 26.9419 49.9555C26.962 50.0662 26.967 50.1417 26.957 50.182C26.9469 50.2122 26.9419 50.2373 26.9419 50.2575C26.9519 50.4185 26.9469 50.5493 26.9268 50.6499C26.9167 50.7405 26.9016 50.821 26.8815 50.8915C26.9117 50.9418 26.9217 51.0072 26.9117 51.0877C26.9016 51.1582 26.8966 51.2286 26.8966 51.2991C26.8966 51.3796 26.8966 51.4551 26.8966 51.5255C26.8966 51.5859 26.8915 51.6513 26.8815 51.7217C26.8714 51.7821 26.8563 51.8526 26.8362 51.9331C26.8261 52.0035 26.8161 52.084 26.806 52.1746C26.7959 52.2551 26.7909 52.3407 26.7909 52.4312C26.801 52.5218 26.7808 52.5973 26.7305 52.6577C26.7305 52.708 26.7506 52.7734 26.7909 52.8539C26.811 53.0049 26.811 53.1709 26.7909 53.3521C26.7708 53.5232 26.7708 53.6943 26.7909 53.8653C26.7909 53.8955 26.7909 53.9358 26.7909 53.9861C26.801 54.0364 26.806 54.0767 26.806 54.1069C26.8362 54.1974 26.8463 54.2629 26.8362 54.3031C26.8261 54.3434 26.8211 54.3836 26.8211 54.4239C26.8312 54.4742 26.8463 54.5295 26.8664 54.5899C26.8865 54.6503 26.9016 54.7107 26.9117 54.7711C26.9318 54.8516 26.9368 54.9422 26.9268 55.0428C26.9167 55.1334 26.9167 55.2189 26.9268 55.2994C26.9771 55.551 26.9721 55.7221 26.9117 55.8127C26.9016 55.8328 26.8764 55.8529 26.8362 55.8731C26.7959 55.9033 26.7607 55.9334 26.7305 55.9636H26.4135H26.1418C26.1217 55.9636 26.0864 55.9687 26.0361 55.9787C25.9959 55.9989 25.9707 55.9838 25.9606 55.9334C25.9304 55.9435 25.8952 55.9586 25.855 55.9787C25.8147 55.9989 25.7745 55.9989 25.7342 55.9787C25.7141 56.0089 25.6889 56.0291 25.6587 56.0391C25.6386 56.0492 25.6185 56.0643 25.5983 56.0844C25.5279 56.1045 25.4826 56.0995 25.4625 56.0693C25.4524 56.0492 25.4323 56.0291 25.4021 56.0089C25.392 56.1297 25.3266 56.1951 25.2059 56.2052C25.0951 56.2152 24.9895 56.2052 24.8888 56.175C24.909 56.1247 24.8989 56.0844 24.8586 56.0542C24.8285 56.024 24.8134 55.9838 24.8134 55.9334C24.8033 55.8731 24.8134 55.8026 24.8436 55.7221C24.8838 55.6517 24.9039 55.5963 24.9039 55.5561C24.9241 55.4252 24.9291 55.2894 24.919 55.1485C24.919 55.0076 24.9442 54.8918 24.9945 54.8013C24.9643 54.751 24.9593 54.6956 24.9794 54.6352C24.9995 54.5748 25.0096 54.5195 25.0096 54.4692C24.9995 54.3786 24.9895 54.2981 24.9794 54.2276C24.9694 54.1572 24.9643 54.0616 24.9643 53.9408C24.9643 53.7093 24.9694 53.498 24.9794 53.3068C24.9995 53.1055 25.0046 52.9143 24.9945 52.7332C24.9844 52.6124 24.9744 52.5017 24.9643 52.401C24.9643 52.2903 24.9643 52.1796 24.9643 52.0689C25.0146 52.0086 25.0348 51.9532 25.0247 51.9029C25.0146 51.8425 25.0096 51.7721 25.0096 51.6916C25.0096 51.6614 25.0146 51.6312 25.0247 51.601C25.0348 51.5708 25.0398 51.5406 25.0398 51.5104C25.0398 51.44 25.0297 51.3796 25.0096 51.3293C24.9995 51.2789 25.0046 51.2236 25.0247 51.1632C25.0348 51.1028 25.0448 51.0626 25.0549 51.0424C25.065 51.0122 25.075 50.9871 25.0851 50.967C25.065 50.8864 25.065 50.821 25.0851 50.7707C25.1153 50.7204 25.1253 50.6852 25.1153 50.665C25.1052 50.6147 25.1052 50.5745 25.1153 50.5443C25.1253 50.504 25.1354 50.4688 25.1455 50.4386C25.1455 50.3581 25.1304 50.2726 25.1002 50.182C25.0801 50.0813 25.0901 50.0008 25.1304 49.9404C25.1505 49.8901 25.1555 49.8046 25.1455 49.6838C25.1455 49.553 25.1404 49.4473 25.1304 49.3668C25.1505 49.3165 25.1555 49.2662 25.1455 49.2159C25.1354 49.1655 25.1505 49.1253 25.1908 49.0951C25.1404 49.0146 25.1253 48.9039 25.1455 48.763C25.1656 48.6221 25.1606 48.4913 25.1304 48.3705C25.0901 48.3403 25.0448 48.3302 24.9945 48.3403C24.9543 48.3403 24.8989 48.3403 24.8285 48.3403C24.7278 48.3302 24.6574 48.3403 24.6171 48.3705C24.5769 48.3906 24.5316 48.4057 24.4813 48.4158C24.3806 48.4359 24.28 48.4409 24.1793 48.4309C24.0888 48.4208 23.9932 48.4107 23.8925 48.4007C23.8825 48.3705 23.8623 48.3504 23.8321 48.3403C23.8019 48.3302 23.7969 48.3 23.817 48.2497C23.7667 48.0887 23.7516 47.9679 23.7718 47.8874C23.7919 47.8069 23.8271 47.7365 23.8774 47.6761C23.8674 47.5956 23.8674 47.5251 23.8774 47.4647C23.8976 47.4044 23.9177 47.3389 23.9378 47.2685C23.9579 47.1981 23.973 47.1477 23.9831 47.1175C24.0032 47.0773 24.0384 47.032 24.0888 46.9817C24.1592 46.9414 24.1995 46.9112 24.2095 46.8911C24.2196 46.8609 24.2347 46.8458 24.2548 46.8458C24.3353 46.8358 24.4209 46.8358 24.5114 46.8458C24.602 46.8458 24.6876 46.8358 24.7681 46.8156C24.8989 46.7754 25.0046 46.7603 25.0851 46.7703C25.1757 46.7703 25.2511 46.7452 25.3115 46.6949C25.3115 46.6445 25.3115 46.5942 25.3115 46.5439C25.3216 46.4936 25.3166 46.4483 25.2964 46.408C25.2763 46.3577 25.2763 46.2571 25.2964 46.1061C25.3266 45.9552 25.3568 45.8495 25.387 45.7891C25.3769 45.7589 25.3719 45.7287 25.3719 45.6985C25.3719 45.6684 25.3618 45.6432 25.3417 45.6231C25.382 45.5124 25.4122 45.4067 25.4323 45.3061C25.4625 45.1954 25.4876 45.0847 25.5078 44.974C25.5782 44.8834 25.6185 44.818 25.6285 44.7777C25.6386 44.7375 25.6537 44.7073 25.6738 44.6871C25.7241 44.6167 25.7543 44.5764 25.7644 44.5664C25.7745 44.5462 25.7845 44.5311 25.7946 44.5211C25.8348 44.4506 25.8751 44.4003 25.9153 44.3701C25.9556 44.3299 25.9908 44.2896 26.021 44.2494C26.0512 44.2091 26.0814 44.1739 26.1116 44.1437C26.1518 44.1034 26.182 44.0632 26.2022 44.0229C26.2525 44.0229 26.2877 44.0179 26.3078 44.0078C26.328 43.9877 26.3582 43.9827 26.3984 43.9927C26.4185 43.9424 26.4286 43.9072 26.4286 43.8871C26.4286 43.8569 26.4538 43.8267 26.5041 43.7965C26.5242 43.7764 26.5544 43.7562 26.5947 43.7361C26.6349 43.716 26.6651 43.6958 26.6852 43.6757C26.7356 43.6757 26.7859 43.6807 26.8362 43.6908C26.8865 43.6908 26.9368 43.6757 26.9871 43.6455C27.0073 43.6355 27.0375 43.6254 27.0777 43.6153C27.118 43.5952 27.1633 43.5801 27.2136 43.57C27.274 43.56 27.3394 43.56 27.4098 43.57C27.4903 43.57 27.5658 43.5751 27.6363 43.5851C27.8073 43.6053 27.9533 43.6556 28.074 43.7361C28.1948 43.8166 28.3256 43.882 28.4665 43.9323C28.5068 44.0028 28.5621 44.0531 28.6326 44.0833C28.7131 44.1135 28.7684 44.1638 28.7986 44.2343C28.8791 44.2544 28.9395 44.2946 28.9798 44.355C29.02 44.4154 29.0804 44.4557 29.1609 44.4758C29.2012 44.6066 29.2062 44.7676 29.176 44.9589Z" fill="white"/>
<defs>
<clipPath id="clip0_745_735">
<rect width="109.333" height="51.25" fill="white" transform="translate(2.5625)"/>
</clipPath>
<clipPath id="clip1_745_735">
<rect width="123.854" height="48.6875" fill="white" transform="translate(49.5417 33.3125)"/>
</clipPath>
</defs>
</svg>
