<svg width="104" height="48" viewBox="0 0 104 48" fill="none" xmlns="http://www.w3.org/2000/svg">
<g clip-path="url(#clip0_73_108)">
<path d="M23.94 2.62C23.8 1.83 23.51 1.19 23.08 0.72C22.64 0.24 22.12 0 21.53 0C21.4 0 21.16 0.04 20.27 0.3C19.63 0.49 18.9 0.72 18.07 1C17.26 1.29 16.3 1.61 15.18 1.96C14.06 2.31 13.06 2.59 12.17 2.82C6.99 4.19 5.85 4.7 5.42 4.97C4.59 5.54 4.16 6.46 4.16 7.68C4.16 8.81 4.57 9.72 5.37 10.33C5.7 10.57 6.11 10.7 6.57 10.7C6.62 10.7 6.77 10.69 7.02 10.67C7.19 10.65 7.55 10.59 8.78 10.18L11.03 9.53C11.94 9.27 12.78 9.04 13.55 8.84C13.93 8.74 14.2 8.68 14.38 8.63C14.4 8.94 14.41 9.41 14.42 10.03C14.44 10.83 14.44 11.96 14.44 13.42V13.99C14.44 21.05 14.74 27.93 15.32 34.44C15.37 35.01 15.41 35.51 15.44 35.95C15.18 35.73 14.87 35.48 14.53 35.19C14.04 34.77 13.45 34.28 12.77 33.74C12.09 33.2 11.49 32.73 10.96 32.32C10.25 31.8 9.52 31.23 8.76 30.61C8 29.99 7.35 29.45 6.81 28.98C6.69 28.88 6.59 28.79 6.51 28.72C6.56 28.68 6.61 28.63 6.66 28.58C7.1 28.18 7.64 27.7 8.28 27.14C9.06 26.47 9.64 25.95 10.05 25.55C10.48 25.13 10.79 24.78 10.99 24.47C11.21 24.14 11.36 23.76 11.44 23.36C11.5 23.07 11.53 22.79 11.53 22.53C11.53 21.79 11.31 21.12 10.88 20.58C10.41 19.92 9.82 19.58 9.12 19.58C8.98 19.58 8.84 19.59 8.67 19.63C8.51 19.68 8.24 19.82 7.29 20.58C6.62 21.12 5.85 21.76 4.97 22.5C4.09 23.24 3.29 23.94 2.54 24.61C1.78 25.29 1.26 25.79 0.970002 26.12C0.320002 26.86 -0.00999832 27.71 -0.00999832 28.66C-0.00999832 28.84 -0.00999832 29.02 0.0200017 29.16C0.0600017 29.75 0.310002 30.34 0.750002 30.91C1.13 31.41 1.79 32.08 2.77 32.97C3.55 33.69 4.17 34.25 4.62 34.65C5.08 35.06 5.54 35.45 6.03 35.82C6.5 36.19 7.17 36.69 8.01 37.32C9.46 38.42 10.89 39.58 12.27 40.77C13.65 41.96 14.76 42.97 15.57 43.8C15.9 44.14 16.21 44.45 16.5 44.73C16.83 45.05 17.06 45.23 17.24 45.32C17.57 45.5 17.91 45.59 18.25 45.59C18.64 45.59 19.08 45.43 19.6 45.1C20.18 44.73 20.56 44.02 20.74 43.01V42.71C20.75 42.37 20.72 41.65 20.64 40.42C20.57 39.24 20.45 37.65 20.29 35.64C20.14 33.77 20 31.91 19.86 30.06C19.72 28.21 19.62 26.8 19.56 25.82C19.49 24.41 19.43 22.43 19.38 19.94C19.32 17.43 19.3 15 19.3 12.7V11.09C19.3 9.63 19.32 8.64 19.35 8.1L19.44 7.06L20.81 6.57C21.29 6.38 21.72 6.2 22.1 6.03C22.65 5.79 22.83 5.67 22.98 5.56C23.28 5.28 23.53 4.84 23.73 4.26C23.89 3.8 23.97 3.36 23.97 2.96V2.63L23.94 2.62Z" fill="white"/>
<path d="M47.93 24.3C47.63 24.3 47.53 24.62 47.53 24.71V34.23C47.53 35.29 45.45 35.66 44.49 35.66C43.83 35.66 43.38 35.38 43.38 34.51V24.89C43.38 24.52 42.72 24.29 42.42 24.29L32.76 24.24C31.75 24.24 31.39 23.5 31.39 23.09C31.39 22.35 32 20.88 32.71 20.88L42.98 20.83C43.13 20.83 43.39 20.46 43.39 20.37V11.08C43.39 10.44 45.62 9.92999 46.43 9.92999C47.04 9.92999 47.64 10.39 47.64 11.13L47.54 20.38C47.54 20.75 47.94 20.84 48 20.84L58.42 20.89C59.18 20.89 59.43 21.63 59.43 21.9C59.43 23.14 58.82 24.2 58.16 24.2L47.94 24.29L47.93 24.3Z" fill="white"/>
<path d="M100.61 32.51C98.75 29.43 96.16 26.52 92.89 23.85C91.81 22.99 89.98 21.62 87.44 19.77C84.91 17.93 82.47 16.19 80.18 14.61C77.94 13.06 76.35 11.88 75.45 11.1C74.63 10.39 74.05 9.7 73.69 9C73.58 8.81 73.51 8.63 73.47 8.45C73.38 8.01 73.5 7.57 73.83 7.12C74.16 6.67 74.69 6.48 75.45 6.53C76.12 6.57 77.01 6.87 77.88 7.41C78.52 7.83 79.29 8.5 80.16 9.38C81.04 10.27 81.72 11.09 82.23 11.85C82.46 12.18 82.71 12.51 82.96 12.83C83.25 13.21 83.5 13.49 83.76 13.73C84.47 14.32 85.17 14.69 85.86 14.81C86.2 14.87 86.64 14.86 87.21 14.76C87.91 14.64 88.31 14.04 88.39 12.93C88.42 11.66 88.52 10.62 88.7 9.84C88.88 9.07 89.2 8.24 89.67 7.4C90.03 6.78 90.23 6.29 90.28 5.9C90.32 5.61 90.29 5.27 90.21 4.89C90.17 4.71 90.12 4.52 90.06 4.35C89.82 3.6 89.35 2.9 88.66 2.28C87.99 1.67 87.28 1.29 86.56 1.16C85.59 0.979996 84.83 1.31 84.33 2.11C84.13 2.37 83.91 2.73 83.69 3.19C83.47 3.64 83.27 4.06 83.09 4.48C83.01 4.67 82.94 4.84 82.89 4.99C82.78 4.89 82.66 4.78 82.52 4.65C80.06 2.33 77.6 0.859996 75.18 0.279996L74.69 0.189996C70.91 -0.510004 68.49 0.669997 67.5 3.7C67.12 4.81 67.06 6.01 67.33 7.28C67.6 8.55 68.16 9.79 69 11.1C69.79 12.42 70.89 13.73 72.26 15C73.59 16.23 75.47 17.68 77.83 19.31C79.93 20.77 82.33 22.48 84.95 24.38C87.58 26.29 89.43 27.67 90.43 28.47C91.37 29.23 92.3 30.11 93.21 31.07C94.11 32.03 94.82 32.89 95.28 33.57C96.15 34.96 96.74 36.23 97.01 37.3C97.37 39.24 96.07 40.47 93.17 40.96C92.81 41.01 92.48 41.04 92.18 41.05C91.89 41.05 91.53 41.03 91.12 40.97C90.68 40.91 90.05 40.8 89.24 40.65C88.14 40.45 87.31 40.27 86.72 40.12C86.14 39.97 85.52 39.76 84.84 39.46C82.83 38.68 81.15 37.85 79.83 36.99C78.51 36.13 77.21 35.05 75.93 33.74C75.04 32.85 74.39 32.07 74 31.44C73.69 30.91 73.48 30.39 73.36 29.85L73.3 29.59C73.21 29.18 73.2 29.02 73.2 28.9C73.2 28.9 73.25 28.84 73.48 28.75C73.9 28.53 74.34 28.45 74.84 28.48C75.42 28.52 76.14 28.7 77.02 29.01C78.29 29.43 79.39 29.87 80.27 30.33C81.17 30.79 82.26 31.45 83.5 32.29C84.54 33.01 85.27 33.49 85.73 33.75C86.26 34.05 86.7 34.23 87.07 34.3C87.96 34.46 88.62 34.25 89.04 33.65C89.41 33.15 89.5 32.46 89.32 31.61L89.26 31.35C89.09 30.56 88.67 29.84 88.03 29.21C87.48 28.67 86.51 27.94 85.06 26.99C83.52 25.96 82.29 25.19 81.39 24.71C80.49 24.23 79.42 23.76 78.23 23.32C76.49 22.63 75.02 22.17 73.88 21.96C73.67 21.92 73.2 21.86 72.48 21.78C71.69 21.69 70.77 21.88 69.7 22.35C67.32 23.09 66.43 24.98 67.06 27.95L67.21 28.64C67.36 29.34 67.56 30.04 67.81 30.73C68.07 31.44 68.46 32.23 68.98 33.07C69.87 34.53 71.12 36.09 72.71 37.72C74.29 39.34 75.91 40.74 77.57 41.91C80.03 43.57 83.15 45.06 86.82 46.35H86.84C88.09 46.76 89.33 47.08 90.52 47.3C92.82 47.73 94.99 47.78 96.97 47.46C100.42 46.74 102.5 45.05 103.16 42.42C103.46 41.2 103.45 39.83 103.12 38.34C102.74 36.59 101.9 34.62 100.62 32.48L100.61 32.51Z" fill="white"/>
</g>
<defs>
<clipPath id="clip0_73_108">
<rect width="103.36" height="47.69" fill="white"/>
</clipPath>
</defs>
</svg>
