<svg width="466" height="210" viewBox="0 0 466 210" fill="none" xmlns="http://www.w3.org/2000/svg">
<g clip-path="url(#clip0_805_302)">
<path d="M318.944 99.7017H243.119V201.967H318.944V99.7017Z" fill="white"/>
<path d="M250.323 181.229C249.909 180.108 249.64 178.697 249.64 177.005V176.164C249.775 174.659 250.054 173.445 250.458 172.407L254.143 172.594L257.963 172.874L257.414 159.371L257.28 149.148C257.28 145.868 257.414 142.484 257.549 138.737L258.367 128.701L259.599 117.917C261.783 117.356 264.65 116.796 267.787 116.412C270.789 116.038 273.522 115.945 275.975 115.945L279.795 116.038C279.246 119.692 278.842 123.449 278.563 127.196C278.014 133.288 277.745 139.485 277.745 145.577C277.745 155.333 278.428 164.903 279.515 173.248L291.119 172.968L292.072 155.614C293.707 155.333 296.171 155.053 298.893 155.053L301.347 155.147C306.264 155.427 309.949 156.465 312.123 157.305V167.435L312.392 177.379C301.885 179.444 288.645 181.323 273.087 181.79L266.13 181.883C260.396 181.883 255.758 181.603 250.303 181.229H250.323Z" fill="white"/>
<path d="M379.108 85.1396H312.765V171.732H379.108V85.1396Z" fill="white"/>
<path d="M332.526 156.797C329.99 156.755 326.76 156.548 325.683 156.205C330.062 140.294 334.141 123.563 338.292 105.182C339.979 105.047 342.215 104.912 344.285 104.943C346.356 104.974 348.281 105.171 349.44 105.348C353.364 123.428 357.97 140.055 363.426 157.181C362.276 157.326 360.889 157.305 359.202 157.285C356.666 157.243 354.202 157.046 353.747 156.797C353.747 156.797 351.977 147.02 350.445 142.079C349.679 139.692 349.296 139.443 344.906 139.37H344.523C338.375 139.277 337.764 139.754 337.226 142.038C336.076 146.854 335 156.755 335 156.755C334.389 156.828 333.468 156.818 332.536 156.797H332.526ZM346.439 119.235C345.445 115.125 344.906 113.475 343.747 113.464C342.588 113.454 341.904 115.727 340.9 119.816L338.83 128.555C338.447 130.268 338.136 131.493 338.136 132.313C338.136 134.202 339.524 134.295 343.747 134.368H344.13C347.971 134.43 349.285 134.368 349.285 132.406C349.285 131.586 349.13 130.517 348.747 128.96L346.439 119.256V119.235Z" fill="white"/>
<path d="M455.648 87.8276H365.061V210H455.648V87.8276Z" fill="white"/>
<path d="M428.62 123.708C428.9 122.888 429.252 122.286 429.686 121.913C430.37 121.3 431.343 120.885 432.575 120.667L434.272 120.377C435.007 120.252 435.556 119.609 435.556 118.851V117.097C435.556 116.64 435.349 116.204 435.007 115.914C434.655 115.623 434.21 115.498 433.744 115.571L413.538 119.162C412.968 119.266 412.503 119.681 412.327 120.242L401.489 156.257L391.209 124.487C390.971 123.75 390.216 123.314 389.47 123.438L373.746 126.23C373.011 126.365 372.473 127.009 372.473 127.756V129.22C372.473 129.676 372.67 130.112 373.022 130.403C373.373 130.693 373.829 130.818 374.274 130.745L375.433 130.548C375.868 130.475 376.458 130.434 376.821 130.662C377.255 130.953 377.38 131.233 377.442 131.43C377.483 131.555 377.68 132.364 377.68 136.08V170.58C377.68 173.715 377.649 174.369 377.649 174.431C377.431 175.79 377.141 176.517 376.945 176.901C376.717 177.337 376.375 177.69 375.91 177.96C375.444 178.23 374.937 178.354 374.388 178.344H374.005C373.156 178.344 372.473 179.039 372.473 179.89V181.354C372.473 182.205 373.166 182.9 374.015 182.9H387.069C387.918 182.9 388.611 182.205 388.611 181.354V179.828C388.611 179.413 388.445 179.018 388.156 178.728C387.866 178.437 387.421 178.25 387.058 178.281C385.733 178.313 384.74 178.022 384.212 177.482C383.601 176.86 383.208 176.05 383.032 175.043C382.98 174.742 382.907 173.735 382.907 170.3V141.633L395.598 181.821C395.805 182.464 396.395 182.9 397.068 182.9H397.814C398.487 182.9 399.087 182.464 399.284 181.81L413.455 136.007V170.933C413.455 174.939 413.227 175.884 413.155 176.102C412.917 176.787 412.627 177.295 412.296 177.534C411.747 177.949 410.96 178.167 409.946 178.167H408.466C407.617 178.178 406.933 178.873 406.933 179.724V181.354C406.933 182.205 407.627 182.9 408.476 182.9H433.993C434.842 182.9 435.535 182.205 435.535 181.354V179.6C435.535 179.184 435.369 178.79 435.08 178.499C434.79 178.209 434.396 178.053 433.993 178.053H432.285C431.136 178.032 430.297 177.856 429.717 177.451C429.138 177.046 428.775 176.61 428.599 176.112C428.506 175.832 428.279 174.721 428.279 170.58V129.053C428.279 125.047 428.506 123.968 428.599 123.687L428.62 123.708Z" fill="white"/>
<path d="M81.3432 56.3999H0V183.782H81.3432V56.3999Z" fill="white"/>
<path d="M52.2551 88.2116C52.6174 88.2116 53.7043 88.7928 53.7871 90.7234C53.7871 90.1421 54.0563 96.5253 54.0563 98.8398C54.0563 100.968 52.3379 101.154 51.7065 101.154H43.6529C43.0214 101.154 42.7523 102.12 42.7523 102.504V140.377C42.7523 145.214 43.1146 147.331 44.0152 149.261C44.6466 150.611 46.7273 152.354 47.9902 152.354C48.808 152.354 50.7024 151.005 51.6961 149.645C52.4207 148.68 52.959 148.296 53.3213 148.296C53.6836 148.296 54.0459 149.645 54.0459 151.773C54.0459 153.704 53.0522 156.61 52.5035 157.762C50.0606 163.553 46.1683 167.228 41.9242 167.228C38.3011 167.228 34.8643 163.751 33.2391 159.308C32.059 156.018 31.4276 153.704 31.4276 145.203C31.4276 138.052 31.7899 110.423 31.7899 103.656C31.7899 102.306 30.2475 100.947 28.26 99.2134C27.5354 98.6322 27.2662 96.8989 27.2662 95.3524C27.2662 94.5844 27.2662 94.3872 27.7217 93.8059C32.8768 86.8519 35.9513 82.4097 38.3943 77.189C39.4812 74.6773 40.0195 72.9336 40.3818 72.9336C41.1995 72.9336 42.4625 75.2481 42.4625 76.7946V86.8416C42.4625 87.4228 42.9179 88.5853 43.2802 88.5853C45.2677 88.5853 51.8721 88.2012 52.2344 88.2012L52.2551 88.2116Z" fill="white"/>
<path d="M117.533 33.8359H50.9094V111.243H117.533V33.8359Z" fill="white"/>
<path d="M91.4878 49.0725C93.7652 51.4286 95.3801 54.8848 95.8666 58.8081C95.9805 59.7111 95.3904 61.9426 94.4484 62.0464L77.834 63.9769C77.3682 64.0288 77.0162 64.4128 76.9231 64.8799C76.8817 65.7932 77.0059 67.485 77.1922 68.9485C77.3993 70.6299 78.7346 75.6015 80.453 78.0198C82.9374 81.4864 86.4259 82.7942 89.7074 82.4101C92.9888 82.0261 95.0281 80.6561 96.2392 77.6669C96.4773 77.0649 96.7775 76.2346 97.0881 76.2034C97.3262 76.1723 97.9059 77.0234 97.999 77.8018C98.0508 78.2481 98.1336 79.4936 97.792 80.5627C96.1047 86.1155 93.3304 91.7824 86.0015 92.6439C76.7989 93.713 70.1531 84.2369 68.59 71.6678C67.4617 62.5757 69.8529 53.1826 75.9397 48.0346C77.7202 46.457 79.8112 45.4191 82.2231 45.1388C85.5771 44.7444 89.107 46.3843 91.4982 49.0725H91.4878ZM76.5401 59.3582C76.5401 59.929 76.9955 60.448 77.3061 60.4065C79.4282 60.2715 80.9706 59.9809 84.8731 59.5243C85.8876 59.4101 87.4196 57.7494 87.0573 54.8329C86.695 51.9164 84.1796 48.2214 82.3059 48.4394C79.1073 48.813 76.6125 54.2309 76.5401 59.3582Z" fill="white"/>
<path d="M163.33 65.8598L99.1077 59.2168L91.6983 131.229L155.921 137.872L163.33 65.8598Z" fill="white"/>
<path d="M129.748 97.1482L137.159 112.592C138.391 115.156 139.292 116.723 139.861 117.304C140.43 117.886 141.145 118.27 141.994 118.467L141.89 119.432L126.145 117.803L126.249 116.837C127.512 116.858 128.35 116.734 128.743 116.464C129.137 116.194 129.365 115.82 129.406 115.363C129.437 115.052 129.406 114.761 129.323 114.512C129.157 113.962 128.702 112.935 127.957 111.409L124.033 103.251L118.423 109.364C116.736 111.222 115.866 112.499 115.794 113.215C115.742 113.724 115.887 114.211 116.218 114.689C116.549 115.166 117.087 115.54 117.812 115.81C118.133 115.945 118.816 116.069 119.841 116.183L119.737 117.149L107.326 115.862L107.429 114.896C108.868 114.813 110.017 114.512 110.897 113.983C112.046 113.288 113.702 111.772 115.866 109.416L123.154 101.497L116.301 87.3815C115.172 85.0566 114.531 83.7695 114.365 83.4997C113.992 82.8769 113.62 82.4306 113.226 82.14C112.833 81.8494 112.284 81.6107 111.57 81.4135L111.674 80.4482L127.708 82.1089L127.605 83.0741L126.797 82.9911C125.876 82.8977 125.214 82.9911 124.82 83.2714C124.416 83.5516 124.199 83.946 124.147 84.4338C124.106 84.8178 124.127 85.1603 124.209 85.4406L125.576 88.3363L128.888 95.446L132.77 91.2217C134.758 89.0421 135.803 87.4853 135.896 86.5408C135.948 86.0737 135.865 85.617 135.658 85.1915C135.451 84.7659 135.13 84.413 134.696 84.1432C134.261 83.8733 133.557 83.6865 132.584 83.5827L132.687 82.6175L144.571 83.8422L144.468 84.8075C143.526 84.7244 142.76 84.7763 142.169 84.9528C141.569 85.1292 140.917 85.5029 140.203 86.0841C139.747 86.4577 138.577 87.6513 136.704 89.6649L129.748 97.1482Z" fill="white"/>
<path d="M183.569 31.7133L137.538 41.7173L150.96 103.806L196.991 93.8019L183.569 31.7133Z" fill="white"/>
<path d="M170.461 50.7952C170.668 50.7537 171.34 50.899 171.599 51.8331C171.537 51.5529 172.365 54.6251 172.603 55.7564C172.831 56.7943 171.879 57.0953 171.516 57.1783L166.962 58.1643C166.599 58.237 166.548 58.7456 166.589 58.9324L170.585 77.3864C171.092 79.7425 171.527 80.7285 172.241 81.5588C172.738 82.14 174.104 82.7316 174.819 82.576C175.284 82.4722 176.216 81.5796 176.63 80.8011C176.941 80.2407 177.199 79.9812 177.406 79.9397C177.614 79.8981 177.955 80.5105 178.183 81.5484C178.39 82.4929 178.131 84.029 177.945 84.6622C177.168 87.7863 175.357 90.0593 172.955 90.5782C170.906 91.0245 168.597 89.7479 167.21 87.7863C166.196 86.3332 165.595 85.2745 164.705 81.1333C163.949 77.6459 161.248 64.1323 160.533 60.8421C160.388 60.1779 159.374 59.7108 158.07 59.1088C157.604 58.9116 157.262 58.1021 157.097 57.3444C157.014 56.9708 156.993 56.8773 157.19 56.5348C159.374 52.5077 160.647 49.9649 161.475 47.121C161.827 45.7613 161.951 44.848 162.159 44.8065C162.614 44.7027 163.577 45.6783 163.742 46.436L164.798 51.3349C164.86 51.6151 165.233 52.1237 165.44 52.0822C166.568 51.8331 170.264 50.8367 170.471 50.7952H170.461Z" fill="white"/>
<path d="M248.543 33.4624H189.88V100.823H248.543V33.4624Z" fill="white"/>
<path d="M210.873 88.2325C210.314 87.7758 209.807 87.1946 209.341 86.5615L209.083 86.219C210.149 85.0046 210.967 84.3196 212.292 83.4478C213.109 82.9911 213.917 82.5863 214.735 82.3476L214.993 82.2853C215.656 82.8665 216.008 83.3855 216.774 83.9044C217.592 84.4857 218.865 85.4094 220.49 85.4613H220.749C221.463 85.4613 222.374 85.399 223.192 84.5376C223.492 84.2469 224.362 83.3232 224.362 82.3995V82.1711C224.31 81.6522 223.906 81.4238 222.322 80.5001C221.97 80.3236 221.608 80.0953 221.153 79.8047L219.32 78.7045C218.254 78.0091 217.229 77.4383 216.929 77.4383H216.826C216.826 77.5005 216.722 77.6147 216.722 78.0714L216.774 78.5903L216.877 78.9329C215.915 79.5141 215.2 79.9708 214.227 80.3755C213.306 80.7803 212.395 81.1228 211.432 81.4135L210.925 81.5276C210.625 78.1752 210.314 75.5804 210.314 71.7194C210.314 70.4531 210.314 69.2388 210.366 68.0244C210.366 66.9865 210.418 65.2532 210.625 62.482C210.78 59.7731 210.977 56.9396 211.287 54.1165V53.8259C211.795 53.5975 212.002 53.4211 212.457 52.9021L212.809 52.4973C212.457 51.6878 212.147 50.6499 211.94 49.4355C211.733 48.3353 211.681 47.4116 211.681 46.6643C212.55 46.2076 213.772 45.7405 215.19 45.398C216.308 45.1697 217.281 45.1074 218.088 45.1074H218.803C218.854 45.5122 219.01 46.1453 219.155 46.8926C219.31 47.4739 219.362 47.8786 219.507 48.3353C220.014 50.6395 220.376 52.2586 220.78 53.5871C220.987 54.3344 221.235 55.0298 221.442 55.7252C222.26 58.0294 223.223 60.1675 224.289 62.0149C224.9 63.1151 225.511 63.8624 226.07 64.6097C226.887 65.5335 227.446 66.3949 228.306 67.3809C228.657 67.7857 228.916 68.4188 228.916 69.052L228.865 69.4568C228.761 70.204 228.409 70.7853 227.902 71.1278C227.291 71.5326 226.68 71.8751 226.018 72.228C225.2 72.6327 224.341 72.9234 223.42 73.1517C224.589 73.6084 225.707 74.2519 226.773 74.9369C228.254 75.8606 229.631 76.9608 230.945 78.2271C231.297 78.5696 231.504 79.0366 231.504 79.6075L231.452 79.95C231.245 81.5069 230.842 83.0118 230.231 84.2781C228.606 87.6824 225.552 90.1111 221.784 90.9103C220.811 91.1387 219.848 91.2528 218.886 91.2528C215.884 91.2528 212.985 90.2149 210.842 88.191L210.873 88.2325ZM218.761 71.1485C219.217 70.9202 219.672 70.6919 220.086 70.4013L218.358 66.8205C218.006 66.0732 217.643 65.3155 217.343 64.5163L217.291 66.5402L217.343 68.616C217.343 69.6021 217.395 70.64 217.447 71.6156C217.902 71.5014 218.358 71.325 218.772 71.1589L218.761 71.1485Z" fill="white"/>
<path d="M288.988 36.5236L243.787 26.4097L230.216 87.3816L275.418 97.4955L288.988 36.5236Z" fill="white"/>
<path d="M255.303 81.4448C253.895 81.1957 252.922 80.7079 252.052 80.2824C251.7 80.0644 248.326 78.3311 246.328 75.4561C243.999 72.1971 243.657 67.8275 244.268 64.3297C244.837 61.0915 246.224 58.5382 247.518 58.1749C247.87 58.0711 248.957 57.8947 249.764 57.7598L252.321 57.4588C252.094 57.1474 251.804 56.6181 251.483 55.9123C251.255 55.3311 249.661 51.989 250.096 49.5395C250.21 48.9168 250.468 48.3667 250.882 47.8996C251.297 47.4326 251.835 47.2042 253.025 46.7683C253.025 46.7683 256.296 45.5643 261.162 46.4258L261.379 46.4673C262.3 46.6334 262.932 46.8514 263.139 46.9344C263.615 47.0693 264.133 47.3288 264.692 47.5883C265.199 47.8893 265.758 48.2006 266.234 48.6158C266.731 48.9687 267.217 49.3839 267.642 49.8302C268.066 50.2765 268.429 50.7747 268.77 51.3247C269.619 52.5495 270.271 53.8988 270.623 55.3622C271.027 56.8879 271.265 58.3825 271.379 59.9601C271.451 61.4755 271.399 63.0323 271.254 64.5062C271.099 66.0423 270.851 67.4435 270.602 68.855C270.261 70.4638 269.712 72.031 268.987 73.6294C268.542 74.5739 267.704 76.2034 266.213 77.7187C263.77 80.1994 259.692 82.2233 255.53 81.4864L255.313 81.4448H255.303ZM258.977 75.425C260.002 74.3144 260.572 73.3388 261.079 72.3528C261.679 71.1695 262.176 69.9137 262.569 68.5852C263.025 67.267 263.377 65.8762 263.687 64.4231L260.199 63.323C258.201 62.6483 257.218 62.202 256.172 61.4859L255.334 60.8527C254.609 62.1294 254.019 63.5824 253.574 65.1704L253.243 66.7273C253.046 67.8275 252.973 68.8861 252.942 70.0071C253.005 71.5743 253.253 73.017 253.729 74.3974C254.226 75.726 255.044 76.7846 256.193 77.5216C256.928 77.1168 257.984 76.494 258.957 75.425H258.977ZM264.112 59.7526C264.05 59.1506 263.998 57.8532 263.563 56.2133C263.015 53.961 262.538 51.8852 260.82 50.2453C260.013 49.4565 259.143 48.9791 258.584 48.7196C257.859 49.6641 257.539 50.5256 257.456 51.0445L257.404 51.3559C257.145 52.8193 257.539 54.0752 257.787 54.864C258.025 55.4452 258.356 56.0368 258.957 57.1163C260.168 59.1091 260.861 60.2508 262.145 61.4962C262.859 62.1605 263.501 62.6483 263.957 62.9493C264.122 62.0048 264.195 60.9462 264.122 59.7526H264.112Z" fill="white"/>
<path d="M320.342 47.4429H268.118V117.875H320.342V47.4429Z" fill="white"/>
<path d="M294.287 105.14C292.682 105.213 291.492 104.912 290.426 104.663C289.981 104.507 285.85 103.438 282.941 100.76C279.588 97.7399 278.128 93.0278 277.942 89.0318C277.776 85.3265 278.677 82.1816 280.012 81.4551C280.374 81.2579 281.534 80.7908 282.382 80.4483L285.126 79.4831C284.805 79.2028 284.349 78.6839 283.821 77.9885C283.428 77.4072 280.861 74.1171 280.726 71.3147C280.695 70.5986 280.85 69.9343 281.192 69.3219C281.534 68.7096 282.072 68.3255 283.283 67.5471C283.283 67.5471 286.596 65.4194 292.154 65.1599H292.403C293.448 65.0976 294.204 65.1807 294.453 65.2326C295.012 65.2637 295.633 65.4194 296.326 65.5647C296.958 65.7723 297.641 65.9799 298.283 66.312C298.914 66.5819 299.546 66.914 300.125 67.3084C300.705 67.7028 301.212 68.1595 301.74 68.6681C302.972 69.8098 304.017 71.1383 304.773 72.6536C305.591 74.2312 306.222 75.8192 306.73 77.5318C307.175 79.1821 307.506 80.905 307.703 82.576C307.91 84.2989 307.982 85.9077 308.055 87.5268C308.075 89.3847 307.858 91.2426 307.444 93.1731C307.185 94.3251 306.657 96.3179 305.394 98.3522C303.313 101.674 299.318 104.912 294.556 105.13H294.308L294.287 105.14ZM296.854 97.6049C297.713 96.1311 298.096 94.9167 298.407 93.7024C298.769 92.2493 299.018 90.7444 299.131 89.1875C299.307 87.6203 299.359 86.0115 299.338 84.3301L295.239 83.9772C292.869 83.7281 291.689 83.479 290.364 82.9497L289.287 82.4618C288.8 84.0395 288.511 85.7832 288.407 87.641L288.428 89.4366C288.49 90.6925 288.666 91.8757 288.904 93.1212C289.349 94.8337 289.981 96.3594 290.85 97.7606C291.72 99.0995 292.879 100.065 294.328 100.594C295.043 99.961 296.057 99.0165 296.854 97.6049ZM298.666 79.099C298.448 78.4555 298.076 77.0336 297.196 75.3418C296.036 73.0065 295.011 70.8373 292.713 69.4465C291.626 68.7822 290.56 68.4708 289.877 68.3255C289.318 69.5503 289.173 70.5674 289.204 71.1694L289.225 71.5223C289.297 73.1933 290.043 74.4803 290.509 75.2899C290.912 75.8711 291.43 76.442 292.341 77.4799C294.163 79.3689 295.198 80.4587 296.927 81.5174C297.879 82.0674 298.707 82.4515 299.266 82.6694C299.214 81.59 299.038 80.4068 298.666 79.1094V79.099Z" fill="white"/>
<path d="M365.268 25.4497H313.044V95.8822H365.268V25.4497Z" fill="white"/>
<path d="M349.772 77.8015L337.681 53.7532L348.664 38.1119C348.747 37.9977 348.757 37.842 348.695 37.7071C348.633 37.5825 348.498 37.4995 348.354 37.4995H340.538C340.414 37.4995 340.29 37.5618 340.217 37.676L329.814 53.2342V37.8939C329.814 37.676 329.638 37.4995 329.42 37.4995H323.168C322.951 37.4995 322.775 37.676 322.775 37.8939V77.9883C322.775 78.2063 322.951 78.3827 323.168 78.3827H329.42C329.638 78.3827 329.814 78.2063 329.814 77.9883V65.2013L332.95 60.7383L341.232 78.1648C341.294 78.2997 341.428 78.3827 341.584 78.3827H349.43C349.565 78.3827 349.689 78.3101 349.761 78.1959C349.834 78.0817 349.834 77.9364 349.782 77.8119L349.772 77.8015Z" fill="white"/>
<path d="M395.321 20.7583L344.282 31.8506L359.163 100.685L410.201 89.5923L395.321 20.7583Z" fill="white"/>
<path d="M391.427 68.2322C389.501 65.0354 386.82 62.0151 383.435 59.2439C382.317 58.3513 380.423 56.9294 377.794 55.0092C375.175 53.0995 372.649 51.2935 370.278 49.6536C367.96 48.0449 366.314 46.8201 365.382 46.0106C364.533 45.2736 363.933 44.5575 363.56 43.831C363.446 43.6337 363.374 43.4469 363.332 43.2601C363.239 42.8034 363.363 42.3467 363.705 41.8797C364.047 41.4126 364.595 41.2154 365.382 41.2673C366.076 41.3088 366.997 41.6202 367.897 42.1807C368.56 42.6166 369.357 43.312 370.258 44.2254C371.169 45.1491 371.872 46.0002 372.4 46.789C372.639 47.1315 372.897 47.474 373.156 47.8061C373.456 48.2005 373.715 48.4912 373.984 48.7403C374.719 49.3526 375.444 49.7367 376.158 49.8612C376.51 49.9235 376.966 49.9131 377.556 49.8093C378.28 49.6848 378.694 49.062 378.777 47.9099C378.808 46.5918 378.912 45.5124 379.098 44.7028C379.284 43.9036 379.616 43.0421 380.102 42.1703C380.475 41.5268 380.682 41.0182 380.733 40.6134C380.775 40.3124 380.744 39.9596 380.661 39.5651C380.62 39.3783 380.568 39.1811 380.506 39.0047C380.257 38.2262 379.771 37.4997 379.057 36.8562C378.363 36.2231 377.628 35.8287 376.883 35.6937C375.879 35.5069 375.092 35.8494 374.574 36.6798C374.367 36.9496 374.139 37.3233 373.912 37.8007C373.684 38.2678 373.477 38.7037 373.291 39.1396C373.208 39.3368 373.135 39.5133 373.084 39.6689C372.97 39.5651 372.846 39.451 372.701 39.3161C370.154 36.9081 367.608 35.3824 365.103 34.7804L364.595 34.687C360.682 33.9604 358.177 35.1852 357.152 38.33C356.759 39.4821 356.697 40.7276 356.976 42.0457C357.256 43.3639 357.836 44.6509 358.705 46.0106C359.523 47.3806 360.662 48.7403 362.08 50.0584C363.457 51.335 365.403 52.84 367.846 54.5318C370.02 56.0471 372.504 57.822 375.216 59.794C377.939 61.7764 379.854 63.2087 380.889 64.039C381.862 64.8278 382.825 65.7412 383.767 66.7376C384.698 67.734 385.433 68.6266 385.909 69.3324C386.81 70.7751 387.421 72.0932 387.7 73.2038C388.073 75.2173 386.727 76.4939 383.725 77.0025C383.352 77.0544 383.011 77.0855 382.7 77.0959C382.4 77.0959 382.027 77.0751 381.603 77.0129C381.148 76.9506 380.495 76.8364 379.657 76.6807C378.518 76.4732 377.659 76.2863 377.048 76.1307C376.448 75.975 375.806 75.757 375.102 75.4456C373.022 74.6361 371.282 73.7746 369.916 72.882C368.55 71.9894 367.204 70.8685 365.879 69.5088C364.958 68.5851 364.285 67.7755 363.881 67.1216C363.56 66.5715 363.343 66.0318 363.219 65.4713L363.156 65.2015C363.063 64.7759 363.053 64.6099 363.053 64.4853C363.053 64.4853 363.105 64.4231 363.343 64.3296C363.777 64.1013 364.233 64.0183 364.751 64.0494C365.351 64.0909 366.096 64.2777 367.007 64.5995C368.322 65.0354 369.461 65.4921 370.372 65.9695C371.303 66.447 372.431 67.132 373.715 68.0038C374.792 68.7511 375.547 69.2493 376.023 69.5192C376.572 69.8306 377.028 70.0174 377.411 70.09C378.332 70.2561 379.015 70.0381 379.45 69.4154C379.833 68.8964 379.926 68.1803 379.74 67.2981L379.678 67.0282C379.502 66.2083 379.067 65.461 378.404 64.8071C377.835 64.2466 376.831 63.4889 375.33 62.5029C373.736 61.4339 372.463 60.6347 371.531 60.1365C370.599 59.6383 369.492 59.1505 368.26 58.6938C366.459 57.9776 364.937 57.5002 363.757 57.2822C363.539 57.2407 363.053 57.1785 362.308 57.0954C361.49 57.002 360.537 57.1992 359.43 57.687C356.966 58.4551 356.045 60.4167 356.697 63.4993L356.852 64.2155C357.008 64.942 357.215 65.6685 357.473 66.3847C357.742 67.1216 358.146 67.9416 358.684 68.8134C359.606 70.3288 360.9 71.9479 362.546 73.6397C364.181 75.3211 365.858 76.7742 367.577 77.9885C370.123 79.7114 373.353 81.2579 377.152 82.5968H377.173C378.466 83.0224 379.75 83.3545 380.982 83.5828C383.363 84.0291 385.609 84.081 387.659 83.7489C391.23 83.0016 393.383 81.2475 394.066 78.5178C394.377 77.2516 394.367 75.8297 394.025 74.2832C393.632 72.4668 392.762 70.4222 391.437 68.201L391.427 68.2322Z" fill="white"/>
<path d="M237.114 94.0964L164.719 109.83L185.827 207.472L258.223 191.738L237.114 94.0964Z" fill="white"/>
<path d="M231.597 161.436C228.865 156.9 225.065 152.624 220.262 148.68C218.678 147.424 215.987 145.4 212.26 142.671C208.544 139.962 204.963 137.408 201.598 135.073C198.306 132.8 195.977 131.056 194.652 129.904C193.452 128.856 192.603 127.839 192.075 126.811C191.919 126.531 191.816 126.272 191.754 126.012C191.619 125.369 191.795 124.715 192.282 124.061C192.779 123.397 193.545 123.116 194.652 123.189C195.636 123.241 196.94 123.698 198.224 124.497C199.166 125.12 200.294 126.095 201.567 127.393C202.851 128.711 203.865 129.915 204.6 131.025C204.942 131.503 205.304 131.991 205.677 132.478C206.101 133.028 206.464 133.444 206.847 133.797C207.882 134.668 208.917 135.208 209.931 135.395C210.428 135.488 211.07 135.468 211.919 135.322C212.954 135.156 213.534 134.264 213.658 132.634C213.699 130.766 213.844 129.24 214.113 128.088C214.372 126.946 214.848 125.742 215.532 124.486C216.06 123.573 216.349 122.857 216.432 122.276C216.484 121.84 216.453 121.342 216.329 120.781C216.267 120.511 216.194 120.241 216.111 119.982C215.759 118.871 215.066 117.854 214.062 116.941C213.068 116.048 212.033 115.488 210.977 115.291C209.548 115.031 208.441 115.509 207.695 116.692C207.406 117.076 207.085 117.605 206.753 118.28C206.432 118.934 206.132 119.567 205.874 120.179C205.749 120.459 205.656 120.709 205.584 120.926C205.428 120.781 205.242 120.615 205.035 120.428C201.422 117.014 197.81 114.844 194.249 113.993L193.534 113.858C187.976 112.831 184.425 114.564 182.976 119.027C182.417 120.657 182.334 122.431 182.727 124.3C183.11 126.095 183.938 127.995 185.17 129.925C186.33 131.866 187.934 133.797 189.953 135.665C191.909 137.471 194.663 139.609 198.13 142.006C201.215 144.155 204.735 146.667 208.586 149.479C212.457 152.292 215.159 154.326 216.629 155.499C218.006 156.62 219.382 157.907 220.718 159.329C222.043 160.751 223.078 161.996 223.761 163.014C225.045 165.058 225.904 166.927 226.297 168.504C226.825 171.358 224.921 173.175 220.666 173.901C220.138 173.984 219.652 174.026 219.217 174.036C218.792 174.036 218.264 174.005 217.654 173.922C217.002 173.829 216.08 173.673 214.89 173.455C213.275 173.154 212.064 172.905 211.184 172.677C210.335 172.459 209.414 172.137 208.42 171.711C205.47 170.559 202.996 169.335 201.06 168.079C199.145 166.833 197.22 165.224 195.336 163.294C194.031 161.976 193.069 160.834 192.499 159.91C192.033 159.132 191.733 158.364 191.557 157.565L191.474 157.17C191.35 156.579 191.329 156.33 191.329 156.153C191.329 156.153 191.412 156.07 191.733 155.935C192.344 155.613 192.996 155.489 193.721 155.541C194.57 155.603 195.636 155.873 196.93 156.319C198.793 156.942 200.408 157.596 201.712 158.26C203.027 158.935 204.631 159.921 206.453 161.156C207.975 162.214 209.051 162.92 209.735 163.315C210.511 163.761 211.153 164.031 211.712 164.124C213.016 164.363 213.989 164.041 214.6 163.169C215.138 162.432 215.283 161.426 215.004 160.17L214.921 159.775C214.672 158.613 214.062 157.554 213.109 156.62C212.302 155.831 210.884 154.752 208.751 153.351C206.495 151.835 204.673 150.704 203.358 149.988C202.033 149.272 200.46 148.587 198.71 147.943C196.153 146.926 194 146.251 192.323 145.94C192.013 145.878 191.329 145.795 190.274 145.681C189.114 145.556 187.758 145.836 186.185 146.511C182.686 147.611 181.382 150.382 182.303 154.752L182.52 155.779C182.738 156.807 183.038 157.834 183.4 158.852C183.783 159.9 184.363 161.052 185.118 162.308C186.423 164.456 188.265 166.75 190.594 169.148C192.913 171.525 195.304 173.6 197.727 175.323C201.35 177.762 205.915 179.963 211.308 181.852H211.339C213.182 182.454 214.993 182.921 216.732 183.253C220.117 183.876 223.295 183.959 226.204 183.492C231.276 182.443 234.33 179.942 235.293 176.071C235.738 174.275 235.717 172.251 235.241 170.061C234.672 167.487 233.44 164.591 231.566 161.436H231.597Z" fill="white"/>
<path d="M329.296 78.9434H253.47V181.208H329.296V78.9434Z" fill="black"/>
<path d="M260.675 160.471C260.261 159.35 259.992 157.938 259.992 156.247V155.406C260.126 153.901 260.406 152.687 260.81 151.649L264.495 151.836L268.315 152.116L267.766 138.613L267.631 128.389C267.631 125.109 267.766 121.726 267.901 117.979L268.718 107.942L269.95 97.1586C272.134 96.5981 275.002 96.0376 278.138 95.6536C281.14 95.2799 283.873 95.1865 286.326 95.1865L290.146 95.2799C289.598 98.9334 289.194 102.691 288.914 106.437C288.366 112.53 288.097 118.726 288.097 124.819C288.097 134.575 288.78 144.145 289.867 152.489L301.471 152.209L302.423 134.855C304.059 134.575 306.523 134.295 309.245 134.295L311.698 134.388C316.615 134.669 320.301 135.706 322.474 136.547V146.677L322.744 156.62C312.237 158.686 298.997 160.564 283.438 161.031L276.482 161.125C270.747 161.125 266.11 160.845 260.654 160.471H260.675Z" fill="white"/>
<path d="M389.46 64.3813H323.116V150.974H389.46V64.3813Z" fill="black"/>
<path d="M342.878 136.039C340.341 135.997 337.112 135.79 336.035 135.447C340.414 119.536 344.492 102.805 348.643 84.4234C350.331 84.2885 352.567 84.1536 354.637 84.1847C356.707 84.2158 358.633 84.413 359.792 84.5895C363.715 102.67 368.322 119.297 373.777 136.423C372.628 136.568 371.241 136.547 369.554 136.526C367.018 136.485 364.554 136.288 364.098 136.039C364.098 136.039 362.328 126.262 360.796 121.321C360.03 118.934 359.647 118.685 355.258 118.612H354.875C348.726 118.519 348.115 118.996 347.577 121.28C346.428 126.095 345.352 135.997 345.352 135.997C344.741 136.07 343.82 136.059 342.888 136.039H342.878ZM356.79 98.4663C355.796 94.3562 355.258 92.7059 354.099 92.6955C352.939 92.6852 352.256 94.9582 351.252 99.0475L349.182 107.787C348.799 109.499 348.488 110.724 348.488 111.544C348.488 113.433 349.875 113.526 354.099 113.599H354.482C358.322 113.661 359.637 113.599 359.637 111.637C359.637 110.817 359.482 109.748 359.099 108.192L356.79 98.4871V98.4663Z" fill="white"/>
<path d="M466 67.0698H375.413V189.242H466V67.0698Z" fill="black"/>
<path d="M438.972 102.95C439.251 102.13 439.603 101.528 440.038 101.154C440.721 100.542 441.694 100.127 442.926 99.9089L444.624 99.6183C445.359 99.4937 445.907 98.8502 445.907 98.0925V96.3385C445.907 95.8818 445.7 95.4459 445.359 95.1553C445.007 94.8647 444.562 94.7401 444.096 94.8128L423.889 98.4039C423.32 98.5077 422.854 98.9229 422.678 99.4833L411.84 135.499L401.561 103.728C401.323 102.991 400.567 102.556 399.822 102.68L384.098 105.472C383.363 105.607 382.825 106.251 382.825 106.998V108.461C382.825 108.918 383.021 109.354 383.373 109.644C383.725 109.935 384.181 110.06 384.626 109.987L385.785 109.79C386.22 109.717 386.81 109.676 387.172 109.904C387.607 110.195 387.731 110.475 387.793 110.672C387.835 110.797 388.031 111.606 388.031 115.322V149.822C388.031 152.956 388 153.61 388 153.673C387.783 155.032 387.493 155.759 387.296 156.143C387.069 156.579 386.727 156.932 386.261 157.201C385.795 157.471 385.288 157.596 384.74 157.585H384.357C383.508 157.585 382.825 158.281 382.825 159.132V160.595C382.825 161.446 383.518 162.142 384.367 162.142H397.42C398.269 162.142 398.963 161.446 398.963 160.595V159.07C398.963 158.654 398.797 158.26 398.507 157.969C398.217 157.679 397.772 157.492 397.41 157.523C396.085 157.554 395.091 157.264 394.563 156.724C393.953 156.101 393.559 155.292 393.383 154.285C393.331 153.984 393.259 152.977 393.259 149.542V120.875L405.95 161.062C406.157 161.706 406.747 162.142 407.42 162.142H408.165C408.838 162.142 409.439 161.706 409.635 161.052L423.807 115.249V150.175C423.807 154.181 423.579 155.126 423.506 155.344C423.268 156.029 422.979 156.537 422.647 156.776C422.099 157.191 421.312 157.409 420.297 157.409H418.817C417.968 157.419 417.285 158.115 417.285 158.966V160.595C417.285 161.446 417.979 162.142 418.828 162.142H444.344C445.193 162.142 445.887 161.446 445.887 160.595V158.841C445.887 158.426 445.721 158.032 445.431 157.741C445.141 157.451 444.748 157.295 444.344 157.295H442.636C441.487 157.274 440.649 157.098 440.069 156.693C439.489 156.288 439.127 155.852 438.951 155.354C438.858 155.074 438.63 153.963 438.63 149.822V108.295C438.63 104.289 438.858 103.209 438.951 102.929L438.972 102.95Z" fill="white"/>
<path d="M91.6949 35.6416H10.3517V163.024H91.6949V35.6416Z" fill="black"/>
<path d="M62.6068 67.4538C62.9691 67.4538 64.056 68.035 64.1388 69.9655C64.1388 69.3843 64.4079 75.7674 64.4079 78.082C64.4079 80.2097 62.6896 80.3965 62.0581 80.3965H54.0045C53.3731 80.3965 53.1039 81.3618 53.1039 81.7458V119.619C53.1039 124.456 53.4663 126.573 54.3669 128.504C54.9983 129.853 57.079 131.597 58.3419 131.597C59.1597 131.597 61.054 130.247 62.0478 128.888C62.7724 127.922 63.3107 127.538 63.673 127.538C64.0353 127.538 64.3976 128.888 64.3976 131.015C64.3976 132.946 63.4038 135.852 62.8552 137.004C60.4122 142.796 56.52 146.47 52.2758 146.47C48.6527 146.47 45.216 142.993 43.5908 138.551C42.4107 135.26 41.7793 132.946 41.7793 124.445C41.7793 117.294 42.1416 89.665 42.1416 82.8979C42.1416 81.5486 40.5992 80.1889 38.6116 78.4556C37.887 77.8744 37.6179 76.1411 37.6179 74.5946C37.6179 73.8266 37.6179 73.6293 38.0734 73.0481C43.2285 66.0941 46.3029 61.6519 48.7459 56.4312C49.8328 53.9195 50.3711 52.1758 50.7334 52.1758C51.5512 52.1758 52.8141 54.4903 52.8141 56.0368V66.0838C52.8141 66.665 53.2696 67.8274 53.6319 67.8274C55.6194 67.8274 62.2237 67.4434 62.5861 67.4434L62.6068 67.4538Z" fill="white"/>
<path d="M127.884 13.0776H61.261V90.4848H127.884V13.0776Z" fill="black"/>
<path d="M101.839 28.3142C104.117 30.6703 105.732 34.1265 106.218 38.0498C106.332 38.9528 105.742 41.1843 104.8 41.2881L88.1857 43.2186C87.7199 43.2705 87.3679 43.6545 87.2747 44.1216C87.2333 45.0349 87.3575 46.7267 87.5439 48.1902C87.7509 49.8716 89.0863 54.8432 90.8046 57.2615C93.289 60.7281 96.7775 62.0359 100.059 61.6518C103.34 61.2678 105.38 59.8978 106.591 56.9086C106.829 56.3066 107.129 55.4763 107.44 55.4451C107.678 55.414 108.258 56.2651 108.351 57.0435C108.402 57.4898 108.485 58.7353 108.144 59.8044C106.456 65.3572 103.682 71.0242 96.3531 71.8856C87.1505 72.9547 80.5048 63.4786 78.9417 50.9095C77.8133 41.8174 80.2046 32.4243 86.2913 27.2763C88.0718 25.6987 90.1628 24.6608 92.5748 24.3805C95.9287 23.9861 99.4586 25.626 101.85 28.3142H101.839ZM86.9021 38.5999C86.9021 39.1707 87.3575 39.6897 87.6681 39.6482C89.7902 39.5133 91.3326 39.2226 95.2351 38.766C96.2496 38.6518 97.7816 36.9911 97.4193 34.0746C97.057 31.1581 94.5416 27.4631 92.6679 27.6811C89.4693 28.0547 86.9745 33.4726 86.9021 38.5999Z" fill="white"/>
<path d="M173.681 45.1034L109.459 38.4604L102.05 110.472L166.272 117.115L173.681 45.1034Z" fill="black"/>
<path d="M140.099 76.3796L147.511 91.8237C148.743 94.3873 149.643 95.9546 150.213 96.5358C150.782 97.117 151.496 97.5011 152.345 97.6983L152.242 98.6635L136.497 97.034L136.6 96.0688C137.863 96.0895 138.702 95.965 139.095 95.6951C139.488 95.4253 139.716 95.0516 139.758 94.5949C139.789 94.2836 139.758 93.9929 139.675 93.7438C139.509 93.1938 139.054 92.1662 138.308 90.6405L134.385 82.4825L128.774 88.5958C127.087 90.4537 126.218 91.7303 126.145 92.4465C126.093 92.955 126.238 93.4428 126.57 93.9203C126.901 94.3977 127.439 94.7714 128.164 95.0412C128.485 95.1762 129.168 95.3007 130.193 95.4149L130.089 96.3801L117.677 95.0931L117.781 94.1279C119.22 94.0448 120.369 93.7438 121.249 93.2145C122.398 92.5191 124.054 91.0038 126.218 88.6477L133.505 80.7285L126.652 66.6129C125.524 64.288 124.882 63.001 124.717 62.7311C124.344 62.1084 123.971 61.6621 123.578 61.3715C123.185 61.0809 122.636 60.8421 121.922 60.6449L122.025 59.6797L138.06 61.3403L137.956 62.3056L137.149 62.2226C136.228 62.1292 135.565 62.2226 135.172 62.5028C134.768 62.783 134.551 63.1774 134.499 63.6653C134.457 64.0493 134.478 64.3918 134.561 64.672L135.927 67.5678L139.24 74.6775L143.122 70.4532C145.109 68.2736 146.155 66.7167 146.248 65.7722C146.3 65.3052 146.217 64.8485 146.01 64.4229C145.803 63.9974 145.482 63.6445 145.047 63.3746C144.612 63.1048 143.909 62.918 142.936 62.8142L143.039 61.8489L154.923 63.0736L154.819 64.0389C153.877 63.9559 153.111 64.0078 152.521 64.1842C151.921 64.3607 151.269 64.7343 150.554 65.3155C150.099 65.6892 148.929 66.8828 147.055 68.8963L140.099 76.3796Z" fill="white"/>
<path d="M193.917 10.9609L147.886 20.9648L161.308 83.0534L207.339 73.0495L193.917 10.9609Z" fill="black"/>
<path d="M180.812 30.0369C181.019 29.9954 181.692 30.1407 181.951 31.0748C181.889 30.7946 182.717 33.8668 182.955 34.9981C183.183 36.036 182.23 36.337 181.868 36.42L177.313 37.406C176.951 37.4787 176.899 37.9873 176.941 38.1741L180.936 56.6281C181.444 58.9842 181.878 59.9702 182.593 60.8005C183.09 61.3817 184.456 61.9733 185.17 61.8177C185.636 61.7139 186.568 60.8213 186.982 60.0428C187.292 59.4824 187.551 59.2229 187.758 59.1814C187.965 59.1398 188.307 59.7522 188.535 60.7901C188.742 61.7346 188.483 63.2707 188.296 63.9038C187.52 67.028 185.709 69.301 183.307 69.8199C181.257 70.2662 178.949 68.9896 177.562 67.028C176.547 65.5749 175.947 64.5162 175.057 60.375C174.301 56.8876 171.599 43.374 170.885 40.0838C170.74 39.4196 169.726 38.9525 168.421 38.3505C167.955 38.1533 167.614 37.3438 167.448 36.5861C167.365 36.2124 167.345 36.119 167.541 35.7765C169.726 31.7494 170.999 29.2066 171.827 26.3627C172.179 25.003 172.303 24.0897 172.51 24.0482C172.966 23.9444 173.928 24.92 174.094 25.6777L175.15 30.5766C175.212 30.8568 175.585 31.3654 175.792 31.3239C176.92 31.0748 180.616 30.0784 180.823 30.0369H180.812Z" fill="white"/>
<path d="M258.895 12.7041H200.232V80.0644H258.895V12.7041Z" fill="black"/>
<path d="M221.225 67.4742C220.666 67.0175 220.159 66.4363 219.693 65.8032L219.434 65.4607C220.5 64.2463 221.318 63.5613 222.643 62.6895C223.461 62.2328 224.268 61.828 225.086 61.5893L225.345 61.527C226.007 62.1082 226.359 62.6272 227.125 63.1461C227.943 63.7274 229.216 64.6511 230.842 64.703H231.1C231.815 64.703 232.726 64.6407 233.543 63.7793C233.844 63.4886 234.713 62.5649 234.713 61.6412V61.4128C234.661 60.8939 234.258 60.6655 232.674 59.7418C232.322 59.5654 231.96 59.337 231.504 59.0464L229.672 57.9462C228.606 57.2508 227.581 56.68 227.281 56.68H227.177C227.177 56.7422 227.074 56.8564 227.074 57.3131L227.125 57.832L227.229 58.1746C226.266 58.7558 225.552 59.2125 224.579 59.6172C223.658 60.022 222.747 60.3645 221.784 60.6552L221.277 60.7693C220.977 57.4169 220.666 54.8221 220.666 50.9611C220.666 49.6948 220.666 48.4805 220.718 47.2661C220.718 46.2282 220.77 44.4949 220.977 41.7237C221.132 39.0148 221.328 36.1813 221.639 33.3582V33.0676C222.146 32.8392 222.353 32.6628 222.809 32.1438L223.161 31.739C222.809 30.9295 222.498 29.8916 222.291 28.6772C222.084 27.577 222.032 26.6533 222.032 25.906C222.902 25.4493 224.123 24.9822 225.542 24.6397C226.66 24.4114 227.633 24.3491 228.44 24.3491H229.154C229.206 24.7539 229.361 25.387 229.506 26.1343C229.662 26.7156 229.713 27.1203 229.858 27.577C230.365 29.8812 230.728 31.5003 231.132 32.8288C231.339 33.5761 231.587 34.2715 231.794 34.9669C232.612 37.2711 233.574 39.4092 234.641 41.2566C235.251 42.3568 235.862 43.1041 236.421 43.8514C237.239 44.7752 237.798 45.6366 238.657 46.6226C239.009 47.0274 239.268 47.6605 239.268 48.2937L239.216 48.6984C239.113 49.4457 238.761 50.027 238.253 50.3695C237.643 50.7743 237.032 51.1168 236.369 51.4697C235.552 51.8745 234.692 52.1651 233.771 52.3934C234.941 52.8501 236.059 53.4936 237.125 54.1786C238.605 55.1023 239.982 56.2025 241.297 57.4688C241.649 57.8113 241.856 58.2783 241.856 58.8492L241.804 59.1917C241.597 60.7486 241.193 62.2535 240.583 63.5198C238.957 66.9241 235.904 69.3528 232.136 70.152C231.163 70.3804 230.2 70.4945 229.237 70.4945C226.235 70.4945 223.337 69.4566 221.194 67.4327L221.225 67.4742ZM229.113 50.3902C229.568 50.1619 230.024 49.9336 230.438 49.6429L228.709 46.0622C228.357 45.3149 227.995 44.5572 227.695 43.758L227.643 45.7819L227.695 47.8577C227.695 48.8438 227.747 49.8817 227.798 50.8573C228.254 50.7431 228.709 50.5667 229.123 50.4006L229.113 50.3902Z" fill="white"/>
<path d="M299.336 15.7736L254.134 5.65967L240.564 66.6316L285.765 76.7455L299.336 15.7736Z" fill="black"/>
<path d="M265.654 60.6865C264.246 60.4374 263.273 59.9496 262.404 59.5241C262.052 59.3061 258.677 57.5728 256.679 54.6978C254.35 51.4388 254.009 47.0692 254.619 43.5714C255.189 40.3332 256.576 37.7799 257.87 37.4166C258.222 37.3128 259.309 37.1364 260.116 37.0015L262.673 36.7005C262.445 36.3891 262.155 35.8598 261.835 35.154C261.607 34.5728 260.013 31.2307 260.447 28.7812C260.561 28.1585 260.82 27.6084 261.234 27.1413C261.648 26.6743 262.186 26.4459 263.377 26.01C263.377 26.01 266.648 24.806 271.513 25.6675L271.731 25.709C272.652 25.8751 273.283 26.0931 273.49 26.1761C273.967 26.311 274.484 26.5705 275.043 26.83C275.55 27.131 276.109 27.4423 276.586 27.8575C277.082 28.2104 277.569 28.6256 277.993 29.0719C278.418 29.5182 278.78 30.0163 279.122 30.5664C279.971 31.7912 280.623 33.1405 280.975 34.6039C281.378 36.1296 281.616 37.6242 281.73 39.2018C281.803 40.7172 281.751 42.274 281.606 43.7479C281.451 45.284 281.202 46.6852 280.954 48.0967C280.612 49.7055 280.064 51.2727 279.339 52.8711C278.894 53.8156 278.056 55.4451 276.565 56.9604C274.122 59.441 270.043 61.465 265.882 60.7281L265.665 60.6865H265.654ZM269.329 54.6667C270.354 53.5561 270.923 52.5805 271.43 51.5945C272.031 50.4112 272.528 49.1554 272.921 47.8269C273.377 46.5087 273.729 45.1179 274.039 43.6648L270.551 42.5647C268.553 41.89 267.569 41.4437 266.524 40.7276L265.685 40.0944C264.961 41.3711 264.371 42.8241 263.926 44.4121L263.594 45.969C263.398 47.0692 263.325 48.1278 263.294 49.2488C263.356 50.816 263.605 52.2587 264.081 53.6391C264.578 54.9677 265.395 56.0263 266.544 56.7632C267.279 56.3585 268.335 55.7357 269.308 54.6667H269.329ZM274.464 38.9943C274.401 38.3923 274.35 37.0949 273.915 35.455C273.366 33.2027 272.89 31.1269 271.172 29.487C270.364 28.6982 269.495 28.2208 268.936 27.9613C268.211 28.9058 267.89 29.7673 267.807 30.2862L267.756 30.5976C267.497 32.061 267.89 33.3169 268.139 34.1057C268.377 34.6869 268.708 35.2785 269.308 36.358C270.52 38.3508 271.213 39.4925 272.497 40.7379C273.211 41.4022 273.853 41.89 274.308 42.191C274.474 41.2465 274.546 40.1878 274.474 38.9943H274.464Z" fill="white"/>
<path d="M330.694 26.6743H278.47V97.1068H330.694V26.6743Z" fill="black"/>
<path d="M304.639 84.3716C303.034 84.4442 301.844 84.1433 300.777 83.8942C300.332 83.7385 296.202 82.6694 293.293 79.9916C289.939 76.9713 288.48 72.2592 288.293 68.2633C288.128 64.5579 289.028 61.4131 290.364 60.6865C290.726 60.4893 291.885 60.0223 292.734 59.6798L295.477 58.7145C295.156 58.4343 294.701 57.9153 294.173 57.2199C293.78 56.6387 291.212 53.3485 291.078 50.5462C291.047 49.83 291.202 49.1657 291.544 48.5534C291.885 47.941 292.424 47.557 293.635 46.7786C293.635 46.7786 296.947 44.6508 302.506 44.3914H302.755C303.8 44.3291 304.556 44.4121 304.804 44.464C305.363 44.4952 305.984 44.6508 306.678 44.7961C307.309 45.0037 307.992 45.2113 308.634 45.5434C309.266 45.8133 309.897 46.1454 310.477 46.5398C311.057 46.9342 311.564 47.3909 312.092 47.8995C313.324 49.0412 314.369 50.3697 315.125 51.8851C315.943 53.4627 316.574 55.0507 317.081 56.7632C317.526 58.4135 317.858 60.1364 318.054 61.8075C318.261 63.5304 318.334 65.1392 318.406 66.7583C318.427 68.6161 318.21 70.474 317.795 72.4045C317.537 73.5566 317.009 75.5494 315.746 77.5837C313.665 80.905 309.669 84.1433 304.908 84.3612H304.659L304.639 84.3716ZM307.206 76.8364C308.065 75.3625 308.448 74.1482 308.758 72.9338C309.121 71.4808 309.369 69.9758 309.483 68.4189C309.659 66.8517 309.711 65.2429 309.69 63.5615L305.591 63.2086C303.22 62.9595 302.04 62.7104 300.715 62.1811L299.639 61.6933C299.152 63.2709 298.862 65.0146 298.759 66.8725L298.78 68.668C298.842 69.9239 299.018 71.1071 299.256 72.3526C299.701 74.0652 300.332 75.5909 301.202 76.9921C302.071 78.331 303.231 79.2962 304.68 79.8256C305.394 79.1924 306.409 78.2479 307.206 76.8364ZM309.017 58.3305C308.8 57.687 308.427 56.265 307.547 54.5732C306.388 52.238 305.363 50.0687 303.065 48.6779C301.978 48.0137 300.912 47.7023 300.229 47.557C299.67 48.7817 299.525 49.7989 299.556 50.4009L299.577 50.7537C299.649 52.4248 300.394 53.7118 300.86 54.5213C301.264 55.1026 301.781 55.6734 302.692 56.7113C304.514 58.6003 305.549 59.6901 307.278 60.7488C308.231 61.2989 309.059 61.6829 309.618 61.9009C309.566 60.8215 309.39 59.6382 309.017 58.3408V58.3305Z" fill="white"/>
<path d="M375.62 4.69141H323.396V75.1239H375.62V4.69141Z" fill="black"/>
<path d="M360.123 57.0437L348.033 32.9953L359.016 17.3541C359.099 17.2399 359.109 17.0842 359.047 16.9493C358.985 16.8247 358.85 16.7417 358.705 16.7417H350.89C350.765 16.7417 350.641 16.804 350.569 16.9181L340.165 32.4764V17.1361C340.165 16.9181 339.989 16.7417 339.772 16.7417H333.52C333.302 16.7417 333.126 16.9181 333.126 17.1361V57.2305C333.126 57.4485 333.302 57.6249 333.52 57.6249H339.772C339.989 57.6249 340.165 57.4485 340.165 57.2305V44.4435L343.302 39.9805L351.583 57.4069C351.645 57.5419 351.78 57.6249 351.935 57.6249H359.782C359.916 57.6249 360.041 57.5523 360.113 57.4381C360.185 57.3239 360.185 57.1786 360.134 57.0541L360.123 57.0437Z" fill="white"/>
<path d="M405.669 0.00586246L354.63 11.0981L369.511 79.9322L420.549 68.8399L405.669 0.00586246Z" fill="black"/>
<path d="M401.778 47.4739C399.853 44.2771 397.172 41.2568 393.787 38.4856C392.669 37.593 390.775 36.1711 388.145 34.2509C385.526 32.3412 383.001 30.5352 380.63 28.8953C378.311 27.2866 376.665 26.0618 375.734 25.2523C374.885 24.5153 374.284 23.7992 373.912 23.0726C373.798 22.8754 373.725 22.6886 373.684 22.5018C373.591 22.0451 373.715 21.5884 374.057 21.1214C374.398 20.6543 374.947 20.4571 375.734 20.509C376.427 20.5505 377.349 20.8619 378.249 21.4224C378.912 21.8583 379.709 22.5537 380.609 23.4671C381.52 24.3908 382.224 25.2419 382.752 26.0307C382.99 26.3732 383.249 26.7157 383.508 27.0478C383.808 27.4422 384.067 27.7329 384.336 27.982C385.071 28.5943 385.795 28.9783 386.51 29.1029C386.862 29.1652 387.317 29.1548 387.907 29.051C388.632 28.9265 389.046 28.3037 389.129 27.1516C389.16 25.8335 389.263 24.7541 389.45 23.9445C389.636 23.1453 389.967 22.2838 390.454 21.412C390.826 20.7685 391.033 20.2599 391.085 19.8551C391.127 19.5541 391.096 19.2013 391.013 18.8068C390.971 18.62 390.92 18.4228 390.857 18.2464C390.609 17.4679 390.122 16.7414 389.408 16.0979C388.715 15.4648 387.98 15.0704 387.234 14.9354C386.23 14.7486 385.444 15.0911 384.926 15.9215C384.719 16.1913 384.491 16.565 384.263 17.0424C384.036 17.5095 383.829 17.9454 383.642 18.3813C383.559 18.5785 383.487 18.7549 383.435 18.9106C383.321 18.8068 383.197 18.6927 383.052 18.5577C380.506 16.1498 377.959 14.6241 375.454 14.0221L374.947 13.9287C371.034 13.2021 368.529 14.4269 367.504 17.5717C367.111 18.7238 367.049 19.9693 367.328 21.2874C367.608 22.6056 368.187 23.8926 369.057 25.2523C369.875 26.6223 371.013 27.982 372.431 29.3001C373.808 30.5767 375.754 32.0817 378.197 33.7735C380.371 35.2888 382.856 37.0637 385.568 39.0357C388.29 41.0181 390.205 42.4504 391.24 43.2807C392.213 44.0695 393.176 44.9829 394.118 45.9793C395.05 46.9757 395.785 47.8683 396.261 48.5741C397.162 50.0167 397.772 51.3349 398.052 52.4455C398.424 54.459 397.079 55.7356 394.077 56.2442C393.704 56.2961 393.363 56.3272 393.052 56.3376C392.752 56.3376 392.379 56.3169 391.955 56.2546C391.499 56.1923 390.847 56.0781 390.009 55.9224C388.87 55.7149 388.011 55.528 387.4 55.3724C386.8 55.2167 386.158 54.9987 385.454 54.6873C383.373 53.8778 381.634 53.0163 380.268 52.1237C378.901 51.2311 377.556 50.1102 376.231 48.7505C375.309 47.8268 374.636 47.0172 374.233 46.3633C373.912 45.8132 373.694 45.2735 373.57 44.713L373.508 44.4432C373.415 44.0176 373.405 43.8516 373.405 43.727C373.405 43.727 373.456 43.6647 373.694 43.5713C374.129 43.343 374.585 43.26 375.102 43.2911C375.703 43.3326 376.448 43.5194 377.359 43.8412C378.674 44.2771 379.812 44.7338 380.723 45.2112C381.655 45.6887 382.783 46.3737 384.067 47.2455C385.143 47.9928 385.899 48.491 386.375 48.7609C386.924 49.0723 387.379 49.2591 387.762 49.3317C388.684 49.4978 389.367 49.2798 389.802 48.6571C390.185 48.1381 390.278 47.422 390.091 46.5398L390.029 46.2699C389.853 45.45 389.419 44.7027 388.756 44.0488C388.187 43.4883 387.183 42.7306 385.682 41.7446C384.087 40.6756 382.814 39.8764 381.883 39.3782C380.951 38.88 379.843 38.3922 378.611 37.9355C376.81 37.2193 375.289 36.7419 374.108 36.5239C373.891 36.4824 373.405 36.4201 372.659 36.3371C371.841 36.2437 370.889 36.4409 369.781 36.9287C367.318 37.6968 366.396 39.6584 367.049 42.741L367.204 43.4572C367.359 44.1837 367.566 44.9102 367.825 45.6264C368.094 46.3633 368.498 47.1833 369.036 48.0551C369.957 49.5704 371.251 51.1896 372.897 52.8814C374.533 54.5628 376.21 56.0159 377.928 57.2302C380.475 58.9531 383.704 60.4996 387.503 61.8385H387.524C388.818 62.2641 390.102 62.5962 391.334 62.8245C393.714 63.2708 395.961 63.3227 398.01 62.9906C401.582 62.2433 403.735 60.4892 404.418 57.7595C404.729 56.4933 404.718 55.0714 404.377 53.5249C403.983 51.7085 403.114 49.6639 401.789 47.4427L401.778 47.4739Z" fill="white"/>
<path d="M247.462 73.3337L175.067 89.0674L196.175 186.709L268.57 170.975L247.462 73.3337Z" fill="black"/>
<path d="M241.949 140.678C239.216 136.143 235.417 131.866 230.614 127.922C229.03 126.666 226.339 124.643 222.612 121.913C218.896 119.204 215.314 116.651 211.95 114.315C208.658 112.042 206.329 110.299 205.004 109.147C203.803 108.098 202.954 107.081 202.426 106.054C202.271 105.773 202.168 105.514 202.106 105.254C201.971 104.611 202.147 103.957 202.633 103.303C203.13 102.639 203.896 102.359 205.004 102.431C205.987 102.483 207.292 102.94 208.575 103.739C209.517 104.362 210.646 105.337 211.919 106.635C213.202 107.953 214.217 109.157 214.952 110.268C215.294 110.745 215.656 111.233 216.028 111.721C216.453 112.271 216.815 112.686 217.198 113.039C218.233 113.911 219.269 114.45 220.283 114.637C220.78 114.731 221.422 114.71 222.271 114.564C223.306 114.398 223.885 113.506 224.01 111.876C224.051 110.008 224.196 108.482 224.465 107.33C224.724 106.189 225.2 104.985 225.883 103.729C226.411 102.815 226.701 102.099 226.784 101.518C226.836 101.082 226.805 100.584 226.68 100.023C226.618 99.7535 226.546 99.4836 226.463 99.2242C226.111 98.1136 225.417 97.0964 224.413 96.1831C223.42 95.2905 222.384 94.73 221.329 94.5328C219.9 94.2733 218.792 94.7508 218.047 95.934C217.757 96.318 217.436 96.8473 217.105 97.522C216.784 98.1759 216.484 98.809 216.225 99.4214C216.101 99.7016 216.008 99.9507 215.935 100.169C215.78 100.023 215.594 99.8573 215.387 99.6705C211.774 96.2557 208.161 94.0865 204.6 93.2354L203.886 93.1005C198.327 92.073 194.777 93.8063 193.327 98.2693C192.768 99.8988 192.686 101.674 193.079 103.542C193.462 105.337 194.29 107.237 195.522 109.167C196.681 111.108 198.286 113.039 200.304 114.907C202.261 116.713 205.014 118.851 208.482 121.249C211.567 123.397 215.086 125.909 218.937 128.722C222.809 131.534 225.511 133.569 226.981 134.741C228.357 135.862 229.734 137.149 231.069 138.571C232.394 139.993 233.43 141.239 234.113 142.256C235.396 144.301 236.256 146.169 236.649 147.746C237.177 150.601 235.272 152.417 231.018 153.144C230.49 153.227 230.003 153.268 229.568 153.278C229.144 153.278 228.616 153.247 228.005 153.164C227.353 153.071 226.432 152.915 225.241 152.697C223.627 152.396 222.415 152.147 221.536 151.919C220.687 151.701 219.765 151.379 218.772 150.954C215.821 149.801 213.347 148.577 211.412 147.321C209.497 146.075 207.571 144.467 205.687 142.536C204.383 141.218 203.42 140.076 202.851 139.153C202.385 138.374 202.085 137.606 201.909 136.807L201.826 136.412C201.702 135.821 201.681 135.572 201.681 135.395C201.681 135.395 201.764 135.312 202.085 135.177C202.696 134.856 203.348 134.731 204.072 134.783C204.921 134.845 205.987 135.115 207.281 135.561C209.145 136.184 210.759 136.838 212.064 137.502C213.378 138.177 214.983 139.163 216.805 140.398C218.327 141.457 219.403 142.162 220.086 142.557C220.863 143.003 221.505 143.273 222.063 143.366C223.368 143.605 224.341 143.283 224.952 142.412C225.49 141.675 225.635 140.668 225.355 139.412L225.272 139.018C225.024 137.855 224.413 136.796 223.461 135.862C222.654 135.074 221.235 133.994 219.103 132.593C216.846 131.078 215.024 129.946 213.71 129.23C212.385 128.514 210.811 127.829 209.062 127.185C206.505 126.168 204.352 125.494 202.675 125.182C202.364 125.12 201.681 125.037 200.625 124.923C199.466 124.798 198.11 125.078 196.536 125.753C193.037 126.853 191.733 129.625 192.654 133.994L192.872 135.022C193.089 136.049 193.389 137.077 193.752 138.094C194.135 139.142 194.714 140.294 195.47 141.55C196.774 143.699 198.617 145.992 200.946 148.39C203.265 150.767 205.656 152.843 208.078 154.565C211.701 157.005 216.267 159.205 221.66 161.094H221.691C223.533 161.696 225.345 162.163 227.084 162.495C230.469 163.118 233.647 163.201 236.556 162.734C241.628 161.685 244.682 159.184 245.645 155.313C246.09 153.517 246.069 151.493 245.593 149.303C245.023 146.729 243.792 143.833 241.918 140.678H241.949Z" fill="white"/>
</g>
<defs>
<clipPath id="clip0_805_302">
<rect width="466" height="210" fill="white"/>
</clipPath>
</defs>
</svg>
