<svg width="657" height="316" viewBox="0 0 657 316" fill="none" xmlns="http://www.w3.org/2000/svg">
<g clip-path="url(#clip0_84_636)">
<path d="M87.022 40.64L12.0586 31.7173L-0.0185119 131.922L74.9449 140.845L87.022 40.64Z" fill="white"/>
<path d="M67.1337 68.8722C66.6099 66.6861 65.682 64.6783 64.3651 62.8937C63.0482 61.1091 61.3721 59.607 59.3518 58.4172C57.3315 57.2275 54.982 56.4541 52.3331 56.0972L21.2655 52.0074C20.9512 51.9628 20.6818 52.1859 20.6369 52.4833L12.5109 113.399C12.466 113.711 12.6904 113.979 12.9897 114.024L25.6652 115.689C25.7999 115.719 25.9645 115.674 26.0842 115.585C26.204 115.496 26.2788 115.362 26.2938 115.213L29.3915 91.9536L41.5133 93.5449C44.5063 93.9464 46.5865 94.9131 47.6939 96.4449C48.8163 98.0065 49.4 100.371 49.4 103.479C49.4 105.918 49.2952 108.521 49.1007 111.213C48.9061 113.949 49.0258 116.388 49.4748 118.455C49.5197 118.679 49.7142 118.857 49.9537 118.887L62.6291 120.552C62.6291 120.552 62.674 120.552 62.704 120.552C62.8836 120.552 63.0631 120.463 63.1679 120.314C63.2876 120.151 63.3026 119.928 63.2128 119.734C62.7638 118.872 62.4795 117.831 62.3598 116.641C62.2251 115.422 62.1802 114.113 62.2401 112.745C62.2849 111.362 62.3747 110.008 62.4945 108.729C62.6142 107.406 62.7189 106.26 62.7938 105.279C62.8836 103.717 62.8985 102.111 62.7938 100.52C62.704 98.8988 62.4047 97.367 61.9108 95.9541C61.417 94.5264 60.6837 93.2474 59.7558 92.1171C59.0375 91.2546 58.1246 90.511 57.0172 89.9012C59.9953 88.8751 62.3298 87.2243 63.976 84.9786C65.8018 82.4801 66.969 79.3719 67.4629 75.6985C67.7772 73.3041 67.6724 70.9841 67.1486 68.8127L67.1337 68.8722ZM32.9533 65.2732L46.2872 67.0281C49.0258 67.385 51.0162 68.2922 52.1984 69.6902C53.3657 71.0882 53.7698 73.2 53.3956 75.9959C53.0066 78.896 52.0488 80.9037 50.5523 81.9893C49.0408 83.075 46.8858 83.4319 44.1472 83.075L30.8282 81.3201L32.9682 65.2732H32.9533Z" fill="white"/>
<path d="M124.764 86.7483H56.1493V175.519H124.764V86.7483Z" fill="white"/>
<path d="M76.5916 160.201C73.9727 160.156 70.6355 159.948 69.5131 159.591C74.0476 143.277 78.2528 126.129 82.5478 107.286C84.2987 107.138 86.6033 107.004 88.7433 107.049C90.8834 107.093 92.8737 107.272 94.0709 107.465C98.1265 126.01 102.9 143.039 108.542 160.603C107.345 160.751 105.923 160.736 104.172 160.707C101.554 160.662 99.0094 160.469 98.5305 160.201C98.5305 160.201 96.7048 150.177 95.1185 145.121C94.3253 142.667 93.9213 142.414 89.3868 142.355H88.9828C82.6226 142.251 81.9941 142.756 81.4254 145.091C80.2282 150.029 79.1207 160.171 79.1207 160.171C78.4772 160.246 77.5344 160.231 76.5767 160.216L76.5916 160.201ZM90.9731 121.697C89.9406 117.489 89.3868 115.793 88.1896 115.778C86.9924 115.763 86.2741 118.098 85.2415 122.292L83.1015 131.245C82.6974 133 82.3831 134.264 82.3831 135.097C82.3831 137.03 83.8198 137.135 88.1896 137.194H88.5937C92.5744 137.254 93.9213 137.194 93.9213 135.186C93.9213 134.353 93.7567 133.253 93.3676 131.647L90.9731 121.697Z" fill="white"/>
<path d="M173.017 55.4709L108.553 66.9285L124.063 153.112L188.528 141.655L173.017 55.4709Z" fill="white"/>
<path d="M142.049 126.977C140.508 127.215 139.161 126.888 139.071 126.367C138.981 125.772 139.595 125.282 141.555 124.508C143.8 123.616 144.414 122.515 144.578 121.727C144.803 120.612 144.07 114.886 142.992 108.045C142.633 105.799 142.438 104.595 142.109 103.717C141.915 103.137 140.628 102.483 138.682 101.486C138.024 101.055 137.275 100.713 137.2 100.252C137.111 99.6572 138.173 98.869 139.879 98.3634C143.95 97.0992 150.505 94.1397 152.016 93.6043C152.48 93.4556 153.064 93.9761 153.108 94.2736C153.348 97.6198 154.889 107.926 155.593 112.269C155.817 113.696 156.296 116.002 156.805 118.619C157.254 120.775 158.002 121.118 160.606 121.326C162.117 121.474 162.97 121.802 163.075 122.471C163.18 123.14 161.788 123.75 160.247 123.988C159.573 124.092 154.111 124.731 151.986 125.059C148.888 125.549 143.71 126.665 142.064 126.932L142.049 126.977ZM151.223 82.6586C151.672 85.4396 148.35 88.2653 145.746 88.6817C144.773 88.8304 142.573 88.7263 141.271 87.9976C139.984 87.3581 138.921 86.3617 138.652 84.6365C138.502 83.655 138.727 82.0042 139.834 80.8293C140.852 79.7436 142.872 78.7323 144.803 78.4349C148.574 77.84 150.924 80.7847 151.223 82.6586Z" fill="white"/>
<path d="M238.275 85.5283L171.48 78.2703L161.665 167.476L228.46 174.734L238.275 85.5283Z" fill="white"/>
<path d="M177.831 107.614C180.076 106.989 185.328 105.457 187.139 104.833C189.174 104.119 190.671 103.316 191.21 103.316C191.748 103.316 192.601 104.386 192.601 104.743C192.601 105.368 192.497 107.614 192.497 108.417C192.497 108.952 193.245 108.952 193.35 108.863C197.63 106.082 201.581 104.119 206.609 104.119C211.637 104.119 215.064 106.364 216.561 107.792C218.91 110.127 220.407 113.979 220.407 118.545C220.407 120.523 220.616 133.684 220.736 134.948C220.945 136.287 221.484 137.283 224.268 137.908C226.303 138.354 227.156 138.8 227.156 139.603C227.156 140.317 226.093 140.942 224.058 140.942C221.484 140.942 216.456 140.763 213.463 140.763C210.784 140.763 206.085 141.031 204.589 141.031C202.883 141.031 201.491 140.853 201.491 139.693C201.491 139.068 202.673 138.533 204.065 138.176C206.519 137.462 206.953 136.569 207.163 133.61C207.372 130.65 207.492 119.363 207.492 116.76C207.492 115.689 207.058 113.354 205.457 112.016C204.274 111.034 201.925 110.127 199.68 110.127C196.358 110.127 195.19 110.752 193.799 111.376C193.365 111.555 192.946 112.804 192.841 113.265C192.631 114.871 192.946 134.235 193.05 135.305C193.155 136.555 193.38 137.105 196.687 138.086C197.645 138.443 198.393 139.068 198.393 139.603C198.393 140.317 197.211 140.942 195.4 140.942C192.946 140.942 188.546 140.763 186.301 140.763C182.335 140.763 177.532 141.031 175.811 141.031C173.88 141.031 172.818 140.406 172.818 139.603C172.818 138.889 173.88 138.443 175.062 138.086C178.594 137.105 179.028 136.48 179.342 133.075C179.672 130.383 179.986 123.571 179.986 114.529C179.986 113.548 179.028 112.73 176.559 110.767C175.915 110.142 175.811 109.963 175.811 109.696C175.811 109.16 176.993 107.896 177.846 107.629L177.831 107.614Z" fill="white"/>
<path d="M373.62 34.3989H298.121V135.32H373.62V34.3989Z" fill="white"/>
<path d="M305.304 114.856C304.9 113.741 304.616 112.358 304.616 110.692V109.859C304.75 108.372 305.02 107.168 305.424 106.156L309.09 106.335L312.891 106.617L312.353 93.292L312.218 83.2088C312.218 79.9667 312.353 76.6354 312.487 72.9322L313.295 63.0275L314.523 52.3791C316.693 51.8289 319.551 51.2637 322.679 50.8919C325.672 50.5201 328.38 50.4309 330.835 50.4309L334.636 50.5201C334.097 54.134 333.678 57.8372 333.409 61.5403C332.87 67.5634 332.6 73.661 332.6 79.6841C332.6 89.3063 333.274 98.75 334.366 106.989L345.919 106.707L346.877 89.574C348.508 89.2914 350.948 89.0237 353.671 89.0237L356.126 89.1129C361.019 89.3955 364.686 90.4068 366.856 91.2396V101.234L367.125 111.049C356.664 113.087 343.48 114.931 327.991 115.407L321.062 115.496C315.361 115.496 310.736 115.213 305.304 114.841V114.856Z" fill="white"/>
<path d="M415.208 57.1233H346.593V145.894H415.208V57.1233Z" fill="white"/>
<path d="M367.035 130.591C364.416 130.546 361.079 130.338 359.957 129.981C364.491 113.667 368.696 96.5192 372.991 77.6764C374.742 77.5276 377.047 77.3938 379.187 77.4384C381.327 77.483 383.317 77.6615 384.515 77.8548C388.57 96.4002 393.344 113.429 398.986 130.992C397.789 131.141 396.367 131.126 394.616 131.097C391.997 131.052 389.453 130.859 388.974 130.591C388.974 130.591 387.148 120.567 385.562 115.511C384.769 113.057 384.365 112.804 379.83 112.745H379.426C373.066 112.64 372.438 113.146 371.869 115.481C370.672 120.418 369.564 130.561 369.564 130.561C368.921 130.636 367.978 130.621 367.02 130.606L367.035 130.591ZM381.417 92.0724C380.384 87.8637 379.83 86.1683 378.633 86.1534C377.436 86.1385 376.718 88.4734 375.685 92.6673L373.545 101.62C373.141 103.375 372.827 104.639 372.827 105.472C372.827 107.405 374.263 107.51 378.633 107.569H379.037C383.018 107.629 384.365 107.569 384.365 105.561C384.365 104.729 384.2 103.628 383.811 102.022L381.417 92.0724Z" fill="white"/>
<path d="M468.517 48.4144L394.731 64.3083L416.244 162.939L490.03 147.045L468.517 48.4144Z" fill="white"/>
<path d="M462.887 116.418C460.104 111.837 456.228 107.509 451.334 103.539C449.718 102.26 446.979 100.222 443.178 97.4709C439.392 94.7345 435.74 92.1467 432.313 89.797C428.961 87.4918 426.582 85.7369 425.235 84.5769C424.008 83.521 423.14 82.4948 422.601 81.4538C422.436 81.1712 422.332 80.9035 422.272 80.6358C422.137 79.9814 422.317 79.3271 422.81 78.6578C423.304 77.9886 424.097 77.706 425.235 77.7804C426.237 77.8399 427.569 78.286 428.871 79.0891C429.829 79.7138 430.981 80.7102 432.283 82.0189C433.6 83.3425 434.618 84.562 435.381 85.6923C435.725 86.1831 436.099 86.6738 436.474 87.1497C436.908 87.7149 437.282 88.1313 437.671 88.4882C438.733 89.3657 439.781 89.9159 440.813 90.0944C441.322 90.1836 441.981 90.1688 442.834 90.02C443.881 89.8416 444.48 88.9493 444.6 87.2985C444.645 85.4097 444.794 83.863 445.064 82.703C445.333 81.5579 445.812 80.3235 446.515 79.0743C447.054 78.1522 447.353 77.4235 447.428 76.8435C447.488 76.4122 447.443 75.9065 447.323 75.3414C447.263 75.0737 447.189 74.7911 447.099 74.5383C446.74 73.4229 446.036 72.3819 445.004 71.4598C444.001 70.5526 442.939 69.9875 441.861 69.7941C440.409 69.5264 439.272 70.0172 438.524 71.207C438.224 71.5936 437.895 72.129 437.566 72.8131C437.237 73.4824 436.937 74.107 436.668 74.7316C436.548 75.0142 436.444 75.267 436.369 75.4901C436.204 75.3414 436.025 75.1778 435.815 74.9845C432.134 71.5342 428.452 69.348 424.831 68.4854L424.097 68.3516C418.441 67.3105 414.819 69.0654 413.337 73.5716C412.769 75.2224 412.679 77.007 413.083 78.8958C413.487 80.7845 414.325 82.6287 415.582 84.5769C416.764 86.54 418.411 88.4882 420.461 90.377C422.451 92.2062 425.265 94.3627 428.796 96.7868C431.939 98.9581 435.531 101.501 439.452 104.327C443.387 107.167 446.156 109.22 447.653 110.41C449.059 111.54 450.451 112.849 451.813 114.276C453.16 115.704 454.222 116.983 454.911 117.994C456.213 120.061 457.096 121.95 457.5 123.541C458.038 126.427 456.093 128.256 451.753 128.985C451.214 129.059 450.72 129.104 450.271 129.118C449.837 129.118 449.299 129.089 448.685 129C448.027 128.91 447.084 128.747 445.872 128.524C444.226 128.226 442.983 127.958 442.1 127.735C441.232 127.512 440.305 127.2 439.287 126.754C436.279 125.594 433.765 124.359 431.789 123.08C429.814 121.801 427.869 120.195 425.953 118.247C424.621 116.923 423.648 115.763 423.065 114.827C422.601 114.038 422.287 113.265 422.107 112.462L422.017 112.075C421.883 111.465 421.868 111.227 421.868 111.049C421.868 111.049 421.942 110.96 422.287 110.826C422.915 110.499 423.574 110.38 424.322 110.424C425.19 110.484 426.267 110.752 427.584 111.213C429.485 111.837 431.131 112.492 432.448 113.176C433.795 113.86 435.426 114.841 437.282 116.091C438.838 117.161 439.93 117.875 440.619 118.262C441.412 118.708 442.07 118.976 442.624 119.08C443.956 119.318 444.944 119.006 445.572 118.113C446.126 117.37 446.261 116.343 445.991 115.079L445.902 114.693C445.647 113.518 445.019 112.447 444.061 111.51C443.238 110.707 441.786 109.621 439.616 108.208C437.312 106.677 435.471 105.532 434.124 104.818C432.777 104.104 431.176 103.405 429.395 102.75C426.791 101.724 424.591 101.04 422.885 100.728C422.571 100.668 421.868 100.579 420.79 100.46C419.608 100.326 418.231 100.609 416.63 101.308C413.068 102.408 411.736 105.219 412.679 109.636L412.903 110.662C413.128 111.703 413.427 112.744 413.801 113.771C414.19 114.827 414.774 116.001 415.552 117.251C416.884 119.422 418.755 121.742 421.134 124.166C423.499 126.575 425.923 128.657 428.407 130.397C432.089 132.866 436.758 135.082 442.25 137.001H442.28C444.151 137.61 446.006 138.086 447.787 138.413C451.229 139.053 454.477 139.127 457.44 138.651C462.603 137.581 465.715 135.067 466.703 131.156C467.152 129.342 467.137 127.304 466.643 125.088C466.075 122.486 464.818 119.556 462.902 116.373L462.887 116.418Z" fill="white"/>
<path d="M520.907 29.7439H451.603V122.396H520.907V29.7439Z" fill="white"/>
<path d="M493.67 103.494C493.67 103.494 496.574 88.1314 496.798 80.5021C496.978 74.1815 496.933 72.9918 496.394 72.4861C495.78 71.9061 494.269 71.8169 490.258 71.9507C480.86 72.2779 479.663 72.5456 478.765 73.3487C477.957 74.0774 477.553 76.6503 477.164 81.0375C476.251 91.4479 475.697 102.884 475.697 102.884C473.003 103.375 469.098 103.688 465.805 103.94C465.805 103.94 467.811 91.1058 469.487 76.1892C471.986 53.9854 472.106 48.7653 472.106 48.7653C474.5 48.5571 476.76 48.5571 479.094 48.5571C479.094 48.5571 478.361 53.9259 477.852 59.5029C477.493 63.3844 477.254 65.9424 478.092 66.7306C478.705 67.3107 479.753 67.4296 483.255 67.3255C491.276 67.1024 494.284 66.805 495.257 65.9127C496.065 65.1691 496.095 64.0983 496.259 59.2054C496.409 54.7884 496.184 48.2299 496.184 48.2299C498.758 48.096 502.096 48.2299 504.041 48.3489C504.041 48.3489 503.847 53.0633 503.802 58.7295C503.547 86.4807 506.645 102.438 506.645 102.438C504.535 103.048 496.424 103.331 493.64 103.479L493.67 103.494Z" fill="white"/>
<path d="M627.07 63.9644H551.571V164.886H627.07V63.9644Z" fill="white"/>
<path d="M558.948 79.3123H494.733V155.977H558.948V79.3123Z" fill="white"/>
<path d="M579.66 74.0774C592.859 74.0923 599.489 75.7133 604.592 82.5544C608.737 88.2504 611.326 99.7464 613.945 115.942C619.393 149.657 608.992 161.287 587.262 151.769C578.104 147.753 574.707 146.013 570.442 144.005C567.374 142.563 563.707 141.105 563.707 141.105C563.707 141.105 564.381 127.988 564.291 101.948C564.231 83.8334 563.288 73.8989 563.288 73.8989C563.288 73.8989 569.229 74.0774 579.66 74.0923V74.0774ZM583.94 138.919C596.93 144.124 602.272 136.198 599.534 112.804C597.439 94.8684 595.718 87.715 592.276 84.696C589.402 82.1678 585.601 81.6621 579.675 81.3944C575.126 81.1862 573.509 81.7811 572.791 83.2832C572.073 84.7852 572.028 89.3212 572.372 100.832C573.031 122.396 573.764 128.464 575.23 132.123C576.503 135.29 579.9 137.328 583.925 138.949L583.94 138.919Z" fill="white"/>
<path d="M533.837 94.3924C536.022 96.7273 537.578 100.148 538.057 104.044C538.162 104.937 537.593 107.138 536.695 107.257L520.682 109.175C520.234 109.235 519.889 109.606 519.8 110.067C519.755 110.975 519.889 112.655 520.054 114.098C520.249 115.763 521.535 120.686 523.197 123.08C525.591 126.516 528.958 127.81 532.116 127.423C535.274 127.036 537.249 125.683 538.416 122.724C538.656 122.129 538.925 121.311 539.224 121.266C539.449 121.236 540.003 122.069 540.107 122.857C540.167 123.304 540.242 124.538 539.898 125.594C538.281 131.082 535.603 136.703 528.539 137.551C519.665 138.607 513.275 129.223 511.763 116.775C510.671 107.777 512.975 98.4673 518.842 93.3663C520.563 91.8047 522.568 90.7785 524.903 90.496C528.135 90.1093 531.532 91.7303 533.837 94.3924ZM519.44 104.58C519.44 105.145 519.874 105.651 520.174 105.621C522.224 105.487 523.705 105.204 527.462 104.743C528.434 104.624 529.916 102.988 529.572 100.088C529.228 97.1884 526.788 93.5447 524.992 93.7529C521.91 94.1247 519.515 99.4786 519.44 104.565V104.58Z" fill="white"/>
<path d="M232.261 162.524L125.975 120.811L69.5111 262.898L175.797 304.611L232.261 162.524Z" fill="white"/>
<path d="M159.858 150.564C178.429 157.881 186.855 163.815 190.207 176.263C192.856 186.584 190.072 204.178 184.685 228.434C173.491 278.909 152.345 289.528 127.084 264.127C116.444 253.419 112.628 249.091 107.749 243.901C104.232 240.168 99.8924 236.093 99.8924 236.093C99.8924 236.093 108.183 217.994 122.624 181.29C132.666 155.769 136.916 141.254 136.916 141.254C136.916 141.254 145.192 144.794 159.858 150.564ZM129.613 244.213C144.997 258.713 156.94 250.519 166.188 216.06C173.281 189.648 174.838 178.642 171.71 172.47C169.091 167.325 164.003 164.529 155.817 160.855C149.547 158.045 146.928 157.985 145.072 159.695C143.231 161.421 140.613 167.771 134.671 184.16C123.522 214.885 121.173 223.823 121.188 229.802C121.188 234.963 124.839 239.707 129.613 244.213Z" fill="white"/>
<path d="M318.339 163.235H204.065V316H318.339V163.235Z" fill="white"/>
<path d="M261.321 288.368C257.805 288.532 255.201 287.862 252.866 287.327C251.908 286.985 242.855 284.68 236.479 278.865C229.131 272.321 225.944 262.089 225.555 253.419C225.181 245.388 227.171 238.562 230.074 237C230.867 236.569 233.397 235.558 235.252 234.814L241.253 232.717C240.55 232.107 239.547 230.977 238.395 229.475C237.527 228.226 231.915 221.087 231.631 214.99C231.556 213.443 231.9 212 232.648 210.662C233.397 209.323 234.579 208.505 237.213 206.825C237.213 206.825 244.456 202.215 256.622 201.664L257.161 201.635C259.451 201.53 261.097 201.709 261.636 201.813C262.863 201.887 264.225 202.215 265.736 202.542C267.113 203.003 268.624 203.449 270.016 204.163C271.393 204.743 272.785 205.457 274.042 206.319C275.299 207.182 276.436 208.163 277.559 209.279C280.252 211.747 282.542 214.633 284.188 217.919C285.969 221.34 287.346 224.775 288.468 228.493C289.441 232.077 290.159 235.81 290.593 239.424C291.042 243.172 291.207 246.667 291.357 250.162C291.401 254.177 290.923 258.222 290.025 262.416C289.456 264.9 288.304 269.243 285.535 273.645C280.986 280.858 272.231 287.877 261.815 288.353L261.277 288.383L261.321 288.368ZM266.933 272.024C268.819 268.826 269.642 266.194 270.331 263.562C271.139 260.409 271.662 257.152 271.902 253.761C272.291 250.37 272.396 246.86 272.366 243.231L263.387 242.473C258.209 241.938 255.605 241.402 252.717 240.242L250.367 239.186C249.304 242.607 248.676 246.399 248.451 250.43L248.496 254.326C248.616 257.048 249.02 259.62 249.544 262.327C250.532 266.045 251.893 269.347 253.809 272.381C255.71 275.281 258.239 277.363 261.411 278.523C262.968 277.155 265.182 275.102 266.933 272.039V272.024ZM270.899 231.899C270.435 230.486 269.612 227.423 267.682 223.749C265.138 218.678 262.893 213.978 257.88 210.959C255.515 209.517 253.18 208.847 251.669 208.52C250.442 211.167 250.128 213.383 250.187 214.692L250.217 215.465C250.382 219.094 251.998 221.875 253.031 223.645C253.899 224.909 255.051 226.144 257.041 228.389C261.022 232.494 263.297 234.844 267.068 237.134C269.148 238.339 270.959 239.157 272.201 239.618C272.096 237.283 271.707 234.71 270.899 231.899Z" fill="white"/>
<path d="M407.396 131.721H302.82V271.518H407.396V131.721Z" fill="white"/>
<path d="M361.034 244.049C359.208 237.416 358.041 234.159 356.799 230.07C355.542 225.697 353.911 219.481 352.564 211.286C351.98 213.116 351.412 215.525 350.918 218.202C350.439 221.028 350.155 223.288 350.05 224.418C349.765 226.53 349.466 229.073 349.466 232.048C349.466 233.877 349.556 235.721 349.855 237.699C350.05 239.394 350.334 241.789 351.112 244.481C350.05 246.176 348.119 249.136 345.036 251.114C341.954 253.092 339.245 253.508 337.704 253.508C337.225 252.66 336.357 251.247 335.294 249.269C328.066 234.725 327.198 216.655 325.941 197.604C325.657 193.648 325.268 186.733 323.816 177.423C323.232 173.333 322.664 170.076 322.275 168.098C323.921 166.551 326.031 164.707 328.739 163.443C332.017 161.748 334.905 161.049 337.03 160.9C337.225 163.012 337.419 166.269 337.614 170.225C338.482 182.792 339.065 188.577 339.634 196.057C340.023 201.709 340.502 209.606 340.697 219.496C341.759 213.562 342.822 207.211 343.69 200.296C344.752 191.968 345.426 184.338 345.904 177.14C347.835 176.441 350.244 175.876 353.043 175.727L354.973 175.594C357.293 175.594 359.313 176.01 360.959 176.441C361.049 176.724 361.049 177.289 361.154 177.854C361.738 182.226 362.411 184.487 363.279 188.859L363.952 193.232C366.272 206.215 367.035 209.472 367.514 211.733L368.861 217.101C369.819 214.142 370.597 211.599 371.076 209.755C374.263 198.467 375.416 189.142 375.895 184.338L376.284 178.836V177.274C376.284 170.492 375.131 164.99 374.263 161.465C375.326 160.201 376.583 158.922 378.214 157.658C380.908 155.68 383.422 154.698 385.248 154.133C385.831 154.981 386.505 156.394 387.178 158.223C388.525 161.896 388.914 165.704 388.914 169.095L388.72 173.467C387.657 191.819 383.602 206.78 382.928 209.472C382.838 209.606 381.97 212.863 380.803 217.235C378.109 227.675 377.72 229.653 377.526 231.215C377.137 233.475 376.748 236.584 376.748 240.525L376.837 243.202C376.074 244.614 375.101 246.31 373.844 248.005C370.762 251.961 365.748 253.657 363.728 254.356C363.144 251.813 362.276 248.288 361.034 244.049Z" fill="white"/>
<path d="M501.961 164.647L400.86 153.661L386.005 288.682L487.105 299.668L501.961 164.647Z" fill="white"/>
<path d="M410.464 198.08C413.861 197.128 421.808 194.823 424.561 193.871C427.644 192.786 429.904 191.566 430.712 191.566C431.52 191.566 432.822 193.187 432.822 193.737C432.822 194.689 432.657 198.08 432.657 199.3C432.657 200.118 433.795 200.118 433.959 199.984C440.439 195.775 446.425 192.801 454.043 192.801C461.66 192.801 466.838 196.191 469.113 198.363C472.674 201.887 474.949 207.717 474.949 214.647C474.949 217.637 475.278 237.58 475.443 239.469C475.772 241.506 476.58 242.994 480.785 243.945C483.868 244.629 485.155 245.299 485.155 246.518C485.155 247.604 483.539 248.556 480.456 248.556C476.565 248.556 468.963 248.288 464.413 248.288C460.373 248.288 453.235 248.689 450.975 248.689C448.386 248.689 446.276 248.422 446.276 246.652C446.276 245.7 448.057 244.897 450.167 244.347C453.893 243.261 454.536 241.908 454.866 237.431C455.195 232.955 455.36 215.867 455.36 211.926C455.36 210.305 454.716 206.765 452.277 204.743C450.496 203.256 446.934 201.887 443.537 201.887C438.509 201.887 436.728 202.839 434.633 203.791C433.989 204.059 433.331 205.962 433.181 206.646C432.852 209.085 433.346 238.383 433.51 240.019C433.675 241.923 434.004 242.726 439.018 244.228C440.469 244.763 441.607 245.715 441.607 246.533C441.607 247.619 439.826 248.57 437.072 248.57C433.346 248.57 426.701 248.303 423.304 248.303C417.318 248.303 410.03 248.704 407.426 248.704C404.508 248.704 402.892 247.753 402.892 246.533C402.892 245.447 404.508 244.763 406.289 244.228C411.631 242.741 412.275 241.789 412.769 236.628C413.263 232.553 413.741 222.247 413.741 208.55C413.741 207.063 412.29 205.843 408.564 202.854C407.591 201.902 407.426 201.634 407.426 201.233C407.426 200.415 409.207 198.526 410.509 198.11L410.464 198.08Z" fill="white"/>
<path d="M116.977 10.8986L42.0136 1.97583L29.9364 102.181L104.9 111.104L116.977 10.8986Z" fill="black"/>
<path d="M97.064 39.1281C96.5402 36.9419 95.6123 34.9342 94.2954 33.1496C92.9785 31.3649 91.3024 29.8629 89.2821 28.6731C87.2618 27.4833 84.9123 26.71 82.2634 26.3531L51.1958 22.2633C50.8815 22.2186 50.6121 22.4417 50.5672 22.7392L42.4412 83.6548C42.3963 83.9671 42.6207 84.2348 42.92 84.2795L55.5955 85.9451C55.7302 85.9749 55.8948 85.9303 56.0145 85.841C56.1343 85.7518 56.2091 85.6179 56.2241 85.4692L59.3218 62.2094L71.4436 63.8007C74.4366 64.2023 76.5168 65.1689 77.6242 66.7008C78.7466 68.2623 79.3302 70.627 79.3302 73.7352C79.3302 76.1742 79.2255 78.7768 79.0309 81.4687C78.8364 84.2051 78.9561 86.6441 79.4051 88.7113C79.45 88.9344 79.6445 89.1129 79.884 89.1426L92.5594 90.8083C92.5594 90.8083 92.6043 90.8083 92.6343 90.8083C92.8139 90.8083 92.9934 90.719 93.0982 90.5703C93.2179 90.4067 93.2329 90.1836 93.1431 89.9903C92.6941 89.1277 92.4098 88.0867 92.2901 86.8969C92.1554 85.6774 92.1105 84.3687 92.1703 83.0005C92.2152 81.6174 92.305 80.264 92.4248 78.985C92.5445 77.6614 92.6492 76.5163 92.7241 75.5347C92.8139 73.9732 92.8288 72.367 92.7241 70.7757C92.6343 69.1546 92.335 67.6228 91.8411 66.21C91.3473 64.7823 90.614 63.5033 89.6861 62.373C88.9678 61.5104 88.0549 60.7668 86.9475 60.1571C89.9256 59.1309 92.2601 57.4801 93.9063 55.2345C95.7321 52.736 96.8993 49.6277 97.3932 45.9543C97.7075 43.5599 97.6027 41.2399 97.0789 39.0686L97.064 39.1281ZM62.8836 35.5291L76.2175 37.284C78.9561 37.6409 80.9465 38.5481 82.1287 39.9461C83.296 41.344 83.7001 43.4558 83.3259 46.2518C82.9369 49.1518 81.9791 51.1595 80.4826 52.2452C78.9711 53.3309 76.8161 53.6878 74.0775 53.3308L60.7585 51.576L62.8985 35.5291H62.8836Z" fill="white"/>
<path d="M154.695 57.0044H86.0795V145.775H154.695V57.0044Z" fill="black"/>
<path d="M106.522 130.457C103.903 130.412 100.566 130.204 99.4434 129.847C103.978 113.533 108.183 96.3854 112.478 77.5426C114.229 77.3938 116.534 77.26 118.674 77.3046C120.814 77.3492 122.804 77.5277 124.001 77.721C128.057 96.2664 132.831 113.295 138.473 130.859C137.275 131.007 135.854 130.992 134.103 130.963C131.484 130.918 128.94 130.725 128.461 130.457C128.461 130.457 126.635 120.433 125.049 115.377C124.256 112.923 123.852 112.67 119.317 112.611H118.913C112.553 112.507 111.924 113.012 111.356 115.347C110.158 120.285 109.051 130.427 109.051 130.427C108.408 130.502 107.465 130.487 106.507 130.472L106.522 130.457ZM120.918 91.9386C119.886 87.7299 119.332 86.0345 118.135 86.0196C116.938 86.0047 116.219 88.3396 115.187 92.5335L113.047 101.486C112.643 103.241 112.328 104.505 112.328 105.338C112.328 107.272 113.765 107.376 118.135 107.435H118.539C122.52 107.495 123.867 107.435 123.867 105.428C123.867 104.595 123.702 103.494 123.313 101.888L120.918 91.9386Z" fill="white"/>
<path d="M202.957 25.7263L138.492 37.1838L154.003 123.368L218.467 111.91L202.957 25.7263Z" fill="black"/>
<path d="M171.98 97.2332C170.438 97.4711 169.091 97.1439 169.001 96.6234C168.912 96.0285 169.525 95.5378 171.486 94.7644C173.73 93.8721 174.344 92.7716 174.509 91.9834C174.733 90.868 174 85.1423 172.922 78.3011C172.563 76.0555 172.369 74.8508 172.039 73.9734C171.845 73.3934 170.558 72.739 168.612 71.7426C167.954 71.3113 167.206 70.9692 167.131 70.5082C167.041 69.9133 168.104 69.1251 169.81 68.6195C173.88 67.3554 180.435 64.3958 181.946 63.8604C182.41 63.7117 182.994 64.2322 183.039 64.5297C183.278 67.8759 184.82 78.1822 185.523 82.5248C185.747 83.9525 186.226 86.2576 186.735 88.8751C187.184 91.0316 187.932 91.3736 190.536 91.5818C192.048 91.7305 192.901 92.0577 193.006 92.727C193.11 93.3962 191.719 94.006 190.177 94.2439C189.504 94.348 184.041 94.9875 181.916 95.3147C178.819 95.8055 173.641 96.9209 171.995 97.1886L171.98 97.2332ZM181.153 52.9147C181.602 55.6957 178.28 58.5214 175.676 58.9378C174.703 59.0865 172.503 58.9824 171.201 58.2537C169.914 57.6142 168.852 56.6178 168.582 54.8926C168.433 53.9111 168.657 52.2603 169.765 51.0854C170.782 49.9997 172.803 48.9885 174.733 48.691C178.504 48.0961 180.854 51.0408 181.153 52.9147Z" fill="white"/>
<path d="M268.214 55.7878L201.418 48.5298L191.603 137.736L258.399 144.994L268.214 55.7878Z" fill="black"/>
<path d="M207.761 77.8698C210.006 77.2452 215.259 75.7133 217.069 75.0887C219.105 74.3749 220.601 73.5718 221.14 73.5718C221.679 73.5718 222.532 74.6426 222.532 74.9995C222.532 75.6241 222.427 77.8698 222.427 78.6729C222.427 79.2083 223.175 79.2083 223.28 79.119C227.56 76.338 231.511 74.3749 236.539 74.3749C241.567 74.3749 244.994 76.6205 246.491 78.0482C248.841 80.3831 250.337 84.235 250.337 88.8007C250.337 90.7787 250.547 103.94 250.666 105.204C250.876 106.543 251.415 107.539 254.198 108.164C256.233 108.61 257.086 109.056 257.086 109.859C257.086 110.573 256.024 111.198 253.989 111.198C251.415 111.198 246.386 111.019 243.393 111.019C240.714 111.019 236.015 111.287 234.519 111.287C232.813 111.287 231.421 111.109 231.421 109.949C231.421 109.324 232.603 108.789 233.995 108.432C236.449 107.718 236.883 106.826 237.093 103.866C237.302 100.906 237.422 89.6187 237.422 87.0161C237.422 85.9453 236.988 83.6104 235.387 82.2719C234.205 81.2903 231.855 80.3831 229.61 80.3831C226.288 80.3831 225.121 81.0078 223.729 81.6324C223.295 81.8109 222.876 83.0601 222.771 83.5211C222.562 85.1273 222.876 104.491 222.981 105.561C223.085 106.811 223.31 107.361 226.617 108.342C227.575 108.699 228.323 109.324 228.323 109.859C228.323 110.573 227.141 111.198 225.33 111.198C222.876 111.198 218.476 111.019 216.231 111.019C212.266 111.019 207.462 111.287 205.741 111.287C203.81 111.287 202.748 110.663 202.748 109.859C202.748 109.146 203.81 108.699 204.993 108.342C208.524 107.361 208.958 106.736 209.273 103.331C209.602 100.639 209.916 93.8274 209.916 84.7853C209.916 83.8037 208.958 82.9857 206.489 81.0226C205.846 80.398 205.741 80.2196 205.741 79.9519C205.741 79.4165 206.923 78.1523 207.776 77.8847L207.761 77.8698Z" fill="white"/>
<path d="M403.55 4.65503H328.051V105.576H403.55V4.65503Z" fill="black"/>
<path d="M335.234 85.1125C334.83 83.9971 334.546 82.614 334.546 80.9483V80.1155C334.681 78.6283 334.95 77.4236 335.354 76.4123L339.02 76.5908L342.822 76.8734L342.283 63.5481L342.148 53.4649C342.148 50.2228 342.283 46.8915 342.418 43.1883L343.226 33.2836L344.453 22.6352C346.623 22.085 349.481 21.5198 352.609 21.148C355.602 20.7762 358.311 20.687 360.765 20.687L364.566 20.7762C364.027 24.3901 363.608 28.0933 363.339 31.7964C362.8 37.8195 362.531 43.9171 362.531 49.9402C362.531 59.5624 363.204 69.0061 364.297 77.2452L375.85 76.9626L376.807 59.8301C378.439 59.5475 380.878 59.2798 383.602 59.2798L386.056 59.369C390.95 59.6516 394.616 60.6629 396.786 61.4957V71.4897L397.055 81.3052C386.595 83.3427 373.41 85.1868 357.921 85.6627L350.993 85.752C345.291 85.752 340.667 85.4694 335.234 85.0976V85.1125Z" fill="white"/>
<path d="M445.138 27.3794H376.523V116.15H445.138V27.3794Z" fill="black"/>
<path d="M396.966 100.832C394.347 100.787 391.009 100.579 389.887 100.222C394.422 83.9078 398.627 66.7604 402.922 47.9176C404.673 47.7688 406.977 47.635 409.117 47.6796C411.257 47.7242 413.248 47.9027 414.445 48.096C418.5 66.6414 423.274 83.6698 428.916 101.234C427.719 101.382 426.297 101.367 424.546 101.338C421.927 101.293 419.383 101.1 418.905 100.832C418.905 100.832 417.079 90.8084 415.492 85.7519C414.699 83.298 414.295 83.0452 409.761 82.9857H409.357C402.997 82.8816 402.368 83.3873 401.799 85.7222C400.602 90.6597 399.495 100.802 399.495 100.802C398.851 100.877 397.908 100.862 396.951 100.847L396.966 100.832ZM411.347 62.3285C410.315 58.1197 409.761 56.4243 408.564 56.4095C407.366 56.3946 406.648 58.7295 405.615 62.9234L403.475 71.8763C403.071 73.6312 402.757 74.8953 402.757 75.7282C402.757 77.6615 404.194 77.7656 408.564 77.8251H408.968C412.948 77.8846 414.295 77.8251 414.295 75.8174C414.295 74.9846 414.131 73.8841 413.742 72.2779L411.347 62.3285Z" fill="white"/>
<path d="M498.443 18.6517L424.658 34.5457L446.17 133.177L519.956 117.283L498.443 18.6517Z" fill="black"/>
<path d="M492.817 86.6739C490.034 82.0933 486.158 77.7656 481.264 73.7948C479.648 72.5158 476.909 70.4783 473.108 67.727C469.322 64.9906 465.671 62.4028 462.244 60.0531C458.891 57.7479 456.512 55.993 455.165 54.833C453.938 53.7771 453.07 52.7509 452.531 51.7099C452.367 51.4273 452.262 51.1596 452.202 50.8919C452.067 50.2376 452.247 49.5832 452.741 48.9139C453.235 48.2447 454.028 47.9621 455.165 48.0365C456.168 48.096 457.5 48.5421 458.802 49.3452C459.759 49.9699 460.912 50.9663 462.214 52.275C463.531 53.5986 464.548 54.8181 465.311 55.9484C465.656 56.4392 466.03 56.9299 466.404 57.4058C466.838 57.971 467.212 58.3874 467.601 58.7443C468.664 59.6218 469.711 60.172 470.744 60.3505C471.253 60.4397 471.911 60.4249 472.764 60.2761C473.812 60.0977 474.41 59.2054 474.53 57.5546C474.575 55.6658 474.724 54.1191 474.994 52.9591C475.263 51.814 475.742 50.5796 476.445 49.3304C476.984 48.4083 477.284 47.6796 477.358 47.0996C477.418 46.6683 477.373 46.1626 477.254 45.5975C477.194 45.3298 477.119 45.0472 477.029 44.7944C476.67 43.679 475.967 42.638 474.934 41.7159C473.931 40.8087 472.869 40.2436 471.791 40.0502C470.34 39.7825 469.202 40.2733 468.454 41.4631C468.155 41.8497 467.826 42.3851 467.496 43.0693C467.167 43.7385 466.868 44.3631 466.598 44.9877C466.479 45.2703 466.374 45.5231 466.299 45.7462C466.134 45.5975 465.955 45.4339 465.745 45.2406C462.064 41.7903 458.383 39.6041 454.761 38.7415L454.028 38.6077C448.371 37.5666 444.749 39.3215 443.268 43.8277C442.699 45.4785 442.609 47.2632 443.013 49.1519C443.417 51.0406 444.255 52.8848 445.513 54.833C446.695 56.7961 448.341 58.7443 450.391 60.6331C452.382 62.4623 455.195 64.6188 458.727 67.0429C461.869 69.2142 465.461 71.7573 469.382 74.583C473.318 77.4235 476.086 79.4759 477.583 80.6656C478.99 81.7959 480.381 83.1046 481.743 84.5324C483.09 85.9601 484.153 87.2391 484.841 88.2503C486.143 90.3176 487.026 92.2063 487.43 93.7976C487.969 96.6828 486.023 98.512 481.683 99.2407C481.145 99.3151 480.651 99.3597 480.202 99.3746C479.768 99.3746 479.229 99.3448 478.615 99.2556C477.957 99.1664 477.014 99.0028 475.802 98.7797C474.156 98.4823 472.914 98.2146 472.031 97.9915C471.163 97.7684 470.235 97.4561 469.217 97.01C466.209 95.8499 463.695 94.6156 461.72 93.3366C459.744 92.0576 457.799 90.4514 455.883 88.5032C454.551 87.1796 453.579 86.0196 452.995 85.0826C452.531 84.2944 452.217 83.5211 452.037 82.718L451.948 82.3313C451.813 81.7215 451.798 81.4836 451.798 81.3051C451.798 81.3051 451.873 81.2159 452.217 81.0821C452.845 80.7549 453.504 80.6359 454.252 80.6805C455.12 80.74 456.198 81.0077 457.515 81.4687C459.415 82.0933 461.061 82.7477 462.378 83.4318C463.725 84.1159 465.356 85.0975 467.212 86.3467C468.768 87.4175 469.861 88.1314 470.549 88.518C471.342 88.9642 472.001 89.2319 472.555 89.336C473.886 89.574 474.874 89.2616 475.503 88.3693C476.056 87.6257 476.191 86.5996 475.922 85.3354L475.832 84.9488C475.577 83.7739 474.949 82.7031 473.991 81.7662C473.168 80.9631 471.717 79.8774 469.547 78.4646C467.242 76.9328 465.401 75.7876 464.054 75.0738C462.707 74.3599 461.106 73.6609 459.325 73.0066C456.721 71.9804 454.522 71.2963 452.816 70.984C452.501 70.9245 451.798 70.8353 450.72 70.7163C449.538 70.5824 448.161 70.865 446.56 71.564C442.998 72.6645 441.667 75.4753 442.609 79.8923L442.834 80.9185C443.058 81.9595 443.358 83.0005 443.732 84.0267C444.121 85.0826 444.704 86.2575 445.483 87.5067C446.814 89.6781 448.685 91.9981 451.065 94.4222C453.429 96.8315 455.853 98.9136 458.338 100.654C462.019 103.122 466.688 105.338 472.18 107.257H472.21C474.081 107.867 475.937 108.342 477.718 108.67C481.16 109.309 484.407 109.383 487.37 108.908C492.533 107.837 495.646 105.323 496.633 101.412C497.082 99.5977 497.067 97.5602 496.574 95.3443C496.005 92.7417 494.748 89.8119 492.832 86.6293L492.817 86.6739Z" fill="white"/>
<path d="M550.837 0H481.534V92.6525H550.837V0Z" fill="black"/>
<path d="M523.601 73.7503C523.601 73.7503 526.504 58.3875 526.728 50.7582C526.908 44.4376 526.863 43.2479 526.324 42.7422C525.711 42.1622 524.199 42.073 520.189 42.2068C510.791 42.534 509.593 42.8017 508.695 43.6048C507.887 44.3335 507.483 46.9064 507.094 51.2936C506.181 61.704 505.628 73.1406 505.628 73.1406C502.934 73.6313 499.028 73.9436 495.736 74.1965C495.736 74.1965 497.741 61.3619 499.417 46.4453C501.916 24.2415 502.036 19.0214 502.036 19.0214C504.43 18.8132 506.69 18.8132 509.025 18.8132C509.025 18.8132 508.291 24.182 507.783 29.759C507.423 33.6406 507.184 36.1985 508.022 36.9868C508.636 37.5668 509.683 37.6857 513.185 37.5816C521.206 37.3586 524.214 37.0611 525.187 36.1688C525.995 35.4252 526.025 34.3544 526.19 29.4615C526.339 25.0445 526.115 18.486 526.115 18.486C528.689 18.3521 532.026 18.486 533.972 18.605C533.972 18.605 533.777 23.3194 533.732 28.9856C533.478 56.7368 536.575 72.6944 536.575 72.6944C534.465 73.3041 526.354 73.5867 523.571 73.7354L523.601 73.7503Z" fill="white"/>
<path d="M657 34.2205H581.501V135.142H657V34.2205Z" fill="black"/>
<path d="M588.879 49.5684H524.663V126.233H588.879V49.5684Z" fill="black"/>
<path d="M609.59 44.3335C622.79 44.3484 629.419 45.9694 634.522 52.8105C638.668 58.5065 641.257 70.0025 643.876 86.1981C649.323 119.913 638.922 131.543 617.193 122.025C608.034 118.009 604.637 116.269 600.372 114.262C597.304 112.819 593.638 111.362 593.638 111.362C593.638 111.362 594.311 98.2444 594.221 72.2036C594.161 54.0895 593.219 44.155 593.219 44.155C593.219 44.155 599.16 44.3335 609.59 44.3484V44.3335ZM613.87 109.175C626.86 114.381 632.203 106.454 629.464 83.0601C627.369 65.1245 625.648 57.9711 622.206 54.9521C619.333 52.4239 615.532 51.9182 609.605 51.6505C605.056 51.4423 603.44 52.0372 602.721 53.5393C602.003 55.0413 601.958 59.5773 602.302 71.0882C602.961 92.6526 603.694 98.7203 605.161 102.379C606.433 105.547 609.83 107.584 613.855 109.205L613.87 109.175Z" fill="white"/>
<path d="M563.767 64.6485C565.952 66.9834 567.508 70.404 567.987 74.3004C568.092 75.1928 567.523 77.3938 566.626 77.5128L550.613 79.4313C550.164 79.4908 549.82 79.8626 549.73 80.3236C549.685 81.2308 549.82 82.9113 549.984 84.3539C550.179 86.0196 551.466 90.9422 553.127 93.3366C555.521 96.772 558.889 98.0659 562.046 97.6792C565.204 97.2925 567.179 95.9392 568.347 92.9797C568.586 92.3848 568.855 91.5668 569.155 91.5222C569.379 91.4925 569.933 92.3253 570.038 93.1135C570.097 93.5597 570.172 94.794 569.828 95.8499C568.212 101.338 565.533 106.959 558.47 107.807C549.595 108.863 543.205 99.4787 541.694 87.0309C540.601 78.0333 542.906 68.7234 548.772 63.6224C550.493 62.0608 552.498 61.0346 554.833 60.7521C558.065 60.3654 561.463 61.9864 563.767 64.6485ZM549.371 74.8358C549.371 75.401 549.805 75.9066 550.104 75.8769C552.154 75.743 553.636 75.4605 557.392 74.9994C558.365 74.8805 559.846 73.2445 559.502 70.3445C559.158 67.4445 556.719 63.8008 554.923 64.009C551.84 64.3808 549.446 69.7347 549.371 74.821V74.8358Z" fill="white"/>
<path d="M262.189 132.787L155.903 91.0737L99.4387 233.16L205.725 274.873L262.189 132.787Z" fill="black"/>
<path d="M189.788 120.82C208.36 128.137 216.785 134.071 220.137 146.519C222.786 156.84 220.003 174.434 214.615 198.69C203.421 249.165 182.276 259.784 157.014 234.383C146.374 223.675 142.558 219.347 137.679 214.157C134.163 210.424 129.823 206.349 129.823 206.349C129.823 206.349 138.113 188.25 152.555 151.546C162.596 126.025 166.846 111.51 166.846 111.51C166.846 111.51 175.122 115.05 189.788 120.82ZM159.543 214.469C174.928 228.969 186.87 220.775 196.118 186.316C203.212 159.904 204.768 148.898 201.64 142.727C199.022 137.581 193.933 134.785 185.747 131.112C179.477 128.301 176.858 128.241 175.002 129.952C173.162 131.677 170.543 138.027 164.602 154.416C153.453 185.141 151.103 194.08 151.118 200.058C151.118 205.219 154.77 209.963 159.543 214.469Z" fill="white"/>
<path d="M348.269 133.491H233.995V286.256H348.269V133.491Z" fill="black"/>
<path d="M291.252 258.624C287.735 258.787 285.131 258.118 282.796 257.583C281.839 257.241 272.785 254.936 266.41 249.121C259.062 242.577 255.874 232.345 255.485 223.675C255.111 215.644 257.101 208.818 260.005 207.256C260.798 206.825 263.327 205.813 265.182 205.07L271.183 202.973C270.48 202.363 269.477 201.233 268.325 199.731C267.457 198.482 261.845 191.343 261.561 185.245C261.486 183.699 261.83 182.256 262.579 180.918C263.327 179.579 264.509 178.761 267.143 177.081C267.143 177.081 274.386 172.47 286.553 171.92L287.091 171.89C289.381 171.786 291.027 171.965 291.566 172.069C292.793 172.143 294.155 172.47 295.666 172.798C297.043 173.259 298.555 173.705 299.946 174.419C301.323 174.999 302.715 175.713 303.972 176.575C305.229 177.438 306.367 178.419 307.489 179.535C310.183 182.003 312.472 184.889 314.118 188.175C315.899 191.596 317.276 195.031 318.399 198.749C319.371 202.333 320.09 206.066 320.524 209.68C320.973 213.428 321.137 216.923 321.287 220.418C321.332 224.433 320.853 228.478 319.955 232.672C319.386 235.156 318.234 239.498 315.465 243.901C310.916 251.113 302.161 258.133 291.746 258.609L291.207 258.639L291.252 258.624ZM296.864 242.28C298.749 239.082 299.572 236.45 300.261 233.817C301.069 230.665 301.593 227.408 301.832 224.017C302.221 220.626 302.326 217.116 302.296 213.487L293.317 212.729C288.139 212.193 285.535 211.658 282.647 210.498L280.297 209.442C279.235 212.863 278.606 216.655 278.382 220.685L278.427 224.582C278.546 227.303 278.95 229.876 279.474 232.583C280.462 236.301 281.824 239.603 283.739 242.636C285.64 245.536 288.169 247.619 291.342 248.779C292.898 247.41 295.113 245.358 296.864 242.294V242.28ZM300.844 202.155C300.38 200.742 299.557 197.678 297.627 194.005C295.083 188.934 292.838 184.234 287.825 181.215C285.46 179.773 283.126 179.103 281.614 178.776C280.387 181.423 280.073 183.639 280.133 184.948L280.163 185.721C280.327 189.35 281.943 192.131 282.976 193.901C283.844 195.165 284.996 196.399 286.987 198.645C290.967 202.75 293.242 205.1 297.013 207.39C299.093 208.594 300.904 209.412 302.146 209.873C302.042 207.539 301.653 204.966 300.844 202.155Z" fill="white"/>
<path d="M437.341 101.977H332.765V241.774H437.341V101.977Z" fill="black"/>
<path d="M390.98 214.305C389.154 207.673 387.986 204.416 386.744 200.326C385.487 195.953 383.856 189.737 382.509 181.542C381.926 183.372 381.357 185.781 380.863 188.458C380.384 191.284 380.1 193.544 379.995 194.674C379.711 196.786 379.411 199.329 379.411 202.304C379.411 204.133 379.501 205.977 379.801 207.955C379.995 209.651 380.279 212.045 381.058 214.737C379.995 216.432 378.065 219.392 374.982 221.37C371.899 223.348 369.19 223.764 367.649 223.764C367.17 222.916 366.302 221.503 365.239 219.526C358.011 204.981 357.143 186.911 355.886 167.86C355.602 163.904 355.213 156.989 353.761 147.679C353.178 143.589 352.609 140.332 352.22 138.354C353.866 136.808 355.976 134.963 358.685 133.699C361.962 132.004 364.85 131.305 366.975 131.156C367.17 133.268 367.364 136.525 367.559 140.481C368.427 153.048 369.011 158.833 369.579 166.314C369.968 171.965 370.447 179.862 370.642 189.752C371.704 183.818 372.767 177.468 373.635 170.552C374.697 162.224 375.371 154.594 375.85 147.396C377.78 146.697 380.19 146.132 382.988 145.984L384.919 145.85C387.238 145.85 389.258 146.266 390.905 146.697C390.994 146.98 390.994 147.545 391.099 148.11C391.683 152.483 392.356 154.743 393.224 159.115L393.898 163.488C396.217 176.471 396.981 179.728 397.459 181.989L398.806 187.357C399.764 184.398 400.542 181.855 401.021 180.011C404.209 168.723 405.361 159.398 405.84 154.594L406.229 149.092V147.53C406.229 140.749 405.077 135.246 404.209 131.721C405.271 130.457 406.528 129.178 408.159 127.914C410.853 125.936 413.367 124.955 415.193 124.389C415.777 125.237 416.45 126.65 417.124 128.479C418.47 132.153 418.86 135.96 418.86 139.351L418.665 143.723C417.603 162.075 413.547 177.036 412.874 179.728C412.784 179.862 411.916 183.119 410.748 187.491C408.055 197.931 407.666 199.909 407.471 201.471C407.082 203.731 406.693 206.84 406.693 210.781L406.783 213.458C406.019 214.871 405.047 216.566 403.79 218.261C400.707 222.217 395.694 223.913 393.673 224.612C393.09 222.069 392.222 218.544 390.98 214.305Z" fill="white"/>
<path d="M531.899 134.906L430.799 123.921L415.943 258.942L517.044 269.927L531.899 134.906Z" fill="black"/>
<path d="M440.409 168.336C443.806 167.384 451.753 165.079 454.507 164.127C457.589 163.042 459.849 161.822 460.657 161.822C461.465 161.822 462.767 163.443 462.767 163.993C462.767 164.945 462.603 168.336 462.603 169.555C462.603 170.373 463.74 170.373 463.905 170.24C470.385 166.031 476.371 163.056 483.988 163.056C491.605 163.056 496.783 166.447 499.058 168.619C502.62 172.143 504.894 177.973 504.894 184.903C504.894 187.893 505.223 207.836 505.388 209.725C505.717 211.762 506.525 213.249 510.731 214.201C513.813 214.885 515.1 215.555 515.1 216.774C515.1 217.86 513.484 218.811 510.401 218.811C506.51 218.811 498.908 218.544 494.359 218.544C490.318 218.544 483.18 218.945 480.92 218.945C478.331 218.945 476.221 218.678 476.221 216.908C476.221 215.956 478.002 215.153 480.112 214.603C483.838 213.517 484.482 212.164 484.811 207.687C485.14 203.211 485.305 186.123 485.305 182.182C485.305 180.561 484.661 177.021 482.222 174.999C480.441 173.511 476.879 172.143 473.482 172.143C468.454 172.143 466.673 173.095 464.578 174.047C463.935 174.314 463.276 176.218 463.126 176.902C462.797 179.341 463.291 208.639 463.456 210.275C463.62 212.179 463.95 212.982 468.963 214.484C470.415 215.019 471.552 215.971 471.552 216.789C471.552 217.875 469.771 218.826 467.017 218.826C463.291 218.826 456.647 218.559 453.249 218.559C447.263 218.559 439.975 218.96 437.371 218.96C434.453 218.96 432.837 218.008 432.837 216.789C432.837 215.703 434.453 215.019 436.234 214.484C441.577 212.997 442.22 212.045 442.714 206.884C443.208 202.809 443.687 192.503 443.687 178.806C443.687 177.319 442.235 176.099 438.509 173.11C437.536 172.158 437.371 171.89 437.371 171.489C437.371 170.671 439.152 168.782 440.454 168.366L440.409 168.336Z" fill="white"/>
</g>
<defs>
<clipPath id="clip0_84_636">
<rect width="657" height="316" fill="white"/>
</clipPath>
</defs>
</svg>
