<svg width="1667" height="218" viewBox="0 0 1667 218" fill="none" xmlns="http://www.w3.org/2000/svg">
<path d="M268.206 10.4575L52 29.2291V135.203L1625.5 141.688L1633.78 10.4575L1354.85 29.2291L1168.5 0L1000.92 29.2291L714.669 6.53252L480.877 32.4285L268.206 10.4575Z" fill="white"/>
<path d="M277.5 15.1532L41 31L49 162.412H1667V7.43335L1353 33.3615L1168 7.43335L1012 37.0484L692 15.1532L461.5 37.0484L277.5 15.1532Z" fill="#ED0003"/>
<path d="M134 30.8606L17 71.7715V211.068H1536V32.4571L1217 63.4378L887 36.6086L662.5 75.4464L458 40.7147L314.5 58.7997L134 30.8606Z" fill="black"/>
<path d="M134 37.168L0 74L17 217.375H1536L1546 31.5L1215.5 67.3023L879 49.541L666 78.0788L441.5 48.1441L236.5 67.3023L134 37.168Z" fill="#ED0003"/>
</svg>
