<svg width="986" height="546" viewBox="0 0 986 546" fill="none" xmlns="http://www.w3.org/2000/svg">
<g clip-path="url(#clip0_819_361)">
<g filter="url(#filter0_d_819_361)">
<path d="M982.09 373.982L916.232 532.871L920.977 431.589L740.816 423.921L788.733 318.969L675.939 301.076L665.891 180.092L260 206.5L58.5 128.235L0 24.8988L646.73 80.4686L760.787 88.7926L728.916 266.881L919.074 260.378L835.933 391.95L982.09 373.982Z" fill="#ED0103"/>
<path d="M982.09 373.982L916.232 532.871L920.977 431.589L740.816 423.921L788.733 318.969L675.939 301.076L665.891 180.092L260 206.5L57.5 127.846L1.17764 25L-266.5 2L646.73 80.4686L760.787 88.7926L728.916 266.881L919.074 260.378L835.933 391.95L982.09 373.982Z" stroke="black" stroke-width="4"/>
</g>
</g>
<defs>
<filter id="filter0_d_819_361" x="-266.671" y="0.00732422" width="1251.92" height="545.629" filterUnits="userSpaceOnUse" color-interpolation-filters="sRGB">
<feFlood flood-opacity="0" result="BackgroundImageFix"/>
<feColorMatrix in="SourceAlpha" type="matrix" values="0 0 0 0 0 0 0 0 0 0 0 0 0 0 0 0 0 0 127 0" result="hardAlpha"/>
<feOffset dy="12"/>
<feComposite in2="hardAlpha" operator="out"/>
<feColorMatrix type="matrix" values="0 0 0 0 1 0 0 0 0 1 0 0 0 0 1 0 0 0 1 0"/>
<feBlend mode="normal" in2="BackgroundImageFix" result="effect1_dropShadow_819_361"/>
<feBlend mode="normal" in="SourceGraphic" in2="effect1_dropShadow_819_361" result="shape"/>
</filter>
<clipPath id="clip0_819_361">
<rect width="986" height="546" fill="white"/>
</clipPath>
</defs>
</svg>
