<svg width="385" height="209" viewBox="0 0 385 209" fill="none" xmlns="http://www.w3.org/2000/svg">
<g clip-path="url(#clip0_73_40)">
<path d="M61.5696 95.5051L3.51832 87.8373L16.3446 25.7534L73.1534 36.0292L61.5696 95.5051Z" fill="white"/>
<path d="M31.9262 81.7895C30.9883 81.6551 29.2524 81.3487 27.5627 80.1683C25.8014 78.9713 24.9279 77.526 24.3518 76.552C23.19 74.6147 22.7652 72.8423 22.4691 71.408C22.3316 70.5028 21.911 68.416 22.0288 65.5819C22.0898 64.0076 22.3345 62.4645 22.6333 60.9895C24.2593 53.0302 28.5374 46.6683 29.145 45.8871C30.1529 44.4265 31.5393 42.6525 33.3274 40.8174C34.7375 40.4917 36.2708 40.2003 37.9461 40.1144C40.2043 39.948 42.3281 40.1229 44.166 40.4443C46.7797 40.8983 48.8917 41.6313 50.5001 42.4105L49.7092 45.7352C50.2387 46.1946 50.8228 46.7323 51.4915 47.1441C52.2048 47.6346 52.8639 48.0569 53.4961 48.3489C52.2388 49.6804 50.5982 51.6296 49.2659 54.2624C48.4058 56.0398 47.8327 57.691 47.4979 59.0563C46.7764 59.1946 46.0104 59.2541 45.245 59.3238C43.5812 59.4395 42.0267 59.3164 40.6184 59.0845C39.6392 58.932 38.728 58.7252 37.8848 58.4644C38.7359 57.103 40.1003 54.7017 40.7215 51.6188C40.9631 50.4104 41.1067 49.065 41.0124 47.6203C40.9611 46.6195 40.8311 45.6632 40.6256 44.8121C40.3391 44.9484 39.9165 45.1931 39.4593 45.551C37.2253 47.1758 36.1267 49.4318 35.014 51.81C34.1519 53.547 33.6688 54.9807 33.6132 55.2775C33.1542 56.5883 32.4036 58.725 31.8797 61.3367C31.5493 62.9855 31.2759 64.9559 31.2403 67.0255C31.1274 70.1533 30.9415 76.792 33.4178 77.5267L33.6727 77.5643C35.4666 77.817 37.7844 75.4581 39.2948 73.9312C40.8123 72.3431 41.8165 70.8117 42.4251 69.6554L38.2353 68.4611L33.1481 67.1305C33.6159 66.3868 34.1859 65.4656 34.9397 64.5755C36.3081 62.843 37.7468 61.6948 38.844 60.9898C39.7863 61.0125 40.7826 61.1034 41.8234 61.273L43.7139 61.6323C48.2183 62.6482 49.6257 64.0458 52.1683 65.6792C51.0567 68.473 48.3073 74.4525 42.1619 78.5382C40.2035 79.8144 36.5364 82.3033 32.1604 81.818L31.9156 81.7799L31.9262 81.7895Z" fill="white"/>
<path d="M109.998 97.0572L53.6986 83.4915L75.6206 21.5801L129.899 37.5605L109.998 97.0572Z" fill="white"/>
<path d="M112.497 52.0352C112.364 50.633 111.911 49.2878 111.159 48.0391C110.406 46.7802 109.346 45.6485 108.01 44.6527C106.674 43.6569 105.025 42.8697 103.114 42.3088L80.2321 35.5448C79.9953 35.4657 79.7578 35.5691 79.6965 35.7547L65.9449 73.0721C65.8734 73.2582 66.0054 73.4643 66.2513 73.5226L75.9134 76.0582C76.0164 76.0935 76.1471 76.0766 76.2464 76.0411C76.3458 76.0056 76.4224 75.9206 76.4586 75.8377L81.6578 61.583L90.6693 64.0607C92.876 64.6672 94.3265 65.5254 94.9683 66.5974C95.6319 67.6987 95.7813 69.2317 95.415 71.1663C95.1284 72.6812 94.7449 74.2821 94.2834 75.9377C93.8127 77.6141 93.6185 79.1546 93.7172 80.4875C93.7249 80.6392 93.8528 80.7644 94.0269 80.8062L103.269 83.2315C103.269 83.2315 103.299 83.2401 103.319 83.239C103.452 83.2626 103.592 83.2251 103.689 83.139C103.796 83.0524 103.839 82.9083 103.782 82.7896C103.55 82.2034 103.465 81.5287 103.507 80.7865C103.549 80.014 103.669 79.197 103.869 78.3657C104.068 77.5141 104.279 76.6924 104.512 75.9101C104.754 75.1071 104.962 74.4173 105.134 73.8206C105.388 72.8648 105.571 71.8824 105.692 70.893C105.812 69.8833 105.772 68.9021 105.573 67.9798C105.374 67.0473 104.984 66.1651 104.428 65.3726C103.991 64.7564 103.406 64.1884 102.671 63.6787C104.985 63.408 106.9 62.6814 108.357 61.4917C109.97 60.1826 111.185 58.4174 111.954 56.2493C112.458 54.8348 112.648 53.406 112.506 52.0144L112.497 52.0352ZM87.5467 45.3873L97.3556 48.2194C99.3583 48.7959 100.726 49.6077 101.435 50.6255C102.135 51.6337 102.184 52.9895 101.591 54.6518C100.972 56.3865 100.028 57.5093 98.7872 57.9885C97.5368 58.4682 95.8855 58.4312 93.8732 57.8653L84.0069 55.0969L87.5467 45.3873Z" fill="white"/>
<path d="M165.52 99.006L117.372 99.7709L115.863 44.6557L164.023 46.1101L165.52 99.006Z" fill="white"/>
<path d="M131.875 90.138C130.003 90.1326 127.598 90.0125 126.798 89.8001C129.774 79.7545 132.484 69.2461 135.215 57.7737C136.446 57.7106 138.073 57.6576 139.583 57.712C141.094 57.7663 142.487 57.9077 143.324 58.0372C146.461 69.3102 150.056 79.6272 154.241 90.1978C153.426 90.2903 152.434 90.2904 151.23 90.2812C149.418 90.2727 147.652 90.1605 147.31 90.0057C147.31 90.0057 145.865 83.9371 144.676 80.8761C144.084 79.386 143.793 79.2387 140.623 79.1883L140.34 79.1826C135.854 79.1185 135.414 79.4249 135.052 80.8524C134.286 83.8718 133.674 90.0964 133.674 90.0964C133.221 90.1501 132.543 90.1443 131.865 90.1385L131.875 90.138ZM141.397 66.6404C140.597 64.0662 140.18 63.0334 139.339 63.0157C138.498 62.9979 138.034 64.4104 137.375 66.9479L136.015 72.4C135.766 73.4669 135.563 74.2376 135.579 74.7537C135.61 75.9381 136.625 76.0077 139.714 76.0521L139.997 76.0578C142.783 76.1077 143.732 76.0692 143.699 74.8443C143.684 74.3383 143.558 73.6656 143.255 72.6979L141.417 66.6393L141.397 66.6404Z" fill="white"/>
<path d="M205.286 90.6732L164.682 96.8697L153.163 41.3248L194.473 37.0687L205.286 90.6732Z" fill="white"/>
<path d="M182.986 62.0963C183.328 62.0585 183.888 63.1245 184.048 63.8765C184.077 64.0373 183.611 64.4159 183.42 64.446C183.078 64.4939 179.555 64.8569 179.012 64.9253C178.861 64.9432 178.687 65.2967 178.728 65.4974C178.864 66.1797 180.413 73.4897 180.964 75.1745C181.296 76.313 181.492 76.7794 184.017 76.8831C184.919 76.918 185.33 77.2314 185.369 77.3916C185.423 77.6726 184.97 78.1013 183.945 78.2451C183.362 78.3256 181.475 78.4224 180.209 78.5988C176.682 79.0836 174.45 79.5629 173.305 79.723C172.762 79.8015 172.028 79.6972 171.935 79.256C171.906 79.0952 172.32 78.6686 172.846 78.4693C174.668 77.6867 174.588 77.3258 174.259 75.4371C173.972 73.7894 172.968 68.4179 172.523 66.2513C172.47 66.0107 172.238 65.83 172.038 65.8606C171.356 65.9867 170.602 66.0862 169.921 66.2123C169.719 66.2328 169.349 65.9173 169.294 65.6363C169.266 65.4755 170.567 64.4054 171.565 63.5433C171.864 63.2543 171.89 63.1719 171.849 62.9712C171.565 61.5667 171.682 58.9151 172.505 57.0078C173.35 54.9372 174.494 53.3683 176.516 51.9469C178.26 50.6412 180.219 49.9731 181.778 49.7918C183.137 49.6411 184.459 49.7761 185.367 50.1147C185.955 50.3279 186.956 51.1077 187.079 51.74C187.282 52.7331 186.483 53.9195 185.622 54.3082C185.395 54.4212 184.786 54.5741 184.595 54.594C184.213 54.644 183.706 54.6193 182.886 54.0228C181.734 53.2608 180.158 52.1353 178.89 52.2814C178.156 52.3697 177.905 52.5954 177.632 52.9946C177.045 53.795 176.641 55.7721 178.005 62.4428C178.031 62.5631 178.401 62.6759 178.452 62.6734L182.986 62.1064L182.986 62.0963Z" fill="white"/>
<path d="M226.751 90.536L187.529 84.3966L196.631 30.998L235.144 38.8968L226.751 90.536Z" fill="white"/>
<path d="M216.291 58.0275C216.618 58.0817 216.757 59.2099 216.642 59.9354C216.62 60.0886 216.064 60.2996 215.88 60.2684C215.554 60.2142 212.24 59.5225 211.729 59.4371C211.586 59.4141 211.306 59.6717 211.276 59.8659C211.167 60.5201 210.032 67.5927 209.947 69.2797C209.853 70.4096 209.867 70.8853 212.126 71.7123C212.93 72.0055 213.204 72.4071 213.181 72.5603C213.134 72.8263 212.571 73.0883 211.591 72.9256C211.029 72.8327 209.286 72.3748 208.081 72.1729C204.702 71.596 202.516 71.3837 201.424 71.1965C200.903 71.1116 200.27 70.7994 200.349 70.3697C200.372 70.2165 200.904 69.9459 201.449 69.918C203.372 69.7282 203.435 69.3803 203.788 67.5681C204.101 65.991 205.061 60.8331 205.41 58.7575C205.449 58.5224 205.296 58.2971 205.102 58.2665C204.44 58.1889 203.735 58.0527 203.063 57.9757C202.869 57.9451 202.646 57.5409 202.693 57.2749C202.716 57.1217 204.275 56.535 205.473 56.0377C205.839 55.8669 205.897 55.8032 205.937 55.6085C206.161 54.259 207.185 51.9157 208.586 50.435C210.062 48.8186 211.625 47.735 213.937 47.0387C215.957 46.3675 217.948 46.3263 219.42 46.6158C220.698 46.8645 221.837 47.3636 222.543 47.9255C222.997 48.2874 223.634 49.2684 223.534 49.8716C223.38 50.8221 222.259 51.6601 221.343 51.7577C221.102 51.7903 220.493 51.7506 220.319 51.719C219.951 51.6466 219.508 51.4869 218.973 50.7135C218.192 49.6993 217.156 48.2421 215.961 48.0196C215.266 47.8829 214.959 48.0202 214.579 48.3033C213.777 48.8512 212.729 50.5065 211.67 56.896C211.655 57.0082 211.95 57.2262 211.991 57.2343L216.281 58.028L216.291 58.0275Z" fill="white"/>
<path d="M255.763 107.325L216.905 108.293L215.451 58.4152L254.309 59.2111L255.763 107.325Z" fill="white"/>
<path d="M230.098 95.2299C229.157 95.2274 228.393 94.922 228.387 94.6182C228.38 94.2739 228.794 94.0601 230.026 93.8145C231.427 93.5197 231.895 92.9686 232.065 92.5443C232.298 91.9445 232.385 88.7065 232.348 84.8262C232.333 83.5497 232.328 82.8607 232.211 82.3498C232.153 82.0081 231.44 81.5277 230.38 80.7813C230.02 80.4753 229.612 80.2124 229.609 79.9592C229.601 79.6149 230.303 79.285 231.36 79.1801C233.875 78.8891 237.984 77.9081 238.907 77.7594C239.199 77.7242 239.489 78.0641 239.488 78.2365C239.33 80.0995 239.324 85.8978 239.349 88.3597C239.36 89.17 239.428 90.4843 239.493 91.9609C239.556 93.1942 239.964 93.447 241.469 93.7956C242.331 94.015 242.799 94.2647 242.798 94.6499C242.798 95.0351 241.938 95.2414 241.017 95.2379C240.612 95.2384 237.377 95.09 236.101 95.0844C234.239 95.0784 231.08 95.2303 230.078 95.2309L230.098 95.2299ZM239.435 71.6809C239.445 73.2516 237.261 74.4684 235.7 74.4267C235.123 74.4158 233.833 74.1271 233.128 73.5956C232.425 73.1046 231.886 72.4531 231.886 71.4799C231.878 70.9229 232.167 70.0363 232.919 69.5112C233.612 69.0196 234.889 68.6703 236.055 68.7119C238.315 68.7785 239.432 70.6269 239.436 71.691L239.435 71.6809Z" fill="white"/>
<path d="M279.44 102.361L241.244 96.5136L249.146 46.937L286.709 54.4589L279.44 102.361Z" fill="white"/>
<path d="M271.729 63.8527C271.892 63.8849 272.353 64.1958 272.29 64.9389C272.319 64.7145 272.08 67.1594 271.943 68.0382C271.823 68.8451 271.02 68.7748 270.723 68.719L267.005 68.0379C266.709 67.9821 266.524 68.3261 266.502 68.4793C265.756 73.2715 265.004 78.1451 264.248 82.958C263.959 84.8075 264.002 85.6568 264.307 86.4622C264.518 87.0292 265.39 87.8562 265.972 87.9581C266.349 88.0199 267.312 87.6462 267.856 87.2027C268.245 86.8888 268.522 86.7834 268.685 86.8054C268.849 86.8275 268.938 87.3804 268.817 88.1874C268.703 88.923 268.068 89.9591 267.755 90.3603C266.281 92.4023 264.253 93.5198 262.264 93.2062C260.571 92.9382 259.163 91.3379 258.664 89.4984C258.311 88.1379 258.151 87.1933 258.661 83.9134C259.096 81.1542 260.922 70.5695 261.326 67.9843C261.41 67.463 260.77 66.8167 259.938 65.9775C259.629 65.6892 259.614 65.0007 259.705 64.4081C259.751 64.1119 259.767 64.0401 260.011 63.8553C262.843 61.6524 264.541 60.2274 265.977 58.4509C266.632 57.5963 266.985 56.9801 267.148 57.0123C267.526 57.0841 267.972 58.075 267.881 58.6675L267.287 62.4889C267.258 62.7134 267.394 63.193 267.558 63.2252C268.478 63.401 271.545 63.8216 271.709 63.8538L271.729 63.8527Z" fill="white"/>
<path d="M295.458 121.498L265.029 103.12L290.466 63.7844L319.419 82.786L295.458 121.498Z" fill="white"/>
<path d="M282.162 99.2109C281.451 98.7506 281.024 98.1339 281.184 97.8926C281.362 97.6199 281.789 97.6588 282.862 98.06C284.09 98.514 284.737 98.3085 285.098 98.0569C285.586 97.6974 287.38 95.193 289.409 92.1292C290.076 91.1219 290.433 90.5866 290.612 90.1315C290.748 89.8305 290.459 89.1155 290.049 88.0317C289.937 87.6218 289.764 87.2151 289.896 87.0158C290.074 86.7532 290.777 86.8287 291.638 87.2508C293.702 88.2296 297.347 89.4518 298.132 89.7764C298.371 89.8858 298.412 90.2993 298.328 90.4253C297.234 91.799 294.179 96.3447 292.902 98.2955C292.48 98.9355 291.836 100.002 291.109 101.215C290.513 102.219 290.686 102.626 291.648 103.631C292.194 104.221 292.419 104.655 292.212 104.96C292.005 105.265 291.243 105.01 290.541 104.549C290.228 104.352 287.823 102.651 286.85 102.022C285.427 101.101 282.926 99.6887 282.172 99.2002L282.162 99.2109ZM301.698 85.306C300.89 86.5232 298.598 86.4278 297.425 85.6466C296.995 85.3544 296.163 84.5152 295.902 83.7785C295.623 83.063 295.554 82.3063 296.061 81.5505C296.343 81.1204 297.023 80.5686 297.871 80.5252C298.658 80.4848 299.798 80.8217 300.668 81.4056C302.345 82.536 302.233 84.498 301.689 85.3267L301.698 85.306Z" fill="white"/>
<path d="M156.188 165.503L107.166 161.447L117.725 103.888L165.8 110.202L156.188 165.503Z" fill="white"/>
<path d="M139.457 152.392C139.457 152.392 143.137 143.243 144.105 138.632C144.911 134.82 145.006 134.095 144.684 133.747C144.32 133.35 143.289 133.18 140.485 132.959C133.861 132.437 133.004 132.511 132.277 132.933C131.619 133.312 131.061 134.861 130.307 137.525C128.506 143.851 126.851 150.849 126.851 150.849C124.874 150.97 122.037 150.903 119.636 150.844C119.636 150.844 122.514 143.043 125.388 133.966C129.619 120.561 130.276 117.385 130.276 117.385C131.991 117.47 133.589 117.662 135.229 117.861C135.229 117.861 134.128 121.07 133.166 124.414C132.486 126.75 132.039 128.293 132.543 128.845C132.908 129.242 133.634 129.397 136.114 129.615C141.735 130.107 143.852 130.151 144.618 129.696C145.256 129.308 145.396 128.673 146.024 125.721C146.596 123.067 147.142 119.106 147.142 119.106C148.92 119.248 151.194 119.597 152.512 119.834C152.512 119.834 151.887 122.643 151.251 126.041C148.13 142.734 148.565 152.594 148.565 152.594C147.049 152.834 141.405 152.485 139.447 152.383L139.457 152.392Z" fill="white"/>
<path d="M182.504 164.235L148.569 141.819L180.987 105.43L213.078 128.204L182.504 164.235Z" fill="white"/>
<path d="M194.731 126.398C194.896 128.244 194.308 130.383 192.983 132.366C192.682 132.818 191.5 133.648 191.001 133.39C190.502 133.132 184.053 129.702 182.066 128.648C181.816 128.509 181.485 128.577 181.241 128.751C180.848 129.167 180.223 130 179.714 130.735C179.131 131.596 177.765 134.373 177.631 136.093C177.454 138.565 178.659 140.358 180.437 141.291C182.215 142.223 183.785 142.254 185.586 141.26C185.95 141.059 186.421 140.771 186.587 140.854C186.712 140.918 186.661 141.509 186.388 141.908C186.238 142.139 185.774 142.75 185.176 143.136C182.093 145.179 178.399 146.94 174.387 144.875C169.306 142.267 169.89 135.506 174.305 129.056C177.478 124.423 182.488 120.893 187.563 120.612C189.066 120.505 190.504 120.735 191.795 121.439C193.575 122.402 194.636 124.355 194.731 126.398ZM183.299 126.051C183.059 126.317 183.08 126.711 183.246 126.804C184.343 127.467 185.223 127.858 187.324 128.977C187.865 129.263 189.29 129.018 190.277 127.548C191.264 126.079 191.517 123.521 190.518 122.985C188.811 122.058 185.405 123.703 183.299 126.051Z" fill="white"/>
<path d="M237.14 161.749L195.261 157.874L203.78 106.715L244.944 112.431L237.14 161.749Z" fill="white"/>
<path d="M209.513 150.251C207.895 150.07 205.843 149.73 205.182 149.459C209.534 140.387 213.732 130.897 218.089 120.548C219.165 120.604 220.577 120.704 221.861 120.892C223.146 121.079 224.333 121.343 225.031 121.54C225.773 132.267 227.081 142.184 228.871 152.432C228.143 152.449 227.288 152.35 226.25 152.231C224.682 152.048 223.171 151.781 222.899 151.602C222.899 151.602 222.713 145.814 222.217 142.839C221.961 141.403 221.74 141.231 219.01 140.885L218.766 140.857C214.896 140.376 214.463 140.621 213.902 141.917C212.707 144.654 211.079 150.394 211.079 150.394C210.684 150.394 210.094 150.333 209.503 150.262L209.513 150.251ZM221.878 129.314C221.641 126.863 221.458 125.869 220.745 125.764C220.031 125.658 219.378 126.939 218.362 129.221L216.226 134.145C215.821 135.118 215.512 135.803 215.435 136.284C215.259 137.387 216.117 137.536 218.775 137.876L219.019 137.904C221.423 138.207 222.246 138.266 222.43 137.121C222.507 136.651 222.515 136.022 222.417 135.085L221.887 129.293L221.878 129.314Z" fill="white"/>
<path d="M291.704 153.894L254.885 175.284L226.346 126.662L265.072 106.534L291.704 153.894Z" fill="white"/>
<path d="M265.187 125.351C264.225 124.559 263.142 123.966 261.95 123.601C260.757 123.236 259.476 123.11 258.146 123.218C256.816 123.337 255.451 123.752 254.101 124.449L237.913 132.8C237.746 132.89 237.684 133.075 237.773 133.223L254.575 162.933C254.654 163.081 254.859 163.131 255.016 163.042L261.481 159.467C261.55 159.433 261.607 159.359 261.633 159.277C261.659 159.195 261.655 159.114 261.621 159.045L255.341 147.862L261.515 144.535C263.032 143.717 264.314 143.459 265.321 143.762C266.349 144.074 267.383 144.913 268.404 146.26C269.196 147.314 269.995 148.479 270.786 149.705C271.589 150.952 272.43 151.963 273.307 152.698C273.403 152.785 273.545 152.798 273.663 152.731L279.892 149.279C279.892 149.279 279.911 149.268 279.921 149.258C279.999 149.203 280.055 149.109 280.05 149.008C280.044 148.896 279.988 148.798 279.885 148.753C279.408 148.524 278.944 148.172 278.516 147.708C278.066 147.224 277.623 146.679 277.218 146.071C276.792 145.465 276.397 144.857 276.042 144.256C275.677 143.647 275.347 143.126 275.07 142.674C274.609 141.968 274.098 141.275 273.538 140.614C272.967 139.944 272.341 139.368 271.67 138.916C270.989 138.464 270.234 138.138 269.445 137.945C268.83 137.804 268.171 137.777 267.477 137.863C268.508 136.452 269.039 134.965 269.053 133.454C269.068 131.771 268.594 130.032 267.623 128.267C266.987 127.114 266.178 126.131 265.227 125.339L265.187 125.351ZM248.027 134.867L254.906 131.27C256.315 130.539 257.537 130.284 258.551 130.526C259.555 130.769 260.446 131.574 261.193 132.915C261.973 134.314 262.197 135.519 261.851 136.479C261.506 137.45 260.63 138.316 259.241 139.056L252.425 142.689L248.037 134.866L248.027 134.867Z" fill="white"/>
<path d="M313.591 170.866L277.766 167.624L285.093 118.877L320.344 123.74L313.591 170.866Z" fill="white"/>
<path d="M306.292 133.867C306.445 133.89 306.883 134.161 306.819 134.884C306.849 134.67 306.617 137.064 306.499 137.921C306.388 138.717 305.628 138.696 305.363 138.658L301.881 138.239C301.606 138.202 301.432 138.556 301.409 138.699C300.72 143.417 300.014 148.207 299.325 152.936C299.054 154.754 299.096 155.573 299.389 156.349C299.589 156.886 300.406 157.634 300.956 157.697C301.312 157.73 302.211 157.309 302.713 156.847C303.081 156.514 303.338 156.4 303.491 156.412C303.643 156.424 303.731 156.957 303.61 157.754C303.505 158.479 302.911 159.523 302.619 159.944C301.238 162.021 299.338 163.244 297.477 163.066C295.89 162.914 294.57 161.441 294.096 159.691C293.756 158.391 293.609 157.486 294.091 154.258C294.488 151.552 296.19 141.125 296.566 138.582C296.641 138.072 296.044 137.484 295.267 136.723C294.98 136.464 294.956 135.796 295.048 135.214C295.093 134.917 295.1 134.846 295.332 134.652C297.985 132.316 299.568 130.826 300.922 129.003C301.535 128.12 301.867 127.505 302.02 127.528C302.377 127.57 302.799 128.512 302.708 129.094L302.162 132.852C302.132 133.067 302.267 133.526 302.42 133.549C303.286 133.656 306.16 133.874 306.313 133.896L306.292 133.867Z" fill="white"/>
<path d="M339.274 191.606L305.761 175.443L330.323 128.307L362.2 145.527L339.274 191.606Z" fill="white"/>
<path d="M338.986 170.78C339.413 168.062 339.363 165.115 338.818 161.981C338.625 160.967 338.265 159.282 337.733 156.988C337.201 154.704 336.673 152.512 336.155 150.491C335.649 148.51 335.321 147.057 335.194 146.161C335.082 145.356 335.087 144.666 335.219 144.082C335.251 143.918 335.295 143.774 335.359 143.659C335.516 143.357 335.799 143.15 336.188 143.049C336.588 142.947 336.969 143.08 337.374 143.475C337.725 143.811 338.08 144.422 338.3 145.15C338.449 145.7 338.569 146.464 338.627 147.394C338.685 148.334 338.676 149.145 338.6 149.828C338.575 150.133 338.55 150.439 338.536 150.754C338.514 151.11 338.519 151.403 338.553 151.665C338.658 152.349 338.879 152.895 339.203 153.304C339.365 153.499 339.608 153.699 339.973 153.914C340.412 154.175 340.919 154.007 341.494 153.38C342.104 152.639 342.651 152.073 343.118 151.695C343.574 151.317 344.144 150.983 344.797 150.707C345.283 150.509 345.618 150.32 345.839 150.106C345.993 149.946 346.144 149.735 346.272 149.475C346.337 149.35 346.391 149.216 346.445 149.092C346.659 148.533 346.729 147.911 346.652 147.216C346.567 146.541 346.357 145.984 346.032 145.575C345.588 145.01 345.023 144.846 344.368 145.083C344.138 145.135 343.85 145.251 343.514 145.41C343.178 145.569 342.873 145.727 342.577 145.884C342.439 145.962 342.331 146.018 342.233 146.084C342.227 145.973 342.201 145.853 342.184 145.711C341.922 143.181 341.262 141.147 340.203 139.65L339.976 139.368C338.213 137.147 336.307 136.677 334.31 137.986C333.565 138.46 332.952 139.14 332.501 140.014C332.05 140.889 331.758 141.897 331.596 143.081C331.403 144.247 331.388 145.545 331.552 146.956C331.713 148.326 332.066 150.082 332.608 152.173C333.089 154.043 333.604 156.196 334.161 158.58C334.718 160.964 335.089 162.658 335.259 163.612C335.416 164.507 335.526 165.474 335.568 166.486C335.619 167.486 335.602 168.329 335.533 168.961C335.354 170.206 335.073 171.245 334.719 172.023C333.988 173.368 332.67 173.517 330.806 172.477C330.576 172.337 330.377 172.205 330.208 172.072C330.039 171.938 329.858 171.755 329.644 171.533C329.419 171.291 329.117 170.931 328.739 170.464C328.211 169.822 327.831 169.335 327.57 168.963C327.308 168.602 327.064 168.178 326.816 167.684C326.055 166.264 325.503 164.964 325.171 163.825C324.839 162.687 324.622 161.411 324.54 160.006C324.471 159.047 324.481 158.255 324.563 157.694C324.64 157.223 324.781 156.811 324.974 156.426L325.076 156.238C325.223 155.957 325.298 155.842 325.356 155.778C325.356 155.778 325.416 155.775 325.58 155.817C325.928 155.88 326.219 156.038 326.485 156.298C326.794 156.596 327.111 157.056 327.466 157.656C327.985 158.512 328.39 159.302 328.668 159.997C328.947 160.702 329.247 161.61 329.546 162.709C329.785 163.629 329.96 164.269 330.101 164.647C330.254 165.075 330.412 165.391 330.596 165.615C331.017 166.131 331.491 166.309 332.019 166.14C332.467 166.006 332.853 165.641 333.156 165.038L333.248 164.851C333.533 164.299 333.643 163.665 333.587 162.978C333.537 162.393 333.339 161.501 332.992 160.242C332.619 158.892 332.303 157.855 332.033 157.139C331.764 156.422 331.379 155.631 330.922 154.813C330.272 153.57 329.666 152.607 329.125 151.936C329.028 151.809 328.792 151.557 328.418 151.161C328.011 150.736 327.397 150.402 326.566 150.171C324.851 149.479 323.419 150.18 322.322 152.274L322.064 152.764C321.806 153.253 321.58 153.772 321.385 154.309C321.18 154.867 321.022 155.534 320.899 156.29C320.693 157.598 320.641 159.152 320.751 160.9C320.86 162.637 321.106 164.267 321.476 165.768C322.073 167.948 323.126 170.326 324.591 172.836C325.11 173.681 325.655 174.454 326.227 175.144C327.327 176.477 328.524 177.51 329.805 178.235C332.101 179.384 334.08 179.303 335.703 178.004C336.451 177.398 337.106 176.553 337.629 175.503C338.244 174.265 338.719 172.69 339.027 170.799L338.986 170.78Z" fill="white"/>
<path d="M80.9096 88.2496L22.8583 80.5817L35.6745 18.4984L92.4934 28.7737L80.9096 88.2496Z" fill="black"/>
<path d="M51.2662 74.534C50.3284 74.3996 48.5924 74.0932 46.9028 72.9128C45.1414 71.7157 44.2679 70.2705 43.6918 69.2965C42.53 67.3592 42.1053 65.5868 41.8091 64.1525C41.6717 63.2472 41.251 61.1604 41.3689 58.3264C41.4298 56.7521 41.6745 55.209 41.9734 53.734C43.5993 45.7747 47.8774 39.4128 48.485 38.6316C49.4929 37.1709 50.8793 35.397 52.6674 33.5619C54.0775 33.2362 55.6108 32.9447 57.2861 32.8589C59.5443 32.6925 61.6681 32.8674 63.506 33.1888C66.1198 33.6428 68.2317 34.3758 69.8401 35.155L69.0492 38.4797C69.5787 38.9391 70.1628 39.4768 70.8316 39.8885C71.5448 40.3791 72.2039 40.8014 72.8362 41.0934C71.5788 42.4249 69.9382 44.3741 68.6059 47.0068C67.7458 48.7842 67.1727 50.4354 66.8379 51.8007C66.1165 51.9391 65.3505 51.9986 64.585 52.0683C62.9213 52.1839 61.3668 52.0609 59.9584 51.829C58.9792 51.6764 58.068 51.4697 57.2249 51.2088C58.0759 49.8475 59.4404 47.4462 60.0615 44.3633C60.3031 43.1548 60.4467 41.8095 60.3524 40.3648C60.3011 39.3639 60.1711 38.4076 59.9656 37.5566C59.6792 37.6929 59.2566 37.9376 58.7993 38.2955C56.5653 39.9203 55.4667 42.1762 54.3541 44.5545C53.4919 46.2914 53.0088 47.7252 52.9532 48.022C52.4942 49.3328 51.7436 51.4695 51.2197 54.0811C50.8893 55.73 50.6159 57.7004 50.5803 59.77C50.4674 62.8978 50.2815 69.5365 52.7578 70.2712L53.0127 70.3088C54.8067 70.5615 57.1244 68.2026 58.6349 66.6756C60.1523 65.0875 61.1565 63.5562 61.7651 62.3998L57.5753 61.2056L52.4881 59.875C52.9559 59.1313 53.526 58.2101 54.2798 57.32C55.6481 55.5875 57.0869 54.4393 58.1841 53.7343C59.1263 53.757 60.1226 53.8478 61.1635 54.0175L63.0539 54.3767C67.5583 55.3926 68.9657 56.7903 71.5083 58.4237C70.3968 61.2175 67.6473 67.1969 61.5019 71.2827C59.5435 72.5588 55.8765 75.0478 51.5004 74.5625L51.2556 74.5244L51.2662 74.534Z" fill="white"/>
<path d="M129.338 89.8017L73.0385 76.236L94.9606 14.3245L149.238 30.305L129.338 89.8017Z" fill="black"/>
<path d="M131.827 44.7802C131.694 43.378 131.241 42.0328 130.489 40.7841C129.736 39.5252 128.676 38.3935 127.34 37.3977C126.004 36.4019 124.355 35.6147 122.444 35.0538L99.5621 28.2898C99.3253 28.2107 99.0877 28.3141 99.0264 28.4997L85.2748 65.8171C85.2034 66.0032 85.3354 66.2093 85.5812 66.2676L95.2433 68.8032C95.3463 68.8384 95.477 68.8216 95.5763 68.7861C95.6757 68.7506 95.7523 68.6656 95.7885 68.5826L100.988 54.328L109.999 56.8056C112.206 57.4122 113.656 58.2704 114.298 59.3424C114.962 60.4437 115.111 61.9767 114.745 63.9113C114.458 65.4262 114.075 67.0271 113.613 68.6827C113.143 70.359 112.948 71.8996 113.047 73.2325C113.055 73.3842 113.183 73.5094 113.357 73.5512L122.598 75.9765C122.598 75.9765 122.629 75.9851 122.649 75.984C122.782 76.0076 122.922 75.9701 123.019 75.884C123.126 75.7974 123.169 75.6533 123.112 75.5346C122.88 74.9484 122.794 74.2737 122.837 73.5315C122.879 72.759 122.999 71.942 123.199 71.1107C123.398 70.2591 123.609 69.4374 123.842 68.6551C124.084 67.8521 124.292 67.1623 124.464 66.5656C124.718 65.6098 124.901 64.6274 125.022 63.638C125.142 62.6283 125.102 61.6471 124.903 60.7248C124.703 59.7923 124.314 58.9101 123.758 58.1176C123.321 57.5014 122.735 56.9334 122.001 56.4236C124.315 56.153 126.23 55.4264 127.687 54.2367C129.3 52.9276 130.515 51.1624 131.284 48.9943C131.788 47.5798 131.978 46.151 131.836 44.7594L131.827 44.7802ZM106.887 38.1318L116.696 40.9639C118.698 41.5404 120.066 42.3522 120.775 43.37C121.475 44.3782 121.524 45.734 120.931 47.3963C120.312 49.1309 119.368 50.2538 118.127 50.733C116.877 51.2126 115.226 51.1756 113.213 50.6098L103.347 47.8414L106.887 38.1318Z" fill="white"/>
<path d="M184.86 91.7505L136.712 92.5153L135.203 37.4002L183.363 38.8545L184.86 91.7505Z" fill="black"/>
<path d="M151.205 82.883C149.332 82.8776 146.928 82.7575 146.128 82.5451C149.104 72.4995 151.814 61.9911 154.545 50.5187C155.776 50.4556 157.403 50.4026 158.913 50.457C160.424 50.5113 161.817 50.6527 162.654 50.7822C165.791 62.0552 169.386 72.3722 173.571 82.9428C172.756 83.0353 171.764 83.0354 170.56 83.0262C168.748 83.0177 166.982 82.9055 166.64 82.7507C166.64 82.7507 165.195 76.6821 164.006 73.6211C163.414 72.131 163.123 71.9837 159.953 71.9333L159.669 71.9276C155.183 71.8635 154.744 72.1699 154.382 73.5974C153.616 76.6168 153.004 82.8414 153.004 82.8414C152.551 82.895 151.873 82.8893 151.195 82.8835L151.205 82.883ZM160.737 59.3849C159.937 56.8107 159.52 55.7779 158.679 55.7601C157.838 55.7424 157.374 57.1549 156.715 59.6923L155.355 65.1445C155.106 66.2114 154.903 66.982 154.919 67.4982C154.95 68.6826 155.965 68.7522 159.054 68.7966L159.337 68.8023C162.123 68.8522 163.072 68.8136 163.039 67.5888C163.024 67.0828 162.898 66.4101 162.595 65.4424L160.757 59.3838L160.737 59.3849Z" fill="white"/>
<path d="M224.626 83.4177L184.022 89.6141L172.493 34.0698L213.803 29.8137L224.626 83.4177Z" fill="black"/>
<path d="M202.316 54.8413C202.658 54.8035 203.218 55.8695 203.378 56.6215C203.407 56.7823 202.941 57.1609 202.75 57.191C202.408 57.2389 198.885 57.6019 198.342 57.6703C198.191 57.6882 198.017 58.0417 198.058 58.2424C198.194 58.9247 199.743 66.2347 200.294 67.9195C200.626 69.058 200.822 69.5244 203.347 69.6281C204.249 69.663 204.66 69.9764 204.698 70.1366C204.753 70.4176 204.3 70.8463 203.275 70.9901C202.692 71.0706 200.805 71.1674 199.539 71.3437C196.012 71.8286 193.78 72.3079 192.635 72.468C192.092 72.5465 191.358 72.4422 191.265 72.001C191.236 71.8402 191.65 71.4136 192.176 71.2143C193.998 70.4317 193.918 70.0708 193.589 68.1821C193.302 66.5344 192.298 61.1629 191.853 58.9963C191.8 58.7557 191.568 58.575 191.368 58.6056C190.686 58.7317 189.932 58.8312 189.25 58.9573C189.049 58.9778 188.679 58.6623 188.624 58.3813C188.595 58.2205 189.897 57.1504 190.895 56.2883C191.194 55.9993 191.22 55.9169 191.179 55.7162C190.895 54.3117 191.012 51.6601 191.835 49.7528C192.68 47.6822 193.824 46.1133 195.846 44.6919C197.59 43.3862 199.549 42.7181 201.108 42.5368C202.467 42.3861 203.789 42.5211 204.697 42.8597C205.285 43.0729 206.286 43.8527 206.409 44.485C206.612 45.4781 205.813 46.6645 204.952 47.0532C204.725 47.1662 204.116 47.3191 203.925 47.339C203.543 47.389 203.035 47.3643 202.216 46.7678C201.063 46.0058 199.488 44.8803 198.22 45.0263C197.486 45.1147 197.235 45.3404 196.962 45.7396C196.375 46.54 195.971 48.5171 197.335 55.1878C197.361 55.3081 197.731 55.4209 197.782 55.4184L202.316 54.8514L202.316 54.8413Z" fill="white"/>
<path d="M246.091 83.2804L206.869 77.1411L215.971 23.7323L254.484 31.6413L246.091 83.2804Z" fill="black"/>
<path d="M235.632 50.772C235.958 50.8262 236.097 51.9544 235.982 52.6799C235.96 52.8331 235.404 53.044 235.22 53.0129C234.894 52.9587 231.58 52.267 231.069 52.1816C230.926 52.1585 230.646 52.4162 230.616 52.6103C230.507 53.2646 229.372 60.3371 229.287 62.0242C229.193 63.1541 229.207 63.6298 231.466 64.4567C232.27 64.75 232.544 65.1516 232.521 65.3048C232.474 65.5707 231.911 65.8327 230.931 65.6701C230.37 65.5772 228.626 65.1192 227.421 64.9174C224.042 64.3405 221.856 64.1282 220.764 63.9409C220.243 63.8561 219.61 63.5439 219.689 63.1141C219.712 62.9609 220.244 62.6904 220.789 62.6624C222.712 62.4726 222.775 62.1248 223.128 60.3126C223.441 58.7355 224.402 53.5776 224.75 51.502C224.789 51.2669 224.636 51.0416 224.442 51.011C223.78 50.9334 223.075 50.7972 222.403 50.7201C222.209 50.6895 221.986 50.2854 222.033 50.0194C222.056 49.8662 223.615 49.2795 224.813 48.7822C225.179 48.6114 225.237 48.5477 225.277 48.353C225.501 47.0035 226.525 44.6602 227.926 43.1794C229.402 41.5631 230.965 40.4794 233.277 39.7832C235.297 39.112 237.288 39.0708 238.76 39.3602C240.038 39.609 241.177 40.1081 241.883 40.6699C242.337 41.0319 242.974 42.0128 242.874 42.6161C242.72 43.5666 241.599 44.4046 240.683 44.5022C240.442 44.5348 239.833 44.4951 239.659 44.4634C239.291 44.3911 238.848 44.2313 238.313 43.458C237.532 42.4438 236.496 40.9866 235.301 40.7641C234.606 40.6274 234.299 40.7647 233.919 41.0477C233.117 41.5957 232.069 43.2509 231.01 49.6404C230.995 49.7527 231.29 49.9707 231.331 49.9788L235.621 50.7725L235.632 50.772Z" fill="white"/>
<path d="M275.093 100.07L236.245 101.037L234.781 51.1602L273.649 51.9556L275.093 100.07Z" fill="black"/>
<path d="M249.438 87.9744C248.497 87.9719 247.733 87.6665 247.727 87.3627C247.72 87.0184 248.134 86.8046 249.366 86.559C250.767 86.2642 251.235 85.7131 251.405 85.2888C251.638 84.6889 251.725 81.451 251.688 77.5706C251.673 76.2942 251.668 75.6052 251.551 75.0943C251.493 74.7526 250.78 74.2722 249.72 73.5257C249.36 73.2198 248.952 72.9569 248.949 72.7037C248.941 72.3594 249.643 72.0295 250.7 71.9246C253.215 71.6335 257.324 70.6526 258.247 70.5039C258.539 70.4687 258.829 70.8086 258.828 70.981C258.67 72.844 258.664 78.6423 258.689 81.1042C258.7 81.9145 258.768 83.2288 258.833 84.7053C258.896 85.9387 259.304 86.1915 260.809 86.5401C261.671 86.7595 262.139 87.0092 262.138 87.3944C262.138 87.7796 261.278 87.9858 260.357 87.9824C259.952 87.9828 256.717 87.8344 255.441 87.8288C253.579 87.8229 250.42 87.9747 249.418 87.9754L249.438 87.9744ZM258.775 64.4153C258.784 65.986 256.6 67.2028 255.04 67.1611C254.463 67.1501 253.173 66.8615 252.468 66.33C251.764 65.8389 251.225 65.1874 251.226 64.2143C251.217 63.6572 251.506 62.7707 252.258 62.2456C252.951 61.754 254.229 61.4047 255.395 61.4463C257.655 61.5129 258.771 63.3613 258.775 64.4254L258.775 64.4153Z" fill="white"/>
<path d="M298.78 95.1054L260.574 89.2586L268.486 39.6815L306.049 47.2034L298.78 95.1054Z" fill="black"/>
<path d="M291.059 56.5977C291.222 56.6299 291.683 56.9407 291.62 57.6839C291.649 57.4595 291.41 59.9044 291.273 60.7832C291.153 61.5901 290.35 61.5198 290.053 61.464L286.335 60.7829C286.039 60.7271 285.854 61.0711 285.831 61.2243C285.085 66.0165 284.333 70.8901 283.578 75.703C283.289 77.5525 283.332 78.4018 283.637 79.2072C283.848 79.7742 284.72 80.6012 285.302 80.7031C285.679 80.7649 286.642 80.3912 287.186 79.9477C287.574 79.6338 287.852 79.5283 288.015 79.5504C288.178 79.5725 288.268 80.1254 288.147 80.9323C288.033 81.668 287.398 82.7041 287.085 83.1053C285.611 85.1473 283.583 86.2648 281.594 85.9512C279.901 85.6832 278.493 84.0829 277.994 82.2434C277.641 80.8829 277.481 79.9383 277.991 76.6584C278.426 73.8992 280.252 63.3145 280.656 60.7293C280.74 60.208 280.1 59.5617 279.268 58.7225C278.959 58.4342 278.944 57.7457 279.035 57.1531C279.081 56.8569 279.097 56.785 279.341 56.6003C282.173 54.3974 283.87 52.9724 285.307 51.1959C285.962 50.3413 286.315 49.7251 286.478 49.7573C286.856 49.8291 287.302 50.82 287.211 51.4125L286.617 55.2339C286.588 55.4584 286.724 55.938 286.888 55.9702C287.808 56.146 290.875 56.5666 291.038 56.5988L291.059 56.5977Z" fill="white"/>
<path d="M314.788 114.243L284.368 95.8542L309.806 56.5289L338.758 75.5204L314.788 114.243Z" fill="black"/>
<path d="M301.492 91.9559C300.781 91.4957 300.354 90.8789 300.514 90.6376C300.692 90.3649 301.119 90.4038 302.192 90.805C303.42 91.259 304.067 91.0535 304.428 90.8019C304.916 90.4424 306.71 87.938 308.739 84.8742C309.406 83.8669 309.763 83.3316 309.942 82.8765C310.078 82.5755 309.789 81.8605 309.379 80.7767C309.267 80.3668 309.094 79.9601 309.226 79.7608C309.404 79.4982 310.106 79.5737 310.968 79.9958C313.032 80.9746 316.677 82.1968 317.462 82.5214C317.701 82.6308 317.742 83.0443 317.657 83.1703C316.564 84.544 313.508 89.0897 312.232 91.0405C311.81 91.6805 311.166 92.7474 310.439 93.9604C309.843 94.9641 310.016 95.3708 310.978 96.3757C311.524 96.966 311.749 97.4005 311.542 97.7051C311.335 98.0096 310.573 97.7547 309.871 97.294C309.558 97.0972 307.153 95.3959 306.18 94.7667C304.756 93.8462 302.255 92.4337 301.502 91.9452L301.492 91.9559ZM321.027 78.0409C320.219 79.2581 317.928 79.1627 316.754 78.3815C316.324 78.0893 315.492 77.2501 315.232 76.5134C314.952 75.7979 314.883 75.0412 315.391 74.2854C315.672 73.8553 316.352 73.3035 317.2 73.2601C317.987 73.2197 319.128 73.5566 319.998 74.1405C321.675 75.2709 321.563 77.2329 321.018 78.0616L321.027 78.0409Z" fill="white"/>
<path d="M175.518 158.248L126.506 154.191L137.065 96.6329L185.14 102.947L175.518 158.248Z" fill="black"/>
<path d="M158.787 145.137C158.787 145.137 162.467 135.988 163.435 131.377C164.241 127.565 164.336 126.84 164.014 126.492C163.65 126.095 162.619 125.925 159.815 125.704C153.191 125.182 152.334 125.256 151.607 125.678C150.949 126.057 150.39 127.606 149.636 130.27C147.836 136.596 146.181 143.594 146.181 143.594C144.204 143.715 141.367 143.648 138.966 143.589C138.966 143.589 141.844 135.788 144.718 126.711C148.949 113.306 149.606 110.13 149.606 110.13C151.321 110.215 152.919 110.407 154.558 110.606C154.558 110.606 153.458 113.815 152.496 117.159C151.816 119.495 151.369 121.038 151.873 121.59C152.238 121.987 152.964 122.142 155.444 122.36C161.065 122.852 163.182 122.896 163.948 122.441C164.586 122.053 164.726 121.418 165.354 118.466C165.926 115.812 166.472 111.851 166.472 111.851C168.25 111.993 170.524 112.342 171.842 112.579C171.842 112.579 171.217 115.388 170.581 118.786C167.46 135.479 167.895 145.339 167.895 145.339C166.379 145.579 160.735 145.23 158.777 145.128L158.787 145.137Z" fill="white"/>
<path d="M201.844 156.979L167.909 134.564L200.327 98.1749L232.418 120.938L201.844 156.979Z" fill="black"/>
<path d="M214.061 119.143C214.226 120.989 213.638 123.128 212.313 125.111C212.012 125.563 210.83 126.393 210.331 126.135C209.832 125.877 203.383 122.447 201.396 121.393C201.146 121.254 200.815 121.322 200.571 121.496C200.178 121.912 199.553 122.745 199.044 123.48C198.461 124.341 197.095 127.118 196.961 128.838C196.784 131.31 197.989 133.103 199.767 134.036C201.545 134.968 203.115 134.999 204.916 134.005C205.28 133.804 205.751 133.516 205.917 133.599C206.042 133.663 205.991 134.254 205.718 134.653C205.568 134.884 205.104 135.495 204.506 135.881C201.423 137.924 197.729 139.685 193.717 137.62C188.635 135.012 189.22 128.251 193.635 121.801C196.808 117.168 201.818 113.638 206.893 113.357C208.396 113.25 209.834 113.48 211.125 114.184C212.905 115.147 213.966 117.1 214.061 119.143ZM202.639 118.795C202.399 119.061 202.42 119.455 202.586 119.548C203.683 120.212 204.563 120.602 206.664 121.721C207.205 122.008 208.63 121.762 209.617 120.293C210.604 118.823 210.857 116.266 209.858 115.729C208.151 114.803 204.745 116.447 202.639 118.795Z" fill="white"/>
<path d="M256.48 154.493L214.601 150.619L223.12 99.4596L264.284 105.175L256.48 154.493Z" fill="black"/>
<path d="M228.853 142.995C227.235 142.815 225.183 142.474 224.522 142.204C228.874 133.132 233.072 123.642 237.429 113.292C238.505 113.349 239.917 113.449 241.201 113.636C242.486 113.824 243.673 114.087 244.371 114.285C245.113 125.011 246.421 134.929 248.211 145.176C247.483 145.193 246.628 145.095 245.59 144.976C244.022 144.793 242.511 144.525 242.239 144.347C242.239 144.347 242.053 138.558 241.557 135.583C241.301 134.147 241.08 133.976 238.35 133.629L238.106 133.601C234.236 133.12 233.803 133.366 233.242 134.661C232.047 137.399 230.419 143.138 230.419 143.138C230.024 143.138 229.434 143.077 228.843 143.006L228.853 142.995ZM241.218 122.059C240.981 119.608 240.798 118.613 240.085 118.508C239.371 118.403 238.718 119.683 237.702 121.965L235.566 126.889C235.161 127.863 234.852 128.548 234.775 129.028C234.599 130.132 235.457 130.281 238.115 130.621L238.359 130.649C240.763 130.951 241.586 131.01 241.77 129.866C241.847 129.395 241.855 128.767 241.757 127.829L241.227 122.038L241.218 122.059Z" fill="white"/>
<path d="M311.044 146.639L274.225 168.028L245.686 119.407L284.412 99.278L311.044 146.639Z" fill="black"/>
<path d="M284.517 118.096C283.555 117.304 282.472 116.711 281.28 116.346C280.087 115.981 278.806 115.854 277.476 115.963C276.146 116.082 274.781 116.497 273.431 117.194L257.243 125.545C257.076 125.635 257.014 125.82 257.103 125.968L273.905 155.678C273.984 155.826 274.189 155.876 274.346 155.787L280.811 152.212C280.88 152.178 280.937 152.104 280.963 152.022C280.989 151.94 280.985 151.859 280.951 151.789L274.671 140.607L280.845 137.28C282.361 136.462 283.643 136.204 284.651 136.507C285.679 136.819 286.713 137.658 287.733 139.005C288.526 140.059 289.325 141.224 290.116 142.45C290.919 143.697 291.76 144.708 292.637 145.443C292.733 145.53 292.875 145.542 292.993 145.476L299.222 142.024C299.222 142.024 299.241 142.013 299.251 142.002C299.329 141.948 299.385 141.854 299.38 141.753C299.374 141.641 299.318 141.543 299.215 141.497C298.738 141.269 298.274 140.917 297.846 140.453C297.396 139.969 296.953 139.424 296.548 138.816C296.122 138.21 295.726 137.601 295.372 137.001C295.007 136.392 294.676 135.871 294.4 135.419C293.939 134.713 293.428 134.019 292.868 133.359C292.297 132.689 291.671 132.113 291 131.661C290.319 131.209 289.564 130.883 288.775 130.69C288.16 130.549 287.501 130.522 286.807 130.608C287.838 129.197 288.369 127.71 288.383 126.199C288.397 124.516 287.924 122.777 286.953 121.012C286.317 119.859 285.508 118.876 284.556 118.084L284.517 118.096ZM267.357 127.612L274.235 124.015C275.645 123.284 276.866 123.029 277.881 123.271C278.885 123.514 279.776 124.319 280.523 125.66C281.303 127.059 281.526 128.264 281.181 129.224C280.836 130.195 279.96 131.061 278.571 131.801L271.755 135.434L267.367 127.611L267.357 127.612Z" fill="white"/>
<path d="M332.931 163.61L297.106 160.368L304.433 111.622L339.674 116.485L332.931 163.61Z" fill="black"/>
<path d="M325.632 126.612C325.785 126.634 326.223 126.906 326.159 127.629C326.189 127.414 325.957 129.808 325.839 130.666C325.728 131.462 324.968 131.44 324.703 131.403L321.221 130.983C320.946 130.947 320.772 131.3 320.749 131.443C320.06 136.162 319.354 140.952 318.666 145.68C318.394 147.498 318.436 148.317 318.729 149.093C318.929 149.63 319.746 150.379 320.296 150.442C320.652 150.474 321.551 150.053 322.053 149.592C322.421 149.259 322.678 149.144 322.831 149.156C322.983 149.169 323.071 149.702 322.95 150.499C322.845 151.224 322.251 152.268 321.959 152.688C320.578 154.766 318.678 155.988 316.817 155.81C315.231 155.658 313.91 154.185 313.436 152.436C313.096 151.135 312.949 150.231 313.431 147.003C313.829 144.296 315.53 133.87 315.906 131.327C315.981 130.816 315.384 130.228 314.607 129.467C314.32 129.208 314.296 128.541 314.388 127.958C314.433 127.662 314.44 127.591 314.672 127.396C317.325 125.061 318.908 123.571 320.262 121.748C320.875 120.865 321.207 120.25 321.36 120.272C321.717 120.315 322.139 121.256 322.048 121.839L321.502 125.597C321.472 125.811 321.607 126.27 321.76 126.293C322.626 126.401 325.5 126.618 325.653 126.641L325.632 126.612Z" fill="white"/>
<path d="M358.604 184.351L325.101 168.178L349.652 121.042L381.53 138.272L358.604 184.351Z" fill="black"/>
<path d="M358.326 163.525C358.753 160.807 358.703 157.86 358.158 154.725C357.965 153.711 357.605 152.027 357.073 149.733C356.541 147.449 356.013 145.256 355.495 143.235C354.989 141.254 354.661 139.801 354.534 138.905C354.422 138.1 354.427 137.411 354.559 136.826C354.591 136.662 354.635 136.518 354.7 136.403C354.856 136.101 355.139 135.894 355.528 135.793C355.928 135.692 356.309 135.824 356.714 136.219C357.065 136.556 357.42 137.166 357.64 137.895C357.789 138.445 357.909 139.209 357.967 140.138C358.025 141.078 358.016 141.89 357.94 142.573C357.915 142.878 357.89 143.183 357.876 143.498C357.854 143.854 357.859 144.148 357.893 144.41C357.998 145.094 358.219 145.64 358.543 146.049C358.705 146.243 358.948 146.444 359.313 146.658C359.752 146.919 360.259 146.752 360.834 146.124C361.444 145.383 361.991 144.818 362.458 144.439C362.914 144.061 363.484 143.728 364.137 143.451C364.623 143.254 364.958 143.064 365.179 142.85C365.333 142.69 365.484 142.48 365.612 142.22C365.677 142.095 365.731 141.96 365.785 141.836C365.999 141.278 366.069 140.656 365.993 139.96C365.907 139.286 365.697 138.729 365.372 138.32C364.928 137.754 364.363 137.591 363.708 137.827C363.478 137.879 363.19 137.996 362.854 138.155C362.518 138.314 362.213 138.471 361.917 138.628C361.779 138.706 361.671 138.763 361.573 138.829C361.568 138.717 361.541 138.597 361.524 138.456C361.262 135.925 360.602 133.891 359.543 132.395L359.316 132.112C357.553 129.892 355.647 129.422 353.65 130.73C352.905 131.204 352.292 131.884 351.841 132.759C351.39 133.634 351.098 134.642 350.936 135.826C350.743 136.991 350.728 138.29 350.892 139.7C351.053 141.071 351.406 142.826 351.948 144.917C352.429 146.788 352.944 148.941 353.501 151.325C354.058 153.709 354.429 155.403 354.599 156.357C354.756 157.251 354.866 158.219 354.908 159.23C354.959 160.231 354.942 161.073 354.873 161.705C354.694 162.951 354.413 163.989 354.059 164.767C353.328 166.113 352.01 166.261 350.146 165.221C349.916 165.081 349.717 164.949 349.548 164.816C349.379 164.683 349.198 164.5 348.984 164.277C348.759 164.036 348.457 163.676 348.079 163.209C347.551 162.567 347.171 162.08 346.91 161.708C346.648 161.346 346.404 160.923 346.156 160.429C345.395 159.008 344.843 157.708 344.511 156.57C344.18 155.431 343.962 154.155 343.88 152.75C343.811 151.791 343.821 151 343.903 150.438C343.98 149.968 344.121 149.555 344.314 149.17L344.416 148.983C344.563 148.701 344.638 148.586 344.696 148.522C344.696 148.522 344.756 148.519 344.92 148.562C345.268 148.625 345.559 148.782 345.825 149.042C346.134 149.341 346.451 149.801 346.806 150.401C347.325 151.256 347.73 152.046 348.008 152.742C348.287 153.447 348.587 154.354 348.886 155.454C349.125 156.374 349.3 157.014 349.441 157.392C349.594 157.82 349.752 158.136 349.936 158.36C350.357 158.875 350.831 159.054 351.359 158.885C351.807 158.75 352.193 158.386 352.496 157.782L352.588 157.595C352.873 157.043 352.983 156.409 352.927 155.723C352.877 155.138 352.679 154.246 352.332 152.986C351.959 151.637 351.643 150.599 351.373 149.883C351.104 149.167 350.719 148.376 350.262 147.558C349.612 146.314 349.006 145.352 348.465 144.68C348.368 144.553 348.132 144.302 347.758 143.905C347.352 143.48 346.737 143.147 345.906 142.916C344.191 142.223 342.759 142.925 341.662 145.019L341.404 145.508C341.146 145.998 340.92 146.516 340.725 147.053C340.52 147.611 340.362 148.278 340.239 149.035C340.033 150.343 339.981 151.896 340.091 153.644C340.2 155.382 340.446 157.011 340.816 158.513C341.413 160.692 342.466 163.071 343.931 165.581C344.45 166.426 344.995 167.198 345.567 167.889C346.667 169.221 347.864 170.255 349.145 170.979C351.441 172.129 353.42 172.048 355.043 170.748C355.791 170.142 356.446 169.298 356.969 168.247C357.584 167.009 358.059 165.434 358.367 163.543L358.326 163.525Z" fill="white"/>
</g>
<defs>
<clipPath id="clip0_73_40">
<rect width="374.934" height="189.555" fill="white" transform="translate(0 19.1916) rotate(-2.93406)"/>
</clipPath>
</defs>
</svg>
