<svg width="300" height="104" viewBox="0 0 300 104" fill="none" xmlns="http://www.w3.org/2000/svg">
<g clip-path="url(#clip0_149_9)">
<path d="M49.3065 11.9554L0.00141907 22.6426L14.3766 88.9625L63.6817 78.2753L49.3065 11.9554Z" fill="white"/>
<path d="M45.54 57.7002C43.68 54.6202 41.09 51.7102 37.82 49.0402C36.74 48.1802 34.91 46.8102 32.37 44.9602C29.84 43.1202 27.4 41.3802 25.11 39.8002C22.87 38.2502 21.28 37.0702 20.38 36.2902C19.56 35.5802 18.98 34.8902 18.62 34.1902C18.51 34.0002 18.44 33.8202 18.4 33.6402C18.31 33.2002 18.43 32.7602 18.76 32.3102C19.09 31.8602 19.62 31.6702 20.38 31.7202C21.05 31.7602 21.94 32.0602 22.81 32.6002C23.45 33.0202 24.22 33.6902 25.09 34.5702C25.97 35.4602 26.65 36.2802 27.16 37.0402C27.39 37.3702 27.64 37.7002 27.89 38.0202C28.18 38.4002 28.43 38.6802 28.69 38.9202C29.4 39.5102 30.1 39.8802 30.79 40.0002C31.13 40.0602 31.57 40.0502 32.14 39.9502C32.84 39.8302 33.24 39.2302 33.32 38.1202C33.35 36.8502 33.45 35.8102 33.63 35.0302C33.81 34.2602 34.13 33.4302 34.6 32.5902C34.96 31.9702 35.16 31.4802 35.21 31.0902C35.25 30.8002 35.22 30.4602 35.14 30.0802C35.1 29.9002 35.05 29.7102 34.99 29.5402C34.75 28.7902 34.28 28.0902 33.59 27.4702C32.92 26.8602 32.21 26.4802 31.49 26.3502C30.52 26.1702 29.76 26.5002 29.26 27.3002C29.06 27.5602 28.84 27.9202 28.62 28.3802C28.4 28.8302 28.2 29.2502 28.02 29.6702C27.94 29.8602 27.87 30.0302 27.82 30.1802C27.71 30.0802 27.59 29.9702 27.45 29.8402C24.99 27.5202 22.53 26.0502 20.11 25.4702L19.62 25.3802C15.84 24.6802 13.42 25.8602 12.43 28.8902C12.05 30.0002 11.99 31.2002 12.26 32.4702C12.53 33.7402 13.09 34.9802 13.93 36.2902C14.72 37.6102 15.82 38.9202 17.19 40.1902C18.52 41.4202 20.4 42.8702 22.76 44.5002C24.86 45.9602 27.26 47.6702 29.88 49.5702C32.51 51.4802 34.36 52.8602 35.36 53.6602C36.3 54.4202 37.23 55.3002 38.14 56.2602C39.04 57.2202 39.75 58.0802 40.21 58.7602C41.08 60.1502 41.67 61.4202 41.94 62.4902C42.3 64.4302 41 65.6602 38.1 66.1502C37.74 66.2002 37.41 66.2302 37.11 66.2402C36.82 66.2402 36.46 66.2202 36.05 66.1602C35.61 66.1002 34.98 65.9902 34.17 65.8402C33.07 65.6402 32.24 65.4602 31.65 65.3102C31.07 65.1602 30.45 64.9502 29.77 64.6502C27.76 63.8702 26.08 63.0402 24.76 62.1802C23.44 61.3202 22.14 60.2402 20.86 58.9302C19.97 58.0402 19.32 57.2602 18.93 56.6302C18.62 56.1002 18.41 55.5802 18.29 55.0402L18.23 54.7802C18.14 54.3702 18.13 54.2102 18.13 54.0902C18.13 54.0902 18.18 54.0302 18.41 53.9402C18.83 53.7202 19.27 53.6402 19.77 53.6702C20.35 53.7102 21.07 53.8902 21.95 54.2002C23.22 54.6202 24.32 55.0602 25.2 55.5202C26.1 55.9802 27.19 56.6402 28.43 57.4802C29.47 58.2002 30.2 58.6802 30.66 58.9402C31.19 59.2402 31.63 59.4202 32 59.4902C32.89 59.6502 33.55 59.4402 33.97 58.8402C34.34 58.3402 34.43 57.6502 34.25 56.8002L34.19 56.5402C34.02 55.7502 33.6 55.0302 32.96 54.4002C32.41 53.8602 31.44 53.1302 29.99 52.1802C28.45 51.1502 27.22 50.3802 26.32 49.9002C25.42 49.4202 24.35 48.9502 23.16 48.5102C21.42 47.8202 19.95 47.3602 18.81 47.1502C18.6 47.1102 18.13 47.0502 17.41 46.9702C16.62 46.8802 15.7 47.0702 14.63 47.5402C12.25 48.2802 11.36 50.1702 11.99 53.1402L12.14 53.8302C12.29 54.5302 12.49 55.2302 12.74 55.9202C13 56.6302 13.39 57.4202 13.91 58.2602C14.8 59.7202 16.05 61.2802 17.64 62.9102C19.22 64.5302 20.84 65.9302 22.5 67.1002C24.96 68.7602 28.08 70.2502 31.75 71.5402H31.77C33.02 71.9502 34.26 72.2702 35.45 72.4902C37.75 72.9202 39.92 72.9702 41.9 72.6502C45.35 71.9302 47.43 70.2402 48.09 67.6102C48.39 66.3902 48.38 65.0202 48.05 63.5302C47.67 61.7802 46.83 59.8102 45.55 57.6702L45.54 57.7002Z" fill="white"/>
<path d="M124.53 10.012L83.6839 39.623L123.513 94.5647L164.359 64.9537L124.53 10.012Z" fill="white"/>
<path d="M127.65 32.9602C126.39 32.1202 125.02 31.5502 123.56 31.2702C122.1 30.9902 120.59 31.0102 119.06 31.3302C117.53 31.6602 116.01 32.3402 114.56 33.3702L97.45 45.4502C97.27 45.5702 97.24 45.8002 97.36 45.9702L121.19 79.7302C121.31 79.9002 121.54 79.9402 121.71 79.8202L128.69 74.8902C128.77 74.8402 128.83 74.7502 128.84 74.6502C128.85 74.5502 128.84 74.4502 128.78 74.3702L119.68 61.4902L126.35 56.7802C128 55.6102 129.47 55.1502 130.7 55.4002C131.97 55.6602 133.33 56.5702 134.75 58.1002C135.86 59.3002 137 60.6302 138.14 62.0502C139.29 63.4902 140.47 64.6402 141.63 65.4502C141.76 65.5402 141.93 65.5402 142.06 65.4502L149.04 60.5202C149.04 60.5202 149.07 60.5002 149.08 60.4902C149.17 60.4102 149.21 60.2902 149.2 60.1702C149.18 60.0302 149.09 59.9202 148.96 59.8702C148.34 59.6402 147.73 59.2602 147.13 58.7302C146.51 58.1802 145.89 57.5602 145.29 56.8702C144.68 56.1702 144.11 55.4602 143.58 54.7702C143.04 54.0602 142.56 53.4502 142.15 52.9302C141.48 52.1102 140.75 51.3202 139.98 50.5802C139.19 49.8202 138.35 49.2002 137.47 48.7302C136.58 48.2502 135.63 47.9502 134.66 47.8202C133.91 47.7202 133.12 47.7702 132.31 47.9602C133.31 46.1002 133.7 44.2302 133.48 42.3702C133.23 40.3102 132.38 38.2402 130.95 36.2102C130.01 34.8902 128.9 33.7902 127.65 32.9502V32.9602ZM109.24 46.6902L116.58 41.5102C118.09 40.4402 119.48 39.9802 120.7 40.1502C121.91 40.3102 123.08 41.1702 124.16 42.7202C125.29 44.3302 125.75 45.7502 125.5 46.9702C125.25 48.1902 124.37 49.3502 122.85 50.4102L115.51 55.5902L109.23 46.7002L109.24 46.6902Z" fill="white"/>
<path d="M102.37 41.9302H51.92V103.83H102.37V41.9302Z" fill="white"/>
<path d="M95.76 78.0399C95.69 77.9599 95.59 77.9199 95.48 77.9199H87.08C86.89 77.9199 86.74 78.0599 86.71 78.2399C86.4 80.3499 85.52 82.0699 84.1 83.3499C82.68 84.6299 80.68 85.2799 78.13 85.2799C76.24 85.2799 74.62 84.9699 73.31 84.3699C72.01 83.7699 70.93 82.9599 70.13 81.9699C69.32 80.9699 68.72 79.8299 68.35 78.5799C67.98 77.3199 67.79 75.9999 67.79 74.6599C67.79 73.3199 67.98 71.8899 68.36 70.5799C68.73 69.2899 69.33 68.1099 70.14 67.0999C70.95 66.0899 72.02 65.2799 73.32 64.6799C74.63 64.0799 76.25 63.7699 78.14 63.7699C79.17 63.7699 80.16 63.9099 81.1 64.1899C82.04 64.4699 82.89 64.8599 83.62 65.3599C84.35 65.8499 84.97 66.4399 85.47 67.0899C85.95 67.7299 86.26 68.4399 86.4 69.2099C86.43 69.3899 86.59 69.5199 86.77 69.5199H95.17C95.28 69.5199 95.38 69.4699 95.45 69.3899C95.52 69.3099 95.55 69.1999 95.54 69.0899C95.27 67.1399 94.62 65.3799 93.6 63.8699C92.58 62.3599 91.27 61.0799 89.71 60.0599C88.15 59.0499 86.37 58.2699 84.41 57.7299C82.45 57.1999 80.35 56.9399 78.15 56.9399C75.1 56.9399 72.31 57.3999 69.87 58.2999C67.42 59.1999 65.32 60.4699 63.63 62.0599C61.94 63.6499 60.63 65.5399 59.73 67.6799C58.83 69.8199 58.37 72.1699 58.37 74.6599C58.37 77.1499 58.83 79.3899 59.73 81.4999C60.63 83.6099 61.95 85.4699 63.63 87.0299C65.32 88.5899 67.41 89.8299 69.86 90.7199C72.3 91.5999 75.09 92.0499 78.14 92.0499C80.6 92.0499 82.88 91.7399 84.94 91.1099C87 90.4899 88.83 89.5699 90.37 88.3799C91.91 87.1899 93.17 85.7299 94.12 84.0299C95.06 82.3399 95.65 80.4199 95.88 78.3199C95.89 78.2099 95.86 78.1099 95.79 78.0299L95.76 78.0399Z" fill="white"/>
<path d="M194 40.1201H151.09V91.6701H194V40.1201Z" fill="white"/>
<path d="M177.22 50.2602C178.68 51.8302 179.72 54.1302 180.04 56.7502C180.11 57.3502 179.73 58.8302 179.13 58.9102L168.43 60.2002C168.13 60.2402 167.9 60.4902 167.84 60.8002C167.81 61.4102 167.9 62.5402 168.01 63.5102C168.14 64.6302 169 67.9402 170.11 69.5502C171.71 71.8602 173.96 72.7302 176.07 72.4702C178.18 72.2102 179.5 71.3002 180.28 69.3102C180.44 68.9102 180.62 68.3602 180.82 68.3302C180.97 68.3102 181.34 68.8702 181.41 69.4002C181.45 69.7002 181.5 70.5302 181.27 71.2402C180.19 74.9302 178.4 78.7102 173.68 79.2802C167.75 79.9902 163.48 73.6802 162.47 65.3102C161.74 59.2602 163.28 53.0002 167.2 49.5702C168.35 48.5202 169.69 47.8302 171.25 47.6402C173.41 47.3802 175.68 48.4702 177.22 50.2602ZM167.6 57.1102C167.6 57.4902 167.89 57.8302 168.09 57.8102C169.46 57.7202 170.45 57.5302 172.96 57.2202C173.61 57.1402 174.6 56.0402 174.37 54.0902C174.14 52.1402 172.51 49.6902 171.31 49.8302C169.25 50.0802 167.65 53.6802 167.6 57.1002V57.1102Z" fill="white"/>
<path d="M289.4 29.54H238.95V97.4H289.4V29.54Z" fill="white"/>
<path d="M274.35 49.4698C274.51 49.0098 274.7 48.6798 274.94 48.4798C275.32 48.1398 275.86 47.9098 276.55 47.7898L277.5 47.6298C277.91 47.5598 278.21 47.1998 278.21 46.7798V45.8098C278.21 45.5598 278.1 45.3098 277.9 45.1498C277.71 44.9898 277.45 44.9198 277.2 44.9598L265.94 46.9598C265.62 47.0198 265.36 47.2498 265.27 47.5598L259.23 67.5698L253.5 49.9198C253.37 49.5098 252.95 49.2698 252.53 49.3398L243.77 50.8898C243.36 50.9598 243.06 51.3198 243.06 51.7398V52.5498C243.06 52.7998 243.17 53.0398 243.37 53.2098C243.56 53.3698 243.82 53.4398 244.07 53.3998L244.72 53.2898C244.96 53.2498 245.29 53.2198 245.49 53.3498C245.73 53.5098 245.8 53.6698 245.84 53.7798C245.86 53.8498 245.97 54.2998 245.97 56.3598V75.5298C245.97 77.2698 245.95 77.6298 245.95 77.6698C245.83 78.4198 245.67 78.8298 245.56 79.0398C245.43 79.2798 245.24 79.4798 244.98 79.6298C244.72 79.7798 244.44 79.8498 244.13 79.8398H243.92C243.45 79.8398 243.07 80.2298 243.07 80.6998V81.5098C243.07 81.9798 243.45 82.3698 243.93 82.3698H251.2C251.67 82.3698 252.06 81.9898 252.06 81.5098V80.6598C252.06 80.4298 251.97 80.2098 251.81 80.0498C251.65 79.8898 251.4 79.7898 251.2 79.7998C250.46 79.8198 249.91 79.6498 249.61 79.3498C249.27 78.9998 249.05 78.5498 248.95 77.9898C248.92 77.8298 248.88 77.2598 248.88 75.3598V59.4398L255.95 81.7598C256.06 82.1198 256.39 82.3598 256.77 82.3598H257.19C257.57 82.3598 257.9 82.1198 258.01 81.7598L265.91 56.3198V75.7198C265.91 77.9498 265.78 78.4698 265.74 78.5898C265.61 78.9698 265.44 79.2498 265.26 79.3898C264.96 79.6198 264.51 79.7398 263.95 79.7398H263.13C262.66 79.7398 262.28 80.1298 262.28 80.5998V81.5098C262.28 81.9798 262.66 82.3698 263.14 82.3698H277.35C277.82 82.3698 278.21 81.9898 278.21 81.5098V80.5398C278.21 80.3098 278.12 80.0898 277.96 79.9298C277.8 79.7698 277.58 79.6798 277.35 79.6798H276.4C275.76 79.6698 275.3 79.5698 274.97 79.3398C274.65 79.1098 274.44 78.8698 274.35 78.5998C274.3 78.4398 274.17 77.8298 274.17 75.5298V52.4698C274.17 50.2498 274.3 49.6498 274.35 49.4898V49.4698Z" fill="white"/>
<path d="M256.337 49.7576L218.236 24.2515L185.031 73.8529L223.132 99.3591L256.337 49.7576Z" fill="white"/>
<path d="M202.11 72.89C200.67 71.89 198.9 70.53 198.41 69.92C207.03 62.49 215.78 54.47 225.21 45.54C226.23 46.11 227.57 46.89 228.74 47.71C229.91 48.53 230.95 49.38 231.54 49.92C226.86 61.79 223.13 73.08 219.7 84.99C218.98 84.63 218.19 84.09 217.23 83.42C215.79 82.42 214.45 81.36 214.28 81.04C214.28 81.04 217.01 74.76 218.03 71.34C218.5 69.68 218.38 69.38 215.89 67.66L215.67 67.51C212.17 65.09 211.64 65.13 210.45 66.24C207.94 68.56 203.53 73.81 203.53 73.81C203.15 73.62 202.62 73.25 202.1 72.89H202.11ZM224.51 56.73C225.51 53.99 225.84 52.84 225.18 52.39C224.52 51.94 223.25 52.98 221.11 54.93L216.57 59.14C215.69 59.97 215.05 60.56 214.73 61.03C214.01 62.11 214.76 62.7 217.17 64.36L217.39 64.51C219.58 66.02 220.35 66.49 221.1 65.36C221.41 64.89 221.73 64.22 222.11 63.18L224.51 56.73Z" fill="white"/>
<path d="M59.3111 1.95396L10.0061 12.6411L24.3813 78.961L73.6864 68.2739L59.3111 1.95396Z" fill="black"/>
<path d="M55.54 47.7002C53.68 44.6202 51.09 41.7102 47.82 39.0402C46.74 38.1802 44.91 36.8102 42.37 34.9602C39.84 33.1202 37.4 31.3802 35.11 29.8002C32.87 28.2502 31.28 27.0702 30.38 26.2902C29.56 25.5802 28.98 24.8902 28.62 24.1902C28.51 24.0002 28.44 23.8202 28.4 23.6402C28.31 23.2002 28.43 22.7602 28.76 22.3102C29.09 21.8602 29.62 21.6702 30.38 21.7202C31.05 21.7602 31.94 22.0602 32.81 22.6002C33.45 23.0202 34.22 23.6902 35.09 24.5702C35.97 25.4602 36.65 26.2802 37.16 27.0402C37.39 27.3702 37.64 27.7002 37.89 28.0202C38.18 28.4002 38.43 28.6802 38.69 28.9202C39.4 29.5102 40.1 29.8802 40.79 30.0002C41.13 30.0602 41.57 30.0502 42.14 29.9502C42.84 29.8302 43.24 29.2302 43.32 28.1202C43.35 26.8502 43.45 25.8102 43.63 25.0302C43.81 24.2602 44.13 23.4302 44.6 22.5902C44.96 21.9702 45.16 21.4802 45.21 21.0902C45.25 20.8002 45.22 20.4602 45.14 20.0802C45.1 19.9002 45.05 19.7102 44.99 19.5402C44.75 18.7902 44.28 18.0902 43.59 17.4702C42.92 16.8602 42.21 16.4802 41.49 16.3502C40.52 16.1702 39.76 16.5002 39.26 17.3002C39.06 17.5602 38.84 17.9202 38.62 18.3802C38.4 18.8302 38.2 19.2502 38.02 19.6702C37.94 19.8602 37.87 20.0302 37.82 20.1802C37.71 20.0802 37.59 19.9702 37.45 19.8402C34.99 17.5202 32.53 16.0502 30.11 15.4702L29.62 15.3802C25.84 14.6802 23.42 15.8602 22.43 18.8902C22.05 20.0002 21.99 21.2002 22.26 22.4702C22.53 23.7402 23.09 24.9802 23.93 26.2902C24.72 27.6102 25.82 28.9202 27.19 30.1902C28.52 31.4202 30.4 32.8702 32.76 34.5002C34.86 35.9602 37.26 37.6702 39.88 39.5702C42.51 41.4802 44.36 42.8602 45.36 43.6602C46.3 44.4202 47.23 45.3002 48.14 46.2602C49.04 47.2202 49.75 48.0802 50.21 48.7602C51.08 50.1502 51.67 51.4202 51.94 52.4902C52.3 54.4302 51 55.6602 48.1 56.1502C47.74 56.2002 47.41 56.2302 47.11 56.2402C46.82 56.2402 46.46 56.2202 46.05 56.1602C45.61 56.1002 44.98 55.9902 44.17 55.8402C43.07 55.6402 42.24 55.4602 41.65 55.3102C41.07 55.1602 40.45 54.9502 39.77 54.6502C37.76 53.8702 36.08 53.0402 34.76 52.1802C33.44 51.3202 32.14 50.2402 30.86 48.9302C29.97 48.0402 29.32 47.2602 28.93 46.6302C28.62 46.1002 28.41 45.5802 28.29 45.0402L28.23 44.7802C28.14 44.3702 28.13 44.2102 28.13 44.0902C28.13 44.0902 28.18 44.0302 28.41 43.9402C28.83 43.7202 29.27 43.6402 29.77 43.6702C30.35 43.7102 31.07 43.8902 31.95 44.2002C33.22 44.6202 34.32 45.0602 35.2 45.5202C36.1 45.9802 37.19 46.6402 38.43 47.4802C39.47 48.2002 40.2 48.6802 40.66 48.9402C41.19 49.2402 41.63 49.4202 42 49.4902C42.89 49.6502 43.55 49.4402 43.97 48.8402C44.34 48.3402 44.43 47.6502 44.25 46.8002L44.19 46.5402C44.02 45.7502 43.6 45.0302 42.96 44.4002C42.41 43.8602 41.44 43.1302 39.99 42.1802C38.45 41.1502 37.22 40.3802 36.32 39.9002C35.42 39.4202 34.35 38.9502 33.16 38.5102C31.42 37.8202 29.95 37.3602 28.81 37.1502C28.6 37.1102 28.13 37.0502 27.41 36.9702C26.62 36.8802 25.7 37.0702 24.63 37.5402C22.25 38.2802 21.36 40.1702 21.99 43.1402L22.14 43.8302C22.29 44.5302 22.49 45.2302 22.74 45.9202C23 46.6302 23.39 47.4202 23.91 48.2602C24.8 49.7202 26.05 51.2802 27.64 52.9102C29.22 54.5302 30.84 55.9302 32.5 57.1002C34.96 58.7602 38.08 60.2502 41.75 61.5402H41.77C43.02 61.9502 44.26 62.2702 45.45 62.4902C47.75 62.9202 49.92 62.9702 51.9 62.6502C55.35 61.9302 57.43 60.2402 58.09 57.6102C58.39 56.3902 58.38 55.0202 58.05 53.5302C57.67 51.7802 56.83 49.8102 55.55 47.6702L55.54 47.7002Z" fill="white"/>
<path d="M134.527 0.0164305L93.6808 29.6274L133.51 84.5691L174.356 54.9581L134.527 0.0164305Z" fill="black"/>
<path d="M137.65 22.9602C136.39 22.1202 135.02 21.5502 133.56 21.2702C132.1 20.9902 130.59 21.0102 129.06 21.3302C127.53 21.6602 126.01 22.3402 124.56 23.3702L107.45 35.4502C107.27 35.5702 107.24 35.8002 107.36 35.9702L131.19 69.7302C131.31 69.9002 131.54 69.9402 131.71 69.8202L138.69 64.8902C138.77 64.8402 138.83 64.7502 138.84 64.6502C138.85 64.5502 138.84 64.4502 138.78 64.3702L129.68 51.4902L136.35 46.7802C138 45.6102 139.47 45.1502 140.7 45.4002C141.97 45.6602 143.33 46.5702 144.75 48.1002C145.86 49.3002 147 50.6302 148.14 52.0502C149.29 53.4902 150.47 54.6402 151.63 55.4502C151.76 55.5402 151.93 55.5402 152.06 55.4502L159.04 50.5202C159.04 50.5202 159.07 50.5002 159.08 50.4902C159.17 50.4102 159.21 50.2902 159.2 50.1702C159.18 50.0302 159.09 49.9202 158.96 49.8702C158.34 49.6402 157.73 49.2602 157.13 48.7302C156.51 48.1802 155.89 47.5602 155.29 46.8702C154.68 46.1702 154.11 45.4602 153.58 44.7702C153.04 44.0602 152.56 43.4502 152.15 42.9302C151.48 42.1102 150.75 41.3202 149.98 40.5802C149.19 39.8202 148.35 39.2002 147.47 38.7302C146.58 38.2502 145.63 37.9502 144.66 37.8202C143.91 37.7202 143.12 37.7702 142.31 37.9602C143.31 36.1002 143.7 34.2302 143.48 32.3702C143.23 30.3102 142.38 28.2402 140.95 26.2102C140.01 24.8902 138.9 23.7902 137.65 22.9502V22.9602ZM119.24 36.6902L126.58 31.5102C128.09 30.4402 129.48 29.9802 130.7 30.1502C131.91 30.3102 133.08 31.1702 134.16 32.7202C135.29 34.3302 135.75 35.7502 135.5 36.9702C135.25 38.1902 134.37 39.3502 132.85 40.4102L125.51 45.5902L119.23 36.7002L119.24 36.6902Z" fill="white"/>
<path d="M112.37 31.9302H61.92V93.8302H112.37V31.9302Z" fill="black"/>
<path d="M105.76 68.0302C105.69 67.9502 105.59 67.9102 105.48 67.9102H97.08C96.89 67.9102 96.74 68.0502 96.71 68.2302C96.4 70.3402 95.52 72.0602 94.1 73.3402C92.68 74.6202 90.68 75.2702 88.13 75.2702C86.24 75.2702 84.62 74.9602 83.31 74.3602C82.01 73.7602 80.93 72.9502 80.13 71.9602C79.32 70.9602 78.72 69.8202 78.35 68.5702C77.98 67.3102 77.79 65.9902 77.79 64.6502C77.79 63.3102 77.98 61.8802 78.36 60.5702C78.73 59.2802 79.33 58.1002 80.14 57.0902C80.95 56.0802 82.02 55.2702 83.32 54.6702C84.63 54.0702 86.25 53.7602 88.14 53.7602C89.17 53.7602 90.16 53.9002 91.1 54.1802C92.04 54.4602 92.89 54.8502 93.62 55.3502C94.35 55.8402 94.97 56.4302 95.47 57.0802C95.95 57.7202 96.26 58.4302 96.4 59.2002C96.43 59.3802 96.59 59.5102 96.77 59.5102H105.17C105.28 59.5102 105.38 59.4602 105.45 59.3802C105.52 59.3002 105.55 59.1902 105.54 59.0802C105.27 57.1302 104.62 55.3702 103.6 53.8602C102.58 52.3502 101.27 51.0702 99.71 50.0502C98.15 49.0402 96.37 48.2602 94.41 47.7202C92.45 47.1902 90.35 46.9302 88.15 46.9302C85.1 46.9302 82.31 47.3902 79.87 48.2902C77.42 49.1902 75.32 50.4602 73.63 52.0502C71.94 53.6402 70.63 55.5302 69.73 57.6702C68.83 59.8102 68.37 62.1602 68.37 64.6502C68.37 67.1402 68.83 69.3802 69.73 71.4902C70.63 73.6002 71.95 75.4602 73.63 77.0202C75.32 78.5802 77.41 79.8202 79.86 80.7102C82.3 81.5902 85.09 82.0402 88.14 82.0402C90.6 82.0402 92.88 81.7302 94.94 81.1002C97 80.4802 98.83 79.5602 100.37 78.3702C101.91 77.1802 103.17 75.7202 104.12 74.0202C105.06 72.3302 105.65 70.4102 105.88 68.3102C105.89 68.2002 105.86 68.1002 105.79 68.0202L105.76 68.0302Z" fill="white"/>
<path d="M204 30.1099H161.09V81.6599H204V30.1099Z" fill="black"/>
<path d="M187.22 40.2602C188.68 41.8302 189.72 44.1302 190.04 46.7502C190.11 47.3502 189.73 48.8302 189.13 48.9102L178.43 50.2002C178.13 50.2402 177.9 50.4902 177.84 50.8002C177.81 51.4102 177.9 52.5402 178.01 53.5102C178.14 54.6302 179 57.9402 180.11 59.5502C181.71 61.8602 183.96 62.7302 186.07 62.4702C188.18 62.2102 189.5 61.3002 190.28 59.3102C190.44 58.9102 190.62 58.3602 190.82 58.3302C190.97 58.3102 191.34 58.8702 191.41 59.4002C191.45 59.7002 191.5 60.5302 191.27 61.2402C190.19 64.9302 188.4 68.7102 183.68 69.2802C177.75 69.9902 173.48 63.6802 172.47 55.3102C171.74 49.2602 173.28 43.0002 177.2 39.5702C178.35 38.5202 179.69 37.8302 181.25 37.6402C183.41 37.3802 185.68 38.4702 187.22 40.2602ZM177.6 47.1102C177.6 47.4902 177.89 47.8302 178.09 47.8102C179.46 47.7202 180.45 47.5302 182.96 47.2202C183.61 47.1402 184.6 46.0402 184.37 44.0902C184.14 42.1402 182.51 39.6902 181.31 39.8302C179.25 40.0802 177.65 43.6802 177.6 47.1002V47.1102Z" fill="white"/>
<path d="M299.4 19.54H248.95V87.4H299.4V19.54Z" fill="black"/>
<path d="M284.35 39.4698C284.51 39.0098 284.7 38.6798 284.94 38.4798C285.32 38.1398 285.86 37.9098 286.55 37.7898L287.5 37.6298C287.91 37.5598 288.21 37.1998 288.21 36.7798V35.8098C288.21 35.5598 288.1 35.3098 287.9 35.1498C287.71 34.9898 287.45 34.9198 287.2 34.9598L275.94 36.9598C275.62 37.0198 275.36 37.2498 275.27 37.5598L269.23 57.5698L263.5 39.9198C263.37 39.5098 262.95 39.2698 262.53 39.3398L253.77 40.8898C253.36 40.9598 253.06 41.3198 253.06 41.7398V42.5498C253.06 42.7998 253.17 43.0398 253.37 43.2098C253.56 43.3698 253.82 43.4398 254.07 43.3998L254.72 43.2898C254.96 43.2498 255.29 43.2198 255.49 43.3498C255.73 43.5098 255.8 43.6698 255.84 43.7798C255.86 43.8498 255.97 44.2998 255.97 46.3598V65.5298C255.97 67.2698 255.95 67.6298 255.95 67.6698C255.83 68.4198 255.67 68.8298 255.56 69.0398C255.43 69.2798 255.24 69.4798 254.98 69.6298C254.72 69.7798 254.44 69.8498 254.13 69.8398H253.92C253.45 69.8398 253.07 70.2298 253.07 70.6998V71.5098C253.07 71.9798 253.45 72.3698 253.93 72.3698H261.2C261.67 72.3698 262.06 71.9898 262.06 71.5098V70.6598C262.06 70.4298 261.97 70.2098 261.81 70.0498C261.65 69.8898 261.4 69.7898 261.2 69.7998C260.46 69.8198 259.91 69.6498 259.61 69.3498C259.27 68.9998 259.05 68.5498 258.95 67.9898C258.92 67.8298 258.88 67.2598 258.88 65.3598V49.4398L265.95 71.7598C266.06 72.1198 266.39 72.3598 266.77 72.3598H267.19C267.57 72.3598 267.9 72.1198 268.01 71.7598L275.91 46.3198V65.7198C275.91 67.9498 275.78 68.4698 275.74 68.5898C275.61 68.9698 275.44 69.2498 275.26 69.3898C274.96 69.6198 274.51 69.7398 273.95 69.7398H273.13C272.66 69.7398 272.28 70.1298 272.28 70.5998V71.5098C272.28 71.9798 272.66 72.3698 273.14 72.3698H287.35C287.82 72.3698 288.21 71.9898 288.21 71.5098V70.5398C288.21 70.3098 288.12 70.0898 287.96 69.9298C287.8 69.7698 287.58 69.6798 287.35 69.6798H286.4C285.76 69.6698 285.3 69.5698 284.97 69.3398C284.65 69.1098 284.44 68.8698 284.35 68.5998C284.3 68.4398 284.17 67.8298 284.17 65.5298V42.4698C284.17 40.2498 284.3 39.6498 284.35 39.4898V39.4698Z" fill="white"/>
<path d="M266.34 39.7606L228.239 14.2544L195.034 63.8559L233.134 89.362L266.34 39.7606Z" fill="black"/>
<path d="M212.11 62.89C210.67 61.89 208.9 60.53 208.41 59.92C217.03 52.49 225.78 44.47 235.21 35.54C236.23 36.11 237.57 36.89 238.74 37.71C239.91 38.53 240.95 39.38 241.54 39.92C236.86 51.79 233.13 63.08 229.7 74.99C228.98 74.63 228.19 74.09 227.23 73.42C225.79 72.42 224.45 71.36 224.28 71.04C224.28 71.04 227.01 64.76 228.03 61.34C228.5 59.68 228.38 59.38 225.89 57.66L225.67 57.51C222.17 55.09 221.64 55.13 220.45 56.24C217.94 58.56 213.53 63.81 213.53 63.81C213.15 63.62 212.62 63.25 212.1 62.89H212.11ZM234.51 46.73C235.51 43.99 235.84 42.84 235.18 42.39C234.52 41.94 233.25 42.98 231.11 44.93L226.57 49.14C225.69 49.97 225.05 50.56 224.73 51.03C224.01 52.11 224.76 52.7 227.17 54.36L227.39 54.51C229.58 56.02 230.35 56.49 231.1 55.36C231.41 54.89 231.73 54.22 232.11 53.18L234.51 46.73Z" fill="white"/>
</g>
<defs>
<clipPath id="clip0_149_9">
<rect width="299.4" height="103.83" fill="white"/>
</clipPath>
</defs>
</svg>
