<svg width="1456" height="229" viewBox="0 0 1456 229" fill="none" xmlns="http://www.w3.org/2000/svg">
<path d="M1265.09 0.63916L1370 40.0959V174.441H8V2.17893L294.029 35.0999L589.921 6.18284L791.217 43.6402L946.336 10.2282L1103.25 27.5852L1265.09 0.63916Z" fill="black"/>
<path d="M1265.09 10.1985L1389 46L1370 184H8L0.5 2L295.374 39.2617L597.094 22.1317L788.079 49.6552L989.375 20.7844L1173.19 39.2617L1265.09 10.1985Z" fill="#ED0003"/>
<path d="M132.142 42L24 82.9109V222.207H1428V43.5965L1133.15 74.5772L828.134 47.748L620.631 86.5858L431.613 51.8541L298.977 69.9391L132.142 42Z" fill="black"/>
<path d="M132.142 48.3074L14 86.5L24 228.515H1428L1455.5 38.5L1131.76 78.4417L820.74 60.6804L623.866 89.2183L416.362 59.2835L226.882 78.4417L132.142 48.3074Z" fill="#ED0003"/>
</svg>
