<svg width="110" height="117" viewBox="0 0 110 117" fill="none" xmlns="http://www.w3.org/2000/svg">
<g clip-path="url(#clip0_84_570)">
<path d="M34.0191 31.6395C41.0632 30.7279 47.9118 38.9422 54.3423 50.5145C57.8515 37.6845 62.6321 32.9517 66.8481 32.4038C69.8932 32.0098 72.647 33.8009 74.4159 36.3047C78.6346 42.275 78.6091 51.8389 75.1284 58.2523C70.4236 67.0432 66.6473 70.4798 55.3666 81.2411C46.6388 71.5046 42.364 67.4592 33.7533 59.5916C25.8719 52.3899 21.7414 38.3193 30.1469 33.0818C31.4435 32.274 32.7326 31.8053 34.0191 31.6395ZM31.71 13.7083C27.804 14.2125 24.052 15.575 20.5565 17.7519C13.1121 22.39 8.36109 30.2295 7.52145 39.2538C6.43256 50.9603 11.9204 64.1784 21.4982 72.9286C30.0334 80.7263 33.7424 84.2588 41.8458 93.2975L54.3346 107.23L67.8921 94.297L69.1105 93.1367C79.8402 82.9066 85.2254 77.7745 91.1242 66.7495C98.0071 54.0635 97.2547 37.2203 89.2428 25.8831C83.4139 17.6298 73.9451 13.2585 64.5366 14.4763C60.817 14.9566 56.5764 16.3182 52.4162 19.407C46.784 15.2847 39.9012 12.6511 31.7076 13.712L31.71 13.7083Z" fill="black"/>
<path d="M54.2468 109.471L40.6818 94.338C32.6249 85.353 28.9351 81.8355 20.4439 74.0793C10.5176 65.0119 4.8357 51.2877 5.96559 39.114C6.85085 29.5994 11.865 21.3315 19.7295 16.432C23.4165 14.1348 27.3801 12.7017 31.5093 12.1659C38.8609 11.2143 45.8905 13.0082 52.4175 17.4937C56.035 15.0203 60.0378 13.4865 64.3382 12.9302C74.3246 11.637 84.3574 16.2575 90.5201 24.9839C98.8578 36.7865 99.6692 54.2664 92.4951 67.4887C86.4818 78.7259 81.0361 83.9187 70.1865 94.2603L54.243 109.468L54.2468 109.471ZM29.8904 15.5982C26.9308 16.2286 24.0755 17.3938 21.3807 19.0723C14.3533 23.4497 9.86842 30.86 9.07505 39.3971C8.03022 50.6359 13.321 63.3485 22.5533 71.7807C31.1318 79.617 34.8575 83.1682 43.0106 92.26L54.4232 104.993L68.031 92.0107C78.6415 81.8951 83.9655 76.8205 89.745 66.0151C96.3797 53.783 95.6481 37.6516 87.9644 26.776C82.4694 18.9959 73.5675 14.873 64.7337 16.0162C60.5984 16.5532 56.7698 18.1104 53.3454 20.6509L52.419 21.3384L51.4887 20.6581C45.3721 16.1806 38.7806 14.3603 31.9048 15.2519C31.2273 15.3389 30.5556 15.4533 29.8867 15.5958L29.8904 15.5982ZM55.2812 83.4778L54.205 82.2779C45.6367 72.7206 41.5021 68.7791 32.6983 60.7394C26.9783 55.5154 23.4115 47.2992 24.0173 40.7596C24.3856 36.8075 26.2196 33.6954 29.3199 31.7619C30.777 30.8531 32.2921 30.2917 33.8177 30.094C40.2589 29.26 46.6793 34.5194 53.8873 46.5944C57.8583 34.5382 62.9424 31.3354 66.6467 30.8583C69.9932 30.4256 73.3724 32.1249 75.6902 35.4062C80.0783 41.6173 80.4246 51.7577 76.4993 58.9916C71.8568 67.6705 67.9897 71.3556 57.6603 81.2013L55.2751 83.4791L55.2812 83.4778ZM33.6718 33.2762C32.7738 33.4675 31.8677 33.8451 30.9741 34.4015C28.6993 35.8187 27.4061 38.0516 27.1268 41.0426C26.6127 46.5887 29.8412 53.9061 34.8084 58.4438C43.3194 66.218 47.5101 70.1985 55.4559 79.0067L55.5086 78.9541C65.8531 69.0893 69.3411 65.7681 73.7536 57.5234C77.1006 51.3517 76.8318 42.4298 73.1388 37.2038C71.5012 34.882 69.2215 33.6679 67.0459 33.9467C62.7235 34.5045 58.6454 40.6919 55.8463 50.9198L54.8363 54.6171L52.9764 51.2669C45.8207 38.3881 39.6852 32.4728 34.2163 33.1794C34.0359 33.2019 33.8514 33.2348 33.6712 33.2732L33.6718 33.2762Z" fill="white"/>
<path d="M55.4959 77.9952C47.8347 69.5339 43.6372 65.5516 35.2884 57.9243C30.4686 53.5239 27.3336 46.4507 27.833 41.1052C28.0887 38.3484 29.2725 36.2915 31.3504 34.999C32.337 34.3846 33.3326 34.0071 34.3115 33.8813C39.3855 33.2239 45.4615 39.19 52.3601 51.6111L55.0622 56.4721L56.5276 51.1054C60.3914 36.9871 65.2351 34.8891 67.1368 34.6432C69.0476 34.3954 71.078 35.5034 72.5642 37.6091C76.1152 42.633 76.3661 51.2309 73.137 57.1769C68.8421 65.2089 65.4136 68.5396 55.4959 77.9952Z" fill="#ED0103"/>
<path d="M34.6002 36.1212C36.8871 35.825 41.975 37.5869 50.3779 52.7082L55.782 62.4301L58.7166 51.6991C61.5821 41.2279 65.1986 37.176 67.4261 36.8861C68.6784 36.7244 69.9445 37.8266 70.7118 38.9109C73.7564 43.2214 73.9533 50.9364 71.1355 56.1296C67.2598 63.372 64.0608 66.6857 55.6112 74.7591C48.8354 67.3665 44.4789 63.2526 36.8198 56.2549C32.554 52.3573 29.6595 45.9331 30.089 41.309C30.2791 39.2633 31.0838 37.825 32.5495 36.9113C33.268 36.4622 33.941 36.2043 34.6026 36.1175M34.0191 31.6392C32.7357 31.8043 31.4435 32.2737 30.1469 33.0815C21.7414 38.319 25.8688 52.3903 33.7533 59.5913C42.3677 67.4613 46.6425 71.5067 55.3666 81.2408C66.6473 70.4795 70.4236 67.0429 75.1284 58.252C78.6061 51.8392 78.6316 42.2753 74.4159 36.3044C72.647 33.8006 69.8932 32.0095 66.8481 32.4035C62.6314 32.9483 57.8515 37.6842 54.3423 50.5142C47.9118 38.9419 41.0662 30.727 34.0191 31.6392Z" fill="black"/>
<path d="M34.0191 31.6393C41.0662 30.7271 47.9118 38.942 54.3423 50.5143C57.8515 37.6842 62.6321 32.9514 66.8481 32.4036C69.8962 32.0089 72.647 33.8007 74.4159 36.3045C78.6346 42.2748 78.6091 51.8386 75.1285 58.2521C70.4236 67.0429 66.6473 70.4796 55.3666 81.2409C46.6388 71.5044 42.364 67.459 33.7533 59.5914C25.8719 52.3897 21.7414 38.3191 30.1469 33.0815C31.4436 32.2738 32.7357 31.8044 34.0191 31.6393ZM32.288 18.1907C29.032 18.6137 25.8905 19.7539 22.9561 21.5821C16.6308 25.5235 12.7528 31.9452 12.0342 39.6642C11.0713 50.0134 15.9906 61.7611 24.5647 69.592C33.0478 77.3403 37.0263 81.1337 45.2297 90.2816L54.598 100.732L64.7669 91.0315L65.9853 89.8712C76.6883 79.6659 81.5745 75.0093 87.1306 64.6238C93.2386 53.3665 92.5995 38.479 85.5411 28.4856C80.6086 21.5024 72.9719 17.9376 65.1201 18.9544C60.2974 19.5774 56.0602 21.6894 52.4228 25.2684C47.0678 20.5141 40.3575 17.1467 32.2942 18.1894L32.288 18.1907Z" fill="#ED0103"/>
<path d="M34.0191 31.639C41.0632 30.7275 47.9118 38.9418 54.3423 50.514C57.8515 37.684 62.6321 32.9512 66.8481 32.4033C69.8962 32.0087 72.647 33.8005 74.4159 36.3043C78.6346 42.2746 78.6091 51.8384 75.1284 58.2519C70.4236 67.0427 66.6473 70.4794 55.3666 81.2407C46.6388 71.5042 42.364 67.4588 33.7533 59.5912C25.8719 52.3895 21.7414 38.3189 30.1469 33.0813C31.4435 32.2736 32.7326 31.8049 34.0191 31.639ZM32.8661 22.6731C30.2625 23.0113 27.735 23.9316 25.3532 25.4161C20.2596 28.589 17.132 33.7973 16.5476 40.0777C15.7262 48.9326 20.1765 59.4529 27.6257 66.2597C36.2284 74.1194 40.2663 77.967 48.6081 87.2701L54.8521 94.2349L61.6324 87.768L62.8502 86.6046C73.503 76.4482 77.9138 72.243 83.1279 62.5001C88.3758 52.8265 87.8416 39.6005 81.8309 31.0931C77.8819 25.5047 71.8507 22.6419 65.692 23.4381C60.593 24.0977 56.2403 26.9568 52.6641 31.9774C47.3596 26.0061 40.7894 21.6475 32.8624 22.6707L32.8661 22.6731Z" fill="black"/>
<path d="M34.0191 31.6395C41.0662 30.7273 47.9118 38.9422 54.3423 50.5145C57.8515 37.6845 62.6321 32.9517 66.8481 32.4038C69.8962 32.0092 72.647 33.8009 74.4159 36.3047C78.6346 42.275 78.6091 51.8389 75.1284 58.2523C70.4236 67.0432 66.6473 70.4798 55.3666 81.2411C46.6388 71.5046 42.364 67.4592 33.7533 59.5916C25.8719 52.3899 21.7414 38.3193 30.1469 33.0818C31.4435 32.274 32.7357 31.8046 34.0191 31.6395ZM33.4441 27.1562C31.4899 27.4101 29.5741 28.1142 27.7504 29.2507C23.8859 31.6589 21.5113 35.6501 21.0611 40.4918C20.3743 47.8952 24.3346 57.1194 30.6898 62.9274C39.415 70.8979 43.5094 74.8003 51.9895 84.2585L55.1131 87.7406L58.5017 84.5075L59.7225 83.3435C70.3008 73.257 74.2605 69.4821 79.1319 60.3788C83.6163 52.1124 83.1976 40.8829 78.1268 33.7C75.1644 29.5056 70.7325 27.3462 66.2731 27.9205C60.9907 28.6032 56.6285 32.6771 53.2463 40.0627C48.1128 32.6608 41.439 26.1217 33.4472 27.1555L33.4441 27.1562Z" fill="#ED0103"/>
</g>
<defs>
<clipPath id="clip0_84_570">
<rect width="90.1554" height="100" fill="white" transform="translate(0 18.7817) rotate(-12.0244)"/>
</clipPath>
</defs>
</svg>
