<svg width="241" height="104" viewBox="0 0 241 104" fill="none" xmlns="http://www.w3.org/2000/svg">
<g clip-path="url(#clip0_186_540)">
<path d="M41.7185 36.5215H0V92.7964H41.7185V36.5215Z" fill="white"/>
<path d="M19.1847 83.9563C9.51794 83.9563 7.72351 81.3441 7.72351 71.7659C7.72351 50.5861 7.3762 47.2773 7.3762 47.2773C9.11275 47.1031 10.7914 47.1031 12.528 47.1031C12.528 47.1031 12.5858 62.478 12.5858 67.1219C12.5858 74.3781 12.5858 76.7001 13.1647 77.8611C13.7435 79.0221 15.8274 79.3123 19.3005 79.3123C23.063 79.3123 24.1628 78.7319 24.7417 77.5709C25.3784 76.2938 25.3784 74.3781 25.3784 68.8634C25.3784 61.0267 24.9153 47.1031 24.9153 47.1031C26.9413 46.987 32.5396 46.987 34.1025 47.2192C34.1025 47.2192 34.3341 60.1643 34.3341 71.7659C34.3341 80.1831 28.9094 83.9563 19.1847 83.9563Z" fill="white"/>
<path d="M69.4371 13.2858L28.6654 22.1484L40.5526 77.1462L81.3244 68.2836L69.4371 13.2858Z" fill="white"/>
<path d="M66.3279 51.2165C64.7898 48.6624 62.6481 46.2492 59.944 44.035C59.0509 43.3218 57.5377 42.1857 55.4373 40.6515C53.3451 39.1256 51.3274 37.6827 49.4338 36.3724C47.5815 35.0871 46.2666 34.1085 45.5224 33.4617C44.8443 32.8729 44.3647 32.3007 44.067 31.7202C43.976 31.5626 43.9182 31.4133 43.8851 31.2641C43.8107 30.8992 43.9099 30.5343 44.1828 30.1611C44.4557 29.788 44.8939 29.6304 45.5224 29.6719C46.0764 29.705 46.8124 29.9538 47.5318 30.4016C48.0611 30.7499 48.6978 31.3055 49.4172 32.0353C50.1449 32.7734 50.7072 33.4534 51.129 34.0836C51.3192 34.3573 51.5259 34.631 51.7326 34.8963C51.9724 35.2114 52.1792 35.4436 52.3942 35.6427C52.9813 36.1319 53.5601 36.4388 54.1307 36.5383C54.4119 36.5881 54.7757 36.5798 55.2471 36.4968C55.8259 36.3973 56.1567 35.8997 56.2229 34.9792C56.2477 33.9261 56.3304 33.0636 56.4792 32.4168C56.6281 31.7782 56.8927 31.0899 57.2813 30.3933C57.579 29.8792 57.7444 29.4728 57.7857 29.1494C57.8188 28.9089 57.794 28.627 57.7279 28.3118C57.6948 28.1626 57.6534 28.005 57.6038 27.864C57.4054 27.2421 57.0167 26.6616 56.4461 26.1474C55.8921 25.6416 55.305 25.3264 54.7096 25.2186C53.9075 25.0694 53.279 25.343 52.8655 26.0064C52.7001 26.2221 52.5182 26.5206 52.3363 26.9021C52.1544 27.2752 51.989 27.6235 51.8401 27.9718C51.774 28.1294 51.7161 28.2704 51.6748 28.3948C51.5838 28.3118 51.4846 28.2206 51.3688 28.1128C49.3345 26.1889 47.3003 24.9698 45.2991 24.4889L44.8939 24.4142C41.7682 23.8337 39.767 24.8123 38.9483 27.325C38.6341 28.2455 38.5845 29.2406 38.8077 30.2938C39.031 31.347 39.4941 32.3753 40.1887 33.4617C40.842 34.5563 41.7516 35.6427 42.8845 36.6959C43.9843 37.7159 45.5389 38.9183 47.4905 40.2701C49.227 41.4808 51.2117 42.8989 53.3782 44.4745C55.553 46.0584 57.0829 47.2028 57.9098 47.8663C58.6871 48.4965 59.4561 49.2263 60.2086 50.0224C60.9529 50.8185 61.54 51.5317 61.9204 52.0956C62.6398 53.2483 63.1277 54.3015 63.351 55.1888C63.6487 56.7976 62.5737 57.8176 60.1756 58.224C59.8779 58.2654 59.605 58.2903 59.3569 58.2986C59.1171 58.2986 58.8194 58.282 58.4804 58.2323C58.1165 58.1825 57.5956 58.0913 56.9257 57.9669C56.0161 57.801 55.3298 57.6518 54.8419 57.5274C54.3623 57.403 53.8496 57.2288 53.2873 56.98C51.6251 56.3332 50.2359 55.6449 49.1444 54.9317C48.0528 54.2185 46.9778 53.3229 45.9193 52.2366C45.1834 51.4985 44.6459 50.8517 44.3234 50.3292C44.067 49.8897 43.8934 49.4585 43.7941 49.0107L43.7445 48.7951C43.6701 48.455 43.6618 48.3224 43.6618 48.2228C43.6618 48.2228 43.7032 48.1731 43.8934 48.0985C44.2407 47.916 44.6045 47.8497 45.018 47.8745C45.4976 47.9077 46.093 48.057 46.8207 48.3141C47.8709 48.6624 48.7805 49.0273 49.5082 49.4087C50.2524 49.7902 51.1538 50.3375 52.1792 51.0341C53.0392 51.6312 53.6428 52.0292 54.0232 52.2449C54.4615 52.4936 54.8253 52.6429 55.1313 52.701C55.8673 52.8336 56.413 52.6595 56.7604 52.1619C57.0663 51.7473 57.1407 51.1751 56.9919 50.4702L56.9423 50.2546C56.8017 49.5995 56.4544 49.0024 55.9252 48.4799C55.4704 48.0321 54.6682 47.4267 53.4692 46.6389C52.1957 45.7848 51.1786 45.1462 50.4344 44.7482C49.6901 44.3501 48.8053 43.9603 47.8213 43.5955C46.3824 43.0233 45.1668 42.6418 44.2241 42.4676C44.0505 42.4345 43.6618 42.3847 43.0664 42.3184C42.4132 42.2437 41.6524 42.4013 40.7676 42.7911C38.7995 43.4047 38.0635 44.9721 38.5845 47.435L38.7085 48.0072C38.8326 48.5877 38.9979 49.1682 39.2047 49.7404C39.4197 50.3292 39.7422 50.9844 40.1722 51.6809C40.9081 52.8917 41.9418 54.1854 43.2566 55.5371C44.5632 56.8805 45.9028 58.0415 47.2755 59.0118C49.3097 60.3884 51.8898 61.624 54.9246 62.6938H54.9411C55.9748 63.0338 57.0002 63.2992 57.9842 63.4816C59.8862 63.8382 61.6806 63.8797 63.3179 63.6143C66.1708 63.0172 67.8908 61.6157 68.4366 59.4347C68.6847 58.423 68.6764 57.2869 68.4035 56.0512C68.0893 54.6 67.3947 52.9663 66.3362 51.1917L66.3279 51.2165Z" fill="white"/>
<path d="M88.2964 42.8388L54.082 52.2705L65.3806 93.4909L99.595 84.0592L88.2964 42.8388Z" fill="white"/>
<path d="M77.1359 54.6496C78.6492 55.5784 79.9805 57.1955 80.8074 59.2189C80.9976 59.6833 81.0142 60.9521 80.5511 61.1429L72.2983 64.5263C72.0668 64.6175 71.9428 64.8746 71.9593 65.14C72.0668 65.6376 72.381 66.5166 72.687 67.2712C73.0426 68.142 74.4484 70.5966 75.6888 71.6415C77.4749 73.1342 79.4513 73.3333 81.0803 72.6698C82.7094 72.0064 83.5528 70.9781 83.743 69.22C83.7761 68.8717 83.8092 68.3825 83.9663 68.3244C84.0821 68.2747 84.5038 68.6395 84.6692 69.0459C84.7602 69.2781 84.9834 69.9249 84.9669 70.5469C84.909 73.7396 84.3136 77.1562 80.6751 78.649C76.1022 80.5231 71.3143 76.4182 68.6764 69.9415C66.7662 65.2644 66.6256 59.9238 68.9989 56.3164C69.6853 55.2218 70.6031 54.3759 71.8022 53.8867C73.4643 53.2066 75.5151 53.5798 77.1359 54.6662V54.6496ZM70.967 62.2375C71.0497 62.5443 71.3557 62.7517 71.5128 62.6853C72.5795 62.3121 73.332 61.939 75.267 61.1429C75.7714 60.9355 76.3172 59.8326 75.7053 58.3316C75.0934 56.8306 73.2576 55.2218 72.3314 55.6033C70.7437 56.2501 70.2558 59.4926 70.967 62.2375Z" fill="white"/>
<path d="M129.439 28.4277H87.7206V84.7027H129.439V28.4277Z" fill="white"/>
<path d="M91.6815 73.2916C91.4583 72.6696 91.3012 71.8984 91.3012 70.9696V70.5052C91.3756 69.6759 91.5244 69.0042 91.7477 68.4403L93.7737 68.5398L95.8741 68.6974L95.5764 61.267L95.502 55.6445C95.502 53.8367 95.5764 51.9791 95.6508 49.9142L96.0973 44.3912L96.7754 38.4535C97.9745 38.1467 99.5539 37.8316 101.282 37.6243C102.936 37.4169 104.433 37.3672 105.789 37.3672L107.889 37.4169C107.592 39.4321 107.36 41.497 107.211 43.5619C106.914 46.9205 106.765 50.3205 106.765 53.6791C106.765 59.0446 107.137 64.3105 107.74 68.9047L114.124 68.7471L114.654 59.1938C115.555 59.0363 116.903 58.887 118.408 58.887L119.764 58.9368C122.468 59.0943 124.494 59.6582 125.693 60.1226V65.6954L125.842 71.1686C120.062 72.3048 112.776 73.3331 104.218 73.5984L100.389 73.6482C97.2385 73.6482 94.6833 73.4906 91.6815 73.2833V73.2916Z" fill="white"/>
<path d="M168.504 43.8658L137.743 26.1274L116.494 63.1867L147.254 80.9251L168.504 43.8658Z" fill="white"/>
<path d="M152.295 44.2254C152.701 45.9586 152.494 48.0401 151.642 50.0553C151.444 50.5114 150.559 51.4236 150.096 51.2328L141.893 47.7333C141.661 47.6338 141.396 47.725 141.223 47.924C140.95 48.3469 140.545 49.1928 140.231 49.9392C139.867 50.8016 139.114 53.5382 139.246 55.1553C139.445 57.4773 140.694 59.0281 142.314 59.7164C143.935 60.4047 145.25 60.2886 146.631 59.1856C146.904 58.9617 147.268 58.6466 147.425 58.7129C147.541 58.7627 147.574 59.3183 147.408 59.7247C147.309 59.9569 147.003 60.5705 146.557 60.9852C144.258 63.191 141.421 65.173 137.799 63.6306C133.26 61.6901 132.788 55.3875 135.517 48.9523C137.493 44.3 141.173 40.4439 145.399 39.598C146.656 39.3161 147.904 39.3741 149.095 39.8883C150.749 40.5932 151.932 42.3181 152.295 44.242V44.2254ZM142.579 45.1708C142.422 45.4445 142.488 45.8093 142.645 45.8757C143.662 46.3733 144.456 46.6469 146.383 47.4679C146.887 47.6835 148.045 47.2938 148.682 45.801C149.318 44.3083 149.17 41.8703 148.243 41.4722C146.664 40.8005 144.026 42.7244 142.587 45.1625L142.579 45.1708Z" fill="white"/>
<path d="M197.054 40.1398L156.283 49.0024L168.17 104L208.942 95.1376L197.054 40.1398Z" fill="white"/>
<path d="M193.948 78.0686C192.41 75.5144 190.268 73.1012 187.564 70.887C186.671 70.1739 185.158 69.0377 183.057 67.5036C180.965 65.9777 178.947 64.5347 177.054 63.2245C175.201 61.9391 173.886 60.9606 173.142 60.3137C172.464 59.7249 171.985 59.1527 171.687 58.5722C171.596 58.4147 171.538 58.2654 171.505 58.1161C171.431 57.7512 171.53 57.3864 171.803 57.0132C172.076 56.64 172.514 56.4824 173.142 56.5239C173.696 56.5571 174.432 56.8059 175.152 57.2537C175.681 57.602 176.318 58.1576 177.037 58.8874C177.765 59.6254 178.327 60.3054 178.749 60.9357C178.939 61.2093 179.146 61.483 179.352 61.7484C179.592 62.0635 179.799 62.2957 180.014 62.4947C180.601 62.984 181.18 63.2908 181.751 63.3903C182.032 63.4401 182.396 63.4318 182.867 63.3489C183.446 63.2494 183.777 62.7518 183.843 61.8313C183.868 60.7781 183.95 59.9157 184.099 59.2688C184.248 58.6303 184.513 57.942 184.901 57.2454C185.199 56.7312 185.364 56.3249 185.406 56.0015C185.439 55.761 185.414 55.479 185.348 55.1639C185.315 55.0146 185.273 54.8571 185.224 54.7161C185.025 54.0941 184.637 53.5136 184.066 52.9995C183.512 52.4936 182.925 52.1785 182.329 52.0707C181.527 51.9214 180.899 52.1951 180.485 52.8585C180.32 53.0741 180.138 53.3726 179.956 53.7541C179.774 54.1273 179.609 54.4756 179.46 54.8239C179.394 54.9814 179.336 55.1224 179.295 55.2468C179.204 55.1639 179.104 55.0727 178.989 54.9649C176.954 53.0409 174.92 51.8219 172.919 51.3409L172.514 51.2663C169.388 50.6858 167.387 51.6643 166.568 54.177C166.254 55.0975 166.204 56.0927 166.428 57.1459C166.651 58.1991 167.114 59.2274 167.809 60.3137C168.462 61.4084 169.371 62.4947 170.504 63.5479C171.604 64.5679 173.159 65.7704 175.11 67.1221C176.847 68.3329 178.832 69.7509 180.998 71.3266C183.173 72.9105 184.703 74.0549 185.53 74.7183C186.307 75.3486 187.076 76.0783 187.828 76.8744C188.573 77.6705 189.16 78.3837 189.54 78.9476C190.26 80.1003 190.748 81.1535 190.971 82.0409C191.269 83.6497 190.194 84.6697 187.795 85.076C187.498 85.1175 187.225 85.1424 186.977 85.1507C186.737 85.1507 186.439 85.1341 186.1 85.0843C185.736 85.0345 185.215 84.9433 184.546 84.8189C183.636 84.6531 182.95 84.5038 182.462 84.3794C181.982 84.255 181.469 84.0809 180.907 83.8321C179.245 83.1853 177.856 82.497 176.764 81.7838C175.673 81.0706 174.598 80.175 173.539 79.0886C172.803 78.3506 172.266 77.7037 171.943 77.1813C171.687 76.7418 171.513 76.3105 171.414 75.8627L171.364 75.6471C171.29 75.3071 171.282 75.1744 171.282 75.0749C171.282 75.0749 171.323 75.0251 171.513 74.9505C171.861 74.7681 172.224 74.7017 172.638 74.7266C173.117 74.7598 173.713 74.909 174.441 75.1661C175.491 75.5144 176.4 75.8793 177.128 76.2608C177.872 76.6422 178.774 77.1896 179.799 77.8862C180.659 78.4832 181.263 78.8813 181.643 79.0969C182.081 79.3457 182.445 79.495 182.751 79.553C183.487 79.6857 184.033 79.5115 184.38 79.014C184.686 78.5993 184.761 78.0271 184.612 77.3222L184.562 77.1066C184.422 76.4515 184.074 75.8544 183.545 75.332C183.09 74.8842 182.288 74.2788 181.089 73.491C179.816 72.6368 178.798 71.9983 178.054 71.6002C177.31 71.2022 176.425 70.8124 175.441 70.4475C174.002 69.8753 172.787 69.4938 171.844 69.3197C171.67 69.2865 171.282 69.2368 170.686 69.1704C170.033 69.0958 169.272 69.2534 168.387 69.6431C166.419 70.2568 165.683 71.8241 166.204 74.2871L166.328 74.8593C166.452 75.4398 166.618 76.0203 166.825 76.5925C167.04 77.1813 167.362 77.8364 167.792 78.533C168.528 79.7437 169.562 81.0374 170.876 82.3891C172.183 83.7326 173.523 84.8936 174.895 85.8638C176.93 87.2404 179.51 88.4761 182.544 89.5458H182.561C183.595 89.8858 184.62 90.1512 185.604 90.3337C187.506 90.6902 189.3 90.7317 190.938 90.4663C193.791 89.8693 195.511 88.4678 196.056 86.2868C196.305 85.275 196.296 84.1389 196.023 82.9033C195.709 81.4521 195.015 79.8184 193.956 78.0437L193.948 78.0686Z" fill="white"/>
<path d="M232.733 8.46478L191.015 8.28223L190.77 64.5566L232.488 64.7392L232.733 8.46478Z" fill="white"/>
<path d="M221.518 44.8391C220.567 42.0113 218.995 39.1917 216.829 36.4385C216.109 35.5512 214.877 34.1083 213.157 32.1594C211.446 30.2189 209.783 28.3696 208.221 26.6862C206.691 25.0359 205.616 23.792 205.029 22.9959C204.499 22.2744 204.152 21.611 203.987 20.9808C203.937 20.8066 203.904 20.649 203.912 20.4998C203.912 20.1266 204.094 19.7866 204.433 19.488C204.781 19.1812 205.244 19.1232 205.847 19.2973C206.385 19.4466 207.046 19.8529 207.65 20.45C208.088 20.9061 208.593 21.5778 209.138 22.4569C209.684 23.3359 210.098 24.1237 210.362 24.8203C210.495 25.1272 210.635 25.434 210.776 25.7491C210.941 26.1057 211.09 26.3794 211.264 26.6199C211.727 27.2252 212.231 27.6482 212.769 27.8721C213.033 27.9799 213.389 28.0462 213.868 28.0794C214.456 28.1126 214.886 27.6896 215.15 26.8106C215.398 25.7906 215.671 24.9613 215.952 24.3642C216.233 23.7671 216.647 23.1618 217.168 22.5564C217.565 22.1169 217.813 21.7603 217.929 21.4534C218.011 21.2212 218.053 20.9393 218.053 20.6242C218.053 20.4666 218.044 20.309 218.028 20.1598C217.97 19.5046 217.714 18.8578 217.267 18.2358C216.829 17.6222 216.324 17.1909 215.77 16.9505C215.018 16.6353 214.348 16.7597 213.794 17.3236C213.587 17.4978 213.347 17.7549 213.083 18.0783C212.827 18.4017 212.587 18.7085 212.363 19.0154C212.264 19.1563 212.182 19.2807 212.115 19.3885C212.049 19.289 211.967 19.1729 211.876 19.0485C210.304 16.7265 208.576 15.1012 206.724 14.1889L206.343 14.0314C203.416 12.7875 201.25 13.3099 199.91 15.5904C199.405 16.4197 199.141 17.3817 199.133 18.4597C199.124 19.5378 199.348 20.6407 199.794 21.8515C200.191 23.0622 200.844 24.3228 201.729 25.5915C202.589 26.8272 203.838 28.3365 205.459 30.078C206.889 31.637 208.527 33.4448 210.304 35.46C212.091 37.4834 213.331 38.9264 213.993 39.7556C214.613 40.5352 215.216 41.4142 215.77 42.3596C216.333 43.305 216.746 44.1177 216.994 44.7562C217.449 46.0333 217.697 47.1694 217.722 48.0816C217.664 49.7153 216.399 50.4865 213.968 50.3621C213.67 50.3373 213.397 50.3041 213.157 50.2543C212.917 50.2046 212.636 50.1217 212.314 49.9973C211.967 49.8729 211.479 49.6738 210.85 49.4002C209.998 49.0353 209.362 48.7533 208.907 48.5211C208.469 48.2972 207.997 48.0153 207.501 47.6504C206.021 46.6553 204.805 45.685 203.896 44.7562C202.986 43.8274 202.126 42.7162 201.332 41.4225C200.778 40.5435 200.381 39.7888 200.183 39.2166C200.026 38.7356 199.951 38.2712 199.951 37.8068V37.5829C199.951 37.2429 199.976 37.102 199.993 37.0107C199.993 37.0107 200.05 36.9776 200.241 36.9444C200.613 36.8449 200.985 36.8532 201.382 36.9693C201.837 37.1102 202.391 37.3839 203.052 37.7903C204.003 38.3542 204.805 38.9098 205.442 39.4405C206.087 39.9713 206.848 40.7093 207.7 41.6132C208.411 42.3845 208.915 42.8986 209.238 43.1972C209.61 43.5372 209.932 43.7611 210.222 43.8855C210.908 44.1757 211.487 44.1177 211.925 43.7113C212.314 43.3713 212.512 42.8323 212.512 42.1108V41.8869C212.512 41.2152 212.314 40.5601 211.9 39.9298C211.553 39.3991 210.9 38.6278 209.899 37.5995C208.841 36.4883 207.981 35.6424 207.344 35.0951C206.707 34.5395 205.922 33.9673 205.037 33.4034C203.755 32.5326 202.655 31.9024 201.762 31.5209C201.597 31.4546 201.233 31.3219 200.662 31.1228C200.042 30.9072 199.257 30.8989 198.314 31.0814C196.263 31.2555 195.205 32.6238 195.18 35.1366V35.7254C195.172 36.3141 195.205 36.9195 195.287 37.5249C195.37 38.1468 195.544 38.8517 195.817 39.6313C196.271 40.9664 197.007 42.4591 198 44.0679C198.984 45.6601 200.05 47.0865 201.175 48.3304C202.87 50.1134 205.12 51.8797 207.857 53.5798H207.873C208.816 54.1437 209.75 54.6163 210.677 55.0061C212.463 55.7608 214.199 56.2003 215.853 56.2915C218.764 56.333 220.749 55.3295 221.749 53.3227C222.212 52.3939 222.444 51.2743 222.452 50.0056C222.452 48.5211 222.129 46.7797 221.484 44.8143L221.518 44.8391Z" fill="white"/>
<path d="M49.9878 28.2285H8.26929V84.5035H49.9878V28.2285Z" fill="black"/>
<path d="M27.454 75.6633C17.7872 75.6633 15.9928 73.0511 15.9928 63.4729C15.9928 42.2931 15.6455 38.9843 15.6455 38.9843C17.382 38.8101 19.0607 38.8101 20.7972 38.8101C20.7972 38.8101 20.8551 54.185 20.8551 58.829C20.8551 66.0852 20.8551 68.4071 21.434 69.5681C22.0128 70.7291 24.0967 71.0194 27.5698 71.0194C31.3323 71.0194 32.4321 70.4389 33.011 69.2779C33.6477 68.0008 33.6477 66.0852 33.6477 60.5705C33.6477 52.7338 33.1846 38.8101 33.1846 38.8101C35.2106 38.694 40.8089 38.694 42.3718 38.9262C42.3718 38.9262 42.6033 51.8713 42.6033 63.4729C42.6033 71.8901 37.1787 75.6633 27.454 75.6633Z" fill="white"/>
<path d="M77.702 4.99185L36.9303 13.8545L48.8175 68.8523L89.5893 59.9896L77.702 4.99185Z" fill="black"/>
<path d="M74.5972 42.9236C73.0591 40.3694 70.9174 37.9562 68.2133 35.742C67.3202 35.0288 65.807 33.8927 63.7066 32.3586C61.6144 30.8327 59.5967 29.3897 57.7031 28.0795C55.8507 26.7941 54.5359 25.8155 53.7917 25.1687C53.1136 24.5799 52.634 24.0077 52.3363 23.4272C52.2453 23.2696 52.1875 23.1204 52.1544 22.9711C52.08 22.6062 52.1792 22.2413 52.4521 21.8682C52.725 21.495 53.1632 21.3374 53.7917 21.3789C54.3457 21.4121 55.0817 21.6608 55.8011 22.1087C56.3304 22.457 56.9671 23.0126 57.6865 23.7423C58.4142 24.4804 58.9765 25.1604 59.3983 25.7907C59.5885 26.0643 59.7952 26.338 60.0019 26.6034C60.2417 26.9185 60.4485 27.1507 60.6635 27.3497C61.2506 27.839 61.8294 28.1458 62.4 28.2453C62.6812 28.2951 63.045 28.2868 63.5164 28.2039C64.0952 28.1043 64.426 27.6068 64.4921 26.6863C64.517 25.6331 64.5996 24.7706 64.7485 24.1238C64.8973 23.4853 65.162 22.797 65.5506 22.1004C65.8483 21.5862 66.0137 21.1799 66.055 20.8564C66.0881 20.6159 66.0633 20.334 65.9972 20.0189C65.9641 19.8696 65.9227 19.712 65.8731 19.5711C65.6747 18.9491 65.286 18.3686 64.7154 17.8544C64.1614 17.3486 63.5743 17.0335 62.9789 16.9257C62.1767 16.7764 61.5483 17.05 61.1348 17.7135C60.9694 17.9291 60.7875 18.2276 60.6056 18.6091C60.4237 18.9823 60.2583 19.3306 60.1094 19.6789C60.0433 19.8364 59.9854 19.9774 59.944 20.1018C59.8531 20.0189 59.7538 19.9276 59.6381 19.8198C57.6038 17.8959 55.5696 16.6769 53.5684 16.1959L53.1632 16.1213C50.0374 15.5408 48.0363 16.5193 47.2176 19.032C46.9034 19.9525 46.8538 20.9477 47.077 22.0008C47.3003 23.054 47.7634 24.0823 48.458 25.1687C49.1113 26.2633 50.0209 27.3497 51.1538 28.4029C52.2536 29.4229 53.8082 30.6254 55.7598 31.9771C57.4963 33.1878 59.481 34.6059 61.6475 36.1815C63.8223 37.7655 65.3521 38.9099 66.1791 39.5733C66.9564 40.2035 67.7254 40.9333 68.4779 41.7294C69.2222 42.5255 69.8093 43.2387 70.1897 43.8026C70.9091 44.9553 71.397 46.0085 71.6203 46.8958C71.918 48.5046 70.843 49.5246 68.4449 49.931C68.1472 49.9725 67.8743 49.9973 67.6262 50.0056C67.3864 50.0056 67.0887 49.989 66.7497 49.9393C66.3858 49.8895 65.8648 49.7983 65.195 49.6739C64.2854 49.5081 63.5991 49.3588 63.1112 49.2344C62.6316 49.11 62.1189 48.9359 61.5566 48.6871C59.8944 48.0402 58.5052 47.3519 57.4136 46.6388C56.3221 45.9256 55.2471 45.03 54.1886 43.9436C53.4527 43.2055 52.9151 42.5587 52.5926 42.0362C52.3363 41.5967 52.1626 41.1655 52.0634 40.7177L52.0138 40.5021C51.9394 40.1621 51.9311 40.0294 51.9311 39.9299C51.9311 39.9299 51.9725 39.8801 52.1626 39.8055C52.51 39.623 52.8738 39.5567 53.2873 39.5816C53.7669 39.6148 54.3623 39.764 55.09 40.0211C56.1402 40.3694 57.0498 40.7343 57.7775 41.1158C58.5217 41.4972 59.4231 42.0445 60.4485 42.7411C61.3085 43.3382 61.9121 43.7363 62.2925 43.9519C62.7308 44.2007 63.0946 44.3499 63.4006 44.408C64.1366 44.5407 64.6823 44.3665 65.0296 43.869C65.3356 43.4543 65.41 42.8821 65.2612 42.1772L65.2116 41.9616C65.071 41.3065 64.7237 40.7094 64.1944 40.187C63.7396 39.7391 62.9375 39.1338 61.7385 38.346C60.465 37.4918 59.4479 36.8533 58.7036 36.4552C57.9594 36.0571 57.0746 35.6674 56.0906 35.3025C54.6517 34.7303 53.4361 34.3488 52.4934 34.1747C52.3198 34.1415 51.9311 34.0917 51.3357 34.0254C50.6824 33.9508 49.9217 34.1083 49.0369 34.4981C47.0688 35.1118 46.3328 36.6791 46.8538 39.1421L46.9778 39.7143C47.1018 40.2948 47.2672 40.8753 47.474 41.4475C47.689 42.0362 48.0115 42.6914 48.4415 43.388C49.1774 44.5987 50.2111 45.8924 51.5259 47.2441C52.8325 48.5876 54.1721 49.7486 55.5448 50.7188C57.579 52.0954 60.159 53.331 63.1939 54.4008H63.2104C64.2441 54.7408 65.2695 55.0062 66.2535 55.1886C68.1554 55.5452 69.9499 55.5867 71.5872 55.3213C74.4401 54.7242 76.1601 53.3228 76.7059 51.1417C76.954 50.13 76.9457 48.9939 76.6728 47.7583C76.3586 46.307 75.6639 44.6734 74.6055 42.8987L74.5972 42.9236Z" fill="white"/>
<path d="M96.5672 34.5434L62.3528 43.9751L73.6514 85.1955L107.866 75.7638L96.5672 34.5434Z" fill="black"/>
<path d="M85.4134 46.3566C86.9267 47.2854 88.2581 48.9025 89.085 50.926C89.2752 51.3904 89.2917 52.6592 88.8287 52.8499L80.5759 56.2333C80.3444 56.3246 80.2203 56.5817 80.2369 56.847C80.3444 57.3446 80.6586 58.2236 80.9646 58.9783C81.3201 59.849 82.7259 62.3037 83.9663 63.3486C85.7525 64.8413 87.7288 65.0403 89.3579 64.3769C90.9869 63.7135 91.8304 62.6852 92.0206 60.9271C92.0537 60.5788 92.0868 60.0895 92.2439 60.0315C92.3596 59.9817 92.7814 60.3466 92.9468 60.7529C93.0377 60.9851 93.261 61.632 93.2445 62.2539C93.1866 65.4467 92.5912 68.8633 88.9527 70.356C84.3798 72.2302 79.5919 68.1252 76.954 61.6485C75.0438 56.9714 74.9032 51.6308 77.2765 48.0235C77.9628 46.9288 78.8807 46.083 80.0797 45.5937C81.7419 44.9137 83.7927 45.2869 85.4134 46.3732V46.3566ZM79.2363 53.9445C79.319 54.2514 79.6249 54.4587 79.7821 54.3923C80.8488 54.0192 81.6013 53.646 83.5363 52.8499C84.0407 52.6426 84.5865 51.5396 83.9746 50.0386C83.3627 48.5376 81.5269 46.9288 80.6007 47.3103C79.013 47.9571 78.5251 51.1996 79.2363 53.9445Z" fill="white"/>
<path d="M137.708 20.1348H95.9898V76.4097H137.708V20.1348Z" fill="black"/>
<path d="M99.9508 64.9991C99.7276 64.3772 99.5704 63.6059 99.5704 62.6771V62.2127C99.6449 61.3834 99.7937 60.7117 100.017 60.1478L102.043 60.2473L104.143 60.4049L103.846 52.9746L103.771 47.352C103.771 45.5442 103.846 43.6866 103.92 41.6217L104.367 36.0987L105.045 30.1611C106.244 29.8542 107.823 29.5391 109.551 29.3318C111.205 29.1245 112.702 29.0747 114.058 29.0747L116.159 29.1245C115.861 31.1396 115.629 33.2045 115.481 35.2694C115.183 38.628 115.034 42.0281 115.034 45.3866C115.034 50.7521 115.406 56.018 116.01 60.6122L122.394 60.4547L122.923 50.9014C123.824 50.7438 125.172 50.5945 126.677 50.5945L128.033 50.6443C130.737 50.8018 132.763 51.3658 133.962 51.8301V57.4029L134.111 62.8762C128.331 64.0123 121.046 65.0406 112.487 65.3059L108.658 65.3557C105.508 65.3557 102.953 65.1981 99.9508 64.9908V64.9991Z" fill="white"/>
<path d="M176.775 35.5738L146.015 17.8354L124.765 54.8947L155.526 72.6331L176.775 35.5738Z" fill="black"/>
<path d="M160.565 35.9329C160.97 37.6661 160.763 39.7476 159.911 41.7628C159.713 42.2189 158.828 43.1311 158.365 42.9403L150.162 39.4408C149.93 39.3413 149.666 39.4325 149.492 39.6315C149.219 40.0545 148.814 40.9003 148.5 41.6467C148.136 42.5091 147.383 45.2457 147.516 46.8628C147.714 49.1848 148.963 50.7356 150.584 51.4239C152.204 52.1122 153.519 51.9961 154.9 50.8931C155.173 50.6692 155.537 50.3541 155.694 50.4205C155.81 50.4702 155.843 51.0258 155.678 51.4322C155.578 51.6644 155.272 52.278 154.826 52.6927C152.527 54.8986 149.691 56.8805 146.069 55.3381C141.529 53.3976 141.057 47.095 143.786 40.6598C145.763 36.0076 149.442 32.1514 153.668 31.3056C154.925 31.0236 156.174 31.0816 157.364 31.5958C159.018 32.3007 160.201 34.0256 160.565 35.9495V35.9329ZM150.848 36.87C150.691 37.1437 150.757 37.5086 150.914 37.5749C151.932 38.0725 152.725 38.3461 154.652 39.1671C155.157 39.3827 156.314 38.993 156.951 37.5003C157.588 36.0076 157.439 33.5695 156.513 33.1714C154.933 32.4997 152.295 34.4236 150.857 36.8617L150.848 36.87Z" fill="white"/>
<path d="M205.327 31.8459L164.556 40.7085L176.443 95.7063L217.215 86.8436L205.327 31.8459Z" fill="black"/>
<path d="M202.217 69.7756C200.679 67.2214 198.537 64.8082 195.833 62.5941C194.94 61.8809 193.427 60.7448 191.326 59.2106C189.234 57.6847 187.217 56.2418 185.323 54.9315C183.471 53.6461 182.156 52.6676 181.412 52.0207C180.733 51.432 180.254 50.8598 179.956 50.2793C179.865 50.1217 179.807 49.9724 179.774 49.8232C179.7 49.4583 179.799 49.0934 180.072 48.7202C180.345 48.347 180.783 48.1895 181.412 48.2309C181.966 48.2641 182.702 48.5129 183.421 48.9607C183.95 49.309 184.587 49.8646 185.306 50.5944C186.034 51.3324 186.596 52.0125 187.018 52.6427C187.208 52.9164 187.415 53.19 187.622 53.4554C187.862 53.7705 188.068 54.0027 188.283 54.2018C188.87 54.691 189.449 54.9979 190.02 55.0974C190.301 55.1471 190.665 55.1388 191.136 55.0559C191.715 54.9564 192.046 54.4588 192.112 53.5383C192.137 52.4851 192.219 51.6227 192.368 50.9759C192.517 50.3373 192.782 49.649 193.17 48.9524C193.468 48.4383 193.634 48.0319 193.675 47.7085C193.708 47.468 193.683 47.186 193.617 46.8709C193.584 46.7216 193.543 46.5641 193.493 46.4231C193.295 45.8011 192.906 45.2207 192.335 44.7065C191.781 44.2006 191.194 43.8855 190.599 43.7777C189.797 43.6284 189.168 43.9021 188.755 44.5655C188.589 44.7811 188.407 45.0797 188.225 45.4611C188.043 45.8343 187.878 46.1826 187.729 46.5309C187.663 46.6885 187.605 46.8295 187.564 46.9538C187.473 46.8709 187.374 46.7797 187.258 46.6719C185.224 44.748 183.189 43.5289 181.188 43.0479L180.783 42.9733C177.657 42.3928 175.656 43.3714 174.837 45.8841C174.523 46.8046 174.474 47.7997 174.697 48.8529C174.92 49.9061 175.383 50.9344 176.078 52.0207C176.731 53.1154 177.641 54.2018 178.774 55.2549C179.873 56.275 181.428 57.4774 183.38 58.8291C185.116 60.0399 187.101 61.458 189.267 63.0336C191.442 64.6175 192.972 65.7619 193.799 66.4253C194.576 67.0556 195.345 67.7854 196.098 68.5815C196.842 69.3776 197.429 70.0908 197.81 70.6547C198.529 71.8074 199.017 72.8606 199.24 73.7479C199.538 75.3567 198.463 76.3767 196.065 76.783C195.767 76.8245 195.494 76.8494 195.246 76.8577C195.006 76.8577 194.709 76.8411 194.37 76.7913C194.006 76.7416 193.485 76.6504 192.815 76.526C191.905 76.3601 191.219 76.2108 190.731 76.0865C190.251 75.9621 189.739 75.7879 189.176 75.5391C187.514 74.8923 186.125 74.204 185.033 73.4908C183.942 72.7776 182.867 71.882 181.808 70.7956C181.072 70.0576 180.535 69.4107 180.212 68.8883C179.956 68.4488 179.782 68.0176 179.683 67.5698L179.634 67.3541C179.559 67.0141 179.551 66.8814 179.551 66.7819C179.551 66.7819 179.592 66.7322 179.782 66.6575C180.13 66.4751 180.494 66.4088 180.907 66.4336C181.387 66.4668 181.982 66.6161 182.71 66.8732C183.76 67.2215 184.67 67.5863 185.397 67.9678C186.142 68.3493 187.043 68.8966 188.068 69.5932C188.928 70.1903 189.532 70.5883 189.912 70.8039C190.351 71.0527 190.714 71.202 191.02 71.26C191.756 71.3927 192.302 71.2186 192.649 70.721C192.955 70.3064 193.03 69.7342 192.881 69.0293L192.831 68.8137C192.691 68.1585 192.344 67.5615 191.814 67.039C191.359 66.5912 190.557 65.9858 189.358 65.198C188.085 64.3439 187.068 63.7053 186.323 63.3072C185.579 62.9092 184.694 62.5194 183.71 62.1545C182.272 61.5823 181.056 61.2009 180.113 61.0267C179.94 60.9936 179.551 60.9438 178.956 60.8775C178.302 60.8028 177.542 60.9604 176.657 61.3502C174.689 61.9638 173.953 63.5312 174.474 65.9941L174.598 66.5663C174.722 67.1468 174.887 67.7273 175.094 68.2995C175.309 68.8883 175.631 69.5434 176.061 70.24C176.797 71.4508 177.831 72.7445 179.146 74.0962C180.452 75.4396 181.792 76.6006 183.165 77.5709C185.199 78.9475 187.779 80.1831 190.814 81.2529H190.83C191.864 81.5929 192.889 81.8582 193.873 82.0407C195.775 82.3973 197.57 82.4387 199.207 82.1734C202.06 81.5763 203.78 80.1748 204.326 77.9938C204.574 76.9821 204.566 75.846 204.293 74.6103C203.978 73.1591 203.284 71.5254 202.225 69.7508L202.217 69.7756Z" fill="white"/>
<path d="M240.997 0.174736L199.279 -0.0078125L199.034 56.2666L240.752 56.4491L240.997 0.174736Z" fill="black"/>
<path d="M229.787 36.5462C228.836 33.7183 227.265 30.8988 225.098 28.1456C224.379 27.2582 223.147 25.8153 221.427 23.8665C219.715 21.926 218.053 20.0767 216.49 18.3932C214.96 16.743 213.885 15.499 213.298 14.7029C212.769 13.9815 212.421 13.318 212.256 12.6878C212.206 12.5136 212.173 12.3561 212.182 12.2068C212.182 11.8336 212.363 11.4936 212.702 11.1951C213.05 10.8882 213.513 10.8302 214.117 11.0043C214.654 11.1536 215.316 11.56 215.919 12.157C216.358 12.6131 216.862 13.2849 217.408 14.1639C217.953 15.0429 218.367 15.8308 218.632 16.5273C218.764 16.8342 218.904 17.141 219.045 17.4561C219.21 17.8127 219.359 18.0864 219.533 18.3269C219.996 18.9323 220.5 19.3552 221.038 19.5791C221.303 19.6869 221.658 19.7532 222.138 19.7864C222.725 19.8196 223.155 19.3967 223.419 18.5176C223.668 17.4976 223.94 16.6683 224.222 16.0712C224.503 15.4742 224.916 14.8688 225.437 14.2634C225.834 13.8239 226.082 13.4673 226.198 13.1605C226.281 12.9283 226.322 12.6463 226.322 12.3312C226.322 12.1736 226.314 12.0161 226.297 11.8668C226.239 11.2117 225.983 10.5648 225.536 9.94287C225.098 9.3292 224.594 8.89797 224.04 8.65748C223.287 8.34236 222.617 8.46675 222.063 9.03066C221.857 9.20481 221.617 9.46188 221.352 9.7853C221.096 10.1087 220.856 10.4156 220.633 10.7224C220.534 10.8634 220.451 10.9878 220.385 11.0956C220.319 10.9961 220.236 10.88 220.145 10.7556C218.574 8.43358 216.845 6.80819 214.993 5.89598L214.613 5.73842C211.685 4.4945 209.519 5.01694 208.179 7.29746C207.675 8.12674 207.41 9.08871 207.402 10.1668C207.394 11.2448 207.617 12.3478 208.063 13.5585C208.46 14.7693 209.114 16.0298 209.998 17.2986C210.858 18.5342 212.107 20.0435 213.728 21.785C215.158 23.344 216.796 25.1519 218.574 27.167C220.36 29.1905 221.6 30.6334 222.262 31.4627C222.882 32.2422 223.486 33.1212 224.04 34.0666C224.602 35.012 225.015 35.8247 225.264 36.4632C225.718 37.7403 225.966 38.8764 225.991 39.7887C225.933 41.4223 224.668 42.1936 222.237 42.0692C221.939 42.0443 221.666 42.0111 221.427 41.9614C221.187 41.9116 220.906 41.8287 220.583 41.7043C220.236 41.5799 219.748 41.3809 219.119 41.1072C218.268 40.7423 217.631 40.4604 217.176 40.2282C216.738 40.0043 216.267 39.7223 215.77 39.3574C214.29 38.3623 213.075 37.392 212.165 36.4632C211.255 35.5344 210.395 34.4232 209.602 33.1295C209.047 32.2505 208.651 31.4959 208.452 30.9236C208.295 30.4427 208.221 29.9783 208.221 29.5139V29.29C208.221 28.95 208.245 28.809 208.262 28.7178C208.262 28.7178 208.32 28.6846 208.51 28.6514C208.882 28.5519 209.254 28.5602 209.651 28.6763C210.106 28.8173 210.66 29.0909 211.322 29.4973C212.272 30.0612 213.075 30.6168 213.711 31.1476C214.356 31.6783 215.117 32.4164 215.969 33.3203C216.68 34.0915 217.184 34.6057 217.507 34.9042C217.879 35.2442 218.202 35.4681 218.491 35.5925C219.177 35.8827 219.756 35.8247 220.194 35.4183C220.583 35.0783 220.782 34.5393 220.782 33.8178V33.5939C220.782 32.9222 220.583 32.2671 220.17 31.6368C219.822 31.1061 219.169 30.3349 218.168 29.3066C217.11 28.1953 216.25 27.3495 215.613 26.8021C214.977 26.2465 214.191 25.6743 213.306 25.1104C212.024 24.2397 210.925 23.6094 210.032 23.2279C209.866 23.1616 209.502 23.0289 208.932 22.8299C208.312 22.6143 207.526 22.606 206.583 22.7884C204.532 22.9626 203.474 24.3309 203.449 26.8436V27.4324C203.441 28.0212 203.474 28.6265 203.557 29.2319C203.639 29.8539 203.813 30.5588 204.086 31.3383C204.541 32.6734 205.277 34.1661 206.269 35.7749C207.253 37.3672 208.32 38.7935 209.444 40.0374C211.14 41.8204 213.389 43.5868 216.126 45.2868H216.143C217.085 45.8507 218.02 46.3234 218.946 46.7131C220.732 47.4678 222.469 47.9073 224.122 47.9985C227.033 48.04 229.018 47.0366 230.018 45.0297C230.481 44.1009 230.713 42.9814 230.721 41.7126C230.721 40.2282 230.399 38.4867 229.754 36.5213L229.787 36.5462Z" fill="white"/>
</g>
<defs>
<clipPath id="clip0_186_540">
<rect width="241" height="104" fill="white"/>
</clipPath>
</defs>
</svg>
