<svg width="1280" height="184" viewBox="0 0 1280 184" fill="none" xmlns="http://www.w3.org/2000/svg">
<path d="M1195.09 0.63916L1300 40.0959V174.441H-62V2.17893L224.029 35.0999L519.921 6.18284L721.217 43.6402L876.336 10.2282L1033.25 27.5852L1195.09 0.63916Z" fill="black"/>
<path d="M1195.09 10.1985L1300 49.6552V184H-62V11.7383L225.374 39.2617L527.094 22.1317L718.079 49.6552L919.375 20.7844L1103.19 39.2617L1195.09 10.1985Z" fill="#ED0003"/>
<path d="M62.1422 42L-46 82.9109V222.207H1358V43.5965L1063.15 74.5772L758.134 47.748L550.631 86.5858L361.613 51.8541L228.977 69.9391L62.1422 42Z" fill="black"/>
<path d="M62.1422 48.3074L-46 89.2183V228.515H1358V49.9039L1061.76 78.4417L750.74 60.6804L553.866 89.2183L346.362 59.2835L156.882 78.4417L62.1422 48.3074Z" fill="#ED0003"/>
</svg>
