<svg width="70" height="71" viewBox="0 0 70 71" fill="none" xmlns="http://www.w3.org/2000/svg">
<g clip-path="url(#clip0_176_358)">
<path d="M44.9473 53.6249C33.2271 51.408 28.6108 50.4706 20.7436 46.6985C17.9054 45.3514 8.65854 40.2695 8.6731 31.3497C8.73329 27.7714 10.1304 24.9174 12.5173 23.5393C15.6918 21.7065 20.2866 22.5841 25.4469 26.0095L27.9927 27.7026L27.6451 24.6681C26.4048 13.8021 30.9313 9.93536 32.9393 8.77603C35.3804 7.36666 38.406 7.2538 41.4544 8.45334C48.8341 11.3585 52.777 20.802 50.0683 29.0789C49.4438 30.975 48.7268 32.8589 48.0315 34.6778C45.5865 41.07 43.2619 47.1368 44.9523 53.622L44.9473 53.6249Z" fill="white"/>
<path d="M33.6447 10.0091C35.7019 8.82133 38.2913 8.7372 40.933 9.77784C47.6398 12.4153 51.2034 21.0541 48.7179 28.6378C48.1066 30.5 47.3938 32.3683 46.7026 34.1717C44.5279 39.8501 42.2989 45.6846 43.1546 51.838C32.7881 49.8632 28.6052 48.8922 21.3511 45.4092C18.7121 44.1571 10.0984 39.4445 10.0978 31.3735C10.1524 28.2971 11.2963 25.8911 13.2305 24.7744C15.8783 23.2457 20.0432 24.1287 24.6627 27.197L29.7515 30.5782L29.0563 24.5094C28.2591 17.5479 29.9781 12.126 33.6496 10.0062M32.224 7.54828C27.9569 10.0118 25.2035 15.8472 26.229 24.8293C20.0634 20.731 15.1044 20.4049 11.802 22.3115C8.93272 23.9681 7.31581 27.3165 7.24989 31.3509C7.23703 39.0688 13.5448 44.8568 20.1304 47.9776C28.6821 52.0829 33.3816 52.8804 47.0646 55.4733C43.4604 46.753 48.4199 38.6465 51.4138 29.5224C54.2693 20.8064 50.3963 10.4498 41.9736 7.13621C38.5001 5.76868 35.037 5.93071 32.2268 7.5532L32.224 7.54828Z" fill="black"/>
<path d="M32.224 7.54821C35.0342 5.92573 38.4973 5.76369 41.9708 7.13122C50.3935 10.4448 54.2693 20.8063 51.411 29.5174C48.422 38.6387 43.4576 46.748 47.0618 55.4684C33.3788 52.8754 28.6793 52.0779 20.1276 47.9726C13.5498 44.8539 7.24199 39.0659 7.24993 31.3508C7.31585 27.3164 8.93276 23.9681 11.802 22.3115C15.1044 20.4048 20.0585 20.7338 26.229 24.8292C25.2036 15.8471 27.957 10.0118 32.224 7.54821ZM31.6557 6.56389C26.9507 9.28035 24.5496 15.0895 24.9169 22.6929C19.6572 19.7318 14.8589 19.2407 11.2415 21.3292C8.06217 23.1648 6.1907 26.8111 6.11851 31.3347C6.10619 38.383 11.1614 44.9794 19.6395 49.0025C28.0103 53.0219 32.7463 53.9165 45.4041 56.3139L46.8489 56.5887L48.9118 56.9792L48.1101 55.0337C45.4387 48.5768 47.8531 42.2679 50.4082 35.5889C51.1168 33.7361 51.8449 31.8261 52.4889 29.8728C53.9591 25.3952 53.7672 20.2891 51.972 15.8725C50.0905 11.2497 46.6886 7.76717 42.3834 6.07275C38.5943 4.57904 34.783 4.75179 31.6529 6.55897L31.6557 6.56389Z" fill="white"/>
</g>
<defs>
<clipPath id="clip0_176_358">
<rect width="49.6805" height="52.2946" fill="white" transform="translate(0 24.8403) rotate(-30)"/>
</clipPath>
</defs>
</svg>
